<svg xmlns="http://www.w3.org/2000/svg" width="741.248" height="132.854" viewBox="0 0 741.248 132.854">
  <g id="Group_66536" data-name="Group 66536" transform="translate(-136.104 -644.396)">
    <line id="Line_1239" data-name="Line 1239" x2="209.787" transform="translate(519.321 710.031)" fill="none" stroke="#212189" stroke-width="1.5" stroke-dasharray="5"/>
    <path id="ic_arrow_drop_down_24px" data-name="ic arrow drop down 24px" d="M724.179,718.514l8.484-8.484-8.484-8.484Z" fill="#212189"/>
    <line id="Line_1240" data-name="Line 1240" x2="182.891" transform="translate(255.217 710.031)" fill="none" stroke="#212189" stroke-width="1.5" stroke-dasharray="5"/>
    <path id="ic_arrow_drop_down_24px-2" data-name="ic arrow drop down 24px-2" d="M433.179,718.514l8.484-8.484-8.484-8.484Z" fill="#212189"/>
    <g id="Create_Course" data-name="Create Course" style="isolation: isolate">
      <g id="Group_66533" data-name="Group 66533" style="isolation: isolate">
        <path id="Path_107082" data-name="Path 107082" d="M137.034,766.38a6.65,6.65,0,0,1,2.54-2.54,7.213,7.213,0,0,1,3.61-.909,7.109,7.109,0,0,1,4.1,1.2,6.286,6.286,0,0,1,2.46,3.321h-3.22a3.344,3.344,0,0,0-1.35-1.5,3.965,3.965,0,0,0-2.01-.5,4.135,4.135,0,0,0-2.17.57,3.889,3.889,0,0,0-1.48,1.609,5.858,5.858,0,0,0,0,4.87,3.866,3.866,0,0,0,1.48,1.621,4.144,4.144,0,0,0,2.17.57,3.9,3.9,0,0,0,2.01-.51,3.4,3.4,0,0,0,1.35-1.511h3.22a6.236,6.236,0,0,1-2.45,3.33,7.129,7.129,0,0,1-4.11,1.191,7.214,7.214,0,0,1-3.61-.91,6.654,6.654,0,0,1-2.54-2.531,7.766,7.766,0,0,1,0-7.37Z" fill="#212189"/>
        <path id="Path_107083" data-name="Path 107083" d="M156.353,766.331a3.93,3.93,0,0,1,1.991-.5v2.94H157.6a2.335,2.335,0,0,0-2.659,2.78v5.52h-2.8v-11.08h2.8v1.719A3.942,3.942,0,0,1,156.353,766.331Z" fill="#212189"/>
        <path id="Path_107084" data-name="Path 107084" d="M170.443,772.371h-8.1a2.757,2.757,0,0,0,.84,1.879,2.583,2.583,0,0,0,1.82.681,2.286,2.286,0,0,0,2.22-1.341h3.02a5.04,5.04,0,0,1-1.84,2.631,5.368,5.368,0,0,1-3.34,1.029,5.786,5.786,0,0,1-2.87-.709,5,5,0,0,1-1.98-2.01,6.159,6.159,0,0,1-.71-3,6.267,6.267,0,0,1,.7-3.02,4.886,4.886,0,0,1,1.96-2,6.293,6.293,0,0,1,5.73-.02,4.779,4.779,0,0,1,1.94,1.929,5.844,5.844,0,0,1,.69,2.871A6.534,6.534,0,0,1,170.443,772.371Zm-2.82-1.88a2.218,2.218,0,0,0-.78-1.73,2.766,2.766,0,0,0-1.86-.65,2.543,2.543,0,0,0-1.75.63,2.775,2.775,0,0,0-.87,1.75Z" fill="#212189"/>
        <path id="Path_107085" data-name="Path 107085" d="M172.513,768.511a4.9,4.9,0,0,1,1.82-2,4.843,4.843,0,0,1,2.57-.7,4.521,4.521,0,0,1,2.17.5,4.4,4.4,0,0,1,1.49,1.26v-1.58h2.82v11.08h-2.82v-1.62a4.168,4.168,0,0,1-1.49,1.29,4.563,4.563,0,0,1-2.19.509,4.71,4.71,0,0,1-2.55-.719,5.03,5.03,0,0,1-1.82-2.031,6.511,6.511,0,0,1-.67-3.009A6.407,6.407,0,0,1,172.513,768.511Zm7.65,1.27a2.816,2.816,0,0,0-1.08-1.12,2.885,2.885,0,0,0-1.46-.39,2.812,2.812,0,0,0-2.51,1.49,3.483,3.483,0,0,0-.41,1.73,3.594,3.594,0,0,0,.41,1.75,2.949,2.949,0,0,0,1.08,1.15,2.74,2.74,0,0,0,1.43.4,2.885,2.885,0,0,0,1.46-.39,2.823,2.823,0,0,0,1.08-1.12,4.028,4.028,0,0,0,0-3.5Z" fill="#212189"/>
        <path id="Path_107086" data-name="Path 107086" d="M189.383,768.291v5.36a1.056,1.056,0,0,0,.27.809,1.324,1.324,0,0,0,.91.25h1.3v2.361H190.1q-3.54,0-3.54-3.441v-5.339h-1.32v-2.3h1.32V763.25h2.82v2.741h2.48v2.3Z" fill="#212189"/>
        <path id="Path_107087" data-name="Path 107087" d="M204.1,772.371H196a2.752,2.752,0,0,0,.84,1.879,2.583,2.583,0,0,0,1.82.681,2.286,2.286,0,0,0,2.22-1.341h3.02a5.04,5.04,0,0,1-1.84,2.631,5.37,5.37,0,0,1-3.34,1.029,5.783,5.783,0,0,1-2.87-.709,4.989,4.989,0,0,1-1.98-2.01,6.148,6.148,0,0,1-.71-3,6.267,6.267,0,0,1,.7-3.02,4.886,4.886,0,0,1,1.96-2,6.293,6.293,0,0,1,5.73-.02,4.785,4.785,0,0,1,1.94,1.929,5.844,5.844,0,0,1,.69,2.871A6.643,6.643,0,0,1,204.1,772.371Zm-2.82-1.88a2.221,2.221,0,0,0-.78-1.73,2.766,2.766,0,0,0-1.86-.65,2.541,2.541,0,0,0-1.75.63,2.765,2.765,0,0,0-.87,1.75Z" fill="#212189"/>
        <path id="Path_107088" data-name="Path 107088" d="M211.232,766.38a6.663,6.663,0,0,1,2.54-2.54,7.216,7.216,0,0,1,3.61-.909,7.107,7.107,0,0,1,4.1,1.2,6.275,6.275,0,0,1,2.46,3.321h-3.219a3.349,3.349,0,0,0-1.35-1.5,3.969,3.969,0,0,0-2.011-.5,4.138,4.138,0,0,0-2.17.57,3.9,3.9,0,0,0-1.48,1.609,5.869,5.869,0,0,0,0,4.87,3.873,3.873,0,0,0,1.48,1.621,4.147,4.147,0,0,0,2.17.57,3.9,3.9,0,0,0,2.011-.51,3.41,3.41,0,0,0,1.35-1.511h3.219a6.229,6.229,0,0,1-2.449,3.33,7.13,7.13,0,0,1-4.111,1.191,7.217,7.217,0,0,1-3.61-.91,6.668,6.668,0,0,1-2.54-2.531,7.773,7.773,0,0,1,0-7.37Z" fill="#212189"/>
        <path id="Path_107089" data-name="Path 107089" d="M228.382,776.541a5.1,5.1,0,0,1-2.009-2.01,6.016,6.016,0,0,1-.73-3,5.9,5.9,0,0,1,.75-3,5.222,5.222,0,0,1,2.049-2.01,6.277,6.277,0,0,1,5.8,0,5.218,5.218,0,0,1,2.05,2.01,5.9,5.9,0,0,1,.75,3,5.765,5.765,0,0,1-.77,3,5.328,5.328,0,0,1-2.08,2.01,6.051,6.051,0,0,1-2.93.709A5.838,5.838,0,0,1,228.382,776.541Zm4.31-2.1a2.681,2.681,0,0,0,1.07-1.11,3.738,3.738,0,0,0,.4-1.8,3.336,3.336,0,0,0-.83-2.43,2.733,2.733,0,0,0-2.031-.851,2.669,2.669,0,0,0-2.01.851,3.385,3.385,0,0,0-.81,2.43,3.439,3.439,0,0,0,.79,2.429,2.6,2.6,0,0,0,1.99.851A2.906,2.906,0,0,0,232.692,774.441Z" fill="#212189"/>
        <path id="Path_107090" data-name="Path 107090" d="M249.562,765.991v11.08h-2.82v-1.4a3.687,3.687,0,0,1-1.41,1.131,4.382,4.382,0,0,1-1.89.409,4.69,4.69,0,0,1-2.3-.549,3.879,3.879,0,0,1-1.57-1.62,5.351,5.351,0,0,1-.57-2.55v-6.5h2.8v6.1a2.873,2.873,0,0,0,.66,2.031,2.339,2.339,0,0,0,1.8.71,2.364,2.364,0,0,0,1.82-.71,2.873,2.873,0,0,0,.66-2.031v-6.1Z" fill="#212189"/>
        <path id="Path_107091" data-name="Path 107091" d="M256.532,766.331a3.924,3.924,0,0,1,1.99-.5v2.94h-.74a2.335,2.335,0,0,0-2.66,2.78v5.52h-2.8v-11.08h2.8v1.719A3.944,3.944,0,0,1,256.532,766.331Z" fill="#212189"/>
        <path id="Path_107092" data-name="Path 107092" d="M262.2,776.761a4.307,4.307,0,0,1-1.71-1.33,3.367,3.367,0,0,1-.691-1.86h2.821a1.531,1.531,0,0,0,.629,1.059,2.189,2.189,0,0,0,1.371.421,2.133,2.133,0,0,0,1.25-.32.969.969,0,0,0,.449-.82.864.864,0,0,0-.55-.81,10.206,10.206,0,0,0-1.75-.59,14.858,14.858,0,0,1-2.029-.62,3.539,3.539,0,0,1-1.361-.98,2.632,2.632,0,0,1-.569-1.781,2.874,2.874,0,0,1,.529-1.679,3.573,3.573,0,0,1,1.52-1.2,5.722,5.722,0,0,1,2.33-.439,4.761,4.761,0,0,1,3.161.99,3.667,3.667,0,0,1,1.3,2.67h-2.679a1.455,1.455,0,0,0-.551-1.051,2.483,2.483,0,0,0-2.48-.109.893.893,0,0,0-.41.779.917.917,0,0,0,.56.851,8.717,8.717,0,0,0,1.741.59,14.914,14.914,0,0,1,1.98.62,3.5,3.5,0,0,1,1.35.99,2.719,2.719,0,0,1,.589,1.77,2.932,2.932,0,0,1-.529,1.719,3.5,3.5,0,0,1-1.52,1.191,5.777,5.777,0,0,1-2.31.429A5.845,5.845,0,0,1,262.2,776.761Z" fill="#212189"/>
        <path id="Path_107093" data-name="Path 107093" d="M281.521,772.371h-8.1a2.757,2.757,0,0,0,.84,1.879,2.584,2.584,0,0,0,1.821.681,2.285,2.285,0,0,0,2.219-1.341h3.02a5.04,5.04,0,0,1-1.84,2.631,5.367,5.367,0,0,1-3.339,1.029,5.787,5.787,0,0,1-2.871-.709,5,5,0,0,1-1.98-2.01,6.159,6.159,0,0,1-.709-3,6.267,6.267,0,0,1,.7-3.02,4.886,4.886,0,0,1,1.96-2,6.293,6.293,0,0,1,5.73-.02,4.787,4.787,0,0,1,1.941,1.929,5.844,5.844,0,0,1,.69,2.871A6.526,6.526,0,0,1,281.521,772.371Zm-2.82-1.88a2.218,2.218,0,0,0-.78-1.73,2.764,2.764,0,0,0-1.859-.65,2.54,2.54,0,0,0-1.75.63,2.771,2.771,0,0,0-.871,1.75Z" fill="#212189"/>
      </g>
    </g>
    <g id="_01" data-name=" 01" style="isolation: isolate">
      <g id="Group_66534" data-name="Group 66534" style="isolation: isolate">
        <path id="Path_107094" data-name="Path 107094" d="M198.771,646.92q1.662-2.473,5.363-2.474t5.363,2.474a14.744,14.744,0,0,1,0,13.6q-1.663,2.473-5.363,2.475t-5.363-2.475a14.744,14.744,0,0,1,0-13.6Zm7.638,2.888a2.581,2.581,0,0,0-4.55,0,10.779,10.779,0,0,0-.55,3.888,16.259,16.259,0,0,0,.2,2.812,3.6,3.6,0,0,0,.812,1.8,2.732,2.732,0,0,0,3.625,0,3.605,3.605,0,0,0,.813-1.8,16.361,16.361,0,0,0,.2-2.812A10.8,10.8,0,0,0,206.409,649.808Z" fill="#212189"/>
        <path id="Path_107095" data-name="Path 107095" d="M212.958,648.795v-3.974h6.926v18.25h-4.45V648.795Z" fill="#212189"/>
      </g>
    </g>
    <g id="Group_66535" data-name="Group 66535">
      <path id="Path_106853" data-name="Path 106853" d="M176.834,686.962c.208-.064.174-.27.224-.413a4.769,4.769,0,0,1,4.439-3.327c.146-.008.294-.006.441-.006h50.713a4.794,4.794,0,0,1,4.923,3.523,6,6,0,0,1,.184,1.622q0,8.643-.01,17.284a1.014,1.014,0,0,0,.52,1,6.931,6.931,0,0,1,3.11,4.693,3.419,3.419,0,0,1-1,3.052c-2.585,2.793-5.182,5.575-7.858,8.281-2.482,2.51-5.025,4.955-7.6,7.362.083.218.256.134.381.135,2.5,0,5,.014,7.506,0a2.737,2.737,0,0,0,2.913-2.549,2.835,2.835,0,0,0,0-.38c.012-1.6,0-3.2,0-4.794,0-.872.34-1.31,1-1.314s1.034.445,1.037,1.292c0,1.619.01,3.239,0,4.857a4.786,4.786,0,0,1-4.626,4.941c-.1,0-.205,0-.307,0-3.237.023-6.475.006-9.714,0a.97.97,0,0,0-.861.266,10.265,10.265,0,0,1-6.145,3.275c-1.29.276-2.556.667-3.836,1-1.513.389-2.424-.54-2.029-2.074.548-2.132,1.113-4.26,1.66-6.391a4.786,4.786,0,0,1,1.188-2.114q9.386-10.053,19.4-19.484a3.357,3.357,0,0,1,2.775-1.078c.443.053.464-.132.463-.482-.011-3.175-.006-6.35-.006-9.525v-7.255a2.772,2.772,0,0,0-2.415-3.088,2.818,2.818,0,0,0-.649,0H181.94a2.766,2.766,0,0,0-3.074,2.419,2.733,2.733,0,0,0,0,.658v38.731a2.784,2.784,0,0,0,2.426,3.1,2.742,2.742,0,0,0,.695,0h24.6a5.125,5.125,0,0,1,.754.034.912.912,0,0,1,.829.889.956.956,0,0,1-.7,1.06,2.366,2.366,0,0,1-.812.069H182.12a4.828,4.828,0,0,1-5.139-3.589c-.029-.081-.048-.158-.147-.174Zm58.253,20.676a1.373,1.373,0,0,0-1.086.448c-.442.419-.866.861-1.334,1.249-.362.3-.43.487-.038.849.956.884,1.862,1.822,2.786,2.741.643.64.722,1.217.235,1.692-.471.461-1.056.372-1.7-.264-.91-.9-1.84-1.787-2.719-2.72-.358-.379-.544-.426-.957-.03-5.31,5.1-10.43,10.378-15.484,15.725a5.251,5.251,0,0,0-1.179,2.383c-.063.231.021.29.191.366a6.294,6.294,0,0,1,3.118,3.068c.073.147.1.248.305.186a5.123,5.123,0,0,0,2.25-1.043c2.118-2.012,4.281-3.976,6.408-5.979,4.486-4.225,8.74-8.678,12.909-13.213a1.824,1.824,0,0,0,.589-1.281,4.956,4.956,0,0,0-4.294-4.181Z" fill="#fe4a55"/>
      <path id="Path_106854" data-name="Path 106854" d="M198.3,707.7c0-3.11.01-6.22,0-9.33a2.834,2.834,0,0,1,1.372-2.714,2.8,2.8,0,0,1,3.03.178q7.892,4.688,15.8,9.351c2.259,1.338,2.25,3.741-.021,5.083q-7.9,4.672-15.806,9.344A2.763,2.763,0,0,1,198.3,717.1C198.308,713.959,198.3,710.833,198.3,707.7Zm2.044,0V717.1c0,1.012.431,1.256,1.306.74q7.9-4.668,15.8-9.343c.909-.539.913-1.02.019-1.549q-7.877-4.654-15.754-9.3c-.317-.187-.623-.466-1.037-.213s-.34.641-.34,1.014Q200.341,703.072,200.343,707.707Z" fill="#212189"/>
    </g>
    <g id="Fill_out_Course_information" data-name="Fill out Course information" style="isolation: isolate">
      <g id="Group_66535-2" data-name="Group 66535" style="isolation: isolate">
        <path id="Path_107096" data-name="Path 107096" d="M353.684,763.111v2.26h-5.82v3.58h4.46v2.219h-4.46v5.9h-2.8v-13.96Z" fill="#212189"/>
        <path id="Path_107097" data-name="Path 107097" d="M355.854,764.2a1.642,1.642,0,0,1,0-2.34,1.844,1.844,0,0,1,2.46,0,1.642,1.642,0,0,1,0,2.34,1.847,1.847,0,0,1-2.46,0Zm2.61,1.79v11.08h-2.8v-11.08Z" fill="#212189"/>
        <path id="Path_107098" data-name="Path 107098" d="M364.024,762.271v14.8h-2.8v-14.8Z" fill="#212189"/>
        <path id="Path_107099" data-name="Path 107099" d="M369.584,762.271v14.8h-2.8v-14.8Z" fill="#212189"/>
        <path id="Path_107100" data-name="Path 107100" d="M379.144,776.541a5.113,5.113,0,0,1-2.01-2.01,6.016,6.016,0,0,1-.73-3,5.9,5.9,0,0,1,.75-3,5.218,5.218,0,0,1,2.05-2.01,6.277,6.277,0,0,1,5.8,0,5.218,5.218,0,0,1,2.05,2.01,5.9,5.9,0,0,1,.75,3,5.775,5.775,0,0,1-.77,3,5.334,5.334,0,0,1-2.08,2.01,6.051,6.051,0,0,1-2.93.709A5.838,5.838,0,0,1,379.144,776.541Zm4.31-2.1a2.687,2.687,0,0,0,1.07-1.11,3.738,3.738,0,0,0,.4-1.8,3.336,3.336,0,0,0-.83-2.43,2.731,2.731,0,0,0-2.03-.851,2.667,2.667,0,0,0-2.01.851,3.385,3.385,0,0,0-.81,2.43,3.435,3.435,0,0,0,.79,2.429,2.6,2.6,0,0,0,1.99.851A2.909,2.909,0,0,0,383.454,774.441Z" fill="#212189"/>
        <path id="Path_107101" data-name="Path 107101" d="M400.323,765.991v11.08H397.5v-1.4a3.679,3.679,0,0,1-1.41,1.131,4.381,4.381,0,0,1-1.889.409,4.692,4.692,0,0,1-2.3-.549,3.879,3.879,0,0,1-1.57-1.62,5.363,5.363,0,0,1-.57-2.55v-6.5h2.8v6.1a2.869,2.869,0,0,0,.661,2.031,2.336,2.336,0,0,0,1.8.71,2.364,2.364,0,0,0,1.82-.71,2.873,2.873,0,0,0,.66-2.031v-6.1Z" fill="#212189"/>
        <path id="Path_107102" data-name="Path 107102" d="M406.344,768.291v5.36a1.056,1.056,0,0,0,.27.809,1.321,1.321,0,0,0,.909.25h1.3v2.361h-1.761q-3.538,0-3.54-3.441v-5.339H402.2v-2.3h1.319V763.25h2.821v2.741h2.48v2.3Z" fill="#212189"/>
        <path id="Path_107103" data-name="Path 107103" d="M415.853,766.38a6.657,6.657,0,0,1,2.54-2.54,7.213,7.213,0,0,1,3.61-.909,7.107,7.107,0,0,1,4.1,1.2,6.285,6.285,0,0,1,2.46,3.321h-3.22a3.344,3.344,0,0,0-1.35-1.5,3.965,3.965,0,0,0-2.01-.5,4.135,4.135,0,0,0-2.17.57,3.9,3.9,0,0,0-1.48,1.609,5.859,5.859,0,0,0,0,4.87,3.873,3.873,0,0,0,1.48,1.621,4.144,4.144,0,0,0,2.17.57,3.9,3.9,0,0,0,2.01-.51,3.4,3.4,0,0,0,1.35-1.511h3.22a6.23,6.23,0,0,1-2.45,3.33,7.129,7.129,0,0,1-4.11,1.191,7.214,7.214,0,0,1-3.61-.91,6.661,6.661,0,0,1-2.54-2.531,7.766,7.766,0,0,1,0-7.37Z" fill="#212189"/>
        <path id="Path_107104" data-name="Path 107104" d="M433,776.541a5.1,5.1,0,0,1-2.009-2.01,6.016,6.016,0,0,1-.73-3,5.9,5.9,0,0,1,.75-3,5.219,5.219,0,0,1,2.05-2.01,6.277,6.277,0,0,1,5.8,0,5.225,5.225,0,0,1,2.05,2.01,5.9,5.9,0,0,1,.75,3,5.775,5.775,0,0,1-.77,3,5.334,5.334,0,0,1-2.08,2.01,6.058,6.058,0,0,1-2.931.709A5.843,5.843,0,0,1,433,776.541Zm4.311-2.1a2.685,2.685,0,0,0,1.069-1.11,3.738,3.738,0,0,0,.4-1.8,3.336,3.336,0,0,0-.83-2.43,2.733,2.733,0,0,0-2.031-.851,2.667,2.667,0,0,0-2.009.851,3.385,3.385,0,0,0-.81,2.43,3.435,3.435,0,0,0,.79,2.429,2.594,2.594,0,0,0,1.989.851A2.913,2.913,0,0,0,437.313,774.441Z" fill="#212189"/>
        <path id="Path_107105" data-name="Path 107105" d="M454.182,765.991v11.08h-2.82v-1.4a3.686,3.686,0,0,1-1.41,1.131,4.382,4.382,0,0,1-1.89.409,4.688,4.688,0,0,1-2.3-.549,3.879,3.879,0,0,1-1.57-1.62,5.352,5.352,0,0,1-.57-2.55v-6.5h2.8v6.1a2.873,2.873,0,0,0,.66,2.031,2.339,2.339,0,0,0,1.8.71,2.364,2.364,0,0,0,1.82-.71,2.873,2.873,0,0,0,.66-2.031v-6.1Z" fill="#212189"/>
        <path id="Path_107106" data-name="Path 107106" d="M461.152,766.331a3.924,3.924,0,0,1,1.99-.5v2.94h-.74a2.335,2.335,0,0,0-2.659,2.78v5.52h-2.8v-11.08h2.8v1.719A3.934,3.934,0,0,1,461.152,766.331Z" fill="#212189"/>
        <path id="Path_107107" data-name="Path 107107" d="M466.822,776.761a4.314,4.314,0,0,1-1.71-1.33,3.375,3.375,0,0,1-.691-1.86h2.821a1.529,1.529,0,0,0,.63,1.059,2.186,2.186,0,0,0,1.37.421,2.131,2.131,0,0,0,1.25-.32.97.97,0,0,0,.45-.82.866.866,0,0,0-.55-.81,10.239,10.239,0,0,0-1.75-.59,14.833,14.833,0,0,1-2.03-.62,3.539,3.539,0,0,1-1.361-.98,2.637,2.637,0,0,1-.569-1.781,2.881,2.881,0,0,1,.529-1.679,3.57,3.57,0,0,1,1.521-1.2,5.719,5.719,0,0,1,2.33-.439,4.758,4.758,0,0,1,3.16.99,3.669,3.669,0,0,1,1.3,2.67h-2.68a1.451,1.451,0,0,0-.551-1.051,2.481,2.481,0,0,0-2.479-.109.893.893,0,0,0-.41.779.916.916,0,0,0,.559.851,8.74,8.74,0,0,0,1.741.59,14.866,14.866,0,0,1,1.98.62,3.492,3.492,0,0,1,1.35.99,2.714,2.714,0,0,1,.59,1.77,2.933,2.933,0,0,1-.53,1.719,3.484,3.484,0,0,1-1.52,1.191,5.77,5.77,0,0,1-2.31.429A5.849,5.849,0,0,1,466.822,776.761Z" fill="#212189"/>
        <path id="Path_107108" data-name="Path 107108" d="M486.142,772.371h-8.1a2.757,2.757,0,0,0,.84,1.879,2.584,2.584,0,0,0,1.821.681,2.285,2.285,0,0,0,2.219-1.341h3.02a5.034,5.034,0,0,1-1.84,2.631,5.368,5.368,0,0,1-3.34,1.029,5.786,5.786,0,0,1-2.87-.709,4.981,4.981,0,0,1-1.979-2.01,6.148,6.148,0,0,1-.71-3,6.267,6.267,0,0,1,.7-3.02,4.886,4.886,0,0,1,1.96-2,6.293,6.293,0,0,1,5.73-.02,4.793,4.793,0,0,1,1.941,1.929,5.843,5.843,0,0,1,.689,2.871A6.532,6.532,0,0,1,486.142,772.371Zm-2.82-1.88a2.221,2.221,0,0,0-.78-1.73,2.763,2.763,0,0,0-1.86-.65,2.543,2.543,0,0,0-1.75.63,2.765,2.765,0,0,0-.87,1.75Z" fill="#212189"/>
        <path id="Path_107109" data-name="Path 107109" d="M493.211,764.2a1.644,1.644,0,0,1,0-2.34,1.844,1.844,0,0,1,2.46,0,1.639,1.639,0,0,1,0,2.34,1.847,1.847,0,0,1-2.46,0Zm2.611,1.79v11.08h-2.8v-11.08Z" fill="#212189"/>
        <path id="Path_107110" data-name="Path 107110" d="M507.921,767.081a4.784,4.784,0,0,1,1.22,3.49v6.5h-2.8v-6.12a2.872,2.872,0,0,0-.66-2.031,2.341,2.341,0,0,0-1.8-.71,2.4,2.4,0,0,0-1.83.71,2.853,2.853,0,0,0-.67,2.031v6.12h-2.8v-11.08h2.8v1.38a3.861,3.861,0,0,1,1.43-1.13,4.414,4.414,0,0,1,1.91-.41A4.271,4.271,0,0,1,507.921,767.081Z" fill="#212189"/>
        <path id="Path_107111" data-name="Path 107111" d="M516.881,768.291h-1.939v8.78H512.1v-8.78h-1.261v-2.3H512.1v-.56a3.673,3.673,0,0,1,1.159-3,5.185,5.185,0,0,1,3.5-.9v2.36a2.077,2.077,0,0,0-1.42.34,1.7,1.7,0,0,0-.4,1.3v.46h1.939Z" fill="#212189"/>
        <path id="Path_107112" data-name="Path 107112" d="M520.741,776.541a5.1,5.1,0,0,1-2.01-2.01,6.026,6.026,0,0,1-.73-3,5.9,5.9,0,0,1,.75-3,5.218,5.218,0,0,1,2.05-2.01,6.277,6.277,0,0,1,5.8,0,5.225,5.225,0,0,1,2.05,2.01,5.9,5.9,0,0,1,.75,3,5.775,5.775,0,0,1-.77,3,5.328,5.328,0,0,1-2.08,2.01,6.054,6.054,0,0,1-2.93.709A5.837,5.837,0,0,1,520.741,776.541Zm4.31-2.1a2.687,2.687,0,0,0,1.07-1.11,3.749,3.749,0,0,0,.4-1.8,3.332,3.332,0,0,0-.83-2.43,2.733,2.733,0,0,0-2.03-.851,2.667,2.667,0,0,0-2.01.851,3.385,3.385,0,0,0-.81,2.43,3.435,3.435,0,0,0,.79,2.429,2.6,2.6,0,0,0,1.99.851A2.912,2.912,0,0,0,525.051,774.441Z" fill="#212189"/>
        <path id="Path_107113" data-name="Path 107113" d="M535.67,766.331a3.928,3.928,0,0,1,1.991-.5v2.94h-.741a2.335,2.335,0,0,0-2.659,2.78v5.52h-2.8v-11.08h2.8v1.719A3.942,3.942,0,0,1,535.67,766.331Z" fill="#212189"/>
        <path id="Path_107114" data-name="Path 107114" d="M556.591,767.081a4.721,4.721,0,0,1,1.25,3.49v6.5h-2.8v-6.12a2.77,2.77,0,0,0-.66-1.991,2.372,2.372,0,0,0-1.8-.689,2.4,2.4,0,0,0-1.81.689,2.743,2.743,0,0,0-.67,1.991v6.12h-2.8v-6.12a2.77,2.77,0,0,0-.66-1.991,2.372,2.372,0,0,0-1.8-.689,2.431,2.431,0,0,0-1.83.689,2.743,2.743,0,0,0-.67,1.991v6.12h-2.8v-11.08h2.8v1.34a3.723,3.723,0,0,1,1.39-1.1,4.326,4.326,0,0,1,1.87-.4,4.812,4.812,0,0,1,2.319.549,3.856,3.856,0,0,1,1.58,1.571,4.014,4.014,0,0,1,1.571-1.54,4.8,4.8,0,0,1,5.52.67Z" fill="#212189"/>
        <path id="Path_107115" data-name="Path 107115" d="M560.451,768.511a4.9,4.9,0,0,1,1.819-2,4.842,4.842,0,0,1,2.57-.7,4.521,4.521,0,0,1,2.17.5,4.4,4.4,0,0,1,1.49,1.26v-1.58h2.821v11.08H568.5v-1.62a4.168,4.168,0,0,1-1.49,1.29,4.559,4.559,0,0,1-2.189.509,4.71,4.71,0,0,1-2.551-.719,5.028,5.028,0,0,1-1.819-2.031,6.5,6.5,0,0,1-.67-3.009A6.4,6.4,0,0,1,560.451,768.511Zm7.649,1.27a2.816,2.816,0,0,0-1.08-1.12,2.883,2.883,0,0,0-1.46-.39,2.815,2.815,0,0,0-2.51,1.49,3.483,3.483,0,0,0-.41,1.73,3.594,3.594,0,0,0,.41,1.75,2.956,2.956,0,0,0,1.08,1.15,2.74,2.74,0,0,0,1.43.4,2.883,2.883,0,0,0,1.46-.39,2.822,2.822,0,0,0,1.08-1.12,4.028,4.028,0,0,0,0-3.5Z" fill="#212189"/>
        <path id="Path_107116" data-name="Path 107116" d="M577.321,768.291v5.36a1.06,1.06,0,0,0,.269.809,1.326,1.326,0,0,0,.91.25h1.3v2.361h-1.759q-3.542,0-3.541-3.441v-5.339h-1.32v-2.3h1.32V763.25h2.821v2.741H579.8v2.3Z" fill="#212189"/>
        <path id="Path_107117" data-name="Path 107117" d="M582.01,764.2a1.642,1.642,0,0,1,0-2.34,1.844,1.844,0,0,1,2.46,0,1.642,1.642,0,0,1,0,2.34,1.847,1.847,0,0,1-2.46,0Zm2.611,1.79v11.08h-2.8v-11.08Z" fill="#212189"/>
        <path id="Path_107118" data-name="Path 107118" d="M589.42,776.541a5.1,5.1,0,0,1-2.009-2.01,6.005,6.005,0,0,1-.731-3,5.9,5.9,0,0,1,.75-3,5.225,5.225,0,0,1,2.05-2.01,6.277,6.277,0,0,1,5.8,0,5.221,5.221,0,0,1,2.051,2.01,5.9,5.9,0,0,1,.75,3,5.766,5.766,0,0,1-.771,3,5.334,5.334,0,0,1-2.08,2.01,6.051,6.051,0,0,1-2.93.709A5.838,5.838,0,0,1,589.42,776.541Zm4.31-2.1a2.681,2.681,0,0,0,1.07-1.11,3.737,3.737,0,0,0,.4-1.8,3.34,3.34,0,0,0-.83-2.43,2.735,2.735,0,0,0-2.031-.851,2.667,2.667,0,0,0-2.009.851,3.386,3.386,0,0,0-.811,2.43,3.439,3.439,0,0,0,.79,2.429,2.6,2.6,0,0,0,1.99.851A2.906,2.906,0,0,0,593.73,774.441Z" fill="#212189"/>
        <path id="Path_107119" data-name="Path 107119" d="M609.48,767.081a4.788,4.788,0,0,1,1.22,3.49v6.5h-2.8v-6.12a2.877,2.877,0,0,0-.66-2.031,2.342,2.342,0,0,0-1.8-.71,2.4,2.4,0,0,0-1.83.71,2.853,2.853,0,0,0-.67,2.031v6.12h-2.8v-11.08h2.8v1.38a3.861,3.861,0,0,1,1.43-1.13,4.411,4.411,0,0,1,1.91-.41A4.273,4.273,0,0,1,609.48,767.081Z" fill="#212189"/>
      </g>
    </g>
    <g id="_02" data-name=" 02" style="isolation: isolate">
      <g id="Group_66536-2" data-name="Group 66536" style="isolation: isolate">
        <path id="Path_107120" data-name="Path 107120" d="M465.333,646.92q1.663-2.473,5.363-2.474t5.363,2.474a14.744,14.744,0,0,1,0,13.6Q474.4,662.994,470.7,663t-5.363-2.475a14.736,14.736,0,0,1,0-13.6Zm7.638,2.888a2.582,2.582,0,0,0-4.551,0,10.807,10.807,0,0,0-.548,3.888,16.37,16.37,0,0,0,.2,2.812,3.6,3.6,0,0,0,.812,1.8,2.732,2.732,0,0,0,3.625,0,3.6,3.6,0,0,0,.813-1.8,16.361,16.361,0,0,0,.2-2.812A10.8,10.8,0,0,0,472.971,649.808Z" fill="#212189"/>
        <path id="Path_107121" data-name="Path 107121" d="M480.6,659.021q2.449-2.027,3.861-3.325a16,16,0,0,0,2.389-2.725,4.924,4.924,0,0,0,.975-2.775,2.439,2.439,0,0,0-.475-1.6,1.976,1.976,0,0,0-2.913.137,3.288,3.288,0,0,0-.538,2.013H479.77a7.079,7.079,0,0,1,.913-3.55,5.3,5.3,0,0,1,2.274-2.1,7.191,7.191,0,0,1,3.139-.676,6.052,6.052,0,0,1,4.486,1.526,5.4,5.4,0,0,1,1.514,3.974,7.793,7.793,0,0,1-1.826,4.963,26.857,26.857,0,0,1-4.649,4.463h6.75v3.475h-12.55v-3.175Q480.67,658.971,480.6,659.021Z" fill="#212189"/>
      </g>
    </g>
    <g id="Group_66534-2" data-name="Group 66534">
      <path id="Path_106889" data-name="Path 106889" d="M473.892,733.2H451.433a5.227,5.227,0,0,1-5.6-5.61V697.2a5.2,5.2,0,0,1,3.945-5.489.513.513,0,0,0,.39-.425,5.142,5.142,0,0,1,3.718-3.725.607.607,0,0,0,.471-.507,5.177,5.177,0,0,1,5.18-3.837q22.749,0,45.5,0a5.191,5.191,0,0,1,5.371,5c.005.125,0,.25,0,.374q.011,15.458,0,30.915a5.173,5.173,0,0,1-3.848,5.172.614.614,0,0,0-.5.48,5.113,5.113,0,0,1-3.672,3.688.616.616,0,0,0-.5.484,5.186,5.186,0,0,1-5.285,3.87Q485.248,733.206,473.892,733.2Zm.1-33.326q-12.725,0-25.45-.012c-.5,0-.634.118-.633.629q.025,13.57.013,27.141a3.162,3.162,0,0,0,3.515,3.484H496.48c2.285,0,3.518-1.244,3.518-3.548q0-13.5.014-27.011c0-.57-.129-.7-.7-.7q-12.663.034-25.32.017Zm-.065-2.083h25.32c.152,0,.3-.011.455,0,.226.02.277-.073.3-.294a3.272,3.272,0,0,0-2.6-3.825,3.329,3.329,0,0,0-.857-.048H451.37A3.186,3.186,0,0,0,447.9,696.5a3.143,3.143,0,0,0,0,.606c-.01.574.135.7.7.7q12.66-.033,25.321-.015Zm32.32,24.764a3.078,3.078,0,0,0,2.082-3.191V688.845c0-2.331-1.229-3.547-3.582-3.548H459.9c-.238,0-.479-.01-.715.011a3.132,3.132,0,0,0-2.6,1.7c-.156.279-.1.4.227.37.151-.011.3,0,.455,0h43.347c3.465,0,5.625,2.169,5.625,5.647V721.79Zm-53.886-31.012h44.048c3.519,0,5.671,2.151,5.672,5.666v29.434a.312.312,0,0,0,.35-.031,3.223,3.223,0,0,0,1.738-3.1q-.015-15.23-.005-30.457c0-2.388-1.208-3.594-3.6-3.594H455.715c-.239,0-.478,0-.716.01a2.915,2.915,0,0,0-2.642,2.071Z" fill="#fe4a55"/>
      <path id="Path_106890" data-name="Path 106890" d="M473.89,721.748h-11c-1.114,0-1.437-.32-1.438-1.42V704.39c0-1.059.333-1.387,1.4-1.387h22.185c1.07,0,1.406.33,1.407,1.386v16c0,1.012-.349,1.355-1.373,1.356Q479.486,721.749,473.89,721.748Zm.065-16.663c-3.276,0-6.552.012-9.828-.012-.487,0-.6.113-.6.6q.031,6.7,0,13.407c0,.487.115.6.6.6q9.828-.027,19.657,0c.486,0,.6-.113.6-.6q-.031-6.7,0-13.407c0-.487-.114-.6-.6-.6-3.276.023-6.553.011-9.828.011Z" fill="#212189"/>
      <path id="Path_106891" data-name="Path 106891" d="M474.028,722.789H484.95a3.351,3.351,0,0,1,.584.014,1.036,1.036,0,0,1,.015,2.052,2.919,2.919,0,0,1-.584.016H462.923a4.1,4.1,0,0,1-.52-.009,1.021,1.021,0,0,1-.939-1.057,1,1,0,0,1,.924-1,3.554,3.554,0,0,1,.584-.012Z" fill="#fe4a55"/>
      <path id="Path_106892" data-name="Path 106892" d="M469.861,725.913h6.7c.152,0,.3-.005.455,0a1.046,1.046,0,0,1,1.1.985l0,.046a1.034,1.034,0,0,1-1.02,1.047l-.068,0c-.736.02-1.473.006-2.21.006h-12.09c-.807-.01-1.282-.411-1.267-1.066.015-.631.475-1.014,1.25-1.015Q466.286,725.908,469.861,725.913Z" fill="#fe4a55"/>
      <path id="Path_106893" data-name="Path 106893" d="M480.715,725.913c1.068,0,1.551.312,1.569,1.015.019.724-.492,1.069-1.582,1.069-.151,0-.3.006-.453,0a1.041,1.041,0,0,1-.051-2.081c.022,0,.043,0,.064,0C480.412,725.907,480.564,725.914,480.715,725.913Z" fill="#fe4a55"/>
      <path id="Path_106894" data-name="Path 106894" d="M452.08,695.716a1.039,1.039,0,1,1-1.035-1.043h.017A1.049,1.049,0,0,1,452.08,695.716Z" fill="#fe4a55"/>
      <path id="Path_106895" data-name="Path 106895" d="M456.246,695.725a1.039,1.039,0,1,1-1.025-1.053h.017A1.051,1.051,0,0,1,456.246,695.725Z" fill="#fe4a55"/>
      <path id="Path_106896" data-name="Path 106896" d="M460.412,695.74a1.039,1.039,0,1,1-1.01-1.067h.016A1.051,1.051,0,0,1,460.412,695.74Z" fill="#fe4a55"/>
      <path id="Path_106897" data-name="Path 106897" d="M471.676,715.5c1.647,0,3.294-.005,4.941,0,.283,0,.458-.026.548-.362a1.013,1.013,0,0,1,1.916.013c.093.353.288.353.558.347.52-.01,1.04-.016,1.56,0a1.04,1.04,0,1,1,.086,2.078.982.982,0,0,1-.109,0c-.346.013-.694.011-1.04,0-.5-.014-.923-.073-1.206.585a.951.951,0,0,1-1.714-.136c-.168-.41-.381-.456-.755-.454-3.164.013-6.328,0-9.492.011a1.25,1.25,0,0,1-1.111-.4.967.967,0,0,1-.149-1.035,1.027,1.027,0,0,1,1.026-.652Z" fill="#212189"/>
      <path id="Path_106898" data-name="Path 106898" d="M470.831,710.24c0-.976-.012-1.951,0-2.927a1.042,1.042,0,0,1,1.686-.964q2.448,1.47,4.865,2.992a1.045,1.045,0,0,1-.029,1.922q-2.393,1.5-4.812,2.955c-.915.55-1.7.089-1.711-.987C470.819,712.235,470.83,711.237,470.831,710.24Zm4.128.049c-.64-.394-1.169-.724-1.7-1.045-.118-.071-.323-.287-.333.068-.02.715-.006,1.43-.006,2.238Z" fill="#212189"/>
    </g>
    <g id="Publish_the_course" data-name="Publish the course" style="isolation: isolate">
      <g id="Group_66537" data-name="Group 66537" style="isolation: isolate">
        <path id="Path_107122" data-name="Path 107122" d="M702.684,769.531a3.9,3.9,0,0,1-1.66,1.58,6.037,6.037,0,0,1-2.85.6h-2.34v5.361h-2.8v-13.96h5.14a6.217,6.217,0,0,1,2.76.559,3.913,3.913,0,0,1,1.71,1.54,4.52,4.52,0,0,1,.04,4.321Zm-2.91-.611a1.95,1.95,0,0,0,.56-1.489q0-2.04-2.28-2.04h-2.22v4.06h2.22A2.422,2.422,0,0,0,699.774,768.92Z" fill="#212189"/>
        <path id="Path_107123" data-name="Path 107123" d="M715.654,765.991v11.08h-2.821v-1.4a3.679,3.679,0,0,1-1.41,1.131,4.381,4.381,0,0,1-1.889.409,4.685,4.685,0,0,1-2.3-.549,3.873,3.873,0,0,1-1.57-1.62,5.351,5.351,0,0,1-.571-2.55v-6.5h2.8v6.1a2.873,2.873,0,0,0,.66,2.031,2.337,2.337,0,0,0,1.8.71,2.362,2.362,0,0,0,1.819-.71,2.868,2.868,0,0,0,.66-2.031v-6.1Z" fill="#212189"/>
        <path id="Path_107124" data-name="Path 107124" d="M722.7,766.311a4.591,4.591,0,0,1,2.17-.5,4.842,4.842,0,0,1,2.57.7,4.937,4.937,0,0,1,1.82,1.989,6.413,6.413,0,0,1,.67,2.991,6.523,6.523,0,0,1-.67,3.009,5.044,5.044,0,0,1-1.82,2.031,4.743,4.743,0,0,1-2.57.719,4.6,4.6,0,0,1-2.17-.489,4.207,4.207,0,0,1-1.49-1.27v1.58h-2.8v-14.8h2.8v5.34A4.006,4.006,0,0,1,722.7,766.311Zm3.96,3.45a2.832,2.832,0,0,0-1.081-1.11,2.888,2.888,0,0,0-1.449-.38,2.8,2.8,0,0,0-1.43.39,2.878,2.878,0,0,0-1.08,1.13,3.9,3.9,0,0,0,0,3.48,2.892,2.892,0,0,0,1.08,1.13,2.821,2.821,0,0,0,2.879-.01,2.96,2.96,0,0,0,1.081-1.141,3.579,3.579,0,0,0,.41-1.759A3.483,3.483,0,0,0,726.664,769.761Z" fill="#212189"/>
        <path id="Path_107125" data-name="Path 107125" d="M734.774,762.271v14.8h-2.8v-14.8Z" fill="#212189"/>
        <path id="Path_107126" data-name="Path 107126" d="M737.723,764.2a1.644,1.644,0,0,1,0-2.34,1.844,1.844,0,0,1,2.46,0,1.642,1.642,0,0,1,0,2.34,1.847,1.847,0,0,1-2.46,0Zm2.61,1.79v11.08h-2.8v-11.08Z" fill="#212189"/>
        <path id="Path_107127" data-name="Path 107127" d="M744.894,776.761a4.307,4.307,0,0,1-1.71-1.33,3.366,3.366,0,0,1-.69-1.86h2.82a1.529,1.529,0,0,0,.63,1.059,2.184,2.184,0,0,0,1.37.421,2.133,2.133,0,0,0,1.25-.32.966.966,0,0,0,.449-.82.863.863,0,0,0-.55-.81,10.208,10.208,0,0,0-1.75-.59,14.858,14.858,0,0,1-2.029-.62,3.528,3.528,0,0,1-1.36-.98,2.633,2.633,0,0,1-.571-1.781,2.869,2.869,0,0,1,.531-1.679,3.563,3.563,0,0,1,1.519-1.2,5.722,5.722,0,0,1,2.33-.439,4.756,4.756,0,0,1,3.16.99,3.661,3.661,0,0,1,1.3,2.67h-2.679a1.457,1.457,0,0,0-.55-1.051,2.485,2.485,0,0,0-2.481-.109.892.892,0,0,0-.41.779.918.918,0,0,0,.561.851,8.7,8.7,0,0,0,1.74.59,14.752,14.752,0,0,1,1.979.62,3.5,3.5,0,0,1,1.351.99,2.719,2.719,0,0,1,.59,1.77,2.933,2.933,0,0,1-.53,1.719,3.5,3.5,0,0,1-1.52,1.191,5.775,5.775,0,0,1-2.311.429A5.847,5.847,0,0,1,744.894,776.761Z" fill="#212189"/>
        <path id="Path_107128" data-name="Path 107128" d="M762.473,766.38A3.809,3.809,0,0,1,764,768a5.564,5.564,0,0,1,.55,2.571v6.5h-2.8v-6.12a2.872,2.872,0,0,0-.66-2.031,2.341,2.341,0,0,0-1.8-.71,2.4,2.4,0,0,0-1.83.71,2.853,2.853,0,0,0-.67,2.031v6.12h-2.8v-14.8h2.8v5.1a3.65,3.65,0,0,1,1.441-1.13,4.752,4.752,0,0,1,2-.41A4.5,4.5,0,0,1,762.473,766.38Z" fill="#212189"/>
        <path id="Path_107129" data-name="Path 107129" d="M775.234,768.291v5.36a1.06,1.06,0,0,0,.269.809,1.327,1.327,0,0,0,.911.25h1.3v2.361h-1.759q-3.541,0-3.54-3.441v-5.339h-1.321v-2.3h1.321V763.25h2.82v2.741h2.479v2.3Z" fill="#212189"/>
        <path id="Path_107130" data-name="Path 107130" d="M788.212,766.38a3.811,3.811,0,0,1,1.531,1.62,5.576,5.576,0,0,1,.549,2.571v6.5h-2.8v-6.12a2.872,2.872,0,0,0-.661-2.031,2.34,2.34,0,0,0-1.8-.71,2.4,2.4,0,0,0-1.83.71,2.848,2.848,0,0,0-.67,2.031v6.12h-2.8v-14.8h2.8v5.1a3.646,3.646,0,0,1,1.44-1.13,4.759,4.759,0,0,1,2-.41A4.5,4.5,0,0,1,788.212,766.38Z" fill="#212189"/>
        <path id="Path_107131" data-name="Path 107131" d="M803.173,772.371h-8.1a2.748,2.748,0,0,0,.84,1.879,2.583,2.583,0,0,0,1.82.681,2.286,2.286,0,0,0,2.22-1.341h3.02a5.04,5.04,0,0,1-1.84,2.631,5.37,5.37,0,0,1-3.34,1.029,5.783,5.783,0,0,1-2.87-.709,4.989,4.989,0,0,1-1.98-2.01,6.148,6.148,0,0,1-.71-3,6.267,6.267,0,0,1,.7-3.02,4.887,4.887,0,0,1,1.96-2,6.293,6.293,0,0,1,5.73-.02,4.779,4.779,0,0,1,1.94,1.929,5.844,5.844,0,0,1,.69,2.871A6.64,6.64,0,0,1,803.173,772.371Zm-2.82-1.88a2.221,2.221,0,0,0-.78-1.73,2.766,2.766,0,0,0-1.86-.65,2.541,2.541,0,0,0-1.75.63,2.775,2.775,0,0,0-.87,1.75Z" fill="#212189"/>
        <path id="Path_107132" data-name="Path 107132" d="M810.033,768.521a5.005,5.005,0,0,1,1.939-2,5.61,5.61,0,0,1,2.841-.71,5.459,5.459,0,0,1,3.409,1.029,5.015,5.015,0,0,1,1.811,2.891h-3.021a2.2,2.2,0,0,0-.809-1.13,2.355,2.355,0,0,0-1.411-.41,2.308,2.308,0,0,0-1.9.87,4.673,4.673,0,0,0,0,4.92,2.308,2.308,0,0,0,1.9.87,2.124,2.124,0,0,0,2.22-1.52h3.021a5.108,5.108,0,0,1-1.821,2.86,5.358,5.358,0,0,1-3.4,1.059,5.62,5.62,0,0,1-2.841-.709,5,5,0,0,1-1.939-2,6.812,6.812,0,0,1,0-6.02Z" fill="#212189"/>
        <path id="Path_107133" data-name="Path 107133" d="M824.132,776.541a5.1,5.1,0,0,1-2.009-2.01,6.006,6.006,0,0,1-.731-3,5.9,5.9,0,0,1,.75-3,5.225,5.225,0,0,1,2.05-2.01,6.277,6.277,0,0,1,5.8,0,5.218,5.218,0,0,1,2.05,2.01,5.9,5.9,0,0,1,.75,3,5.765,5.765,0,0,1-.77,3,5.334,5.334,0,0,1-2.08,2.01,6.051,6.051,0,0,1-2.93.709A5.838,5.838,0,0,1,824.132,776.541Zm4.31-2.1a2.681,2.681,0,0,0,1.07-1.11,3.738,3.738,0,0,0,.4-1.8,3.336,3.336,0,0,0-.831-2.43,2.731,2.731,0,0,0-2.03-.851,2.667,2.667,0,0,0-2.01.851,3.385,3.385,0,0,0-.81,2.43,3.439,3.439,0,0,0,.79,2.429,2.6,2.6,0,0,0,1.99.851A2.906,2.906,0,0,0,828.442,774.441Z" fill="#212189"/>
        <path id="Path_107134" data-name="Path 107134" d="M845.312,765.991v11.08h-2.82v-1.4a3.686,3.686,0,0,1-1.41,1.131,4.385,4.385,0,0,1-1.89.409,4.687,4.687,0,0,1-2.3-.549,3.879,3.879,0,0,1-1.57-1.62,5.351,5.351,0,0,1-.571-2.55v-6.5h2.8v6.1a2.873,2.873,0,0,0,.66,2.031,2.337,2.337,0,0,0,1.8.71,2.364,2.364,0,0,0,1.82-.71,2.873,2.873,0,0,0,.66-2.031v-6.1Z" fill="#212189"/>
        <path id="Path_107135" data-name="Path 107135" d="M852.282,766.331a3.924,3.924,0,0,1,1.99-.5v2.94h-.74a2.334,2.334,0,0,0-2.659,2.78v5.52h-2.8v-11.08h2.8v1.719A3.934,3.934,0,0,1,852.282,766.331Z" fill="#212189"/>
        <path id="Path_107136" data-name="Path 107136" d="M857.952,776.761a4.314,4.314,0,0,1-1.71-1.33,3.375,3.375,0,0,1-.691-1.86h2.821A1.531,1.531,0,0,0,859,774.63a2.191,2.191,0,0,0,1.371.421,2.131,2.131,0,0,0,1.25-.32.97.97,0,0,0,.45-.82.866.866,0,0,0-.55-.81,10.235,10.235,0,0,0-1.75-.59,14.834,14.834,0,0,1-2.03-.62,3.54,3.54,0,0,1-1.361-.98,2.632,2.632,0,0,1-.569-1.781,2.881,2.881,0,0,1,.529-1.679,3.57,3.57,0,0,1,1.521-1.2,5.718,5.718,0,0,1,2.33-.439,4.758,4.758,0,0,1,3.16.99,3.668,3.668,0,0,1,1.3,2.67h-2.68a1.451,1.451,0,0,0-.551-1.051,2.481,2.481,0,0,0-2.479-.109.89.89,0,0,0-.41.779.917.917,0,0,0,.559.851,8.718,8.718,0,0,0,1.741.59,14.913,14.913,0,0,1,1.98.62,3.492,3.492,0,0,1,1.35.99,2.713,2.713,0,0,1,.589,1.77,2.932,2.932,0,0,1-.529,1.719,3.484,3.484,0,0,1-1.52,1.191,5.774,5.774,0,0,1-2.31.429A5.848,5.848,0,0,1,857.952,776.761Z" fill="#212189"/>
        <path id="Path_107137" data-name="Path 107137" d="M877.272,772.371h-8.1a2.756,2.756,0,0,0,.84,1.879,2.585,2.585,0,0,0,1.821.681,2.284,2.284,0,0,0,2.219-1.341h3.021a5.051,5.051,0,0,1-1.84,2.631,5.372,5.372,0,0,1-3.34,1.029,5.783,5.783,0,0,1-2.87-.709,4.992,4.992,0,0,1-1.981-2.01,6.158,6.158,0,0,1-.709-3,6.267,6.267,0,0,1,.7-3.02,4.887,4.887,0,0,1,1.96-2,6.291,6.291,0,0,1,5.729-.02,4.781,4.781,0,0,1,1.941,1.929,5.844,5.844,0,0,1,.69,2.871A6.64,6.64,0,0,1,877.272,772.371Zm-2.82-1.88a2.222,2.222,0,0,0-.781-1.73,2.764,2.764,0,0,0-1.859-.65,2.541,2.541,0,0,0-1.75.63,2.765,2.765,0,0,0-.87,1.75Z" fill="#212189"/>
      </g>
    </g>
    <g id="_03" data-name=" 03" style="isolation: isolate">
      <g id="Group_66538" data-name="Group 66538" style="isolation: isolate">
        <path id="Path_107138" data-name="Path 107138" d="M771.909,646.92q1.66-2.473,5.362-2.474t5.362,2.474a14.744,14.744,0,0,1,0,13.6q-1.662,2.473-5.362,2.475t-5.362-2.475a14.736,14.736,0,0,1,0-13.6Zm7.636,2.888a2.58,2.58,0,0,0-4.549,0,10.78,10.78,0,0,0-.55,3.888,16.262,16.262,0,0,0,.2,2.812,3.587,3.587,0,0,0,.812,1.8,2.732,2.732,0,0,0,3.625,0,3.6,3.6,0,0,0,.813-1.8,16.36,16.36,0,0,0,.2-2.812A10.753,10.753,0,0,0,779.545,649.808Z" fill="#212189"/>
        <path id="Path_107139" data-name="Path 107139" d="M788.446,645.846a6.535,6.535,0,0,1,4.474-1.45,7.309,7.309,0,0,1,3.213.649,4.6,4.6,0,0,1,2.712,4.3,4.129,4.129,0,0,1-2.75,4.1v.1a4.516,4.516,0,0,1,2.25,1.576,4.573,4.573,0,0,1,.825,2.825,5.214,5.214,0,0,1-.712,2.737,4.858,4.858,0,0,1-2.075,1.862,7.206,7.206,0,0,1-3.237.676,7.291,7.291,0,0,1-4.788-1.475,5.7,5.7,0,0,1-1.888-4.451h4.151a2.516,2.516,0,0,0,.625,1.739,2.291,2.291,0,0,0,1.75.636,1.991,1.991,0,0,0,1.512-.562,2.059,2.059,0,0,0,.537-1.487,1.979,1.979,0,0,0-.762-1.738,4.313,4.313,0,0,0-2.438-.537h-.8v-3.475h.8a4.228,4.228,0,0,0,2.063-.438,1.63,1.63,0,0,0,.788-1.562,1.893,1.893,0,0,0-.5-1.4,1.857,1.857,0,0,0-1.375-.5,1.707,1.707,0,0,0-1.413.574,2.571,2.571,0,0,0-.537,1.426H786.7A5.486,5.486,0,0,1,788.446,645.846Z" fill="#212189"/>
      </g>
    </g>
    <g id="Group_66533-2" data-name="Group 66533">
      <path id="Path_106899" data-name="Path 106899" d="M749.834,688.317c.177-.043.145-.213.191-.33a3.888,3.888,0,0,1,3.776-2.642h48.261a4.575,4.575,0,0,1,.818.043,1.12,1.12,0,0,1,.948,1.162,1.157,1.157,0,0,1-1.067,1.068c-.226.022-.456.008-.685.008H754.227c-1.637,0-2.113.48-2.114,2.127,0,1.623.033,3.245-.017,4.867-.021.686.129.9.871.9q13.95-.043,27.9-.018a5.371,5.371,0,0,1,.887.046,1.057,1.057,0,0,1,.927,1.1,1.111,1.111,0,0,1-1.005,1.114,6.542,6.542,0,0,1-.753.013q-14.053,0-28.107-.012c-.55,0-.72.1-.719.693q.031,15.218.015,30.437c0,1.49.538,2.03,2.016,2.03h61.354c1.5,0,2.067-.563,2.067-2.063V703.7a6.546,6.546,0,0,1,.014-.754,1.08,1.08,0,0,1,1.125-.976,1.044,1.044,0,0,1,1.087.938,4,4,0,0,1,.028.683c0,8.432-.042,16.864.026,25.295a4.112,4.112,0,0,1-3.9,4.31c-.133.006-.266.006-.4,0q-30.676-.075-61.354-.017a3.979,3.979,0,0,1-4.21-2.792c-.019-.052-.091-.084-.139-.126Z" fill="#fe4a55"/>
      <path id="Path_106900" data-name="Path 106900" d="M820.033,684.89a3.393,3.393,0,0,0-.439,1.257c-2.4,7.983-5.064,15.879-7.749,23.77A1.482,1.482,0,0,1,809.672,711c-3.576-1.151-7.153-2.3-10.719-3.485-.517-.172-.7-.1-.819.442-.27,1.214-.613,2.413-.934,3.642.234.094.336-.121.461-.258.572-.623,1.13-1.259,1.707-1.875a1.15,1.15,0,0,1,1.605-.262q.045.033.087.069a1.137,1.137,0,0,1,.1,1.6,1.065,1.065,0,0,1-.1.095q-2.587,2.883-5.2,5.738a2.52,2.52,0,0,1-.527.433,1.5,1.5,0,0,1-2.417-.973c-.789-3.3-1.583-6.6-2.346-9.914a.885.885,0,0,0-.8-.809c-2.307-.437-4.605-.92-6.907-1.39a1.614,1.614,0,0,1-1.487-1.377,1.544,1.544,0,0,1,1.063-1.649q17.832-8.8,35.666-17.589a1.327,1.327,0,0,1,1.845.334,1.424,1.424,0,0,1,.09.15Zm-7.253,3.848c-.282-.14-.46.1-.66.2q-13.06,6.42-26.111,12.858a1.121,1.121,0,0,0-.633.441c1.846.386,3.643.758,5.438,1.141.272.058.428-.106.6-.242l3.091-2.383c1.427-1.1,2.852-2.21,4.283-3.306a1.108,1.108,0,0,1,1.453-.035,1.047,1.047,0,0,1,.381,1.22,1.617,1.617,0,0,1-.65.771c-2.314,1.786-4.621,3.579-6.945,5.35a.677.677,0,0,0-.306.839c.6,2.381,1.149,4.773,1.722,7.185a.846.846,0,0,0,.235-.51c.539-2.073,1.1-4.139,1.615-6.219a4.336,4.336,0,0,1,1.217-2.159q5.314-5.2,10.579-10.457c1.566-1.56,3.194-3.058,4.671-4.706l.1-.093c-.019-.007-.042-.024-.057-.019-.065.024-.077.068-.026.124Zm3.391-.033c-.139.115-.286.219-.413.345q-8.042,7.95-16.076,15.9c-.094.092-.225.164-.217.357,3.258,1.054,6.533,2.1,9.793,3.182.545.182.667.034.821-.458.858-2.737,1.765-5.459,2.642-8.19q1.776-5.526,3.534-11.059c.056-.063.09-.127.015-.2Z" fill="#212189"/>
      <path id="Path_106901" data-name="Path 106901" d="M779.579,727.643a11.282,11.282,0,0,1-9.316-5.347,40.824,40.824,0,0,1-2.625-5.323,13.73,13.73,0,0,0-3.31-4.806,1.123,1.123,0,0,1-.174-1.58.858.858,0,0,1,.056-.065,1.109,1.109,0,0,1,1.566-.1.905.905,0,0,1,.084.081,13.28,13.28,0,0,1,3.3,4.408c.75,1.532,1.44,3.094,2.165,4.639a9.508,9.508,0,0,0,6.245,5.509,8.253,8.253,0,0,0,6.511-.991,17.01,17.01,0,0,0,5.213-4.872,3.181,3.181,0,0,1,.472-.582,1.026,1.026,0,0,1,1.38-.05,1.051,1.051,0,0,1,.381,1.332.823.823,0,0,1-.092.183c-2.378,3.381-5.252,6.122-9.379,7.234a7.639,7.639,0,0,1-1.005.2C780.595,727.573,780.138,727.6,779.579,727.643Z" fill="#fe4a55"/>
      <path id="Path_106902" data-name="Path 106902" d="M757.009,707.088a20.021,20.021,0,0,1,4.724,1.045c.826.3,1.178.893.941,1.549s-.874.88-1.714.584a21.963,21.963,0,0,0-4.329-.951c-.827-.114-1.263-.607-1.174-1.293C755.544,707.366,756.063,707.017,757.009,707.088Z" fill="#fe4a55"/>
      <path id="Path_106903" data-name="Path 106903" d="M762.913,692.989a1.412,1.412,0,0,1-.092-2.822l.044,0a1.428,1.428,0,0,1,1.444,1.412v.014A1.415,1.415,0,0,1,762.913,692.989Z" fill="#fe4a55"/>
      <path id="Path_106904" data-name="Path 106904" d="M757.287,692.989a1.413,1.413,0,1,1,1.44-1.412A1.428,1.428,0,0,1,757.287,692.989Z" fill="#fe4a55"/>
      <path id="Path_106905" data-name="Path 106905" d="M769.883,691.6a1.38,1.38,0,0,1-1.364,1.4c-.029,0-.058,0-.087,0a1.383,1.383,0,0,1-1.357-1.408v-.011a1.4,1.4,0,0,1,1.4-1.4h.052A1.4,1.4,0,0,1,769.883,691.6Z" fill="#fe4a55"/>
    </g>
  </g>
</svg>
