<svg xmlns="http://www.w3.org/2000/svg" width="320.007" height="259.182" viewBox="0 0 320.007 259.182">
  <g id="Group_66472" data-name="Group 66472" transform="translate(-1747.539 -660.56)">
    <g id="Group_66464" data-name="Group 66464" transform="translate(1747.539 660.56)">
      <path id="Path_106936" data-name="Path 106936" d="M2913.1,1605.2a.51.51,0,0,0-.7-.18l-1.694,1-1-1.694a.51.51,0,1,0-.879.519l1,1.694-1.694,1a.51.51,0,1,0,.519.879l1.694-1,1,1.694a.511.511,0,0,0,.539.241.5.5,0,0,0,.16-.061.51.51,0,0,0,.18-.7l-1-1.694,1.694-1A.51.51,0,0,0,2913.1,1605.2Z" transform="translate(-2661.151 -1403.445)" fill="#222189"/>
      <path id="Path_106937" data-name="Path 106937" d="M2944.38,1645.624a2.223,2.223,0,1,1,2.223-2.223A2.226,2.226,0,0,1,2944.38,1645.624Zm0-3.258a1.035,1.035,0,1,0,1.035,1.035A1.036,1.036,0,0,0,2944.38,1642.366Z" transform="translate(-2688.134 -1432.66)" fill="#fe4a55"/>
      <path id="Path_106938" data-name="Path 106938" d="M1888.146,1799.1a2.223,2.223,0,1,1,2.223-2.223A2.226,2.226,0,0,1,1888.146,1799.1Zm0-3.258a1.035,1.035,0,1,0,1.035,1.035A1.036,1.036,0,0,0,1888.146,1795.845Z" transform="translate(-1856.497 -1553.503)" fill="#222189"/>
      <path id="Path_106939" data-name="Path 106939" d="M3046.189,674.568a2.223,2.223,0,1,1,2.223-2.223A2.226,2.226,0,0,1,3046.189,674.568Zm0-3.258a1.035,1.035,0,1,0,1.035,1.035A1.036,1.036,0,0,0,3046.189,671.309Z" transform="translate(-2768.294 -668.088)" fill="#fe4a55"/>
      <path id="Path_106940" data-name="Path 106940" d="M3228.14,955.689a.51.51,0,0,0-.235.682l.862,1.769L3227,959a.511.511,0,0,0,.447.918l1.769-.862.861,1.769a.51.51,0,1,0,.917-.447l-.862-1.769,1.769-.862a.511.511,0,0,0,.283-.517.5.5,0,0,0-.048-.165.511.511,0,0,0-.682-.235l-1.769.862-.862-1.769A.511.511,0,0,0,3228.14,955.689Z" transform="translate(-2912.179 -892.892)" fill="#222189"/>
      <path id="Path_106941" data-name="Path 106941" d="M3074.11,1138.432a2.223,2.223,0,1,1,2.223-2.223A2.226,2.226,0,0,1,3074.11,1138.432Zm0-3.258a1.035,1.035,0,1,0,1.035,1.035A1.036,1.036,0,0,0,3074.11,1135.174Z" transform="translate(-2790.278 -1033.317)" fill="#fe4a55"/>
      <path id="Path_106942" data-name="Path 106942" d="M1747.812,1300.178a.51.51,0,0,0-.023.721l1.346,1.435-1.435,1.346a.51.51,0,1,0,.7.745l1.435-1.346,1.346,1.435a.51.51,0,1,0,.744-.7l-1.346-1.435,1.435-1.346a.51.51,0,0,0-.7-.744l-1.435,1.346-1.346-1.435A.511.511,0,0,0,1747.812,1300.178Z" transform="translate(-1747.539 -1164.061)" fill="#222189"/>
      <path id="Path_106943" data-name="Path 106943" d="M1843.634,1399.2a2.223,2.223,0,1,1,2.223-2.223A2.226,2.226,0,0,1,1843.634,1399.2Zm0-3.258a1.035,1.035,0,1,0,1.035,1.035A1.036,1.036,0,0,0,1843.634,1395.944Z" transform="translate(-1821.45 -1238.637)" fill="#fe4a55"/>
      <g id="Group_66463" data-name="Group 66463" transform="translate(3.172 0)">
        <g id="Group_66461" data-name="Group 66461" transform="translate(0 121.873)">
          <path id="Path_106944" data-name="Path 106944" d="M1819.751,1342.293a.453.453,0,0,1-.025-.9c1.492-.084,3-.233,4.489-.443a.453.453,0,0,1,.126.9c-1.512.213-3.048.365-4.565.45Zm-6.365-.02h-.029c-1.52-.1-3.055-.257-4.561-.481a.452.452,0,1,1,.133-.895c1.481.22,2.99.379,4.484.473a.452.452,0,0,1-.028.9Zm17.133-1.682a.453.453,0,0,1-.115-.89c1.45-.381,2.9-.827,4.31-1.327a.453.453,0,1,1,.3.853c-1.433.508-2.908.962-4.383,1.349A.446.446,0,0,1,1830.52,1340.592Zm-27.889-.1a.455.455,0,0,1-.12-.016c-1.469-.4-2.939-.87-4.37-1.395a.452.452,0,1,1,.311-.85c1.407.516,2.852.977,4.3,1.371a.453.453,0,0,1-.119.889Zm38.1-3.714a.452.452,0,0,1-.2-.858c1.342-.665,2.672-1.395,3.952-2.171a.453.453,0,0,1,.469.774c-1.3.789-2.654,1.532-4.019,2.208A.449.449,0,0,1,1840.728,1336.774Zm-48.269-.209a.454.454,0,0,1-.2-.049c-1.358-.688-2.7-1.443-4-2.244a.453.453,0,0,1,.476-.77c1.275.788,2.6,1.53,3.934,2.207a.452.452,0,0,1-.2.856Zm57.49-5.594a.453.453,0,0,1-.279-.809c1.179-.922,2.334-1.906,3.432-2.926a.453.453,0,0,1,.616.663c-1.116,1.036-2.291,2.037-3.49,2.975A.451.451,0,0,1,1849.948,1330.971Zm-66.666-.289a.451.451,0,0,1-.281-.1c-1.194-.947-2.361-1.956-3.47-3a.453.453,0,0,1,.62-.659c1.091,1.026,2.239,2.018,3.412,2.949a.453.453,0,0,1-.281.807Zm74.528-7.259a.453.453,0,0,1-.344-.746c.97-1.141,1.9-2.337,2.775-3.556a.452.452,0,0,1,.736.526c-.886,1.239-1.835,2.455-2.822,3.615A.452.452,0,0,1,1857.81,1323.423Zm-82.338-.341a.451.451,0,0,1-.347-.162c-.979-1.168-1.92-2.391-2.8-3.636a.453.453,0,0,1,.74-.521c.861,1.224,1.786,2.427,2.749,3.575a.452.452,0,0,1-.347.743Zm88.529-8.631a.452.452,0,0,1-.4-.671c.722-1.312,1.4-2.672,2.007-4.039a.453.453,0,1,1,.827.368c-.62,1.391-1.307,2.773-2.041,4.107A.452.452,0,0,1,1864,1314.451Zm-94.647-.389a.452.452,0,0,1-.4-.238c-.722-1.341-1.4-2.729-2-4.127a.452.452,0,1,1,.83-.36c.6,1.374,1.258,2.739,1.968,4.057a.453.453,0,0,1-.4.667Zm98.915-9.643a.453.453,0,0,1-.432-.587c.444-1.431.832-2.9,1.153-4.36a.452.452,0,1,1,.884.194c-.326,1.487-.721,2.979-1.172,4.434A.452.452,0,0,1,1868.269,1304.419Zm-103.081-.428a.452.452,0,0,1-.433-.323c-.435-1.455-.815-2.95-1.128-4.444a.452.452,0,0,1,.886-.186c.309,1.469.682,2.94,1.11,4.371a.453.453,0,0,1-.434.583Zm105.237-10.26-.045,0a.453.453,0,0,1-.407-.494c.145-1.489.227-3,.245-4.5a.452.452,0,1,1,.9.011c-.018,1.523-.1,3.064-.249,4.579A.453.453,0,0,1,1870.424,1293.73Zm-107.3-.444a.453.453,0,0,1-.45-.412c-.137-1.519-.211-3.06-.22-4.582a.452.452,0,0,1,.45-.455h0a.453.453,0,0,1,.452.45c.009,1.5.082,3.012.217,4.506a.453.453,0,0,1-.41.492Zm107.244-10.457a.453.453,0,0,1-.449-.4c-.159-1.485-.383-2.986-.666-4.462l-.011-.057a.452.452,0,1,1,.888-.172l.011.059c.288,1.5.516,3.026.677,4.537a.452.452,0,0,1-.4.5A.407.407,0,0,1,1870.368,1282.829Zm-107.119-.448a.459.459,0,0,1-.052,0,.452.452,0,0,1-.4-.5c.172-1.513.412-3.038.712-4.531a.452.452,0,0,1,.887.178c-.3,1.469-.531,2.967-.7,4.455A.453.453,0,0,1,1763.25,1282.382Zm104.867-10.278a.453.453,0,0,1-.431-.316c-.454-1.429-.974-2.854-1.547-4.236a.453.453,0,0,1,.836-.346c.582,1.405,1.111,2.855,1.573,4.308a.453.453,0,0,1-.431.59Zm-102.537-.373a.453.453,0,0,1-.43-.594c.475-1.446,1.018-2.891,1.614-4.293a.452.452,0,1,1,.833.354c-.586,1.379-1.12,2.8-1.587,4.222A.453.453,0,0,1,1765.58,1271.731Zm98.2-9.625a.452.452,0,0,1-.395-.231c-.733-1.305-1.531-2.6-2.373-3.834a.453.453,0,0,1,.749-.509c.855,1.26,1.667,2.572,2.413,3.9a.453.453,0,0,1-.394.674Zm-93.767-.336a.453.453,0,0,1-.392-.677c.756-1.322,1.577-2.628,2.442-3.882a.453.453,0,0,1,.745.514c-.85,1.233-1.658,2.518-2.4,3.818A.452.452,0,0,1,1770.009,1261.77Zm87.494-8.573a.452.452,0,0,1-.342-.156c-.981-1.13-2.024-2.233-3.1-3.277a.453.453,0,1,1,.631-.649c1.093,1.062,2.153,2.183,3.151,3.332a.453.453,0,0,1-.342.749Zm-81.159-.3a.453.453,0,0,1-.34-.751c1.006-1.145,2.072-2.26,3.17-3.315a.453.453,0,1,1,.627.652c-1.079,1.038-2.128,2.134-3.117,3.26A.452.452,0,0,1,1776.345,1252.9Zm73.217-7.168a.452.452,0,0,1-.275-.093c-1.189-.911-2.432-1.782-3.693-2.59a.452.452,0,1,1,.488-.762c1.282.821,2.546,1.707,3.755,2.633a.452.452,0,0,1-.275.812Zm-65.233-.25a.453.453,0,0,1-.273-.813c1.215-.919,2.484-1.8,3.773-2.608a.452.452,0,1,1,.482.766c-1.266.8-2.514,1.661-3.709,2.564A.451.451,0,0,1,1784.328,1245.483Zm55.956-5.474a.453.453,0,0,1-.2-.046c-1.348-.655-2.74-1.259-4.137-1.8a.453.453,0,0,1,.325-.845c1.421.547,2.836,1.162,4.207,1.828a.453.453,0,0,1-.2.86Zm-46.637-.18a.453.453,0,0,1-.194-.861c1.375-.653,2.8-1.255,4.223-1.789a.453.453,0,1,1,.318.848c-1.4.525-2.8,1.117-4.152,1.759A.449.449,0,0,1,1793.647,1239.83Zm36.4-3.567a.458.458,0,0,1-.112-.014c-1.452-.37-2.937-.681-4.414-.926a.452.452,0,0,1,.148-.893c1.5.249,3.013.566,4.489.942a.452.452,0,0,1-.111.891Zm-26.13-.084a.453.453,0,0,1-.107-.892c.9-.221,1.819-.421,2.733-.6.583-.112,1.177-.216,1.764-.309a.453.453,0,0,1,.142.894c-.577.092-1.16.194-1.734.3-.9.173-1.8.37-2.688.587A.468.468,0,0,1,1803.916,1236.179Zm15.344-1.515h-.021c-.793-.036-1.6-.054-2.389-.054-.7,0-1.417.014-2.121.042a.453.453,0,0,1-.036-.9c.716-.028,1.442-.043,2.157-.043.806,0,1.623.019,2.43.055a.453.453,0,0,1-.02.9Z" transform="translate(-1762.454 -1233.705)" fill="#fe4a55"/>
        </g>
        <g id="Group_66462" data-name="Group 66462" transform="translate(119.199)">
          <path id="Path_106945" data-name="Path 106945" d="M2423.784,849.913q-.39.025-.781.047a.453.453,0,0,1-.055-.9h0c1.479-.084,2.977-.2,4.454-.357a.453.453,0,1,1,.094.9C2426.268,849.728,2425.018,849.833,2423.784,849.913Zm-7.057.193h-.034c-1.5-.015-3.014-.066-4.507-.152a.453.453,0,0,1,.052-.9c1.479.086,2.981.137,4.464.151a.453.453,0,0,1,.025.9Zm16.981-1.358a.453.453,0,0,1-.1-.9c1.464-.25,2.939-.537,4.384-.854a.453.453,0,0,1,.194.884c-1.459.32-2.948.611-4.426.863Zm-27.722.634a.453.453,0,0,1-.086,0c-1.486-.186-2.987-.411-4.46-.668a.453.453,0,1,1,.156-.892c1.459.255,2.945.477,4.417.662a.453.453,0,0,1-.027.9Zm38.215-3.042a.453.453,0,0,1-.155-.886c1.424-.413,2.857-.867,4.258-1.347a.452.452,0,0,1,.294.856c-1.415.485-2.862.943-4.3,1.36A.461.461,0,0,1,2444.2,846.34Zm-48.812,1.088a.451.451,0,0,1-.137-.012c-1.455-.356-2.922-.753-4.361-1.179a.452.452,0,1,1,.257-.868c1.425.422,2.878.815,4.32,1.168a.453.453,0,0,1-.079.891Zm58.963-4.678a.452.452,0,0,1-.2-.869c1.367-.574,2.739-1.189,4.076-1.827a.452.452,0,0,1,.39.817c-1.35.644-2.734,1.265-4.115,1.845A.453.453,0,0,1,2454.351,842.75Zm-69.271,1.518a.45.45,0,0,1-.186-.027c-1.4-.52-2.815-1.082-4.2-1.67a.453.453,0,0,1,.355-.833c1.366.582,2.764,1.138,4.155,1.654a.453.453,0,0,1-.129.876Zm78.934-6.245a.452.452,0,0,1-.251-.846c1.289-.725,2.578-1.492,3.832-2.278a.452.452,0,0,1,.481.767c-1.266.794-2.568,1.568-3.869,2.3A.45.45,0,0,1,2464.015,838.023Zm-88.808,1.928a.451.451,0,0,1-.233-.048c-1.336-.678-2.674-1.4-3.976-2.136a.453.453,0,0,1,.448-.787c1.289.733,2.614,1.444,3.937,2.116a.453.453,0,0,1-.176.855Zm97.862-7.729a.453.453,0,0,1-.3-.818c1.2-.869,2.393-1.778,3.549-2.7a.453.453,0,0,1,.565.707c-1.167.934-2.373,1.852-3.583,2.729A.45.45,0,0,1,2473.068,832.223Zm-107.176,2.318a.449.449,0,0,1-.278-.074c-1.25-.825-2.5-1.69-3.706-2.572a.453.453,0,0,1,.534-.731c1.2.873,2.432,1.731,3.67,2.548a.453.453,0,0,1-.22.829Zm115.513-9.117a.453.453,0,0,1-.335-.785c1.093-1,2.176-2.039,3.221-3.091a.452.452,0,1,1,.642.638c-1.054,1.061-2.149,2.111-3.252,3.121A.448.448,0,0,1,2481.405,825.424Zm-124.151,2.688a.451.451,0,0,1-.32-.1c-1.148-.96-2.288-1.961-3.389-2.974a.452.452,0,1,1,.613-.666c1.091,1,2.22,1.995,3.356,2.945a.453.453,0,0,1-.261.8Zm131.665-10.394a.452.452,0,0,1-.37-.749c.973-1.118,1.932-2.275,2.851-3.438a.453.453,0,1,1,.71.561c-.928,1.174-1.9,2.342-2.878,3.471A.452.452,0,0,1,2488.919,817.718ZM2349.4,820.747a.451.451,0,0,1-.357-.14c-1.031-1.084-2.05-2.206-3.028-3.337a.453.453,0,0,1,.685-.592c.969,1.12,1.978,2.232,3,3.306a.452.452,0,0,1-.3.763Zm146.111-11.541a.453.453,0,0,1-.4-.708c.841-1.222,1.663-2.481,2.444-3.741a.453.453,0,1,1,.769.477c-.789,1.272-1.619,2.542-2.468,3.776A.451.451,0,0,1,2495.514,809.207Zm-153.072,3.336a.452.452,0,0,1-.391-.179c-.9-1.193-1.783-2.423-2.626-3.658a.453.453,0,0,1,.748-.51c.835,1.223,1.71,2.442,2.6,3.623a.453.453,0,0,1-.332.724ZM2501.1,800a.453.453,0,0,1-.428-.664c.7-1.311,1.371-2.656,2-4a.453.453,0,0,1,.819.387c-.639,1.353-1.32,2.71-2.024,4.034A.453.453,0,0,1,2501.1,800Zm-164.637,3.6a.453.453,0,0,1-.42-.222c-.757-1.287-1.494-2.609-2.189-3.931a.453.453,0,1,1,.8-.421c.688,1.309,1.418,2.619,2.168,3.893a.453.453,0,0,1-.16.62A.457.457,0,0,1,2336.466,803.6Zm169.145-13.39a.448.448,0,0,1-.194-.03.452.452,0,0,1-.256-.587c.543-1.383,1.06-2.8,1.536-4.2a.453.453,0,1,1,.857.291c-.48,1.418-1,2.845-1.551,4.242A.453.453,0,0,1,2505.611,790.213Zm-174.06,3.822a.452.452,0,0,1-.443-.268c-.606-1.368-1.187-2.77-1.728-4.166a.452.452,0,0,1,.844-.327c.535,1.383,1.111,2.771,1.711,4.126a.452.452,0,0,1-.385.635Zm177.422-14.063a.453.453,0,0,1-.467-.568c.382-1.437.733-2.9,1.044-4.352a.452.452,0,0,1,.885.19c-.315,1.465-.669,2.944-1.054,4.394A.454.454,0,0,1,2508.972,779.971Zm-181.21,3.986a.452.452,0,0,1-.461-.317c-.445-1.428-.862-2.887-1.239-4.336a.453.453,0,1,1,.876-.228c.373,1.435.786,2.88,1.226,4.294a.452.452,0,0,1-.4.586Zm183.372-14.542a.445.445,0,0,1-.094,0,.453.453,0,0,1-.383-.513c.213-1.466.394-2.958.537-4.434a.452.452,0,1,1,.9.087c-.145,1.49-.327,3-.542,4.477A.453.453,0,0,1,2511.135,769.414Zm-185.983,4.1a.452.452,0,0,1-.473-.367c-.28-1.468-.528-2.965-.74-4.449a.453.453,0,0,1,.9-.127c.209,1.47.456,2.953.732,4.407a.452.452,0,0,1-.36.529A.427.427,0,0,1,2325.151,773.513Zm186.918-14.824h-.043a.453.453,0,0,1-.439-.466c.044-1.481.052-2.984.026-4.466a.453.453,0,0,1,.905-.016c.027,1.5.018,3.014-.026,4.509A.453.453,0,0,1,2512.07,758.689Zm-188.334,4.148a.453.453,0,0,1-.48-.417q-.04-.529-.074-1.057c-.074-1.143-.128-2.3-.16-3.446a.453.453,0,1,1,.9-.026c.032,1.133.086,2.281.159,3.414q.034.523.074,1.047a.453.453,0,0,1-.417.485Zm188.038-14.911a.453.453,0,0,1-.48-.414c-.125-1.474-.286-2.969-.48-4.442l-.019-.143a.452.452,0,1,1,.9-.119l.019.145c.2,1.486.359,2.995.485,4.484a.453.453,0,0,1-.413.489Zm-188.241,4.146h-.047a.453.453,0,0,1-.435-.469c.057-1.5.151-3.01.28-4.5a.452.452,0,1,1,.9.078c-.127,1.476-.22,2.976-.277,4.458A.452.452,0,0,1,2323.532,752.073Zm186.7-14.951a.452.452,0,0,1-.472-.363c-.292-1.454-.623-2.92-.983-4.357a.453.453,0,0,1,.878-.22c.364,1.451.7,2.931.992,4.4a.452.452,0,0,1-.415.541Zm-185.677,4.234a.453.453,0,0,1-.477-.521c.229-1.483.5-2.98.8-4.45a.453.453,0,0,1,.887.181c-.3,1.456-.563,2.939-.79,4.407A.453.453,0,0,1,2324.56,741.356Zm182.96-14.651a.453.453,0,0,1-.459-.313c-.455-1.411-.951-2.83-1.473-4.216a.452.452,0,1,1,.847-.319c.527,1.4,1.028,2.833,1.488,4.257a.453.453,0,0,1-.4.591Zm-180.7,4.1a.453.453,0,0,1-.466-.572c.4-1.445.836-2.9,1.3-4.326a.453.453,0,1,1,.86.281c-.462,1.412-.9,2.853-1.29,4.284A.454.454,0,0,1,2326.817,730.809Zm176.814-14.143a.452.452,0,0,1-.441-.264c-.615-1.349-1.27-2.7-1.948-4.02a.453.453,0,0,1,.8-.414c.685,1.33,1.346,2.7,1.967,4.058a.452.452,0,0,1-.383.639Zm-173.363,3.93a.453.453,0,0,1-.449-.621c.56-1.389,1.162-2.784,1.787-4.146a.452.452,0,1,1,.822.378c-.62,1.349-1.216,2.731-1.77,4.106A.453.453,0,0,1,2330.267,720.6Zm168.35-13.45a.452.452,0,0,1-.417-.218c-.763-1.267-1.568-2.533-2.391-3.763a.453.453,0,1,1,.752-.5c.832,1.242,1.644,2.52,2.415,3.8a.453.453,0,0,1-.358.685Zm-163.757,3.7a.453.453,0,0,1-.426-.668c.714-1.315,1.47-2.632,2.246-3.913a.453.453,0,0,1,.774.469c-.769,1.269-1.518,2.573-2.225,3.876A.453.453,0,0,1,2334.86,710.85Zm157.689-12.581a.452.452,0,0,1-.388-.175c-.9-1.173-1.849-2.34-2.808-3.468a.452.452,0,1,1,.69-.586c.968,1.139,1.921,2.317,2.835,3.5a.453.453,0,0,1-.329.728Zm-152.02,3.422a.452.452,0,0,1-.4-.711c.859-1.226,1.759-2.448,2.675-3.632a.452.452,0,0,1,.716.554c-.907,1.173-1.8,2.383-2.649,3.6A.453.453,0,0,1,2340.53,701.691Zm144.975-11.556a.451.451,0,0,1-.354-.136c-1.032-1.063-2.1-2.116-3.185-3.129a.452.452,0,1,1,.619-.66c1.092,1.023,2.174,2.085,3.216,3.159a.453.453,0,0,1-.3.767Zm-138.306,3.1a.452.452,0,0,1-.368-.751c.992-1.12,2.024-2.232,3.067-3.3a.453.453,0,0,1,.648.631c-1.033,1.062-2.056,2.162-3.038,3.272A.451.451,0,0,1,2347.2,693.237Zm130.381-10.386a.451.451,0,0,1-.316-.1c-1.146-.939-2.331-1.864-3.521-2.749a.453.453,0,0,1,.54-.726c1.2.893,2.4,1.827,3.554,2.775a.453.453,0,0,1-.258.8Zm-122.8,2.746a.453.453,0,0,1-.332-.788c1.112-1,2.263-1.987,3.421-2.932a.452.452,0,0,1,.572.7c-1.147.937-2.287,1.914-3.388,2.9A.451.451,0,0,1,2354.781,685.6Zm114.1-9.087a.451.451,0,0,1-.274-.071c-1.246-.8-2.529-1.589-3.812-2.333a.453.453,0,0,1,.454-.783c1.3.751,2.59,1.544,3.848,2.355a.453.453,0,0,1-.217.832Zm-105.7,2.361a.452.452,0,0,1-.292-.82c1.218-.867,2.473-1.715,3.73-2.522a.452.452,0,1,1,.489.762c-1.245.8-2.488,1.639-3.694,2.5A.451.451,0,0,1,2363.177,678.871Zm96.331-7.677a.451.451,0,0,1-.229-.046c-1.33-.657-2.694-1.292-4.054-1.885a.452.452,0,1,1,.362-.829c1.374.6,2.751,1.24,4.093,1.9a.453.453,0,0,1-.172.857Zm-87.227,1.957a.453.453,0,0,1-.248-.848c1.311-.722,2.657-1.423,4-2.081a.453.453,0,1,1,.4.813c-1.331.652-2.664,1.346-3.963,2.061A.446.446,0,0,1,2372.281,673.151Zm77.31-6.172a.457.457,0,0,1-.182-.026c-1.4-.5-2.826-.976-4.245-1.411a.453.453,0,0,1,.265-.865c1.433.438,2.875.918,4.287,1.424a.453.453,0,0,1-.124.878Zm-67.6,1.527a.453.453,0,0,1-.2-.87c1.384-.567,2.8-1.107,4.213-1.608a.453.453,0,0,1,.3.853c-1.4.5-2.8,1.031-4.173,1.592A.45.45,0,0,1,2381.994,668.506Zm57.258-4.582a.451.451,0,0,1-.132-.011c-1.447-.338-2.922-.646-4.383-.914a.453.453,0,0,1,.164-.89c1.475.271,2.964.582,4.425.923a.453.453,0,0,1-.074.892Zm-47.078,1.083a.453.453,0,0,1-.151-.888c1.439-.4,2.909-.779,4.369-1.115a.453.453,0,1,1,.2.882c-1.446.333-2.9.7-4.328,1.1A.447.447,0,0,1,2392.175,665.006Zm36.461-2.928a.456.456,0,0,1-.082,0c-1.472-.169-2.969-.305-4.448-.4a.452.452,0,1,1,.06-.9c1.494.1,3.005.237,4.491.408a.453.453,0,0,1-.022.9Zm-25.948.612a.453.453,0,0,1-.1-.9c.921-.149,1.858-.286,2.787-.409.559-.074,1.124-.143,1.682-.207a.453.453,0,1,1,.1.9c-.552.063-1.113.132-1.666.2-.919.121-1.848.257-2.76.4Zm15.2-1.226h-.03c-1.48,0-2.982.036-4.465.107a.452.452,0,0,1-.051-.9h.008c1.5-.071,3.013-.108,4.508-.108a.453.453,0,0,1,.03.9Z" transform="translate(-2323.02 -660.56)" fill="#fe4a55"/>
        </g>
      </g>
    </g>
    <g id="Group_66467" data-name="Group 66467" transform="translate(1831.029 673.559)">
      <g id="Group_66465" data-name="Group 66465" transform="translate(0)">
        <path id="Path_106946" data-name="Path 106946" d="M2288.787,764.957V920.64h-.409l-11.787-11.469L2264.8,920.64h-1.228L2251.79,909.17,2240,920.64h-1.211l-11.767-11.448-11.766,11.448h-1.2l-11.779-11.461-11.78,11.461h-1.243l-11.779-11.461-11.78,11.461h-1.229L2152.707,909.2,2140.95,920.64h-.777V721.69h105.346Z" transform="translate(-2140.174 -721.69)" fill="#f2f2f2"/>
        <path id="Path_106947" data-name="Path 106947" d="M2678.86,764.958h-43.268V721.69Z" transform="translate(-2530.246 -721.69)" fill="#dedede"/>
      </g>
      <g id="Group_66466" data-name="Group 66466" transform="translate(18.333 81.75)">
        <path id="Path_106948" data-name="Path 106948" d="M2248.048,1148.652v-5.822h-15.713a6.457,6.457,0,0,1-4.461-1.346,4.692,4.692,0,0,1-1.487-3.662,3.541,3.541,0,0,1,.219-1.205,6.2,6.2,0,0,1,.657-1.283q.438-.673.908-1.3t1.158-1.534l16.59-22.193a25.316,25.316,0,0,1,2.676-3.177,3.547,3.547,0,0,1,2.52-.986q4.758,0,4.758,5.446v24.227h1.346a9.505,9.505,0,0,1,3.865.657q1.456.657,1.456,2.88a3,3,0,0,1-1.19,2.645,6.259,6.259,0,0,1-3.568.829h-1.91v5.822a5.2,5.2,0,0,1-1.064,3.584,3.986,3.986,0,0,1-5.681-.031A5.165,5.165,0,0,1,2248.048,1148.652Zm-13.46-12.834h13.46v-18.186Z" transform="translate(-2226.388 -1106.145)" fill="#222189"/>
        <path id="Path_106949" data-name="Path 106949" d="M2448.04,1131.049a53.671,53.671,0,0,1-.626,8.827,20.556,20.556,0,0,1-2.316,6.7,15.383,15.383,0,0,1-5.509,5.7,14.964,14.964,0,0,1-16.042-.688,16.378,16.378,0,0,1-5.681-7.45,27.674,27.674,0,0,1-1.424-5.744,47.722,47.722,0,0,1-.454-6.808,65.4,65.4,0,0,1,.5-8.514,28.081,28.081,0,0,1,1.565-6.51,14.007,14.007,0,0,1,13.773-9.234,15.677,15.677,0,0,1,5.853,1.049,13.348,13.348,0,0,1,4.617,3.068,17.542,17.542,0,0,1,3.365,4.992Q2448.039,1121.6,2448.04,1131.049Zm-8.577-.626a52.171,52.171,0,0,0-.689-9.375,11.541,11.541,0,0,0-2.316-5.509,5.674,5.674,0,0,0-4.507-1.863q-4.132,0-5.744,4.163t-1.612,12.834a55.154,55.154,0,0,0,.688,9.641A12.108,12.108,0,0,0,2427.6,1146a6.048,6.048,0,0,0,8.921-.078,12.424,12.424,0,0,0,2.285-5.728A58.317,58.317,0,0,0,2439.463,1130.423Z" transform="translate(-2375.671 -1107.072)" fill="#222189"/>
        <path id="Path_106950" data-name="Path 106950" d="M2606.345,1148.652v-5.822h-15.713a6.456,6.456,0,0,1-4.46-1.346,4.691,4.691,0,0,1-1.487-3.662,3.552,3.552,0,0,1,.219-1.205,6.218,6.218,0,0,1,.658-1.283q.438-.673.908-1.3t1.158-1.534l16.59-22.193a25.274,25.274,0,0,1,2.676-3.177,3.548,3.548,0,0,1,2.52-.986q4.757,0,4.758,5.446v24.227h1.346a9.509,9.509,0,0,1,3.866.657q1.455.657,1.455,2.88a3,3,0,0,1-1.189,2.645,6.261,6.261,0,0,1-3.568.829h-1.91v5.822a5.2,5.2,0,0,1-1.064,3.584,3.987,3.987,0,0,1-5.682-.031A5.165,5.165,0,0,1,2606.345,1148.652Zm-13.46-12.834h13.46v-18.186Z" transform="translate(-2508.496 -1106.145)" fill="#222189"/>
      </g>
    </g>
    <g id="Group_66471" data-name="Group 66471" transform="translate(1814.982 829.01)">
      <g id="Group_66470" data-name="Group 66470">
        <path id="Path_106951" data-name="Path 106951" d="M2323.911,1711.947h0a5.242,5.242,0,0,1-7.413,0l-31.826-31.827-4.044-4.044a26.143,26.143,0,0,0,7.413-7.413l35.871,35.871A5.241,5.241,0,0,1,2323.911,1711.947Z" transform="translate(-2234.715 -1622.751)" fill="#9c9c9c"/>
        <path id="Path_106952" data-name="Path 106952" d="M2295.624,1676.244l8.293,8.294a26.14,26.14,0,0,1-7.411,7.413h0l-4.249-4.25-4.044-4.044A26.136,26.136,0,0,0,2295.624,1676.244Z" transform="translate(-2240.687 -1628.719)" fill="#5e5e5e"/>
        <g id="Group_66469" data-name="Group 66469">
          <path id="Path_106953" data-name="Path 106953" d="M2127.913,1483a31.616,31.616,0,0,0-63.2,1.363,32.07,32.07,0,0,0,.2,3.575,31.379,31.379,0,0,0,3.025,10.351h0a31.731,31.731,0,0,0,9.644,11.533q.992.732,2.043,1.388a31.633,31.633,0,0,0,35.043-1.093s0,0,0,0a31.789,31.789,0,0,0,7.412-7.411h0a31.471,31.471,0,0,0,5.86-18.341Q2127.942,1483.675,2127.913,1483Zm-31.586,27.354a25.991,25.991,0,1,1,25.992-25.991q0,.594-.027,1.181a25.965,25.965,0,0,1-25.964,24.81Z" transform="translate(-2064.711 -1452.745)" fill="#b8b8b8"/>
          <g id="Group_66468" data-name="Group 66468" transform="translate(9.506 9.507)">
            <path id="Path_106954" data-name="Path 106954" d="M2111.845,1522.422a2.427,2.427,0,0,1-2.427-2.427,22.54,22.54,0,0,1,22.54-22.54,2.427,2.427,0,1,1,0,4.854,17.685,17.685,0,0,0-17.685,17.685A2.428,2.428,0,0,1,2111.845,1522.422Z" transform="translate(-2109.418 -1497.455)" fill="#fff"/>
          </g>
        </g>
      </g>
    </g>
  </g>
</svg>
