<svg xmlns="http://www.w3.org/2000/svg" width="75.528" height="57.554" viewBox="0 0 75.528 57.554">
  <g id="Group_65063" data-name="Group 65063" transform="translate(-768.08 -393.705)">
    <path id="Path_106292" data-name="Path 106292" d="M768.08,447.717v-4.868a2.129,2.129,0,0,1,1.872-.667c.734.046,1.474.01,2.211.01.991,0,.991,0,.991-.958q0-19.241,0-38.482a2.788,2.788,0,0,1,3.133-3.127h32.952c.986,0,.986,0,.986-.949q0-1.069,0-2.138c0-1.982.833-2.813,2.816-2.813,9.19,0,18.38.018,27.57-.02a2.8,2.8,0,0,1,3,1.791V409.8a2.8,2.8,0,0,1-3.116,1.649c-.413-.046-.84.034-1.252-.017-.6-.075-.722.172-.719.733.023,4.179.012,8.357.012,12.536,0,5.58.01,11.159-.015,16.739,0,.619.165.8.775.762.906-.053,1.819.015,2.727-.023a1.566,1.566,0,0,1,1.587.813v4.721c-.039.024-.1.039-.115.073-1.133,2.692-2.3,3.468-5.223,3.468H773.344c-2.844,0-4.055-.817-5.15-3.466C768.18,447.758,768.119,447.742,768.08,447.717Zm56.128-19.97c2.888,1.205,4.474,2.984,4.744,5.543a36.675,36.675,0,0,1,.055,4.273c-.006.447.1.606.564.576a18.4,18.4,0,0,1,1.99,0c.4.018.546-.071.545-.512q-.02-12.832,0-25.663c0-.435-.141-.529-.545-.523-1.425.022-2.852.025-4.277,0a1.621,1.621,0,0,0-1.131.4c-1.9,1.552-3.83,3.077-5.741,4.621a1.219,1.219,0,0,1-1.369.215,1.2,1.2,0,0,1-.665-1.213c.016-1.057-.032-2.116.018-3.17.03-.638-.105-.883-.818-.857-1.669.061-3.343.036-5.014.012a2.25,2.25,0,0,1-2.33-2.322c-.02-.786-.037-1.575.006-2.359.029-.53-.09-.763-.676-.71a10.041,10.041,0,0,1-1.841,0c-.6-.057-.71.167-.709.725q.027,12.2.012,24.409c0,2.138.011,4.277-.009,6.416,0,.409.1.556.522.532a15.368,15.368,0,0,1,1.916,0c.5.034.677-.1.658-.635-.041-1.178-.029-2.36,0-3.539a6.433,6.433,0,0,1,2.531-5.021,7.5,7.5,0,0,1,2.271-1.185,5.495,5.495,0,1,1,9.3-.011Zm-3.467-14.583c1.516-1.218,2.908-2.308,4.266-3.44a2.629,2.629,0,0,1,1.806-.652c4.6.024,9.191,0,13.786.023.486,0,.666-.075.663-.62q-.039-5.9,0-11.8c0-.475-.112-.606-.6-.605q-13.749.023-27.5,0c-.517,0-.585.177-.583.625q.023,5.9,0,11.8c0,.488.135.609.61.6,2.039-.026,4.079-.018,6.119-.008,1,.005,1.426.444,1.435,1.448C820.747,411.362,820.741,412.188,820.741,413.164Zm-14.9,29.034q14.749,0,29.5.014c.655,0,.863-.136.86-.835-.03-6.1-.018-12.193-.018-18.289q0-5.457,0-10.915c0-.234.122-.622-.117-.672a3.4,3.4,0,0,0-1.458-.017c-.306.075-.137.522-.138.8q-.013,12.869-.007,25.738c0,1.734-.727,2.463-2.457,2.463H779.71c-1.769,0-2.478-.72-2.478-2.516q0-15.893,0-31.786c0-1.78.705-2.481,2.506-2.483q4.72-.005,9.44,0,10.14,0,20.28,0c.238,0,.595.122.691-.1a2.508,2.508,0,0,0,.045-1.445c-.06-.327-.467-.156-.71-.156q-16.482-.013-32.965-.008c-1.007,0-1.008,0-1.008,1.03q0,19.175-.015,38.349c0,.669.159.853.843.851Q791.088,442.179,805.837,442.2Zm-13.68-18.942c-3.956,0-7.912.008-11.868-.01-.505,0-.719.057-.716.657q.044,6.818,0,13.637c0,.5.156.6.618.593,1.375-.029,2.752-.01,4.128-.01,1.577,0,1.6,0,1.573-1.609a4.478,4.478,0,0,1,2.4-4.316c.315-.176.316-.337.215-.64a3.316,3.316,0,0,1-.161-1.524,3.794,3.794,0,1,1,7.419,1.462c-.122.441-.026.572.332.773a4.205,4.205,0,0,1,2.167,3,11.428,11.428,0,0,1,.079,2.278c-.011.444.1.592.567.584q2.579-.043,5.159,0c.489.009.6-.134.6-.609q-.027-6.818,0-13.637c0-.519-.136-.648-.65-.645C800.07,423.267,796.114,423.257,792.158,423.257Zm.036-17.2c-4,0-8.009,0-12.014-.007-.4,0-.6.03-.6.536q.034,6.892,0,13.783c0,.5.195.542.6.536,1.351-.02,2.7-.007,4.054-.007,1.667,0,1.693,0,1.667-1.666a4.457,4.457,0,0,1,2.329-4.21c.369-.214.361-.381.26-.746a3.742,3.742,0,0,1,1.473-4.152,3.816,3.816,0,0,1,4.353,0,3.727,3.727,0,0,1,1.453,4.156c-.131.451,0,.573.34.776a4.346,4.346,0,0,1,2.25,3.809,13.375,13.375,0,0,1,0,1.473c-.04.477.152.57.588.564,1.695-.023,3.391-.03,5.085,0,.5.01.655-.1.652-.633q-.034-6.781,0-13.562c0-.571-.159-.674-.691-.671C800.056,406.064,796.125,406.054,792.194,406.054ZM805.764,448.9h29.718c1.155,0,2.311.01,3.466,0a2.192,2.192,0,0,0,2.3-2.324c.006-.467-.036-.938.011-1.4.054-.538-.164-.626-.658-.625q-9.7.026-19.394,0a.732.732,0,0,0-.809.523,4.21,4.21,0,0,1-4,2.761q-10.545.069-21.09,0a4.164,4.164,0,0,1-3.973-2.684.875.875,0,0,0-.984-.6q-9.144.021-18.288.009c-1.619,0-1.619,0-1.618,1.633,0,1.933.78,2.707,2.729,2.707Zm13.751-10.774c2.185,0,4.369-.016,6.554.013.494.006.613-.142.6-.612-.034-1.079,0-2.16-.012-3.24a4.334,4.334,0,0,0-5.642-4.227,5.421,5.421,0,0,1-3.044-.033,4.315,4.315,0,0,0-5.5,4.027c-.028,1.153.025,2.309-.023,3.46-.023.55.176.63.664.624C815.244,438.108,817.38,438.123,819.516,438.123Zm-3.06-13.362a3.1,3.1,0,1,0,3.1-3.069A3.086,3.086,0,0,0,816.456,424.76Zm-24.313,13.363h1.99c1.951,0,1.951,0,1.862-1.98a2.166,2.166,0,0,0-2.684-2.082,4.852,4.852,0,0,1-2.388-.006,2.148,2.148,0,0,0-2.648,2.042c-.024.515.017,1.033-.018,1.547-.027.4.116.5.5.488C789.882,438.108,791.012,438.123,792.143,438.123Zm-.026-17.228H794.1c2,0,2,0,1.888-2.018a2.141,2.141,0,0,0-2.582-2.041,5.587,5.587,0,0,1-2.536.006,2.126,2.126,0,0,0-2.6,2.01c-.027.514.02,1.032-.022,1.544-.037.453.165.514.551.506C789.909,420.881,791.013,420.9,792.117,420.9ZM817.99,444.6H793.7a2.183,2.183,0,0,0,1.784.888q10.362,0,20.723,0A2.184,2.184,0,0,0,817.99,444.6Zm-24.414-14.168a1.448,1.448,0,1,0-1.452,1.455A1.489,1.489,0,0,0,793.576,430.436Zm0-17.17a1.449,1.449,0,0,0-2.9-.027,1.449,1.449,0,0,0,2.9.027Z" transform="translate(0 0)" fill="#fe4a55"/>
    <path id="Path_106309" data-name="Path 106309" d="M1027.306,421.9q-3.939,0-7.878,0a3.691,3.691,0,0,1-.733-.039,1.084,1.084,0,0,1-.925-1.081,1.071,1.071,0,0,1,.755-1.136,2.379,2.379,0,0,1,.8-.1q7.952-.008,15.9,0a3.232,3.232,0,0,1,.586.034,1.123,1.123,0,0,1,.988,1.248,1.088,1.088,0,0,1-1.1,1.068c-.366.029-.736.014-1.1.014Z" transform="translate(-200.557 -20.748)" fill="#fe4a55"/>
    <path id="Path_106310" data-name="Path 106310" d="M1059.716,446.221c1.522,0,3.044,0,4.565,0,.886,0,1.382.429,1.385,1.163s-.5,1.191-1.373,1.193q-4.6.013-9.2,0c-.868,0-1.386-.461-1.39-1.182s.5-1.171,1.377-1.174C1056.623,446.216,1058.169,446.221,1059.716,446.221Z" transform="translate(-229.419 -42.181)" fill="#fe4a55"/>
    <path id="Path_106311" data-name="Path 106311" d="M1020.21,448.541c-.441,0-.884.028-1.323-.006a1.181,1.181,0,0,1-1.145-1.2,1.146,1.146,0,0,1,1.186-1.142c.906-.022,1.814-.024,2.72,0a1.109,1.109,0,0,1,1.133,1.11,1.13,1.13,0,0,1-1.029,1.216,14.759,14.759,0,0,1-1.542.011Z" transform="translate(-200.537 -42.147)" fill="#fe4a55"/>
  </g>
</svg>
