<svg xmlns="http://www.w3.org/2000/svg" width="67.219" height="67.219" viewBox="0 0 67.219 67.219">
	<g transform="translate(-1522.5 -3684.932)">
		<g transform="translate(1518 3680.432)">
			<g transform="translate(5 5)">
				<path d="M52.607,29.632V27.2a1.1,1.1,0,1,0-2.207,0v2.428a1.1,1.1,0,0,0,2.207,0Z" transform="translate(-16.996 -10.575)" fill="#212189" stroke="#212189" stroke-width="1" />
				<path d="M67.6,30.735a1.132,1.132,0,0,0,1.1-1.1V27.2a1.1,1.1,0,1,0-2.207,0v2.428A1.084,1.084,0,0,0,67.6,30.735Z" transform="translate(-21.251 -10.575)" fill="#212189" stroke="#212189" stroke-width="1" />
				<path d="M70.115,69.011H65.333V48.852a6.908,6.908,0,0,0-6.916-6.916h-6.7v-4.12h1.03a7.144,7.144,0,0,0,7.137-7.137v-.294h2.354A4.585,4.585,0,0,0,66.8,25.822V23.468a4.585,4.585,0,0,0-4.562-4.562H59.888a7.186,7.186,0,0,0-6.033-6.99V6.1a1.1,1.1,0,0,0-2.207,0v5.665H39.139V6.1a1.1,1.1,0,1,0-2.207,0v5.739a7.119,7.119,0,0,0-6.033,6.99H28.544a4.585,4.585,0,0,0-4.562,4.562v2.354a4.585,4.585,0,0,0,4.562,4.562H30.9V30.6a7.144,7.144,0,0,0,7.137,7.137h1.03v4.12h-6.7a6.865,6.865,0,0,0-6.622,5.077H11.916a3.266,3.266,0,0,0-3.237,3.237V69.011H6.1a1.1,1.1,0,1,0,0,2.207H70.115a1.1,1.1,0,0,0,0-2.207ZM64.67,23.468v2.354a2.371,2.371,0,0,1-2.354,2.354H59.962V21.04h2.354A2.436,2.436,0,0,1,64.67,23.468ZM28.544,28.177a2.371,2.371,0,0,1-2.354-2.354V23.468a2.371,2.371,0,0,1,2.354-2.354H30.9V28.25H28.544Zm4.562,2.5V18.906a4.93,4.93,0,0,1,4.93-4.93H52.751a4.93,4.93,0,0,1,4.93,4.93V30.678a4.93,4.93,0,0,1-4.93,4.93H38.036A4.93,4.93,0,0,1,33.106,30.678Zm8.241,7.137h8.167v4.12H41.347Zm-8.9,6.328H58.416a4.742,4.742,0,0,1,4.709,4.709v20.16h-5.96v-6.7a1.132,1.132,0,0,0-1.1-1.1H36.27V50.249a3.266,3.266,0,0,0-3.237-3.237H28.1A4.688,4.688,0,0,1,32.444,44.143ZM36.27,63.42h4.562v5.592H36.27Zm6.7,0h4.856v5.592H42.965Zm7.063,0h4.856v5.592H50.029ZM10.886,69.011V50.249a1.006,1.006,0,0,1,1.03-1.03H33.033a1.006,1.006,0,0,1,1.03,1.03V69.011Z" transform="translate(-5 -5)" fill="#212189" stroke="#212189" stroke-width="1" />
				<path d="M52.5,68.407H62.878a1.1,1.1,0,0,0,0-2.207H52.5a1.1,1.1,0,1,0,0,2.207Z" transform="translate(-17.261 -21.171)" fill="#212189" stroke="#212189" stroke-width="1" />
				<path d="M54.7,73.4a1.1,1.1,0,1,0,1.1,1.1A1.132,1.132,0,0,0,54.7,73.4Z" transform="translate(-17.842 -23.074)" fill="#212189" stroke="#212189" stroke-width="1" />
				<path d="M64.4,73.4a1.1,1.1,0,1,0,1.1,1.1A1.132,1.132,0,0,0,64.4,73.4Z" transform="translate(-20.405 -23.074)" fill="#212189" stroke="#212189" stroke-width="1" />
			</g>
		</g>
		<path d="M203.072,169.824l-5.937-3.711a.742.742,0,0,0-1.136.629v7.422a.742.742,0,0,0,1.136.629l5.937-3.711a.742.742,0,0,0,0-1.259Zm-5.589,3v-4.744l3.795,2.372Z" transform="translate(1341.566 3569.527)" fill="#fe4a55" />
	</g>
</svg>
