<svg width="32" height="17" viewBox="0 0 32 17" fill="none" xmlns="http://www.w3.org/2000/svg">
<rect width="32" height="17" rx="8.5" fill="#FE4A55"/>
<path d="M11.25 12H10.34L6.68 6.45V12H5.77V5.02H6.68L10.34 10.56V5.02H11.25V12ZM17.8013 9.05C17.8013 9.22333 17.7913 9.40667 17.7713 9.6H13.3913C13.4246 10.14 13.6079 10.5633 13.9413 10.87C14.2813 11.17 14.6913 11.32 15.1713 11.32C15.5646 11.32 15.8913 11.23 16.1513 11.05C16.4179 10.8633 16.6046 10.6167 16.7113 10.31H17.6913C17.5446 10.8367 17.2513 11.2667 16.8113 11.6C16.3713 11.9267 15.8246 12.09 15.1713 12.09C14.6513 12.09 14.1846 11.9733 13.7713 11.74C13.3646 11.5067 13.0446 11.1767 12.8113 10.75C12.5779 10.3167 12.4613 9.81667 12.4613 9.25C12.4613 8.68333 12.5746 8.18667 12.8013 7.76C13.0279 7.33333 13.3446 7.00667 13.7513 6.78C14.1646 6.54667 14.6379 6.43 15.1713 6.43C15.6913 6.43 16.1513 6.54333 16.5513 6.77C16.9513 6.99667 17.2579 7.31 17.4713 7.71C17.6913 8.10333 17.8013 8.55 17.8013 9.05ZM16.8613 8.86C16.8613 8.51333 16.7846 8.21667 16.6313 7.97C16.4779 7.71667 16.2679 7.52667 16.0013 7.4C15.7413 7.26667 15.4513 7.2 15.1313 7.2C14.6713 7.2 14.2779 7.34667 13.9513 7.64C13.6313 7.93333 13.4479 8.34 13.4013 8.86H16.8613ZM26.3024 6.52L24.5924 12H23.6524L22.3324 7.65L21.0124 12H20.0724L18.3524 6.52H19.2824L20.5424 11.12L21.9024 6.52H22.8324L24.1624 11.13L25.4024 6.52H26.3024Z" fill="white"/>
</svg>
