<svg xmlns="http://www.w3.org/2000/svg" width="21.161" height="23" viewBox="0 0 21.161 23">
  <g id="artificial-intelligence" transform="translate(-4.4 -2)">
    <path id="Path_126875" data-name="Path 126875" d="M19.16,16.982a.383.383,0,0,0,.383-.383v-1h1.671v1a.383.383,0,0,0,.767,0V14.293a1.6,1.6,0,1,0-3.2,0V16.6A.383.383,0,0,0,19.16,16.982Zm1.219-3.524a.837.837,0,0,1,.836.836v.543H19.544v-.543a.837.837,0,0,1,.836-.836Z" transform="translate(-8.866 -6.593)" fill="#212189"/>
    <path id="Path_126876" data-name="Path 126876" d="M29.7,19.626a.383.383,0,0,0,.383-.383V17.362a.383.383,0,0,0-.767,0v1.881A.383.383,0,0,0,29.7,19.626Z" transform="translate(-15.365 -9.237)" fill="#212189"/>
    <path id="Path_126877" data-name="Path 126877" d="M29.7,14.234a.383.383,0,0,0,.383-.383v-.2a.383.383,0,1,0-.767,0v.2A.383.383,0,0,0,29.7,14.234Z" transform="translate(-15.365 -6.951)" fill="#212189"/>
    <path id="Path_126878" data-name="Path 126878" d="M25.557,18.3V6.1a1.281,1.281,0,0,0-1.28-1.28h-.758V2.884A.887.887,0,0,0,22.632,2H12.655a.885.885,0,0,0-.884.884v.854H7.326a.885.885,0,0,0-.884.885v.2H5.679A1.281,1.281,0,0,0,4.4,6.1v14.16a1.281,1.281,0,0,0,1.28,1.28H10.8L8.2,24.355A.383.383,0,0,0,8.484,25h12.99a.383.383,0,0,0,.282-.644l-2.6-2.813h5.119a1.281,1.281,0,0,0,1.28-1.28V18.337c0-.007,0-.012,0-.019s0-.012,0-.018ZM9.36,24.233l2.484-2.689h6.27L20.6,24.233ZM12.537,2.884a.12.12,0,0,1,.118-.118h9.977a.12.12,0,0,1,.12.118v7.242a.12.12,0,0,1-.12.121h-1.14a.383.383,0,0,0-.383.383v.905L18.931,10.3a.383.383,0,0,0-.192-.05h-.551V4.623a.885.885,0,0,0-.884-.885H12.537ZM7.326,4.505H17.3a.118.118,0,0,1,.118.118v7.24a.118.118,0,0,1-.118.118H11.216a.383.383,0,0,0-.192.05l-2.176,1.24v-.906a.383.383,0,0,0-.383-.383H7.326a.118.118,0,0,1-.118-.118V4.624a.118.118,0,0,1,.118-.119ZM5.679,5.59h.762v6.274a.885.885,0,0,0,.884.885h.758v1.183a.383.383,0,0,0,.572.335l2.661-1.516H17.3a.885.885,0,0,0,.884-.885v-.853h.452L21.3,12.527a.383.383,0,0,0,.573-.333V11.013h.756a.888.888,0,0,0,.887-.886V5.59h.758a.514.514,0,0,1,.513.512V17.935H5.167V6.1a.514.514,0,0,1,.513-.512Zm18.6,15.186H5.679a.514.514,0,0,1-.513-.513V18.7H24.79v1.562a.514.514,0,0,1-.513.513Z" fill="#212189"/>
    <path id="Path_126879" data-name="Path 126879" d="M9.919,47.289a.4.4,0,0,0-.54,0,.406.406,0,0,0-.084.126.383.383,0,0,0,.356.529.325.325,0,0,0,.145-.031.376.376,0,0,0,.123-.081.383.383,0,0,0,.115-.272A.375.375,0,0,0,10,47.415a.348.348,0,0,0-.084-.126Z" transform="translate(-3 -27.863)" fill="#212189"/>
    <path id="Path_126880" data-name="Path 126880" d="M13.575,47.289a.4.4,0,0,0-.544,0,.443.443,0,0,0-.08.126.361.361,0,0,0,0,.291.443.443,0,0,0,.08.126.389.389,0,0,0,.544,0,.56.56,0,0,0,.084-.126.383.383,0,0,0,.027-.146.327.327,0,0,0-.031-.146A.443.443,0,0,0,13.575,47.289Z" transform="translate(-5.254 -27.863)" fill="#212189"/>
    <path id="Path_126881" data-name="Path 126881" d="M17.309,47.415c-.011-.023-.023-.046-.035-.069a.727.727,0,0,0-.05-.057.4.4,0,0,0-.54,0,.654.654,0,0,0-.05.057l-.035.069a.414.414,0,0,0-.023.069.52.52,0,0,0-.008.077.389.389,0,0,0,.031.146.341.341,0,0,0,.085.123.334.334,0,0,0,.122.084.374.374,0,0,0,.418-.084.335.335,0,0,0,.084-.123.378.378,0,0,0,.026-.146.57.57,0,0,0,0-.077Z" transform="translate(-7.504 -27.863)" fill="#212189"/>
    <path id="Path_126882" data-name="Path 126882" d="M36.9,32.167h4.379a.383.383,0,0,0,0-.767H36.9a.383.383,0,1,0,0,.767Z" transform="translate(-19.806 -18.13)" fill="#212189"/>
    <path id="Path_126883" data-name="Path 126883" d="M27.283,36.017h8.066a.383.383,0,1,0,0-.767H27.283a.383.383,0,1,0,0,.767Z" transform="translate(-13.875 -20.504)" fill="#212189"/>
    <path id="Path_126884" data-name="Path 126884" d="M44.3,39.1H41.8a.383.383,0,1,0,0,.767h2.5a.383.383,0,0,0,0-.767Z" transform="translate(-22.829 -22.878)" fill="#212189"/>
  </g>
</svg>
