<svg xmlns="http://www.w3.org/2000/svg" width="18.783" height="20.416" viewBox="0 0 18.783 20.416"><g transform="translate(-4.4 -2)"><path d="M19.117,16.5a.34.34,0,0,0,.34-.34v-.885h1.484v.885a.34.34,0,0,0,.681,0V14.113a1.422,1.422,0,1,0-2.845,0V16.16A.34.34,0,0,0,19.117,16.5ZM20.2,13.372a.743.743,0,0,1,.742.742V14.6H19.458v-.482A.743.743,0,0,1,20.2,13.372Z" transform="translate(-9.485 -7.053)" fill="#212189"/><path d="M29.656,19.329a.34.34,0,0,0,.34-.34V17.319a.34.34,0,1,0-.681,0v1.669A.34.34,0,0,0,29.656,19.329Z" transform="translate(-16.438 -9.882)" fill="#212189"/><path d="M29.656,14.126a.34.34,0,0,0,.34-.34v-.173a.34.34,0,1,0-.681,0v.173A.34.34,0,0,0,29.656,14.126Z" transform="translate(-16.438 -7.436)" fill="#212189"/><path d="M23.18,16.469V5.641A1.138,1.138,0,0,0,22.044,4.5h-.673V2.785A.787.787,0,0,0,20.584,2H11.727a.786.786,0,0,0-.785.785v.758H7a.786.786,0,0,0-.785.785v.178H5.535A1.138,1.138,0,0,0,4.4,5.641V18.21a1.138,1.138,0,0,0,1.136,1.136h4.546l-2.308,2.5a.34.34,0,0,0,.25.573H19.556a.34.34,0,0,0,.25-.571l-2.306-2.5h4.544a1.138,1.138,0,0,0,1.136-1.136V16.5c0-.006,0-.011,0-.017s0-.011,0-.016ZM8.8,21.736l2.205-2.387h5.566l2.2,2.387Zm2.82-18.951a.106.106,0,0,1,.1-.1h8.856a.107.107,0,0,1,.107.1V9.214a.107.107,0,0,1-.107.107H19.572a.34.34,0,0,0-.34.34v.8L17.3,9.365a.34.34,0,0,0-.17-.045h-.489V4.328a.786.786,0,0,0-.785-.785H11.623ZM7,4.224h8.857a.1.1,0,0,1,.1.1v6.427a.1.1,0,0,1-.1.1h-5.4a.34.34,0,0,0-.17.045l-1.932,1.1v-.8a.34.34,0,0,0-.34-.34H7a.1.1,0,0,1-.1-.1V4.329A.1.1,0,0,1,7,4.224Zm-1.461.963h.676v5.57A.786.786,0,0,0,7,11.542H7.67v1.05a.34.34,0,0,0,.507.3l2.362-1.346h5.315a.786.786,0,0,0,.785-.785V10h.4L19.4,11.344a.34.34,0,0,0,.508-.3V10h.671a.788.788,0,0,0,.787-.787V5.187h.673a.456.456,0,0,1,.456.454v10.5H5.081V5.641a.456.456,0,0,1,.455-.454Zm16.509,13.48H5.535a.456.456,0,0,1-.455-.455V16.825H22.5v1.387a.456.456,0,0,1-.456.455Z" fill="#212189"/><path d="M9.845,47.277a.352.352,0,0,0-.48,0,.361.361,0,0,0-.075.112.34.34,0,0,0,.316.47.289.289,0,0,0,.129-.027.334.334,0,0,0,.109-.071.34.34,0,0,0,.1-.242.333.333,0,0,0-.028-.129.309.309,0,0,0-.075-.112Z" transform="translate(-3.21 -29.808)" fill="#212189"/><path d="M13.5,47.277a.356.356,0,0,0-.483,0,.393.393,0,0,0-.071.112.321.321,0,0,0,0,.259.393.393,0,0,0,.071.112.345.345,0,0,0,.483,0,.5.5,0,0,0,.075-.112.34.34,0,0,0,.024-.129.29.29,0,0,0-.027-.129A.393.393,0,0,0,13.5,47.277Z" transform="translate(-5.621 -29.808)" fill="#212189"/><path d="M17.226,47.389l-.031-.062a.646.646,0,0,0-.044-.051.352.352,0,0,0-.48,0,.581.581,0,0,0-.044.051l-.031.062a.367.367,0,0,0-.02.061.462.462,0,0,0-.007.068.345.345,0,0,0,.027.129.3.3,0,0,0,.075.109.3.3,0,0,0,.109.075.332.332,0,0,0,.371-.075.3.3,0,0,0,.075-.109.335.335,0,0,0,.023-.129.506.506,0,0,0,0-.068Z" transform="translate(-8.028 -29.808)" fill="#212189"/><path d="M36.857,32.081h3.887a.34.34,0,0,0,0-.681H36.857a.34.34,0,1,0,0,.681Z" transform="translate(-21.189 -19.396)" fill="#212189"/><path d="M27.24,35.931H34.4a.34.34,0,1,0,0-.681H27.24a.34.34,0,1,0,0,.681Z" transform="translate(-14.844 -21.936)" fill="#212189"/><path d="M43.979,39.1H41.759a.34.34,0,1,0,0,.681h2.219a.34.34,0,0,0,0-.681Z" transform="translate(-24.423 -24.476)" fill="#212189"/></g></svg>