<svg xmlns="http://www.w3.org/2000/svg" width="194.676" height="191.146" viewBox="0 0 194.676 191.146">
  <g id="Group_1" data-name="Group 1" transform="translate(-22.594 -17.395)" opacity="0.3">
    <g id="BACKGROUND" transform="translate(22.594 17.395)">
      <g id="Group_9" data-name="Group 9" transform="translate(2.307 7.085)">
        <g id="Group_8" data-name="Group 8" transform="translate(0 0)">
          <g id="Group_3" data-name="Group 3" transform="translate(0 4.308)" opacity="0.41">
            <g id="Group_2" data-name="Group 2">
              <g id="Group_1-2" data-name="Group 1">
                <path id="Path_1" data-name="Path 1" d="M28.36,154.1a58.148,58.148,0,0,1-.229-9.709A63.374,63.374,0,0,1,46.6,103.9c3.807-3.8,8.182-7.25,10.54-12.122,3.97-8.2,3.181-17.348,8.21-25.507a46.23,46.23,0,0,1,21.4-18.363c26.13-10.82,64.137,2.527,62.42,35.426-.006.118-.011.289-.014.506a11.788,11.788,0,0,0,12.063,12.067c24.572-.707,46.664,17.492,52.408,41.724,3.694,15.583-.2,33.085-10.923,44.817-8,8.756-19.066,13.921-30.207,17.657-22.339,7.491-46.112,10.073-69.591,8.907-21.977-1.092-45.361-6.287-60.36-22.712A56.973,56.973,0,0,1,28.36,154.1Z" transform="translate(-28.026 -44.223)" fill="#e1e2fe"/>
              </g>
            </g>
          </g>
          <g id="Group_4" data-name="Group 4" transform="translate(112.496)" opacity="0.31">
            <ellipse id="Ellipse_1" data-name="Ellipse 1" cx="5.646" cy="5.529" rx="5.646" ry="5.529" transform="matrix(0.021, -1, 1, 0.021, 0, 11.289)" fill="#e1e2fe"/>
          </g>
          <g id="Group_5" data-name="Group 5" transform="translate(24.456 2.848)" opacity="0.31">
            <path id="Path_2" data-name="Path 2" d="M85.613,43.849a2.854,2.854,0,1,0,2.7-3.06A2.873,2.873,0,0,0,85.613,43.849Z" transform="translate(-85.609 -40.785)" fill="#e1e2fe"/>
          </g>
          <g id="Group_6" data-name="Group 6" transform="translate(188.592 69.709)" opacity="0.31">
            <path id="Path_3" data-name="Path 3" d="M472.089,200.243a1.889,1.889,0,1,0,1.79-2.025A1.9,1.9,0,0,0,472.089,200.243Z" transform="translate(-472.086 -198.215)" fill="#e1e2fe"/>
          </g>
          <g id="Group_7" data-name="Group 7" transform="translate(162.198 159.686)" opacity="0.31">
            <ellipse id="Ellipse_2" data-name="Ellipse 2" cx="8.888" cy="8.705" rx="8.888" ry="8.705" transform="translate(0 17.772) rotate(-88.801)" fill="#e1e2fe"/>
          </g>
        </g>
      </g>
      <g id="Group_13" data-name="Group 13">
        <g id="Group_10" data-name="Group 10">
          <path id="Path_4" data-name="Path 4" d="M23.922,76.68A10.167,10.167,0,0,1,27.5,62.949c4.7-2.786,13.987-3.092,16.711,1.706s-4.493,9.421-7.293,14.178C33.014,85.466,26.646,81.477,23.922,76.68Z" transform="translate(-22.594 -42.443)" fill="#ecf1f7" opacity="0.47"/>
          <path id="Path_5" data-name="Path 5" d="M76.049,431.016a7.436,7.436,0,0,1-10.521-1.736c-2.433-3.446-3.358-10.651.02-13.138s7.372,2.778,11.134,4.594C81.928,423.268,79.427,428.528,76.049,431.016Z" transform="translate(-46.038 -246.417)" fill="#e1e2fe" opacity="0.47"/>
          <path id="Path_6" data-name="Path 6" d="M403.948,20.341a9.368,9.368,0,0,1,13.441-.2c3.764,3.733,6.463,12.471,2.8,16.317s-9.753-1.8-14.816-3.206C398.314,31.28,400.288,24.187,403.948,20.341Z" transform="translate(-240.083 -17.395)" fill="#e1e2fe" opacity="0.47"/>
        </g>
        <g id="Group_12" data-name="Group 12" transform="translate(7.112 14.323)">
          <path id="Path_7" data-name="Path 7" d="M41.751,102.616a41.433,41.433,0,0,0-1.545,22.251c2.151,9.892,9.56,18.588,8.3,29.138-.758,6.331-.623,12.134-.776,18.354-.313,12.772,8.611,23.346,19.08,28.638,8.5,4.3,18.171,5.432,27.5,4.611a105.162,105.162,0,0,0,24.655-5.677c7.694-2.634,15.163-5.908,23.46-5.662,6.9.2,13.3,2.768,19.846,4.549,15.633,4.252,34.128,3.647,47.416-5.567,14.565-10.1,20.448-29.266,15.358-46.014-2.73-8.984-6.375-16.77-5.056-26.341.648-4.709,1.616-9.5.723-14.169A26.192,26.192,0,0,0,214.742,95.2c-7.532-9.076-18.255-14.863-29.4-18.268-12.645-3.863-26.685-5.969-39.834-3.969-25.543,3.885-31.1.107-57.8-3.684C69.815,66.739,53.024,80.961,44.873,95.633A44.3,44.3,0,0,0,41.751,102.616Z" transform="translate(-39.34 -61.396)" fill="#e1e2fe" opacity="0.84"/>
          <g id="Group_11" data-name="Group 11" transform="translate(10.976)" opacity="0.83">
            <path id="Path_8" data-name="Path 8" d="M68.982,112.895c3.679-4.854,9.366-8.151,12.153-13.73,3.336-6.678,2.633-14.559,5.612-21.382a46.392,46.392,0,0,1,22.361-23.346,30.788,30.788,0,0,1,15.245-3.249c7.942.609,14.792,5.337,20.149,10.983,7.973,8.4,13.61,20.338,23.179,27.07,5.28,3.716,11.486-.226,17.08-1.477a38.705,38.705,0,0,1,18.945.639,40.3,40.3,0,0,1,25.511,21.656c5.118,11.225,4.391,26.744-5.216,36.4-4.444,4.464-10.471,7.449-13.77,12.8-4.139,6.712-4.625,15.783-5.78,23.246a49.319,49.319,0,0,1-10.092,22.932l-.181.226a32.513,32.513,0,0,1-38.127,9.557l-28.156-12.2c-28.569-12.377-50.257-32.321-60.67-61.226-2.253-6.255-3.072-19.59-.2-25.7A17.916,17.916,0,0,1,68.982,112.895Z" transform="translate(-65.183 -51.12)" fill="#e1e2fe" opacity="0.81"/>
          </g>
        </g>
      </g>
      <circle id="Ellipse_3" data-name="Ellipse 3" cx="1.911" cy="1.911" r="1.911" transform="translate(151.606 174.541)" fill="#3e479b" opacity="0.58"/>
      <circle id="Ellipse_4" data-name="Ellipse 4" cx="0.956" cy="0.956" r="0.956" transform="translate(104.196 7.63)" fill="#3e479b" opacity="0.58"/>
      <circle id="Ellipse_5" data-name="Ellipse 5" cx="1.911" cy="1.911" r="1.911" transform="translate(44.263 179.13)" fill="#3e479b" opacity="0.58"/>
      <circle id="Ellipse_6" data-name="Ellipse 6" cx="1.486" cy="1.486" r="1.486" transform="translate(159.815 188.173)" fill="#ef929c" opacity="0.58"/>
      <circle id="Ellipse_7" data-name="Ellipse 7" cx="0.637" cy="0.637" r="0.637" transform="translate(14.425 9.296)" fill="#3e479b" opacity="0.58"/>
      <circle id="Ellipse_8" data-name="Ellipse 8" cx="2.295" cy="2.295" r="2.295" transform="translate(184.472 27.9) rotate(-63.039)" fill="#ef929c" opacity="0.58"/>
      <path id="Path_9" data-name="Path 9" d="M72.735,25.33a.9.9,0,1,1-.692-1.068A.9.9,0,0,1,72.735,25.33Z" transform="translate(-50.416 -21.334)" fill="#ef929c" opacity="0.58"/>
      <path id="Path_10" data-name="Path 10" d="M287.361,18.483a.9.9,0,1,1-.692-1.068A.9.9,0,0,1,287.361,18.483Z" transform="translate(-173.89 -17.395)" fill="#ef929c" opacity="0.58"/>
      <path id="Path_11" data-name="Path 11" d="M436.594,85.249a.765.765,0,1,1-.588-.908A.765.765,0,0,1,436.594,85.249Z" transform="translate(-259.898 -55.899)" fill="#3e479b" opacity="0.58"/>
      <path id="Path_12" data-name="Path 12" d="M39.051,395.656a.765.765,0,1,1-.588-.908A.764.764,0,0,1,39.051,395.656Z" transform="translate(-31.191 -234.477)" fill="#3e479b" opacity="0.58"/>
    </g>
    <g id="OBJECTS" transform="translate(40.839 28.571)">
      <g id="Group_28" data-name="Group 28" transform="translate(6.298 25.457)">
        <g id="Group_18" data-name="Group 18" transform="translate(32.479)" opacity="0.66">
          <g id="Group_17" data-name="Group 17">
            <g id="Group_14" data-name="Group 14" transform="translate(67.1)">
              <path id="Path_13" data-name="Path 13" d="M338.751,148.13h-3.315a2.527,2.527,0,0,1-2.524-2.524v-3.729a1.681,1.681,0,0,0-1.1-1.572c-.392-.144-.781-.305-1.159-.48a1.7,1.7,0,0,0-1.907.327l-2.637,2.637a2.525,2.525,0,0,1-3.57,0l-2.344-2.344a2.527,2.527,0,0,1,0-3.57l2.637-2.637a1.7,1.7,0,0,0,.326-1.906c-.176-.381-.338-.771-.48-1.159a1.682,1.682,0,0,0-1.573-1.1h-3.729a2.527,2.527,0,0,1-2.524-2.524v-3.315a2.527,2.527,0,0,1,2.524-2.524h3.729a1.682,1.682,0,0,0,1.573-1.1c.143-.389.3-.779.48-1.159a1.7,1.7,0,0,0-.326-1.907l-2.637-2.637a2.527,2.527,0,0,1,0-3.569l2.344-2.344a2.527,2.527,0,0,1,3.57,0l2.637,2.637a1.7,1.7,0,0,0,1.907.327c.381-.176.771-.338,1.159-.48a1.682,1.682,0,0,0,1.1-1.573v-3.729a2.527,2.527,0,0,1,2.524-2.524h3.315a2.527,2.527,0,0,1,2.524,2.524V109.9a1.681,1.681,0,0,0,1.1,1.573c.388.143.779.3,1.159.48a1.7,1.7,0,0,0,1.907-.326l2.637-2.637a2.527,2.527,0,0,1,3.57,0l2.344,2.344a2.527,2.527,0,0,1,0,3.569l-2.637,2.637a1.7,1.7,0,0,0-.327,1.906c.175.38.337.77.48,1.159a1.682,1.682,0,0,0,1.573,1.1h3.729a2.527,2.527,0,0,1,2.524,2.524v3.315a2.527,2.527,0,0,1-2.524,2.524h-3.729a1.683,1.683,0,0,0-1.573,1.1c-.142.389-.3.778-.479,1.159a1.694,1.694,0,0,0,.326,1.907l2.637,2.637a2.528,2.528,0,0,1,0,3.57l-2.344,2.344a2.525,2.525,0,0,1-3.57,0l-2.637-2.637a1.7,1.7,0,0,0-1.907-.327c-.378.175-.767.337-1.159.48a1.681,1.681,0,0,0-1.1,1.572v3.729A2.527,2.527,0,0,1,338.751,148.13Zm-8.818-9.314a2.555,2.555,0,0,1,1.077.237c.357.165.725.318,1.1.453a2.534,2.534,0,0,1,1.657,2.37v3.729a1.676,1.676,0,0,0,1.674,1.675h3.315a1.676,1.676,0,0,0,1.675-1.675v-3.729a2.535,2.535,0,0,1,1.657-2.37c.37-.135.738-.288,1.094-.453a2.548,2.548,0,0,1,2.865.5l2.637,2.637a1.677,1.677,0,0,0,2.369,0l2.344-2.344a1.677,1.677,0,0,0,0-2.369l-2.637-2.637a2.547,2.547,0,0,1-.5-2.865c.166-.359.319-.727.453-1.094a2.534,2.534,0,0,1,2.37-1.657h3.729a1.677,1.677,0,0,0,1.675-1.675v-3.315a1.677,1.677,0,0,0-1.675-1.675h-3.729a2.535,2.535,0,0,1-2.37-1.657c-.135-.368-.288-.736-.453-1.095a2.546,2.546,0,0,1,.5-2.864l2.637-2.637a1.677,1.677,0,0,0,0-2.368l-2.344-2.344a1.678,1.678,0,0,0-2.369,0l-2.637,2.637a2.549,2.549,0,0,1-2.865.5c-.359-.166-.728-.319-1.094-.453a2.535,2.535,0,0,1-1.658-2.37v-3.729a1.676,1.676,0,0,0-1.675-1.675h-3.315a1.676,1.676,0,0,0-1.674,1.675V109.9a2.535,2.535,0,0,1-1.657,2.37c-.367.134-.736.287-1.1.453a2.547,2.547,0,0,1-2.864-.5l-2.637-2.637a1.678,1.678,0,0,0-2.369,0l-2.344,2.344a1.677,1.677,0,0,0,0,2.368l2.637,2.637a2.549,2.549,0,0,1,.5,2.864c-.166.358-.318.727-.454,1.095a2.534,2.534,0,0,1-2.37,1.657h-3.729a1.677,1.677,0,0,0-1.675,1.675v3.315a1.677,1.677,0,0,0,1.675,1.675h3.729a2.533,2.533,0,0,1,2.37,1.657c.135.367.288.735.454,1.095a2.549,2.549,0,0,1-.5,2.864l-2.637,2.637a1.677,1.677,0,0,0,0,2.369l2.344,2.344a1.678,1.678,0,0,0,2.369,0l2.637-2.637A2.527,2.527,0,0,1,329.933,138.817Zm7.161-1.269a11.658,11.658,0,1,1,11.658-11.658A11.672,11.672,0,0,1,337.094,137.548Zm0-22.467A10.809,10.809,0,1,0,347.9,125.89,10.821,10.821,0,0,0,337.094,115.082Z" transform="translate(-314.853 -103.65)" fill="#fff"/>
            </g>
            <g id="Group_15" data-name="Group 15" transform="translate(38.766 85.053)" opacity="0.84">
              <path id="Path_14" data-name="Path 14" d="M294.2,323.944h-4.136a2.329,2.329,0,0,1-2.186-1.529q-.234-.637-.518-1.249a2.342,2.342,0,0,1,.457-2.646l2.924-2.924a2.328,2.328,0,0,0,0-3.293l-2.6-2.6a2.328,2.328,0,0,0-3.292,0l-2.925,2.925a2.341,2.341,0,0,1-2.645.457q-.612-.283-1.25-.518a2.329,2.329,0,0,1-1.529-2.186v-4.136a2.328,2.328,0,0,0-2.328-2.328h-3.676a2.328,2.328,0,0,0-2.328,2.328v4.136a2.329,2.329,0,0,1-1.529,2.186q-.638.234-1.25.518a2.342,2.342,0,0,1-2.646-.457l-2.924-2.925a2.328,2.328,0,0,0-3.293,0l-2.6,2.6a2.328,2.328,0,0,0,0,3.293l2.924,2.924a2.342,2.342,0,0,1,.457,2.646q-.284.612-.518,1.249a2.328,2.328,0,0,1-2.186,1.529h-4.136a2.329,2.329,0,0,0-2.328,2.328v3.677a2.328,2.328,0,0,0,2.328,2.328H254.6a2.328,2.328,0,0,1,2.186,1.529q.234.637.518,1.249a2.342,2.342,0,0,1-.457,2.646l-2.924,2.924a2.328,2.328,0,0,0,0,3.293l2.6,2.6a2.328,2.328,0,0,0,3.293,0l2.924-2.925a2.343,2.343,0,0,1,2.646-.457q.612.284,1.25.518a2.329,2.329,0,0,1,1.529,2.186v4.136a2.328,2.328,0,0,0,2.328,2.328h3.676a2.328,2.328,0,0,0,2.328-2.328V345.84a2.329,2.329,0,0,1,1.529-2.186q.638-.234,1.25-.518a2.342,2.342,0,0,1,2.645.457l2.925,2.925a2.328,2.328,0,0,0,3.292,0l2.6-2.6a2.328,2.328,0,0,0,0-3.293l-2.924-2.924a2.342,2.342,0,0,1-.457-2.646q.283-.612.518-1.249a2.329,2.329,0,0,1,2.186-1.529H294.2a2.328,2.328,0,0,0,2.328-2.328v-3.677A2.328,2.328,0,0,0,294.2,323.944Zm-21.866,16.624A12.458,12.458,0,1,1,284.79,328.11,12.458,12.458,0,0,1,272.332,340.568Z" transform="translate(-248.138 -303.916)" fill="#fff"/>
            </g>
            <g id="Group_16" data-name="Group 16" transform="translate(0 92.349)">
              <path id="Path_15" data-name="Path 15" d="M177,358.6h-2.785a2.191,2.191,0,0,1-2.188-2.188v-3.133a1.346,1.346,0,0,0-.88-1.258c-.328-.12-.658-.256-.979-.405a1.358,1.358,0,0,0-1.525.261l-2.216,2.215a2.187,2.187,0,0,1-3.094,0l-1.969-1.969a2.188,2.188,0,0,1,0-3.095l2.215-2.215a1.356,1.356,0,0,0,.261-1.525c-.148-.319-.284-.648-.406-.979a1.345,1.345,0,0,0-1.257-.88h-3.133a2.191,2.191,0,0,1-2.188-2.188v-2.784a2.191,2.191,0,0,1,2.188-2.188h3.133a1.345,1.345,0,0,0,1.257-.88c.122-.333.258-.662.406-.979a1.356,1.356,0,0,0-.261-1.525l-2.215-2.216a2.187,2.187,0,0,1,0-3.094l1.969-1.969a2.191,2.191,0,0,1,3.094,0l2.216,2.216a1.355,1.355,0,0,0,1.525.26c.316-.147.646-.283.979-.405a1.345,1.345,0,0,0,.88-1.257v-3.133a2.19,2.19,0,0,1,2.188-2.188H177a2.19,2.19,0,0,1,2.188,2.188v3.133a1.345,1.345,0,0,0,.88,1.257c.333.122.662.258.979.405a1.356,1.356,0,0,0,1.526-.26l2.215-2.216a2.191,2.191,0,0,1,3.094,0l1.969,1.969a2.188,2.188,0,0,1,0,3.094l-2.215,2.216a1.357,1.357,0,0,0-.261,1.526c.147.316.284.646.406.978a1.345,1.345,0,0,0,1.257.88h3.133a2.191,2.191,0,0,1,2.188,2.188v2.784a2.191,2.191,0,0,1-2.188,2.188h-3.133a1.345,1.345,0,0,0-1.257.88c-.121.33-.258.66-.406.979a1.356,1.356,0,0,0,.261,1.525l2.215,2.215a2.189,2.189,0,0,1,0,3.095l-1.969,1.969a2.187,2.187,0,0,1-3.094,0l-2.215-2.215a1.359,1.359,0,0,0-1.526-.261c-.322.149-.651.285-.979.406a1.345,1.345,0,0,0-.88,1.257v3.133A2.191,2.191,0,0,1,177,358.6Zm-7.407-7.96a2.221,2.221,0,0,1,.933.206c.3.139.607.266.914.378a2.2,2.2,0,0,1,1.437,2.055v3.133a1.341,1.341,0,0,0,1.339,1.339H177a1.341,1.341,0,0,0,1.339-1.339v-3.133a2.2,2.2,0,0,1,1.437-2.055c.306-.112.614-.239.914-.378a2.211,2.211,0,0,1,2.483.431l2.215,2.215a1.37,1.37,0,0,0,1.893,0l1.969-1.969a1.339,1.339,0,0,0,0-1.893l-2.216-2.215a2.208,2.208,0,0,1-.431-2.483c.138-.3.265-.606.378-.914a2.2,2.2,0,0,1,2.055-1.437h3.133a1.34,1.34,0,0,0,1.339-1.339v-2.784a1.34,1.34,0,0,0-1.339-1.339h-3.133a2.2,2.2,0,0,1-2.055-1.436c-.114-.311-.241-.618-.378-.914a2.209,2.209,0,0,1,.431-2.483l2.216-2.216a1.339,1.339,0,0,0,0-1.893l-1.969-1.969a1.341,1.341,0,0,0-1.893,0l-2.215,2.216a2.208,2.208,0,0,1-2.483.431c-.3-.137-.6-.265-.914-.379a2.2,2.2,0,0,1-1.437-2.054v-3.133A1.34,1.34,0,0,0,177,321.944h-2.785a1.34,1.34,0,0,0-1.339,1.339v3.133a2.2,2.2,0,0,1-1.436,2.054c-.311.114-.619.242-.914.379a2.207,2.207,0,0,1-2.483-.431L165.83,326.2a1.341,1.341,0,0,0-1.893,0l-1.969,1.969a1.338,1.338,0,0,0,0,1.893l2.215,2.216a2.208,2.208,0,0,1,.431,2.482c-.137.3-.265.6-.379.915a2.2,2.2,0,0,1-2.054,1.436h-3.133a1.34,1.34,0,0,0-1.339,1.339v2.784a1.34,1.34,0,0,0,1.339,1.339h3.133a2.2,2.2,0,0,1,2.055,1.437c.113.308.24.616.378.914a2.208,2.208,0,0,1-.431,2.483l-2.215,2.215a1.338,1.338,0,0,0,0,1.893l1.969,1.969a1.37,1.37,0,0,0,1.893,0l2.216-2.215A2.19,2.19,0,0,1,169.6,350.637Zm6.015-.93a9.861,9.861,0,1,1,9.861-9.861A9.872,9.872,0,0,1,175.61,349.707Zm0-18.873a9.012,9.012,0,1,0,9.011,9.012A9.022,9.022,0,0,0,175.61,330.834Z" transform="translate(-156.859 -321.095)" fill="#fff"/>
            </g>
          </g>
        </g>
        <g id="Group_27" data-name="Group 27" transform="translate(0 23.711)">
          <g id="Group_22" data-name="Group 22" transform="translate(111.818 47.961)" opacity="0.81">
            <path id="Path_16" data-name="Path 16" d="M408.357,299.771H402.82a.425.425,0,0,1,0-.849h5.537a.425.425,0,0,1,0,.849Z" transform="translate(-377.455 -287.662)" fill="#fff"/>
            <path id="Path_17" data-name="Path 17" d="M408.357,321.253H402.82a.425.425,0,0,1,0-.849h5.537a.425.425,0,0,1,0,.849Z" transform="translate(-377.455 -300.02)" fill="#fff"/>
            <g id="Group_21" data-name="Group 21">
              <g id="Group_20" data-name="Group 20">
                <g id="Group_19" data-name="Group 19">
                  <path id="Path_18" data-name="Path 18" d="M378.487,302.855H344.824a1.153,1.153,0,0,1-1.152-1.152V273.559a1.153,1.153,0,0,1,1.152-1.151h33.663a1.153,1.153,0,0,1,1.152,1.151V301.7A1.153,1.153,0,0,1,378.487,302.855Zm-33.663-29.6a.3.3,0,0,0-.3.3V301.7a.3.3,0,0,0,.3.3h33.663a.3.3,0,0,0,.3-.3V273.559a.3.3,0,0,0-.3-.3Z" transform="translate(-343.672 -272.408)" fill="#fff"/>
                  <path id="Path_19" data-name="Path 19" d="M378.487,302.855H344.824a1.153,1.153,0,0,1-1.152-1.152V273.559a1.153,1.153,0,0,1,1.152-1.151h33.663a1.153,1.153,0,0,1,1.152,1.151V301.7A1.153,1.153,0,0,1,378.487,302.855Zm-33.663-29.6a.3.3,0,0,0-.3.3V301.7a.3.3,0,0,0,.3.3h33.663a.3.3,0,0,0,.3-.3V273.559a.3.3,0,0,0-.3-.3Z" transform="translate(-343.672 -272.408)" fill="#fff" opacity="0.66"/>
                </g>
              </g>
              <path id="Path_20" data-name="Path 20" d="M380.117,289.345H353.734a.425.425,0,1,1,0-.849h26.384a.425.425,0,1,1,0,.849Z" transform="translate(-349.216 -281.663)" fill="#fff"/>
              <path id="Path_21" data-name="Path 21" d="M380.117,310.2H353.734a.425.425,0,0,1,0-.849h26.384a.425.425,0,1,1,0,.849Z" transform="translate(-349.216 -293.659)" fill="#fff"/>
              <path id="Path_22" data-name="Path 22" d="M367.958,299.771H353.734a.425.425,0,0,1,0-.849h14.224a.425.425,0,0,1,0,.849Z" transform="translate(-349.216 -287.662)" fill="#fff"/>
              <path id="Path_23" data-name="Path 23" d="M367.958,321.253H353.734a.425.425,0,1,1,0-.849h14.224a.425.425,0,1,1,0,.849Z" transform="translate(-349.216 -300.02)" fill="#fff"/>
              <path id="Path_24" data-name="Path 24" d="M363.326,331.205h-9.593a.425.425,0,1,1,0-.849h9.593a.425.425,0,1,1,0,.849Z" transform="translate(-349.216 -305.746)" fill="#fff"/>
            </g>
          </g>
          <g id="Group_26" data-name="Group 26" opacity="0.81">
            <path id="Path_25" data-name="Path 25" d="M153.713,190.409h-6.282a.425.425,0,0,1,0-.849h6.282a.425.425,0,0,1,0,.849Z" transform="translate(-118.712 -176.785)" fill="#fff"/>
            <path id="Path_26" data-name="Path 26" d="M153.713,214.782h-6.282a.425.425,0,1,1,0-.849h6.282a.425.425,0,0,1,0,.849Z" transform="translate(-118.712 -190.806)" fill="#fff"/>
            <g id="Group_25" data-name="Group 25">
              <g id="Group_24" data-name="Group 24">
                <g id="Group_23" data-name="Group 23">
                  <path id="Path_27" data-name="Path 27" d="M119.924,193.908H81.535a1.153,1.153,0,0,1-1.151-1.151V160.63a1.153,1.153,0,0,1,1.151-1.151h38.388a1.153,1.153,0,0,1,1.151,1.151v32.126A1.153,1.153,0,0,1,119.924,193.908Zm-38.388-33.58a.3.3,0,0,0-.3.3v32.126a.3.3,0,0,0,.3.3h38.388a.3.3,0,0,0,.3-.3V160.63a.3.3,0,0,0-.3-.3Z" transform="translate(-80.384 -159.479)" fill="#fff"/>
                  <path id="Path_28" data-name="Path 28" d="M119.924,193.908H81.535a1.153,1.153,0,0,1-1.151-1.151V160.63a1.153,1.153,0,0,1,1.151-1.151h38.388a1.153,1.153,0,0,1,1.151,1.151v32.126A1.153,1.153,0,0,1,119.924,193.908Zm-38.388-33.58a.3.3,0,0,0-.3.3v32.126a.3.3,0,0,0,.3.3h38.388a.3.3,0,0,0,.3-.3V160.63a.3.3,0,0,0-.3-.3Z" transform="translate(-80.384 -159.479)" fill="#fff" opacity="0.66"/>
                </g>
              </g>
              <path id="Path_29" data-name="Path 29" d="M121.675,178.58H91.742a.425.425,0,0,1,0-.849h29.933a.425.425,0,0,1,0,.849Z" transform="translate(-86.674 -169.979)" fill="#fff"/>
              <path id="Path_30" data-name="Path 30" d="M121.675,202.237H91.742a.425.425,0,0,1,0-.849h29.933a.425.425,0,0,1,0,.849Z" transform="translate(-86.674 -183.589)" fill="#fff"/>
              <path id="Path_31" data-name="Path 31" d="M107.88,190.409H91.742a.425.425,0,0,1,0-.849H107.88a.425.425,0,0,1,0,.849Z" transform="translate(-86.674 -176.785)" fill="#fff"/>
              <path id="Path_32" data-name="Path 32" d="M107.88,214.782H91.742a.425.425,0,0,1,0-.849H107.88a.425.425,0,0,1,0,.849Z" transform="translate(-86.674 -190.806)" fill="#fff"/>
              <path id="Path_33" data-name="Path 33" d="M102.625,226.073H91.742a.425.425,0,0,1,0-.849h10.883a.425.425,0,0,1,0,.849Z" transform="translate(-86.674 -197.302)" fill="#fff"/>
            </g>
          </g>
        </g>
      </g>
      <g id="Group_34" data-name="Group 34" transform="translate(0 48.547)">
        <g id="Group_30" data-name="Group 30" transform="translate(99.047 0)">
          <g id="Group_29" data-name="Group 29">
            <path id="Path_34" data-name="Path 34" d="M351.614,158.019H332.525a2.047,2.047,0,0,0-1.894,1.554l-.632,2.1a2.048,2.048,0,0,1-1.894,1.554H300.777a2.176,2.176,0,0,0-2.005,2.313h0v30.941a2.176,2.176,0,0,0,2.005,2.314h50.837a2.232,2.232,0,0,0,2.141-2.314V160.333A2.232,2.232,0,0,0,351.614,158.019Z" transform="translate(-298.772 -158.019)" fill="#3e479b"/>
            <path id="Path_35" data-name="Path 35" d="M332.111,166.1l.675-2.1a2.159,2.159,0,0,1,2.022-1.554h16.805a2.232,2.232,0,0,1,2.141,2.314V200.9a2.232,2.232,0,0,1-2.141,2.313h-50.7a2.232,2.232,0,0,1-2.141-2.313V169.964a2.232,2.232,0,0,1,2.141-2.314h29.177A2.159,2.159,0,0,0,332.111,166.1Z" transform="translate(-298.772 -160.565)" fill="#6d6cd4"/>
            <path id="Path_36" data-name="Path 36" d="M337.632,171.4l.636-1.978a2.036,2.036,0,0,1,1.906-1.464h15.84a2.1,2.1,0,0,1,2.018,2.181v34.069a2.1,2.1,0,0,1-2.018,2.181H308.225a2.1,2.1,0,0,1-2.017-2.181V175.046a2.1,2.1,0,0,1,2.017-2.181h27.5A2.035,2.035,0,0,0,337.632,171.4Z" transform="translate(-303.05 -163.738)" fill="#fff" opacity="0.12"/>
          </g>
          <path id="Path_37" data-name="Path 37" d="M397.031,235.117H384.49a.425.425,0,1,1,0-.849h12.541A1.469,1.469,0,0,0,398.5,232.8v-9.949a.425.425,0,0,1,.849,0V232.8A2.32,2.32,0,0,1,397.031,235.117Z" transform="translate(-347.841 -195.072)" fill="#fff"/>
        </g>
        <g id="Group_33" data-name="Group 33" transform="translate(0 35.189)">
          <g id="Group_32" data-name="Group 32">
            <g id="Group_31" data-name="Group 31">
              <path id="Path_38" data-name="Path 38" d="M67.71,240.875H86.922a2.127,2.127,0,0,1,1.906,1.748l.637,2.36a2.127,2.127,0,0,0,1.906,1.747h27.5a2.367,2.367,0,0,1,2.018,2.6h0v34.8a2.367,2.367,0,0,1-2.018,2.6H67.71a2.411,2.411,0,0,1-2.155-2.6v-40.66A2.41,2.41,0,0,1,67.71,240.875Z" transform="translate(-65.555 -240.875)" fill="#f28393"/>
              <path id="Path_39" data-name="Path 39" d="M87.338,249.962l-.68-2.36a2.226,2.226,0,0,0-2.035-1.748H67.71a2.411,2.411,0,0,0-2.155,2.6v40.66a2.411,2.411,0,0,0,2.155,2.6h51.028a2.411,2.411,0,0,0,2.154-2.6v-34.8a2.41,2.41,0,0,0-2.154-2.6H89.373A2.225,2.225,0,0,1,87.338,249.962Z" transform="translate(-65.555 -243.739)" fill="#fff" opacity="0.12"/>
              <path id="Path_40" data-name="Path 40" d="M86.087,255.929l-.64-2.225a2.1,2.1,0,0,0-1.918-1.647H67.586a2.272,2.272,0,0,0-2.03,2.453v38.324a2.272,2.272,0,0,0,2.03,2.453h48.1a2.272,2.272,0,0,0,2.03-2.453V260.029a2.272,2.272,0,0,0-2.03-2.453H88A2.1,2.1,0,0,1,86.087,255.929Z" transform="translate(-65.555 -247.308)" fill="#fff" opacity="0.12"/>
            </g>
          </g>
          <path id="Path_41" data-name="Path 41" d="M74.283,265.531a.4.4,0,0,1-.38-.425v-5.895a1.38,1.38,0,0,1,1.3-1.448h7.918a.427.427,0,0,1,0,.849H75.2a.57.57,0,0,0-.536.6v5.895A.4.4,0,0,1,74.283,265.531Z" transform="translate(-70.358 -250.591)" fill="#fff"/>
        </g>
      </g>
      <g id="Group_49" data-name="Group 49" transform="translate(26.058 0)">
        <g id="Group_42" data-name="Group 42" transform="translate(9.735)">
          <g id="Group_36" data-name="Group 36" transform="translate(0 12.083)">
            <g id="Group_35" data-name="Group 35">
              <rect id="Rectangle_2" data-name="Rectangle 2" width="87.398" height="32.821" rx="16.411" transform="translate(0 20.57)" fill="#c5d9ff"/>
              <circle id="Ellipse_9" data-name="Ellipse 9" cx="23.079" cy="23.079" r="23.079" transform="translate(20.62)" fill="#599af2"/>
            </g>
          </g>
          <g id="Group_37" data-name="Group 37">
            <rect id="Rectangle_3" data-name="Rectangle 3" width="87.398" height="32.821" rx="16.411" transform="translate(0 27.818)" fill="#599af2"/>
            <circle id="Ellipse_10" data-name="Ellipse 10" cx="23.079" cy="23.079" r="23.079" transform="translate(13.371 18.264) rotate(-23.309)" fill="#599af2"/>
          </g>
          <g id="Group_39" data-name="Group 39" opacity="0.35">
            <g id="Group_38" data-name="Group 38">
              <rect id="Rectangle_4" data-name="Rectangle 4" width="87.398" height="32.821" rx="16.411" transform="translate(0 27.818)" fill="#ecf1f7"/>
              <circle id="Ellipse_11" data-name="Ellipse 11" cx="23.079" cy="23.079" r="23.079" transform="translate(13.371 18.264) rotate(-23.309)" fill="#ecf1f7"/>
            </g>
          </g>
          <g id="Group_41" data-name="Group 41" transform="translate(30.875 25.856)">
            <g id="Group_40" data-name="Group 40" transform="translate(6.366)">
              <path id="Path_42" data-name="Path 42" d="M238.581,112.5a1.062,1.062,0,0,1-.744-1.819l6.194-6.089,6.1,6.1a1.062,1.062,0,0,1-1.5,1.5l-4.607-4.606-4.692,4.613A1.058,1.058,0,0,1,238.581,112.5Z" transform="translate(-237.52 -104.589)" fill="#fff"/>
              <path id="Path_43" data-name="Path 43" d="M251.289,121.528a1.062,1.062,0,0,1-1.062-1.062v-13.8a1.062,1.062,0,0,1,2.124,0v13.8A1.062,1.062,0,0,1,251.289,121.528Z" transform="translate(-244.83 -105.176)" fill="#fff"/>
            </g>
            <path id="Path_44" data-name="Path 44" d="M245.391,143.56h-20.23a2.633,2.633,0,0,1-2.63-2.63v-7.349a1.062,1.062,0,1,1,2.123,0v7.349a.507.507,0,0,0,.507.507h20.23a.666.666,0,0,0,.666-.665v-7.191a1.062,1.062,0,0,1,2.123,0v7.191A2.792,2.792,0,0,1,245.391,143.56Z" transform="translate(-222.531 -120.657)" fill="#fff"/>
          </g>
        </g>
        <g id="Group_44" data-name="Group 44" transform="translate(0 52.998)">
          <path id="Path_45" data-name="Path 45" d="M219.177,238.375,161.28,257.5a2.7,2.7,0,0,1-3.411-1.717l-19.129-57.9a2.7,2.7,0,0,1,1.717-3.411l57.9-19.129a2.7,2.7,0,0,1,3.41,1.717l19.129,57.9A2.7,2.7,0,0,1,219.177,238.375Z" transform="translate(-133.638 -172.362)" fill="#4c65ba" opacity="0.36"/>
          <rect id="Rectangle_5" data-name="Rectangle 5" width="66.375" height="66.375" rx="6.357" transform="translate(0 20.823) rotate(-18.283)" fill="#fff"/>
          <g id="Group_43" data-name="Group 43" transform="translate(7.104 7.153)">
            <rect id="Rectangle_6" data-name="Rectangle 6" width="55.07" height="55.07" transform="translate(0 17.276) rotate(-18.283)" fill="#c5d9ff"/>
            <path id="Path_46" data-name="Path 46" d="M177.974,291.329l-3.911-11.838,5.721-13.79a3.959,3.959,0,0,1,4.852-2.274l10.59,3.289a1.414,1.414,0,0,0,1.636-.624l8.817-14.675a7.327,7.327,0,0,1,9.144-2.947l9.711,4.177.09.272,6.85,20.733-.6.2Zm-2.553-11.788,3.363,10.179,51.08-16.877-6.36-19.25-9.184-3.951a6.047,6.047,0,0,0-7.548,2.433l-8.817,14.675a2.685,2.685,0,0,1-3.106,1.184l-10.59-3.289a2.689,2.689,0,0,0-3.3,1.545Z" transform="translate(-161.143 -221.321)" fill="#fff" opacity="0.47"/>
            <path id="Path_47" data-name="Path 47" d="M215.192,235.814a6.78,6.78,0,1,1,2.121-.343A6.789,6.789,0,0,1,215.192,235.814Zm-.009-12.281a5.5,5.5,0,1,0,5.229,3.777A5.47,5.47,0,0,0,215.183,223.533Z" transform="translate(-180.902 -206.58)" fill="#fff" opacity="0.47"/>
          </g>
        </g>
        <g id="Group_46" data-name="Group 46" transform="translate(52.501 76.269)">
          <rect id="Rectangle_7" data-name="Rectangle 7" width="50.599" height="50.599" rx="6.357" transform="translate(2.568 2.568)" fill="#4c65ba" opacity="0.36"/>
          <rect id="Rectangle_8" data-name="Rectangle 8" width="50.599" height="50.599" rx="6.357" fill="#fff"/>
          <g id="Group_45" data-name="Group 45" transform="translate(3.701 4.309)">
            <rect id="Rectangle_9" data-name="Rectangle 9" width="41.98" height="41.98" transform="translate(0.579)" fill="#6081a8" opacity="0.79"/>
            <path id="Path_48" data-name="Path 48" d="M302.5,300.763H259.247v-9.712l7.476-8.656a3.17,3.17,0,0,1,4.259-.51l6.878,4.914a.928.928,0,0,0,1.147-.052l9.892-8.513a5.736,5.736,0,0,1,7.523.055l6.081,5.392Zm-41.981-1.274h40.707V284.253l-5.652-5.011a4.46,4.46,0,0,0-5.846-.043l-9.892,8.513a2.2,2.2,0,0,1-2.718.123l-6.879-4.913a1.9,1.9,0,0,0-2.554.3l-7.166,8.3Z" transform="translate(-259.247 -258.416)" fill="#fff" opacity="0.47"/>
            <path id="Path_49" data-name="Path 49" d="M308.923,259.687a5.318,5.318,0,1,1,5.318-5.318A5.323,5.323,0,0,1,308.923,259.687Zm0-9.361a4.044,4.044,0,1,0,4.044,4.044A4.048,4.048,0,0,0,308.923,250.326Z" transform="translate(-284.766 -242.421)" fill="#fff" opacity="0.47"/>
          </g>
        </g>
        <g id="Group_48" data-name="Group 48" transform="translate(29.018 101.244)">
          <rect id="Rectangle_10" data-name="Rectangle 10" width="32.686" height="32.686" rx="6.357" transform="translate(2.135 12.44) rotate(-20.54)" fill="#4c65ba" opacity="0.36"/>
          <rect id="Rectangle_11" data-name="Rectangle 11" width="32.686" height="32.686" rx="6.357" transform="translate(0 11.468) rotate(-20.54)" fill="#fff"/>
          <g id="Group_47" data-name="Group 47" transform="translate(3.566 3.59)">
            <rect id="Rectangle_12" data-name="Rectangle 12" width="27.119" height="27.118" transform="matrix(0.936, -0.351, 0.351, 0.936, 0, 9.515)" fill="#599af2"/>
            <path id="Path_50" data-name="Path 50" d="M221.969,343.407l-2.31-6.165,2.589-7.009a2.271,2.271,0,0,1,2.73-1.413l5.275,1.413a.374.374,0,0,0,.426-.182l4.054-7.392a3.935,3.935,0,0,1,4.842-1.774l4.994,1.92,3.986,10.64Zm-.95-6.168,1.7,4.528,24.2-9.068-3.339-8.91-4.46-1.714a2.653,2.653,0,0,0-3.268,1.2l-4.054,7.392a1.645,1.645,0,0,1-1.872.8l-5.275-1.413a1,1,0,0,0-1.205.623Z" transform="translate(-212.853 -307.854)" fill="#fff" opacity="0.47"/>
            <path id="Path_51" data-name="Path 51" d="M238.638,316.094a3.661,3.661,0,1,1,3.424-4.945h0a3.661,3.661,0,0,1-3.424,4.945Zm-.007-6.048a2.387,2.387,0,1,0,2.237,1.55A2.38,2.38,0,0,0,238.631,310.046Z" transform="translate(-221.663 -301.034)" fill="#fff" opacity="0.47"/>
          </g>
        </g>
      </g>
    </g>
  </g>
</svg>
