<svg xmlns="http://www.w3.org/2000/svg" width="15.87" height="16.474" viewBox="0 0 15.87 16.474">
  <g id="All_Level" data-name="All Level" transform="translate(-4027.375 524.629)">
    <rect id="Rectangle_29844" data-name="Rectangle 29844" width="2.945" height="5.196" rx="1.472" transform="translate(4027.375 -513.35)" fill="#212189"/>
    <rect id="Rectangle_29845" data-name="Rectangle 29845" width="2.945" height="7.282" rx="1.472" transform="translate(4031.685 -515.437)" fill="#212189"/>
    <rect id="Rectangle_29846" data-name="Rectangle 29846" width="2.945" height="10.062" rx="1.472" transform="translate(4035.991 -518.219)" fill="#212189"/>
    <rect id="Rectangle_29847" data-name="Rectangle 29847" width="2.945" height="12.845" rx="1.472" transform="translate(4040.3 -521)" fill="#212189"/>
    <path id="Path_125778" data-name="Path 125778" d="M10.9,27.192a45.727,45.727,0,0,0,14.724-7.945l-.266.913.63.184.571-1.924a.328.328,0,0,0-.328-.42l-2,.135.046.657.985-.066A45.117,45.117,0,0,1,10.7,26.551Z" transform="translate(4016.676 -542.628)" fill="#212189"/>
  </g>
</svg>
