<svg id="Component_177_1" data-name="Component 177 – 1" xmlns="http://www.w3.org/2000/svg"
  width="60.016" height="55.347" viewBox="0 0 60.016 55.347">
  <path id="Path_106788" data-name="Path 106788"
    d="M1089.5,1875.857a2.212,2.212,0,0,1,1.976-.712q28.16.02,56.321.01c1.39,0,1.719.333,1.719,1.738v51.866c0,1.388-.334,1.719-1.738,1.719h-34.343a4.3,4.3,0,0,1-.7-.028,1.139,1.139,0,0,1-1-1.178,1.122,1.122,0,0,1,1.064-1.117c.563-.044,1.132-.019,1.7-.02,1.153,0,2.305-.012,3.458.007.312,0,.391-.089.388-.392-.015-1.465-.009-2.93-.006-4.4a5.341,5.341,0,0,1,3.906-5.41c1.254-.417,2.51-.83,3.845-1.271a10.691,10.691,0,0,1-1.119-1.852c-.089-.215-.288-.157-.456-.158-1,0-1.993.011-2.989-.005a1.143,1.143,0,0,1-1.278-1.162,23.676,23.676,0,0,1,.407-6.347,11.472,11.472,0,0,1,22.533,3.076c.011,1,.006,1.993,0,2.989-.006,1.023-.433,1.441-1.475,1.446-.918,0-1.837.018-2.754-.008a.55.55,0,0,0-.613.387,5.1,5.1,0,0,1-.787,1.3c-.206.249-.2.352.145.461,1.353.436,2.718.847,4.034,1.38a5.022,5.022,0,0,1,3.327,4.784c.059,1.561.026,3.125.01,4.688,0,.364.066.529.472.494.521-.045,1.21.165,1.525-.1s.1-.987.1-1.507q.008-19.984.015-39.969c0-.487-.078-.643-.617-.643q-27.047.026-54.094,0c-.487,0-.642.077-.641.616q.028,20.482,0,40.965c0,.5.092.644.622.639,3.067-.031,6.134-.016,9.2-.012a2.812,2.812,0,0,1,.7.064,1.124,1.124,0,0,1,.851,1.125,1.137,1.137,0,0,1-.833,1.083,2.356,2.356,0,0,1-.755.07c-3.438,0-6.876-.017-10.314.014a2.107,2.107,0,0,1-1.8-.715Zm29.95,7.738q13.6,0,27.192.011c.437,0,.548-.1.541-.539-.029-1.7-.024-3.4,0-5.1.005-.386-.1-.477-.482-.477q-27.193.015-54.385,0c-.384,0-.484.1-.479.48.022,1.68.031,3.36,0,5.039-.01.493.12.6.6.6Q1105.938,1883.583,1119.447,1883.6Zm12.257,44.538c3.493,0,6.987-.006,10.48.009.406,0,.571-.051.559-.522-.037-1.443-.009-2.888-.015-4.332a2.957,2.957,0,0,0-2.187-3.083c-1.676-.568-3.36-1.112-5.038-1.676a.907.907,0,0,0-.717.04,7.184,7.184,0,0,1-6.162,0,.822.822,0,0,0-.66-.055c-1.712.582-3.435,1.132-5.146,1.717a2.937,2.937,0,0,0-2.14,3c-.006,1.425.02,2.85-.013,4.274-.011.487.076.648.617.644C1124.756,1928.118,1128.23,1928.133,1131.7,1928.133Zm3.49-12.8c-1.087,0-2.175.011-3.263,0-.86-.012-1.326-.408-1.391-1.181a7.179,7.179,0,0,1,0-1.228,1.153,1.153,0,0,1,1.067-1.124,1.08,1.08,0,0,1,1.2.874c.085.33.253.322.494.321.956,0,1.914-.023,2.869.009.365.012.48-.123.5-.449a15.271,15.271,0,0,0-.031-2.92,4.982,4.982,0,0,0-9.279-1.811,7.5,7.5,0,0,0-.566,4.96,4.646,4.646,0,0,0,3.492,3.922A4.555,4.555,0,0,0,1135.194,1915.332Zm-3.459-14.274a9.113,9.113,0,0,0-8.507,5.776c-.433,1.091-.433,1.091.752,1.091a.81.81,0,0,1,.176,0c.482.109.663-.164.846-.561a7.017,7.017,0,0,1,6.553-4.394,6.847,6.847,0,0,1,6.608,3.919,1.624,1.624,0,0,0,1.847,1.054c.5-.034.519-.146.385-.573A9.169,9.169,0,0,0,1131.735,1901.058Zm-7.394,10.263a1.872,1.872,0,0,1,0-.35c.119-.612-.152-.745-.725-.718-1.052.048-1.054.014-1.054,1.085,0,.98,0,.98.787.98C1124.341,1912.317,1124.341,1912.317,1124.341,1911.321Zm16.5-.008a1.782,1.782,0,0,1,0-.351c.125-.616-.159-.732-.721-.708-1.047.045-1.048.013-1.048,1.139,0,.923,0,.923.833.923C1140.838,1912.317,1140.838,1912.317,1140.838,1911.313Z"
    transform="translate(-1089.497 -1875.145)" fill="#212189" />
  <path id="Path_106789" data-name="Path 106789"
    d="M1120.271,1935.936q-3.338,0-6.677,0a4.8,4.8,0,0,1-5.09-5.1q0-4.509,0-9.019a4.8,4.8,0,0,1,5.085-5.105q6.677-.007,13.353,0a4.807,4.807,0,0,1,5.12,5.13q0,4.48,0,8.96a4.8,4.8,0,0,1-5.115,5.132Q1123.609,1935.94,1120.271,1935.936Zm-.014-2.345c2.285,0,4.57.005,6.855,0a2.424,2.424,0,0,0,2.6-2.594q.012-4.658,0-9.316a2.436,2.436,0,0,0-2.64-2.62q-6.8-.008-13.594,0a2.436,2.436,0,0,0-2.632,2.627q-.008,4.629,0,9.258a2.438,2.438,0,0,0,2.669,2.646Q1116.888,1933.6,1120.257,1933.591Z"
    transform="translate(-1102.175 -1902.87)" fill="#fe4a55" />
  <path id="Path_106790" data-name="Path 106790"
    d="M1118.335,2020.446h-8.257a2.01,2.01,0,0,1-.751-.085,1.106,1.106,0,0,1-.767-1.069,1.072,1.072,0,0,1,.794-1.1,2.339,2.339,0,0,1,.691-.087q8.287-.006,16.573,0c1.08,0,1.689.69,1.392,1.556-.181.525-.619.786-1.358.787Q1122.492,2020.449,1118.335,2020.446Z"
    transform="translate(-1102.212 -1970.5)" fill="#212189" />
  <path id="Path_106791" data-name="Path 106791"
    d="M1115.837,1986.646c-1.992,0-3.984.008-5.976,0-1.013-.006-1.627-.86-1.216-1.671a1.314,1.314,0,0,1,1.325-.673c2.343.007,4.686,0,7.03,0,1.621,0,3.242-.007,4.862,0a1.173,1.173,0,0,1,1.308.991c.106.795-.405,1.342-1.3,1.346C1119.86,1986.653,1117.848,1986.645,1115.837,1986.646Z"
    transform="translate(-1102.182 -1947.954)" fill="#212189" />
  <path id="Path_106792" data-name="Path 106792"
    d="M1114.049,2001.2c1.365,0,2.73-.01,4.094,0a1.171,1.171,0,0,1,1.313,1.233,1.121,1.121,0,0,1-1.146,1.1q-4.3.029-8.6,0a1.161,1.161,0,0,1-1.183-1.194,1.188,1.188,0,0,1,1.25-1.134C1111.2,2001.184,1112.625,2001.2,1114.049,2001.2Z"
    transform="translate(-1102.19 -1959.223)" fill="#212189" />
  <path id="Path_106793" data-name="Path 106793"
    d="M1153.217,2003.527c-.506,0-1.013.014-1.518,0a1.17,1.17,0,1,1,0-2.334q1.547-.036,3.094,0a1.17,1.17,0,1,1,0,2.335C1154.268,2003.542,1153.742,2003.527,1153.217,2003.527Z"
    transform="translate(-1130.155 -1959.208)" fill="#212189" />
  <path id="Path_106794" data-name="Path 106794"
    d="M1162.655,1985.5a1.182,1.182,0,0,1-1.144,1.163,1.166,1.166,0,1,1,.005-2.333A1.19,1.19,0,0,1,1162.655,1985.5Z"
    transform="translate(-1136.745 -1947.971)" fill="#212189" />
  <path id="Path_106795" data-name="Path 106795"
    d="M1142.717,2035.449a1.171,1.171,0,0,1-1.123,1.179,1.167,1.167,0,1,1-.025-2.334A1.174,1.174,0,0,1,1142.717,2035.449Z"
    transform="translate(-1123.458 -1981.301)" fill="#212189" />
  <path id="Path_106796" data-name="Path 106796"
    d="M1178.632,1887.849h12.717a3.932,3.932,0,0,1,.584.02,1.159,1.159,0,0,1-.051,2.312,4.647,4.647,0,0,1-.527.011H1165.8c-1.057,0-1.633-.411-1.636-1.167s.58-1.177,1.63-1.177Z"
    transform="translate(-1139.304 -1883.618)" fill="#212189" />
  <path id="Path_106797" data-name="Path 106797"
    d="M1110.856,1889.061a1.166,1.166,0,1,1-1.128-1.189A1.211,1.211,0,0,1,1110.856,1889.061Z"
    transform="translate(-1102.188 -1883.633)" fill="#212189" />
  <path id="Path_106798" data-name="Path 106798"
    d="M1123.789,1890.2a1.165,1.165,0,1,1,1.151-1.164A1.21,1.21,0,0,1,1123.789,1890.2Z"
    transform="translate(-1111.583 -1883.635)" fill="#212189" />
  <path id="Path_106799" data-name="Path 106799"
    d="M1137.853,1887.874a1.165,1.165,0,1,1-1.161,1.155A1.217,1.217,0,0,1,1137.853,1887.874Z"
    transform="translate(-1120.977 -1883.635)" fill="#212189" />
  <path id="Path_106800" data-name="Path 106800"
    d="M1130.082,1934.948a29.447,29.447,0,0,1,.063-2.987,2.271,2.271,0,0,1,3.253-1.753,39.655,39.655,0,0,1,3.37,2.094c.447.276.892.557,1.325.855a2.325,2.325,0,0,1,0,4.027c-1.195.8-2.42,1.563-3.635,2.337a9.451,9.451,0,0,1-1,.594,2.283,2.283,0,0,1-3.317-1.787,2.6,2.6,0,0,1-.052-.347C1130.079,1937.046,1130.082,1936.11,1130.082,1934.948Zm2.365,3.081,4.453-2.856-4.453-2.853Z"
    transform="translate(-1116.559 -1911.717)" fill="#fe4a55" />
</svg>