<svg xmlns="http://www.w3.org/2000/svg" width="23.261" height="23.432" viewBox="0 0 23.261 23.432">
  <path id="Path_106957" data-name="Path 106957" d="M-862.422,459.624a12.272,12.272,0,0,1,2.495.268.376.376,0,0,0,.391-.124q1.176-1.191,2.367-2.365c.138-.135.156-.215,0-.346a5.422,5.422,0,0,1-.5-.5.82.82,0,0,1,.006-1.188q1.448-1.475,2.922-2.924a.859.859,0,0,1,1.3.066q2.291,2.285,4.574,4.573c1.061,1.061,2.115,2.129,3.185,3.179a1.338,1.338,0,0,1,.309,1.473.539.539,0,0,1-.164.221q-1.33,1.333-2.664,2.665a.884.884,0,0,1-1.416-.009c-.146-.145-.3-.287-.436-.439-.082-.09-.134-.091-.222,0q-1.248,1.257-2.506,2.5c-.093.092-.067.176-.048.28a12.8,12.8,0,0,1,.242,3.438,5.281,5.281,0,0,1-1.319,3.353.835.835,0,0,1-1.156.141,2.058,2.058,0,0,1-.3-.255q-2.387-2.385-4.768-4.777c-.158-.16-.236-.181-.408-.008-1.782,1.8-3.576,3.583-5.363,5.376a1.022,1.022,0,0,1-.772.333.819.819,0,0,1-.779-.5.814.814,0,0,1,.107-.9,2.538,2.538,0,0,1,.229-.247q2.664-2.664,5.333-5.325c.161-.16.147-.239-.005-.39q-2.414-2.4-4.815-4.809a.907.907,0,0,1,.037-1.531,5.078,5.078,0,0,1,2.777-1.165A9.4,9.4,0,0,1-862.422,459.624Zm-.454,1.808a5.28,5.28,0,0,0-1.689.278c-.217.073-.257.127-.072.309,1.253,1.238,2.495,2.487,3.741,3.733q2.892,2.892,5.781,5.788c.148.148.211.153.28-.057a5.71,5.71,0,0,0,.282-1.569,10.97,10.97,0,0,0-.363-3.17.893.893,0,0,1,.206-.91c1.25-1.281,2.495-2.567,3.751-3.841a.832.832,0,0,1,1.212-.022,7.54,7.54,0,0,1,.538.534c.1.111.163.1.262-.005.432-.442.865-.884,1.313-1.31.15-.143.148-.214,0-.361-1.153-1.139-2.3-2.288-3.443-3.434q-1.441-1.441-2.884-2.881c-.073-.073-.122-.212-.276-.06-.48.474-.973.934-1.468,1.393-.1.091-.111.148-.008.243.178.165.351.338.517.515a.78.78,0,0,1-.007,1.251q-1.832,1.845-3.676,3.679a.973.973,0,0,1-1,.264A11.8,11.8,0,0,0-862.876,461.432Z" transform="translate(868.04 -451.629)" fill="#020202" stroke="#f5f5f5" stroke-width="1"/>
</svg>
