<svg xmlns="http://www.w3.org/2000/svg" width="36" height="24" viewBox="0 0 36 24">
  <g id="americanexpress-color-large" transform="translate(0 0)">
    <rect id="Rectangle" width="36" height="24" rx="4" fill="#fff"/>
    <g id="amex" transform="translate(0 0)">
      <path id="Path" d="M6.66,13.425v6.12h6.2l.645-.915.63.915h3.788v-1.38h.42A3.7,3.7,0,0,0,19.463,18v1.545h2.573v-1.1l.87,1.1H34.62a2.513,2.513,0,0,0,1.365-.375v2.58A3,3,0,0,1,33.068,24H3a3,3,0,0,1-3-3V11.55H1.71l.353-.915H2.9l.345.915H17v-1.1l.87,1.1H21.48V11a3,3,0,0,0,1.815.555h2.153l.345-.915h.84L27,11.55h3.675V10.365l.75,1.185H33.96V5.43H31.268V6.675l-.8-1.245H28.11V7.005L27.36,5.43H23.355a2.91,2.91,0,0,0-1.875.615V5.43H8.25L7.8,6.75,7.35,5.4h-3V6.975L3.645,5.4H1.2L0,8.25V3A3,3,0,0,1,3,0H33.068A3,3,0,0,1,36,2.25V13.425H14.145l-.645.9-.63-.9Z" transform="translate(0 0)" fill="#296db6"/>
      <path id="Shape" d="M23.222,4.269c-.036,0-.072,0-.107,0h-2.19v-.9h2.19a.382.382,0,1,0,0-.75h-.99A1.178,1.178,0,0,1,20.8,1.37,1.306,1.306,0,0,1,22.26.05h2.2l-.4.9H22.23a.382.382,0,1,0,0,.75h.983V1.67a1.162,1.162,0,0,1,1.32,1.215,1.313,1.313,0,0,1-1.31,1.384Zm3.9-.013c-.044,0-.088,0-.132-.007H24.833v-.9H27a.383.383,0,1,0,0-.75h-.967a1.178,1.178,0,0,1-1.32-1.245A1.3,1.3,0,0,1,26.168.035h2.2L27.96.95H26.137L26.115.92a.382.382,0,1,0,0,.75h1.02a1.215,1.215,0,0,1,1.23.7V3.38A1.331,1.331,0,0,1,27.117,4.256ZM8.175,4.25H6.885L5.865,2.885l-1.02,1.35H3.615l1.65-2.1L3.548,0H4.822L5.865,1.34l1.05-1.3H8.16l-1.695,2.1L8.174,4.249Zm5.55-.014H12.7V.05H15a1.366,1.366,0,0,1,.159-.009,1.344,1.344,0,0,1,.156,2.679l1.416,1.514H15.45l-1.26-1.5h-.465v1.5Zm0-3.331V1.88H14.91V1.835a.457.457,0,0,0,.525-.465A.466.466,0,0,0,14.91.9Zm6.66,3.33H16.972V.05h3.413v.9L18.008.92v.75h2.317v.915H18.008v.75h2.377v.9Zm-11,0H8.355V.035h2.332V0c.042,0,.079,0,.113,0a1.358,1.358,0,0,1,1.357,1.415,1.395,1.395,0,0,1-1.395,1.429c-.035,0-.07,0-.105,0H9.383V4.234Zm0-3.33V1.97H10.6V1.94A.518.518,0,1,0,10.6.9ZM3.4,4.235H0V0H3.4V.9L1.02.92v.75H3.353v.915H1.02v.75H3.4v.9Z" transform="translate(7.635 14.365)" fill="#296db6"/>
      <path id="Shape-2" data-name="Shape" d="M29.925,4.271H28.92V.041h1.253l1.5,2.25.285.481V.011H33v4.23H31.763L30.195,1.856l-.27-.465V4.271Zm-1.2,0H27.57l-.36-.885h-2l-.36.855H23.753L25.568.011h1.35L28.725,4.27ZM26.2.882h0l-.27.659-.39.99h1.32l-.405-.99L26.2.882ZM4.988,4.271H3.833l-.36-.885H1.5l-.39.855H0L1.837.011H3.173L4.987,4.27ZM2.468.882h0l-.27.659-.413.99H3.143l-.405-.99L2.468.882Zm20.62,3.362h0a1.875,1.875,0,0,1-1.862-2.088V2.1a1.912,1.912,0,0,1,1.9-2.089c.041,0,.082,0,.122,0h1.185V.926H23.274A1.051,1.051,0,0,0,22.23,2.1v.059a1.05,1.05,0,0,0,1.041,1.187h.392l-.413.9H23.19Zm-6.745,0H15.3V.011h2.288a1.328,1.328,0,0,1,1.5,1.334,1.308,1.308,0,0,1-1.155,1.335L19.342,4.24H18.068l-1.26-1.5h-.465v1.5Zm0-3.331v.93h1.185a.464.464,0,0,0,.067,0,.457.457,0,0,0,.458-.47A.472.472,0,0,0,17.58.908l-.053,0ZM6.18,4.242h-1V.011H6.84l.84,2.445.135.465.135-.465L8.775.011h1.642V4.24h-.99V.821l-.2.645L8.25,4.241h-.9L6.39,1.466,6.18.821v3.42Zm14.429,0H19.582V.011H20.61V4.24Zm-5.985,0H11.25V.011h3.375v.9L12.247.926v.75h2.318v.915H12.247v.75h2.378v.9Z" transform="translate(0 6.364)" fill="#296db6"/>
    </g>
  </g>
</svg>
