<svg xmlns="http://www.w3.org/2000/svg" width="16.172" height="16.256" viewBox="0 0 16.172 16.256">
  <g id="Group_65224" data-name="Group 65224" transform="translate(592.413 -1942.131)">
    <path id="Path_106452" data-name="Path 106452" d="M-576.241,1950.259a8.105,8.105,0,0,1-8.35,8.124,8.1,8.1,0,0,1-7.822-8.2,8.1,8.1,0,0,1,8.347-8.052A8.106,8.106,0,0,1-576.241,1950.259Zm-12.458,5.419a.159.159,0,0,0-.008-.132,4.122,4.122,0,0,1-.194-2.3,4.28,4.28,0,0,1,3.051-3.386,5.912,5.912,0,0,1,1.832-.183,3.184,3.184,0,0,0,3.027-4.14,2.986,2.986,0,0,0-2.384-2.165,6.262,6.262,0,0,0-3.52.408,6.963,6.963,0,0,0-3.143,10.469A6.83,6.83,0,0,0-588.7,1955.678Zm8.73-10.844a4.674,4.674,0,0,1,.2,2.528,4.358,4.358,0,0,1-4.272,3.478,8.559,8.559,0,0,0-1,.028,3.2,3.2,0,0,0-2.772,2.952,3.179,3.179,0,0,0,2.37,3.3,5.61,5.61,0,0,0,2.288.008,6.958,6.958,0,0,0,5.75-6.226,6.866,6.866,0,0,0-2.322-5.862C-579.8,1944.967-579.886,1944.9-579.969,1944.834Z" transform="translate(0 0)" fill="#212189"/>
    <path id="Path_106453" data-name="Path 106453" d="M-583.135,1949.6a2.624,2.624,0,0,1-2.609-2.608,2.62,2.62,0,0,1,2.6-2.621,2.617,2.617,0,0,1,2.634,2.617A2.618,2.618,0,0,1-583.135,1949.6Zm-1.446-2.617a1.455,1.455,0,0,0,1.432,1.455,1.455,1.455,0,0,0,1.473-1.451,1.455,1.455,0,0,0-1.432-1.454A1.455,1.455,0,0,0-584.581,1946.979Z" transform="translate(-1.49 -0.5)" fill="#212189"/>
    <path id="Path_106454" data-name="Path 106454" d="M-585.743,1956.7a2.618,2.618,0,0,1,2.63-2.6,2.624,2.624,0,0,1,2.6,2.618,2.618,2.618,0,0,1-2.622,2.611A2.617,2.617,0,0,1-585.743,1956.7Zm2.624-1.441a1.455,1.455,0,0,0-1.462,1.442,1.456,1.456,0,0,0,1.443,1.463,1.457,1.457,0,0,0,1.462-1.444A1.454,1.454,0,0,0-583.119,1955.256Z" transform="translate(-1.49 -2.673)" fill="#212189"/>
  </g>
</svg>
