<svg width="299" height="261" viewBox="0 0 299 261" fill="none" xmlns="http://www.w3.org/2000/svg">
<path d="M241.997 109.031C243.579 109.726 245.159 110.451 246.732 111.155C247.247 111.392 247.647 111.824 247.844 112.356C248.041 112.888 248.019 113.477 247.782 113.992C247.545 114.508 247.113 114.908 246.58 115.105C246.048 115.302 245.46 115.279 244.945 115.042C243.41 114.337 241.842 113.635 240.285 112.951C239.765 112.724 239.357 112.3 239.15 111.772C238.943 111.244 238.954 110.655 239.181 110.135C239.408 109.615 239.832 109.207 240.36 109C240.888 108.793 241.477 108.804 241.997 109.031Z" fill="#FE4A55"/>
<path d="M64.8346 91.8089C65.3871 91.6779 65.969 91.7717 66.4524 92.0698C66.9357 92.3678 67.2809 92.8457 67.4119 93.3982C67.5429 93.9508 67.449 94.5327 67.151 95.0161C66.8529 95.4994 66.375 95.8445 65.8225 95.9755C64.1777 96.3573 62.524 96.7678 60.8972 97.1836C60.6233 97.2598 60.337 97.2806 60.0551 97.2448C59.7731 97.209 59.5011 97.1173 59.255 96.9751C59.0089 96.8329 58.7936 96.6431 58.6217 96.4168C58.4498 96.1904 58.3247 95.932 58.2539 95.6568C58.183 95.3815 58.1678 95.0949 58.209 94.8137C58.2502 94.5325 58.3471 94.2623 58.494 94.0189C58.6409 93.7756 58.8348 93.564 59.0644 93.3965C59.2941 93.229 59.5548 93.109 59.8313 93.0434C61.4769 92.6081 63.1671 92.2025 64.8346 91.8089Z" fill="#FE4A55"/>
<path d="M49.8699 95.8368C50.3487 95.6902 50.8638 95.7164 51.3254 95.9107C51.7869 96.1051 52.1656 96.4553 52.3953 96.9002C52.4578 97.0198 52.509 97.1449 52.5483 97.2739C52.6317 97.5429 52.6611 97.8256 52.6349 98.106C52.6087 98.3863 52.5274 98.6587 52.3957 98.9075C52.2639 99.1564 52.0843 99.3767 51.8671 99.556C51.65 99.7352 51.3996 99.8698 51.1303 99.952C49.5107 100.446 47.8841 100.963 46.2976 101.483C46.0296 101.576 45.7458 101.614 45.4628 101.596C45.1797 101.578 44.9031 101.504 44.649 101.378C44.395 101.252 44.1685 101.077 43.9828 100.863C43.7971 100.648 43.6559 100.399 43.5674 100.13C43.4789 99.8604 43.4449 99.576 43.4674 99.2933C43.4899 99.0106 43.5684 98.7352 43.6983 98.4831C43.8283 98.231 44.0071 98.0073 44.2243 97.825C44.4416 97.6427 44.6929 97.5055 44.9637 97.4212C46.5647 96.8645 48.2199 96.3372 49.8699 95.8368Z" fill="#FE4A55"/>
<path d="M266.752 123.89C267.039 123.402 267.509 123.048 268.057 122.905C268.605 122.763 269.188 122.844 269.676 123.13C271.175 124.014 272.678 124.934 274.121 125.813C274.367 125.957 274.582 126.149 274.753 126.377C274.924 126.605 275.048 126.865 275.117 127.142C275.186 127.419 275.198 127.707 275.154 127.988C275.11 128.27 275.011 128.54 274.861 128.783C274.711 129.026 274.514 129.236 274.281 129.401C274.049 129.566 273.786 129.684 273.507 129.746C273.229 129.808 272.941 129.813 272.66 129.763C272.379 129.712 272.112 129.605 271.873 129.449C270.443 128.568 268.977 127.682 267.508 126.816C267.02 126.529 266.666 126.059 266.524 125.51C266.383 124.961 266.465 124.379 266.752 123.89Z" fill="#FE4A55"/>
<path d="M23.7084 107.834L23.7562 107.925C23.8751 108.179 23.9427 108.455 23.9552 108.735C23.9676 109.016 23.9247 109.296 23.8289 109.56C23.733 109.824 23.5861 110.066 23.3966 110.273C23.207 110.481 22.9785 110.648 22.7241 110.767C21.2026 111.475 19.6647 112.216 18.1652 112.966C17.6575 113.219 17.0701 113.26 16.5324 113.08C15.9946 112.899 15.5504 112.513 15.2975 112.005C15.0447 111.498 15.0039 110.91 15.1841 110.372C15.3643 109.835 15.7507 109.391 16.2584 109.138C17.7902 108.376 19.3584 107.619 20.9177 106.891C21.4151 106.66 21.9821 106.629 22.5015 106.805C23.0208 106.981 23.4529 107.349 23.7084 107.834Z" fill="#FE4A55"/>
<path d="M37.9531 102.078C38.1542 102.608 38.137 103.196 37.9051 103.712C37.6732 104.229 37.2457 104.633 36.7165 104.835C35.1469 105.433 33.5588 106.06 32.0072 106.693C31.4814 106.905 30.8928 106.9 30.3709 106.678C29.8489 106.457 29.4364 106.037 29.224 105.511C29.0116 104.985 29.0168 104.397 29.2384 103.875C29.46 103.353 29.8798 102.94 30.4056 102.728C31.9951 102.076 33.5965 101.446 35.2059 100.832C35.6968 100.645 36.2393 100.645 36.73 100.833C37.2207 101.02 37.6251 101.382 37.8662 101.849C37.9003 101.923 37.9294 102 37.9531 102.078Z" fill="#FE4A55"/>
<path d="M227.577 103.217C229.188 103.819 230.807 104.417 232.415 105.069C232.677 105.172 232.915 105.325 233.118 105.52C233.32 105.715 233.482 105.947 233.594 106.205C233.706 106.462 233.767 106.739 233.772 107.02C233.777 107.301 233.727 107.58 233.624 107.842C233.522 108.103 233.369 108.342 233.174 108.544C232.979 108.746 232.746 108.908 232.489 109.02C232.231 109.133 231.954 109.193 231.673 109.198C231.392 109.203 231.113 109.153 230.852 109.051C229.275 108.431 227.671 107.825 226.075 107.215C225.807 107.12 225.561 106.973 225.351 106.783C225.141 106.593 224.971 106.362 224.851 106.106C224.73 105.849 224.662 105.571 224.651 105.287C224.639 105.004 224.684 104.721 224.782 104.455C224.881 104.189 225.031 103.946 225.225 103.739C225.419 103.532 225.652 103.365 225.91 103.249C226.169 103.132 226.448 103.069 226.731 103.061C227.015 103.054 227.297 103.103 227.561 103.206L227.577 103.217Z" fill="#FE4A55"/>
<path d="M253.19 116.61C253.316 116.358 253.492 116.133 253.706 115.949C253.92 115.765 254.168 115.625 254.436 115.538C254.705 115.45 254.988 115.416 255.269 115.439C255.55 115.461 255.825 115.539 256.076 115.668C257.601 116.446 259.145 117.252 260.662 118.059C261.162 118.326 261.536 118.781 261.701 119.324C261.866 119.867 261.808 120.453 261.541 120.954C261.274 121.454 260.819 121.828 260.276 121.993C259.733 122.158 259.147 122.101 258.646 121.833C257.155 121.037 255.638 120.246 254.134 119.481C253.628 119.225 253.245 118.779 253.068 118.241C252.891 117.703 252.934 117.116 253.19 116.61Z" fill="#FE4A55"/>
<path d="M105.961 89.9529C105.677 89.9824 105.389 89.9544 105.115 89.8705C104.841 89.7866 104.587 89.6486 104.368 89.4647C104.148 89.2808 103.968 89.0547 103.838 88.7998C103.707 88.5449 103.63 88.2664 103.609 87.9809C103.588 87.6953 103.625 87.4085 103.717 87.1375C103.81 86.8665 103.955 86.6167 104.146 86.4031C104.336 86.1894 104.568 86.0162 104.827 85.8938C105.086 85.7713 105.366 85.7021 105.652 85.6902C107.36 85.5654 109.092 85.4611 110.799 85.3708C111.365 85.3407 111.92 85.5369 112.342 85.9162C112.764 86.2955 113.018 86.8269 113.048 87.3934C113.078 87.9599 112.882 88.5152 112.503 88.937C112.123 89.3589 111.592 89.6128 111.026 89.6429C109.35 89.7269 107.642 89.8325 105.961 89.9529Z" fill="#FE4A55"/>
<path d="M165.08 89.8256C165.119 89.5467 165.213 89.2783 165.357 89.0358C165.5 88.7934 165.69 88.5816 165.915 88.4128C166.141 88.244 166.397 88.1214 166.67 88.052C166.943 87.9827 167.227 87.9679 167.506 88.0087C169.188 88.2497 170.908 88.5149 172.617 88.7898C172.895 88.8344 173.16 88.9331 173.399 89.0804C173.638 89.2277 173.846 89.4206 174.011 89.6481C174.175 89.8756 174.293 90.1333 174.358 90.4065C174.423 90.6796 174.434 90.9629 174.389 91.2401C174.344 91.5173 174.246 91.783 174.098 92.0221C173.951 92.2611 173.758 92.4688 173.531 92.6333C173.303 92.7978 173.045 92.9159 172.772 92.9808C172.499 93.0457 172.216 93.0562 171.939 93.0116C170.25 92.7401 168.558 92.4801 166.9 92.2405C166.622 92.2015 166.354 92.1081 166.112 91.9656C165.87 91.8232 165.659 91.6344 165.49 91.4102C165.321 91.1859 165.197 90.9306 165.127 90.6587C165.057 90.3868 165.041 90.1037 165.08 89.8256Z" fill="#FE4A55"/>
<path d="M10.0203 114.804L10.0521 114.865C10.3111 115.357 10.3682 115.931 10.2113 116.464C10.0544 116.998 9.69575 117.449 9.21154 117.722C7.72154 118.564 6.24149 119.424 4.82636 120.279C4.33926 120.571 3.75611 120.658 3.2052 120.52C2.65429 120.382 2.18075 120.031 1.88875 119.544C1.59676 119.057 1.51022 118.473 1.64818 117.922C1.78614 117.372 2.1373 116.898 2.6244 116.606C4.09252 115.723 5.59906 114.849 7.10599 113.994C7.35055 113.855 7.61995 113.767 7.89881 113.733C8.17766 113.698 8.4605 113.72 8.73115 113.795C9.0018 113.87 9.25495 113.998 9.47615 114.171C9.69735 114.344 9.88224 114.56 10.0203 114.804Z" fill="#FE4A55"/>
<path d="M196.876 98.156C196.334 98.0101 195.871 97.6568 195.588 97.1726C195.304 96.6883 195.222 96.1119 195.359 95.5677C195.497 95.0235 195.843 94.5552 196.323 94.264C196.803 93.9727 197.378 93.8818 197.924 94.0109C199.593 94.4282 201.275 94.872 202.931 95.3201C203.215 95.3976 203.48 95.5328 203.709 95.7174C203.938 95.902 204.127 96.1319 204.263 96.3927C204.456 96.7609 204.538 97.1775 204.498 97.5913C204.458 98.0052 204.298 98.3984 204.038 98.7228C203.778 99.0472 203.429 99.2887 203.033 99.4178C202.638 99.5468 202.214 99.5579 201.813 99.4495C200.178 99.0047 198.514 98.5701 196.876 98.156Z" fill="#FE4A55"/>
<path d="M121.198 89.2897C120.633 89.295 120.089 89.0765 119.684 88.682C119.28 88.2874 119.048 87.7489 119.04 87.184C119.031 86.6191 119.247 86.0738 119.639 85.6673C120.031 85.2607 120.568 85.026 121.133 85.0143C122.839 84.9871 124.577 84.9764 126.293 84.9777C126.86 84.9785 127.404 85.2047 127.805 85.6065C128.205 86.0083 128.43 86.5528 128.429 87.1202C128.428 87.6876 128.202 88.2315 127.8 88.6321C127.399 89.0327 126.854 89.2573 126.287 89.2565C124.605 89.2469 122.88 89.2649 121.198 89.2897Z" fill="#FE4A55"/>
<path d="M95.8332 90.8675C94.1577 91.0528 92.4614 91.2539 90.7922 91.4697C90.5096 91.515 90.2207 91.5031 89.9428 91.4347C89.6648 91.3662 89.4035 91.2427 89.1742 91.0713C88.9449 90.9 88.7523 90.6844 88.6079 90.4372C88.4635 90.1901 88.3702 89.9164 88.3335 89.6326C88.2968 89.3487 88.3175 89.0603 88.3944 88.7846C88.4713 88.5088 88.6027 88.2514 88.7809 88.0274C88.9592 87.8034 89.1806 87.6175 89.432 87.4807C89.6834 87.3439 89.9598 87.2589 90.2447 87.2309C91.9405 87.0107 93.6635 86.8053 95.3657 86.6156C95.7931 86.5687 96.2246 86.6517 96.6041 86.8537C96.9836 87.0558 97.2933 87.3676 97.4928 87.7484C97.618 87.9854 97.6967 88.2441 97.7245 88.5107C97.7859 89.0739 97.6212 89.6386 97.2666 90.0805C96.912 90.5224 96.3964 90.8055 95.8332 90.8675Z" fill="#FE4A55"/>
<path d="M80.7412 92.9719C79.0696 93.2566 77.3889 93.5606 75.7465 93.8735C75.1892 93.9794 74.6125 93.8597 74.1435 93.5405C73.6744 93.2214 73.3513 92.7289 73.2453 92.1716C73.1393 91.6142 73.2591 91.0376 73.5783 90.5685C73.8974 90.0995 74.3898 89.7764 74.9472 89.6704C76.6162 89.3532 78.3237 89.0448 80.0278 88.7575C80.474 88.6824 80.9326 88.7508 81.3375 88.9529C81.7424 89.155 82.0727 89.4803 82.2809 89.8821C82.385 90.0814 82.4584 90.2952 82.4985 90.5164C82.5903 91.075 82.4569 91.6471 82.1275 92.1074C81.798 92.5677 81.2995 92.8786 80.7412 92.9719Z" fill="#FE4A55"/>
<path d="M151.704 90.4432C151.422 90.4208 151.147 90.3427 150.895 90.2133C150.644 90.0839 150.42 89.9059 150.238 89.6896C150.056 89.4732 149.918 89.2228 149.833 88.9529C149.748 88.683 149.718 88.399 149.744 88.1173C149.769 87.8355 149.851 87.5617 149.983 87.3116C150.116 87.0616 150.296 86.8403 150.515 86.6606C150.733 86.4809 150.985 86.3463 151.256 86.2647C151.527 86.1832 151.812 86.1561 152.093 86.1853C153.798 86.3417 155.527 86.5148 157.233 86.6999C157.52 86.7203 157.8 86.7984 158.056 86.9293C158.312 87.0603 158.538 87.2416 158.723 87.4622C158.907 87.6829 159.045 87.9385 159.128 88.2137C159.211 88.4888 159.238 88.778 159.207 89.0638C159.176 89.3496 159.088 89.6262 158.947 89.877C158.807 90.1279 158.617 90.3478 158.39 90.5237C158.162 90.6996 157.902 90.8278 157.624 90.9007C157.345 90.9736 157.056 90.9896 156.771 90.9479C155.09 90.7642 153.384 90.5982 151.704 90.4432Z" fill="#FE4A55"/>
<path d="M189.487 94.1908C189.365 94.7401 189.032 95.2194 188.56 95.5248C188.087 95.8302 187.514 95.9371 186.963 95.8223C185.295 95.4623 183.617 95.1179 181.967 94.792C181.687 94.7421 181.421 94.6369 181.182 94.4827C180.943 94.3284 180.738 94.1282 180.578 93.8937C180.418 93.6591 180.306 93.395 180.249 93.1168C180.192 92.8385 180.191 92.5517 180.246 92.273C180.301 91.9944 180.411 91.7295 180.569 91.4938C180.728 91.2582 180.932 91.0565 181.169 90.9005C181.407 90.7445 181.673 90.6374 181.952 90.5855C182.231 90.5335 182.518 90.5377 182.796 90.5978C184.47 90.9251 186.174 91.2805 187.863 91.6438C188.412 91.7653 188.891 92.0983 189.197 92.5708C189.502 93.0432 189.609 93.617 189.494 94.1677L189.487 94.1908Z" fill="#FE4A55"/>
<path d="M211.604 102.296C211.332 102.217 211.078 102.084 210.857 101.905C210.637 101.726 210.454 101.505 210.32 101.255C210.185 101.005 210.102 100.731 210.075 100.448C210.048 100.166 210.077 99.8805 210.162 99.6094C210.246 99.3383 210.383 99.0867 210.566 98.8693C210.748 98.6519 210.972 98.473 211.225 98.343C211.477 98.2131 211.753 98.1347 212.036 98.1125C212.319 98.0903 212.604 98.1247 212.873 98.2136C214.519 98.7251 216.18 99.2573 217.806 99.7941C218.082 99.874 218.339 100.009 218.562 100.19C218.785 100.372 218.969 100.597 219.103 100.851C219.237 101.105 219.319 101.384 219.342 101.671C219.366 101.957 219.332 102.245 219.242 102.518C219.152 102.791 219.007 103.043 218.818 103.259C218.628 103.475 218.396 103.651 218.137 103.775C217.878 103.9 217.596 103.971 217.309 103.984C217.022 103.997 216.735 103.952 216.466 103.851C214.863 103.322 213.227 102.801 211.604 102.296Z" fill="#FE4A55"/>
<path d="M143.561 86.5701C143.736 86.9049 143.819 87.2802 143.802 87.6577C143.785 88.0353 143.669 88.4016 143.464 88.7193C143.259 89.037 142.974 89.2948 142.638 89.4665C142.301 89.6381 141.925 89.7175 141.547 89.6964C139.87 89.6121 138.156 89.5228 136.466 89.4693C136.186 89.4584 135.91 89.3922 135.655 89.2746C135.399 89.157 135.17 88.9903 134.979 88.784C134.788 88.5777 134.64 88.3359 134.543 88.0722C134.445 87.8086 134.401 87.5284 134.412 87.2476C134.423 86.9669 134.489 86.691 134.606 86.4358C134.724 86.1805 134.891 85.951 135.097 85.7602C135.303 85.5694 135.545 85.4211 135.809 85.3238C136.072 85.2265 136.353 85.182 136.633 85.193C138.349 85.2574 140.091 85.3365 141.793 85.4318C142.161 85.4532 142.517 85.5693 142.826 85.7687C143.136 85.9681 143.389 86.2442 143.561 86.5701Z" fill="#FE4A55"/>
<path d="M296.649 144.384C286.675 141.585 273.298 139.482 263.437 140.353L277.777 130.644L282.573 114.04C284.777 123.698 290.905 135.747 296.649 144.384Z" fill="#FE4A55"/>
</svg>
