<svg width="298" height="261" viewBox="0 0 298 261" fill="none" xmlns="http://www.w3.org/2000/svg">
<path d="M241.285 151.89C242.868 151.195 244.447 150.47 246.02 149.766C246.536 149.529 246.936 149.097 247.133 148.565C247.33 148.033 247.307 147.444 247.07 146.929C246.833 146.414 246.401 146.013 245.869 145.817C245.337 145.62 244.749 145.642 244.233 145.879C242.698 146.584 241.131 147.287 239.573 147.97C239.053 148.197 238.645 148.622 238.438 149.15C238.231 149.678 238.242 150.266 238.469 150.786C238.696 151.306 239.121 151.714 239.649 151.921C240.177 152.128 240.765 152.117 241.285 151.89Z" fill="#FE4A55"/>
<path d="M64.1231 169.113C64.6757 169.244 65.2576 169.15 65.741 168.852C66.2243 168.554 66.5694 168.076 66.7004 167.523C66.8314 166.971 66.7376 166.389 66.4395 165.905C66.1415 165.422 65.6636 165.077 65.1111 164.946C63.4663 164.564 61.8126 164.154 60.1857 163.738C59.9119 163.662 59.6256 163.641 59.3436 163.677C59.0617 163.712 58.7897 163.804 58.5436 163.946C58.2974 164.088 58.0821 164.278 57.9102 164.505C57.7383 164.731 57.6133 164.989 57.5425 165.265C57.4716 165.54 57.4563 165.826 57.4976 166.108C57.5388 166.389 57.6357 166.659 57.7826 166.902C57.9294 167.146 58.1234 167.357 58.353 167.525C58.5826 167.692 58.8434 167.812 59.1199 167.878C60.7655 168.313 62.4557 168.719 64.1231 169.113Z" fill="#FE4A55"/>
<path d="M49.1583 165.085C49.6372 165.231 50.1523 165.205 50.6138 165.011C51.0753 164.816 51.454 164.466 51.6838 164.021C51.7463 163.902 51.7975 163.777 51.8368 163.647C51.9201 163.379 51.9496 163.096 51.9234 162.815C51.8972 162.535 51.8159 162.263 51.6841 162.014C51.5524 161.765 51.3727 161.545 51.1556 161.365C50.9384 161.186 50.688 161.052 50.4187 160.969C48.7992 160.475 47.1725 159.958 45.586 159.438C45.318 159.345 45.0342 159.307 44.7512 159.325C44.4682 159.343 44.1916 159.417 43.9375 159.543C43.6834 159.669 43.4569 159.844 43.2712 160.059C43.0855 160.273 42.9443 160.522 42.8558 160.792C42.7674 161.061 42.7334 161.345 42.7558 161.628C42.7783 161.911 42.8568 162.186 42.9868 162.438C43.1167 162.69 43.2955 162.914 43.5128 163.096C43.73 163.279 43.9814 163.416 44.2522 163.5C45.8532 164.057 47.5083 164.584 49.1583 165.085Z" fill="#FE4A55"/>
<path d="M266.041 137.031C266.328 137.519 266.797 137.874 267.346 138.016C267.894 138.159 268.476 138.078 268.965 137.791C270.463 136.907 271.967 135.987 273.409 135.108C273.656 134.964 273.871 134.773 274.042 134.544C274.213 134.316 274.336 134.056 274.405 133.779C274.474 133.502 274.487 133.215 274.443 132.933C274.399 132.651 274.299 132.381 274.149 132.138C273.999 131.896 273.802 131.686 273.57 131.52C273.337 131.355 273.074 131.238 272.796 131.176C272.517 131.114 272.229 131.108 271.949 131.159C271.668 131.21 271.401 131.316 271.162 131.472C269.732 132.354 268.266 133.24 266.797 134.105C266.309 134.393 265.955 134.863 265.813 135.412C265.671 135.96 265.753 136.543 266.041 137.031Z" fill="#FE4A55"/>
<path d="M22.997 153.087L23.0448 152.997C23.1637 152.742 23.2313 152.467 23.2437 152.186C23.2562 151.906 23.2133 151.626 23.1175 151.362C23.0216 151.098 22.8747 150.855 22.6851 150.648C22.4956 150.441 22.2671 150.273 22.0126 150.154C20.4912 149.446 18.9533 148.705 17.4537 147.955C16.9461 147.702 16.3587 147.662 15.8209 147.842C15.2831 148.022 14.839 148.408 14.5861 148.916C14.3333 149.424 14.2925 150.011 14.4727 150.549C14.6528 151.087 15.0393 151.531 15.547 151.784C17.0788 152.546 18.647 153.303 20.2063 154.031C20.7037 154.261 21.2707 154.292 21.79 154.116C22.3094 153.941 22.7415 153.572 22.997 153.087Z" fill="#FE4A55"/>
<path d="M37.2418 158.843C37.4429 158.313 37.4257 157.726 37.1938 157.209C36.9619 156.692 36.5344 156.288 36.0052 156.086C34.4356 155.488 32.8475 154.861 31.2959 154.229C30.7701 154.016 30.1815 154.021 29.6596 154.243C29.1376 154.465 28.7251 154.884 28.5127 155.41C28.3003 155.936 28.3055 156.525 28.5271 157.047C28.7487 157.569 29.1685 157.981 29.6943 158.193C31.2838 158.846 32.8852 159.475 34.4946 160.089C34.9855 160.276 35.528 160.276 36.0187 160.088C36.5093 159.901 36.9138 159.539 37.1549 159.073C37.189 158.998 37.2181 158.921 37.2418 158.843Z" fill="#FE4A55"/>
<path d="M226.865 157.704C228.477 157.102 230.096 156.504 231.704 155.852C231.966 155.75 232.204 155.597 232.406 155.402C232.609 155.207 232.771 154.974 232.883 154.717C232.995 154.459 233.056 154.182 233.061 153.901C233.066 153.62 233.016 153.341 232.913 153.08C232.81 152.818 232.657 152.58 232.462 152.377C232.268 152.175 232.035 152.013 231.777 151.901C231.52 151.789 231.243 151.728 230.962 151.723C230.681 151.718 230.402 151.768 230.141 151.871C228.563 152.491 226.96 153.097 225.363 153.707C225.096 153.801 224.85 153.948 224.64 154.138C224.43 154.329 224.26 154.559 224.139 154.816C224.019 155.073 223.951 155.351 223.939 155.634C223.928 155.917 223.972 156.2 224.071 156.466C224.17 156.732 224.32 156.976 224.514 157.183C224.707 157.39 224.94 157.556 225.199 157.673C225.457 157.789 225.737 157.853 226.02 157.86C226.303 157.867 226.586 157.818 226.85 157.716L226.865 157.704Z" fill="#FE4A55"/>
<path d="M252.478 144.311C252.605 144.563 252.78 144.788 252.994 144.972C253.208 145.156 253.457 145.296 253.725 145.384C253.993 145.471 254.276 145.505 254.558 145.483C254.839 145.46 255.113 145.383 255.364 145.254C256.889 144.476 258.434 143.67 259.95 142.863C260.451 142.596 260.825 142.14 260.99 141.598C261.155 141.055 261.097 140.468 260.83 139.968C260.563 139.467 260.108 139.093 259.565 138.928C259.022 138.763 258.435 138.821 257.935 139.088C256.444 139.884 254.926 140.675 253.423 141.44C252.917 141.696 252.533 142.142 252.356 142.68C252.179 143.219 252.223 143.805 252.478 144.311Z" fill="#FE4A55"/>
<path d="M105.25 170.968C104.965 170.939 104.677 170.967 104.404 171.051C104.13 171.135 103.876 171.273 103.656 171.457C103.437 171.641 103.257 171.867 103.126 172.122C102.996 172.377 102.918 172.655 102.898 172.941C102.877 173.226 102.914 173.513 103.006 173.784C103.098 174.055 103.244 174.305 103.434 174.518C103.625 174.732 103.857 174.905 104.115 175.028C104.374 175.15 104.655 175.219 104.941 175.231C106.648 175.356 108.381 175.46 110.087 175.551C110.654 175.581 111.209 175.385 111.631 175.005C112.053 174.626 112.307 174.095 112.337 173.528C112.367 172.961 112.171 172.406 111.791 171.984C111.412 171.562 110.881 171.309 110.314 171.278C108.638 171.195 106.931 171.089 105.25 170.968Z" fill="#FE4A55"/>
<path d="M164.368 171.096C164.408 171.375 164.502 171.643 164.645 171.886C164.789 172.128 164.978 172.34 165.204 172.509C165.429 172.677 165.686 172.8 165.959 172.869C166.232 172.939 166.516 172.953 166.795 172.913C168.477 172.672 170.196 172.406 171.906 172.132C172.183 172.087 172.449 171.988 172.688 171.841C172.927 171.694 173.135 171.501 173.299 171.273C173.464 171.046 173.582 170.788 173.647 170.515C173.712 170.242 173.722 169.958 173.678 169.681C173.633 169.404 173.534 169.138 173.387 168.899C173.24 168.66 173.047 168.453 172.819 168.288C172.592 168.124 172.334 168.005 172.061 167.941C171.788 167.876 171.505 167.865 171.227 167.91C169.539 168.181 167.846 168.441 166.189 168.681C165.911 168.72 165.643 168.813 165.401 168.956C165.159 169.098 164.947 169.287 164.778 169.511C164.609 169.735 164.486 169.991 164.416 170.263C164.345 170.535 164.329 170.818 164.368 171.096Z" fill="#FE4A55"/>
<path d="M9.30873 146.117L9.34057 146.057C9.59959 145.564 9.65669 144.991 9.49976 144.457C9.34283 143.924 8.98421 143.473 8.49999 143.199C7.00999 142.358 5.52994 141.497 4.11482 140.642C3.62771 140.35 3.04456 140.264 2.49365 140.402C1.94274 140.539 1.4692 140.891 1.17721 141.378C0.885208 141.865 0.798671 142.448 0.936632 142.999C1.07459 143.55 1.42575 144.023 1.91286 144.315C3.38097 145.198 4.88751 146.073 6.39445 146.928C6.639 147.066 6.90841 147.155 7.18726 147.189C7.46611 147.223 7.74895 147.202 8.0196 147.126C8.29025 147.051 8.54341 146.923 8.7646 146.75C8.9858 146.577 9.1707 146.362 9.30873 146.117Z" fill="#FE4A55"/>
<path d="M196.165 162.765C195.623 162.911 195.16 163.265 194.876 163.749C194.592 164.233 194.51 164.81 194.648 165.354C194.785 165.898 195.131 166.366 195.611 166.657C196.091 166.949 196.666 167.04 197.212 166.911C198.881 166.493 200.564 166.049 202.22 165.601C202.504 165.524 202.768 165.389 202.998 165.204C203.227 165.019 203.416 164.79 203.552 164.529C203.745 164.16 203.826 163.744 203.786 163.33C203.746 162.916 203.586 162.523 203.326 162.199C203.066 161.874 202.717 161.633 202.322 161.504C201.927 161.375 201.502 161.364 201.101 161.472C199.466 161.917 197.803 162.351 196.165 162.765Z" fill="#FE4A55"/>
<path d="M120.486 171.632C119.921 171.626 119.377 171.845 118.973 172.239C118.569 172.634 118.337 173.173 118.328 173.737C118.32 174.302 118.535 174.848 118.928 175.254C119.32 175.661 119.857 175.895 120.422 175.907C122.127 175.934 123.866 175.945 125.582 175.944C126.149 175.943 126.693 175.717 127.093 175.315C127.494 174.913 127.719 174.369 127.718 173.801C127.717 173.234 127.491 172.69 127.089 172.289C126.687 171.889 126.143 171.664 125.575 171.665C123.894 171.675 122.169 171.657 120.486 171.632Z" fill="#FE4A55"/>
<path d="M95.1219 170.054C93.4464 169.869 91.7501 169.667 90.0809 169.452C89.7983 169.406 89.5094 169.418 89.2315 169.487C88.9535 169.555 88.6922 169.679 88.4629 169.85C88.2336 170.021 88.041 170.237 87.8966 170.484C87.7522 170.731 87.6589 171.005 87.6222 171.289C87.5855 171.573 87.6062 171.861 87.6831 172.137C87.76 172.413 87.8914 172.67 88.0696 172.894C88.2479 173.118 88.4693 173.304 88.7207 173.441C88.9721 173.578 89.2485 173.662 89.5334 173.69C91.2292 173.911 92.9522 174.116 94.6544 174.306C95.0818 174.353 95.5133 174.27 95.8928 174.068C96.2723 173.866 96.582 173.554 96.7815 173.173C96.9067 172.936 96.9854 172.677 97.0132 172.411C97.0746 171.847 96.9099 171.283 96.5553 170.841C96.2007 170.399 95.6851 170.116 95.1219 170.054Z" fill="#FE4A55"/>
<path d="M80.0297 167.949C78.3581 167.665 76.6773 167.361 75.035 167.048C74.4776 166.942 73.901 167.062 73.4319 167.381C72.9628 167.7 72.6398 168.192 72.5338 168.75C72.4278 169.307 72.5475 169.884 72.8667 170.353C73.1859 170.822 73.6783 171.145 74.2357 171.251C75.9047 171.568 77.6121 171.877 79.3162 172.164C79.7624 172.239 80.221 172.171 80.6259 171.969C81.0308 171.766 81.3611 171.441 81.5694 171.039C81.6735 170.84 81.7468 170.626 81.787 170.405C81.8788 169.846 81.7453 169.274 81.4159 168.814C81.0865 168.354 80.588 168.043 80.0297 167.949Z" fill="#FE4A55"/>
<path d="M150.992 170.478C150.71 170.501 150.435 170.579 150.184 170.708C149.932 170.837 149.709 171.015 149.526 171.232C149.344 171.448 149.206 171.699 149.122 171.968C149.037 172.238 149.006 172.522 149.032 172.804C149.058 173.086 149.139 173.36 149.272 173.61C149.404 173.86 149.585 174.081 149.803 174.261C150.022 174.44 150.274 174.575 150.545 174.657C150.816 174.738 151.1 174.765 151.381 174.736C153.087 174.58 154.816 174.407 156.522 174.221C156.808 174.201 157.088 174.123 157.344 173.992C157.6 173.861 157.827 173.68 158.011 173.459C158.195 173.238 158.333 172.983 158.416 172.708C158.5 172.433 158.527 172.143 158.495 171.858C158.464 171.572 158.376 171.295 158.236 171.044C158.095 170.794 157.905 170.574 157.678 170.398C157.451 170.222 157.19 170.094 156.912 170.021C156.634 169.948 156.344 169.932 156.06 169.974C154.378 170.157 152.673 170.323 150.992 170.478Z" fill="#FE4A55"/>
<path d="M188.775 166.731C188.654 166.181 188.321 165.702 187.848 165.397C187.376 165.091 186.802 164.984 186.251 165.099C184.584 165.459 182.905 165.803 181.255 166.129C180.976 166.179 180.709 166.284 180.47 166.439C180.232 166.593 180.027 166.793 179.866 167.028C179.706 167.262 179.594 167.526 179.537 167.805C179.48 168.083 179.479 168.37 179.534 168.648C179.589 168.927 179.699 169.192 179.858 169.428C180.016 169.663 180.22 169.865 180.458 170.021C180.695 170.177 180.961 170.284 181.24 170.336C181.52 170.388 181.806 170.384 182.084 170.324C183.759 169.996 185.462 169.641 187.151 169.278C187.7 169.156 188.18 168.823 188.485 168.351C188.79 167.878 188.897 167.304 188.782 166.754L188.775 166.731Z" fill="#FE4A55"/>
<path d="M210.893 158.625C210.62 158.705 210.366 158.838 210.146 159.016C209.925 159.195 209.743 159.416 209.608 159.666C209.474 159.916 209.391 160.19 209.364 160.473C209.337 160.756 209.366 161.041 209.45 161.312C209.534 161.583 209.672 161.835 209.854 162.052C210.037 162.27 210.261 162.448 210.513 162.578C210.766 162.708 211.041 162.787 211.325 162.809C211.608 162.831 211.892 162.797 212.162 162.708C213.808 162.196 215.469 161.664 217.094 161.127C217.371 161.047 217.628 160.913 217.851 160.731C218.074 160.549 218.258 160.325 218.392 160.07C218.526 159.816 218.607 159.537 218.631 159.251C218.655 158.964 218.621 158.676 218.53 158.403C218.44 158.13 218.296 157.878 218.106 157.662C217.916 157.446 217.685 157.271 217.426 157.146C217.167 157.022 216.885 156.951 216.598 156.938C216.311 156.925 216.024 156.97 215.754 157.07C214.152 157.599 212.516 158.121 210.893 158.625Z" fill="#FE4A55"/>
<path d="M142.849 174.351C143.024 174.016 143.108 173.641 143.091 173.264C143.074 172.886 142.957 172.52 142.753 172.202C142.548 171.884 142.263 171.627 141.926 171.455C141.589 171.283 141.213 171.204 140.836 171.225C139.159 171.309 137.445 171.399 135.755 171.452C135.474 171.463 135.198 171.529 134.943 171.647C134.688 171.764 134.458 171.931 134.268 172.137C134.077 172.344 133.928 172.586 133.831 172.849C133.734 173.113 133.689 173.393 133.7 173.674C133.711 173.955 133.777 174.23 133.895 174.486C134.013 174.741 134.179 174.97 134.386 175.161C134.592 175.352 134.834 175.5 135.097 175.598C135.361 175.695 135.641 175.739 135.922 175.728C137.637 175.664 139.379 175.585 141.082 175.49C141.449 175.468 141.805 175.352 142.115 175.153C142.425 174.953 142.678 174.677 142.849 174.351Z" fill="#FE4A55"/>
<path d="M295.938 116.538C285.963 119.337 272.587 121.439 262.726 120.568L277.066 130.277L281.862 146.882C284.066 137.224 290.193 125.175 295.938 116.538Z" fill="#FE4A55"/>
</svg>
