<svg id="Component_408_6" data-name="Component 408 – 6" xmlns="http://www.w3.org/2000/svg" xmlns:xlink="http://www.w3.org/1999/xlink" width="119.003" height="45.002" viewBox="0 0 119.003 45.002">
  <defs>
    <linearGradient id="linear-gradient" x1="2.08" y1="-0.296" x2="0.083" y2="1.084" gradientUnits="objectBoundingBox">
      <stop offset="0" stop-color="#16bbec"/>
      <stop offset="0.088" stop-color="#2483e8"/>
      <stop offset="0.207" stop-color="#12c8d6"/>
      <stop offset="0.363" stop-color="#1cb0f1"/>
      <stop offset="0.507" stop-color="#354be4"/>
      <stop offset="0.666" stop-color="#682ceb"/>
      <stop offset="0.791" stop-color="#a91aec"/>
      <stop offset="0.916" stop-color="#c70faf"/>
      <stop offset="1" stop-color="#e10b84"/>
    </linearGradient>
    <linearGradient id="linear-gradient-4" x1="-0.191" y1="1.178" x2="1.142" y2="-0.177" xlink:href="#linear-gradient"/>
    <linearGradient id="linear-gradient-5" x1="-0.538" y1="1.608" x2="1.396" y2="-0.384" gradientUnits="objectBoundingBox">
      <stop offset="0" stop-color="#16bbec"/>
      <stop offset="0" stop-color="#2483e8"/>
      <stop offset="0.207" stop-color="#12c8d6"/>
      <stop offset="0.507" stop-color="#354be4"/>
      <stop offset="0.666" stop-color="#682ceb"/>
      <stop offset="0.791" stop-color="#a91aec"/>
      <stop offset="0.916" stop-color="#c70faf"/>
      <stop offset="1" stop-color="#e10b84"/>
    </linearGradient>
  </defs>
  <g id="Group_109969" data-name="Group 109969" transform="translate(-978.506 -30)">
    <text id="Ask_AI" data-name="Ask AI" transform="translate(1021.496 59)" fill="#212189" font-size="18" font-family="Montserrat-Medium, Montserrat" font-weight="500"><tspan x="0" y="0">Ask AI</tspan></text>
    <g id="AI" transform="translate(993.141 42)">
      <path id="Path_126284" data-name="Path 126284" d="M9.71,7.383l.481,1.444a5.525,5.525,0,0,0,3.183,3.443l1.335.52a.153.153,0,0,1,0,.279l-1.335.52a5.525,5.525,0,0,0-3.183,3.443L9.71,18.477a.134.134,0,0,1-.257,0l-.481-1.444A5.525,5.525,0,0,0,5.79,13.589l-1.335-.52a.153.153,0,0,1,0-.279l1.335-.52A5.525,5.525,0,0,0,8.972,8.827l.481-1.444a.133.133,0,0,1,.257,0Z" transform="translate(0 -2.121)" fill="url(#linear-gradient)"/>
      <path id="Path_126285" data-name="Path 126285" d="M21.517,2.046l.244.676a2.681,2.681,0,0,0,1.612,1.612l.676.244a.069.069,0,0,1,0,.131l-.676.244a2.681,2.681,0,0,0-1.612,1.612l-.244.676a.069.069,0,0,1-.131,0l-.244-.676a2.681,2.681,0,0,0-1.612-1.612l-.676-.244a.069.069,0,0,1,0-.131l.676-.244a2.681,2.681,0,0,0,1.612-1.612l.244-.676A.069.069,0,0,1,21.517,2.046Z" transform="translate(-5.087)" fill="url(#linear-gradient)"/>
      <path id="Path_126286" data-name="Path 126286" d="M21.517,21.219l.244.676a2.681,2.681,0,0,0,1.612,1.612l.676.244a.069.069,0,0,1,0,.131l-.676.244a2.681,2.681,0,0,0-1.612,1.612l-.244.676a.069.069,0,0,1-.131,0l-.244-.676a2.681,2.681,0,0,0-1.612-1.612l-.676-.244a.069.069,0,0,1,0-.131l.676-.244A2.681,2.681,0,0,0,21.143,21.9l.244-.676A.069.069,0,0,1,21.517,21.219Z" transform="translate(-5.087 -6.84)" fill="url(#linear-gradient)"/>
    </g>
  </g>
  <path id="Subtraction_7" data-name="Subtraction 7" d="M13173,24173h-111a4.009,4.009,0,0,1-4-4v-37a4.006,4.006,0,0,1,4-4h111a4.006,4.006,0,0,1,4,4v37A4.009,4.009,0,0,1,13173,24173Zm-111-44a3,3,0,0,0-3,3v37a3.007,3.007,0,0,0,3,3h111a3.007,3.007,0,0,0,3-3v-37a3,3,0,0,0-3-3Z" transform="translate(-13057.998 -24128)" fill="url(#linear-gradient-4)"/>
  <path id="Union_3" data-name="Union 3" d="M13062,24173a4,4,0,0,1-4-4v-37a4,4,0,0,1,4-4h111a4,4,0,0,1,4,4v37a4,4,0,0,1-4,4Z" transform="translate(-13057.998 -24128)" fill="url(#linear-gradient-5)"/>
  <g id="Group_109970" data-name="Group 109970" transform="translate(-978.506 -30)">
    <text id="Ask_AI-2" data-name="Ask AI" transform="translate(1021.496 59)" fill="#fff" font-size="18" font-family="Montserrat-Medium, Montserrat" font-weight="500"><tspan x="0" y="0">Ask AI</tspan></text>
    <g id="AI-2" data-name="AI" transform="translate(993.141 42)">
      <path id="Path_126284-2" data-name="Path 126284" d="M9.71,7.383l.481,1.444a5.525,5.525,0,0,0,3.183,3.443l1.335.52a.153.153,0,0,1,0,.279l-1.335.52a5.525,5.525,0,0,0-3.183,3.443L9.71,18.477a.134.134,0,0,1-.257,0l-.481-1.444A5.525,5.525,0,0,0,5.79,13.589l-1.335-.52a.153.153,0,0,1,0-.279l1.335-.52A5.525,5.525,0,0,0,8.972,8.827l.481-1.444a.133.133,0,0,1,.257,0Z" transform="translate(0 -2.121)" fill="#fff"/>
      <path id="Path_126285-2" data-name="Path 126285" d="M21.517,2.046l.244.676a2.681,2.681,0,0,0,1.612,1.612l.676.244a.069.069,0,0,1,0,.131l-.676.244a2.681,2.681,0,0,0-1.612,1.612l-.244.676a.069.069,0,0,1-.131,0l-.244-.676a2.681,2.681,0,0,0-1.612-1.612l-.676-.244a.069.069,0,0,1,0-.131l.676-.244a2.681,2.681,0,0,0,1.612-1.612l.244-.676A.069.069,0,0,1,21.517,2.046Z" transform="translate(-5.087)" fill="#fff"/>
      <path id="Path_126286-2" data-name="Path 126286" d="M21.517,21.219l.244.676a2.681,2.681,0,0,0,1.612,1.612l.676.244a.069.069,0,0,1,0,.131l-.676.244a2.681,2.681,0,0,0-1.612,1.612l-.244.676a.069.069,0,0,1-.131,0l-.244-.676a2.681,2.681,0,0,0-1.612-1.612l-.676-.244a.069.069,0,0,1,0-.131l.676-.244A2.681,2.681,0,0,0,21.143,21.9l.244-.676A.069.069,0,0,1,21.517,21.219Z" transform="translate(-5.087 -6.84)" fill="#fff"/>
    </g>
  </g>
</svg>
