<svg xmlns="http://www.w3.org/2000/svg" width="62.636" height="62.701" viewBox="0 0 62.636 62.701">
  <g id="Group_65998" data-name="Group 65998" transform="translate(-1071.171 -1590.012)">
    <path id="Path_106784" data-name="Path 106784" d="M1114.18,1590.012c.172.226.444.122.665.191a4.747,4.747,0,0,1,3.351,4.173,4.677,4.677,0,0,1-2.621,4.539.769.769,0,0,0-.528.868c.037.754.038,1.511,0,2.265-.022.45.146.541.558.533,1.285-.023,2.571-.01,3.857-.008a7.847,7.847,0,0,1,8.151,8.121c0,1.327.012,2.654-.007,3.98-.005.349.1.448.445.445a10.7,10.7,0,0,1,2.074.09,4.648,4.648,0,0,1,3.677,4.484,61.722,61.722,0,0,0,0,6.549,4.646,4.646,0,0,1-3.728,4.444,9.187,9.187,0,0,1-1.646.1c-.816,0-.816,0-.816.844q0,2.542,0,5.083a7.859,7.859,0,0,1-8.167,8.167c-3.735,0-7.471,0-11.206-.007a1.82,1.82,0,0,0-1.026.3c-3.779,2.37-7.567,4.726-11.343,7.1a1.748,1.748,0,0,1-1.938.242,1.776,1.776,0,0,1-.818-1.78c.017-1.8-.006-3.592.015-5.388,0-.375-.085-.475-.468-.472-2.429.019-4.858.013-7.287.009a7.848,7.848,0,0,1-7.926-7.914c-.009-1.878-.02-3.756.011-5.634.008-.473-.129-.579-.574-.556a6.74,6.74,0,0,1-2.247-.174,4.744,4.744,0,0,1-3.469-4.459v-6.37a4.7,4.7,0,0,1,3.978-4.6,9.294,9.294,0,0,1,1.832-.057c.377.012.484-.091.477-.472-.025-1.327-.012-2.653-.009-3.98a7.845,7.845,0,0,1,8.052-8.095c1.347-.007,2.695-.01,4.042.006.34,0,.467-.092.456-.447-.022-.8-.026-1.592,0-2.388a.746.746,0,0,0-.5-.827,4.632,4.632,0,0,1-2.626-4.587,4.719,4.719,0,0,1,3.213-4.081c.159-.055.375-.026.457-.238h1.714c.168.229.442.127.662.2a4.735,4.735,0,0,1,3.338,4.242,4.668,4.668,0,0,1-2.689,4.495.649.649,0,0,0-.456.724,21.869,21.869,0,0,1,0,2.324c-.033.513.163.592.618.589,3.08-.018,6.161-.009,9.241-.009,2.794,0,5.59-.014,8.384.011.5,0,.624-.142.6-.615-.038-.753-.035-1.511,0-2.264a.709.709,0,0,0-.487-.773,4.688,4.688,0,0,1,.078-8.484,12.376,12.376,0,0,1,1.167-.437Zm-17.908,58.291c.259-.156.4-.236.533-.321,3.006-1.878,6.02-3.742,9.01-5.645a3.827,3.827,0,0,1,2.184-.613c3.837.024,7.674.014,11.51.009a4.681,4.681,0,0,0,4.958-4.939q0-13.041,0-26.083a4.716,4.716,0,0,0-5.021-5.013q-16.929,0-33.859,0a4.694,4.694,0,0,0-4.985,4.978q-.006,13.042,0,26.083a4.667,4.667,0,0,0,4.974,4.973q4.317.005,8.633,0c1.515,0,2.061.55,2.062,2.067C1096.273,1645.265,1096.272,1646.728,1096.272,1648.3Zm-18.824-25.387v-3.363c0-1.353,0-1.353-1.33-1.318a1.6,1.6,0,0,0-1.791,1.825c-.008,1.651.047,3.3-.014,4.953-.084,2.3.541,2.727,2.708,2.63.349-.015.438-.107.434-.446C1077.437,1625.77,1077.447,1624.344,1077.448,1622.916Zm50.164.007v3.177c0,1.652,0,1.652,1.655,1.524a1.486,1.486,0,0,0,1.446-1.455q.036-3.239,0-6.478a1.43,1.43,0,0,0-1.285-1.4c-.441-.059-.9-.019-1.34-.059-.379-.033-.488.1-.482.478C1127.626,1620.111,1127.613,1621.517,1127.613,1622.923Zm-14.123-26.637a1.552,1.552,0,1,0-1.543-1.547A1.534,1.534,0,0,0,1113.49,1596.286Zm-21.912,0a1.553,1.553,0,1,0-1.573-1.521A1.547,1.547,0,0,0,1091.578,1596.286Z" fill="#212189"/>
    <path id="Path_106785" data-name="Path 106785" d="M1106.493,1642.083a26.73,26.73,0,0,1-11.376-2.416,1.612,1.612,0,0,1-1.04-2.059,1.564,1.564,0,0,1,2.219-.842,20.994,20.994,0,0,0,6.17,1.853,24.757,24.757,0,0,0,14.213-1.827,1.575,1.575,0,1,1,1.306,2.85A26.739,26.739,0,0,1,1106.493,1642.083Z" transform="translate(-3.99 -8.148)" fill="#fe4a55"/>
    <path id="Path_106786" data-name="Path 106786" d="M1122.363,1621.128a1.558,1.558,0,1,1-3.1.224c-.139-1.02-.724-1.6-1.609-1.582s-1.433.607-1.544,1.639a1.563,1.563,0,0,1-3.122-.154,4.692,4.692,0,0,1,9.379-.127Z" transform="translate(-7.315 -4.655)" fill="#fe4a55"/>
    <path id="Path_106787" data-name="Path 106787" d="M1103.37,1621.171a1.555,1.555,0,1,1-3.1.209c-.13-1.025-.7-1.607-1.579-1.608-.9,0-1.461.592-1.581,1.662a1.56,1.56,0,0,1-3.114-.192,4.689,4.689,0,0,1,9.376-.07Z" transform="translate(-3.993 -4.655)" fill="#fe4a55"/>
  </g>
</svg>
