<svg xmlns="http://www.w3.org/2000/svg" xmlns:xlink="http://www.w3.org/1999/xlink" width="244" height="125" viewBox="0 0 244 125">
  <defs>
    <filter id="Rectangle_13" x="0" y="0" width="244" height="125" filterUnits="userSpaceOnUse">
      <feOffset dx="5" dy="10" input="SourceAlpha"/>
      <feGaussianBlur stdDeviation="10" result="blur"/>
      <feFlood flood-color="#374ab8" flood-opacity="0.102"/>
      <feComposite operator="in" in2="blur"/>
      <feComposite in="SourceGraphic"/>
    </filter>
  </defs>
  <g id="Group_65192" data-name="Group 65192" transform="translate(-1109 -290)">
    <g transform="matrix(1, 0, 0, 1, 1109, 290)" filter="url(#Rectangle_13)">
      <rect id="Rectangle_13-2" data-name="Rectangle 13" width="184" height="65" rx="12" transform="translate(25 20)" fill="#fff"/>
    </g>
    <g id="Group_66555" data-name="Group 66555">
      <g id="Path_107155" data-name="Path 107155" transform="translate(1149 323)" fill="rgba(254,74,85,0.15)">
        <path d="M 20 39.5 C 17.36730003356934 39.5 14.8136100769043 38.98448944091797 12.40987968444824 37.96780014038086 C 10.08788967132568 36.98567962646484 8.002429962158203 35.57958984375 6.211420059204102 33.78858184814453 C 4.42041015625 31.99757957458496 3.014319896697998 29.9121208190918 2.03220009803772 27.59012985229492 C 1.015509963035583 25.1863899230957 0.5 22.63269996643066 0.5 20 C 0.5 17.36730003356934 1.015509963035583 14.8136100769043 2.03220009803772 12.40987968444824 C 3.014319896697998 10.08788967132568 4.42041015625 8.002429962158203 6.211420059204102 6.211420059204102 C 8.002429962158203 4.42041015625 10.08788967132568 3.014319896697998 12.40987968444824 2.03220009803772 C 14.8136100769043 1.015509963035583 17.36730003356934 0.5 20 0.5 C 22.63269996643066 0.5 25.1863899230957 1.015509963035583 27.59012985229492 2.03220009803772 C 29.9121208190918 3.014319896697998 31.99757957458496 4.42041015625 33.78858184814453 6.211420059204102 C 35.57958984375 8.002429962158203 36.98567962646484 10.08788967132568 37.96780014038086 12.40987968444824 C 38.98448944091797 14.8136100769043 39.5 17.36730003356934 39.5 20 C 39.5 22.63269996643066 38.98448944091797 25.1863899230957 37.96780014038086 27.59012985229492 C 36.98567962646484 29.9121208190918 35.57958984375 31.99757957458496 33.78858184814453 33.78858184814453 C 31.99757957458496 35.57958984375 29.9121208190918 36.98567962646484 27.59012985229492 37.96780014038086 C 25.1863899230957 38.98448944091797 22.63269996643066 39.5 20 39.5 Z" stroke="none"/>
        <path d="M 20 1 C 17.4345703125 1 14.94642066955566 1.502220153808594 12.60465049743652 2.492698669433594 C 10.34226036071777 3.449611663818359 8.310220718383789 4.819721221923828 6.564968109130859 6.564968109130859 C 4.819721221923828 8.310220718383789 3.449611663818359 10.34226036071777 2.492698669433594 12.60465049743652 C 1.502220153808594 14.94642066955566 1 17.4345703125 1 20 C 1 22.5654296875 1.502220153808594 25.05358123779297 2.492698669433594 27.39535140991211 C 3.449611663818359 29.65773963928223 4.819721221923828 31.68978118896484 6.564968109130859 33.43502807617188 C 8.310220718383789 35.18027877807617 10.34226036071777 36.55038833618164 12.60465049743652 37.50730133056641 C 14.94642066955566 38.49777984619141 17.4345703125 39 20 39 C 22.5654296875 39 25.05358123779297 38.49777984619141 27.39535140991211 37.50730133056641 C 29.65773963928223 36.55038833618164 31.68978118896484 35.18027877807617 33.43502807617188 33.43502807617188 C 35.18027877807617 31.68978118896484 36.55038833618164 29.65773963928223 37.50730133056641 27.39535140991211 C 38.49777984619141 25.05358123779297 39 22.5654296875 39 20 C 39 17.4345703125 38.49777984619141 14.94642066955566 37.50730133056641 12.60465049743652 C 36.55038833618164 10.34226036071777 35.18027877807617 8.310220718383789 33.43502807617188 6.564968109130859 C 31.68978118896484 4.819721221923828 29.65773963928223 3.449611663818359 27.39535140991211 2.492698669433594 C 25.05358123779297 1.502220153808594 22.5654296875 1 20 1 M 20 0 C 31.04570007324219 0 40 8.954299926757812 40 20 C 40 31.04570007324219 31.04570007324219 40 20 40 C 8.954299926757812 40 0 31.04570007324219 0 20 C 0 8.954299926757812 8.954299926757812 0 20 0 Z" stroke="none" fill="#fe4a55"/>
      </g>
      <text id="Ask_AI" data-name="Ask AI" transform="translate(1203 348)" fill="#221f20" font-size="17" font-family="Poppins-Regular, Poppins"><tspan x="0" y="0">Ask AI</tspan></text>
      <g id="ai" transform="translate(1157.824 332.801)">
        <path id="Path_107155-2" data-name="Path 107155" d="M368.447,161.905h1.143a.381.381,0,0,0,.381-.381v-1.143a.381.381,0,0,0-.762,0v.762h-.762a.381.381,0,1,0,0,.762Zm0,0" transform="translate(-350.537 -152.379)" fill="#fe4a55"/>
        <path id="Path_107156" data-name="Path 107156" d="M157.383,107.048a1.524,1.524,0,1,0-1.524-1.524A1.524,1.524,0,0,0,157.383,107.048Zm0-2.286a.762.762,0,1,1-.762.762A.762.762,0,0,1,157.383,104.762Zm0,0" transform="translate(-148.437 -99.046)" fill="#fe4a55"/>
        <path id="Path_107157" data-name="Path 107157" d="M.622,7.876a1.137,1.137,0,0,0,1.6-.64l3-.046-.523.432a.381.381,0,0,0-.088.485l.712,1.23.016,1.715h-1.9a.336.336,0,0,0-.066.013,1.143,1.143,0,1,0,0,.735.335.335,0,0,0,.066.013H5.717a.381.381,0,0,0,.381-.384L6.081,9.5,7.3,9.04q.124.08.252.147l.257,1.545a.381.381,0,0,0,.376.318h.2v1.905H7.241a.381.381,0,0,0-.381.381v5.559L3.542,22.212a.381.381,0,0,0,.269.65H16.005a.381.381,0,0,0,.269-.65l-2.556-2.556V17.634l.853-1.421a10.049,10.049,0,0,0,2.576,1.315h2.286a.381.381,0,0,0,.381-.381V15.019l.65-.65a.385.385,0,0,0,.112-.27V12.956h.557a.762.762,0,0,0,.7-1.071L20.646,9.217a2.961,2.961,0,0,0,.694-1.912,6.615,6.615,0,0,0-3.677-5.949L16.558.8a.381.381,0,0,0-.48.12l-.16.221h-2.58V.381A.381.381,0,0,0,12.957,0H9.146a.381.381,0,0,0-.381.381V1.906H8.184a.381.381,0,0,0-.376.319L7.551,3.769c-.085.044-.169.093-.252.147l-1.467-.55a.381.381,0,0,0-.464.166L4.983,4.2c-.01,0-.018-.006-.028-.006H2.669V2.979a1.143,1.143,0,1,0-.762,0V4.573a.381.381,0,0,0,.381.381h2.28a.377.377,0,0,0,.125.381l1.209,1c0,.028,0,.056,0,.085l-3.682.057a1.143,1.143,0,1,0-1.6,1.4Zm1.665,3.937a.381.381,0,1,1,.381-.381A.381.381,0,0,1,2.288,11.813Zm0-10.288a.381.381,0,1,1-.381.381A.381.381,0,0,1,2.288,1.525Zm6.859,9.526h.562a.381.381,0,0,0,.376-.318l.257-1.545c.085-.044.169-.093.252-.147l1.468.55a.381.381,0,0,0,.464-.166l.161-.279h1.8a.348.348,0,0,0,.083-.017l.679.906v.635H13.719v.762H14.6l-1.021.408a.381.381,0,0,0-.24.354v.762H9.146Zm4.14-6.2-.161-.279H14.1V6.1H12.275l.924-.762a.381.381,0,0,0,.088-.483ZM14.1,6.859V8.383h-.974l.161-.279a.381.381,0,0,0-.088-.483l-.924-.762Zm-2.556,9.414,1.413,1.413v.223H10.671V13.718h.762V16a.381.381,0,0,0,.112.269ZM9.129,21.339h.017v-.02l1.43-1.634a.382.382,0,0,0,.094-.251v-.762h.762V22.1H8.46Zm-4.4.762,2.779-2.779a.381.381,0,0,0,.112-.269V13.718H9.908V19.29l-.762.871V18.29H8.384v2.744L7.449,22.1Zm10.354,0H12.195V18.671h.762v1.143a.381.381,0,0,0,.112.269Zm-1.824-5.187-1.067-1.067V13.718h1.143v1.524a.382.382,0,0,0,.179.323c.142.089.271.168.4.25ZM16.507,1.63l.815.408a5.858,5.858,0,0,1,3.256,5.268,2.207,2.207,0,0,1-.65,1.571.381.381,0,0,0-.079.424l1.286,2.894H20.2a.381.381,0,0,0-.381.381v1.143H19.75a2.205,2.205,0,0,1-1.57-.65.381.381,0,0,0-.539.539,2.954,2.954,0,0,0,1.671.838l-.147.147a.381.381,0,0,0-.112.269v1.905l-1.869,0a20.258,20.258,0,0,1-2.543-1.406l0,0h0c-.179-.109-.359-.22-.537-.33V12.452l1.666-.666a.381.381,0,0,0,.24-.354V9.907a.381.381,0,0,0-.076-.229L14.862,8.256V3.933ZM9.527.762h3.048v.762a.381.381,0,0,0,.381.381h2.417l-1.2,1.684a.377.377,0,0,0-.071.221H12.686l-.161-.279a.381.381,0,0,0-.464-.166l-1.467.55c-.083-.054-.167-.1-.252-.147l-.259-1.545a.381.381,0,0,0-.376-.318H9.527Zm-4.1,4.191.439-.762L7.219,4.7a.381.381,0,0,0,.362-.052,2.286,2.286,0,0,1,.464-.271.381.381,0,0,0,.225-.288l.237-1.422h.879L9.622,4.09a.381.381,0,0,0,.226.288,2.309,2.309,0,0,1,.464.271.38.38,0,0,0,.361.052l1.354-.508.439.762-1.115.917a.381.381,0,0,0-.136.339,2.05,2.05,0,0,1,0,.536.382.382,0,0,0,.136.34L12.465,8l-.439.762-1.354-.507a.38.38,0,0,0-.361.052,2.309,2.309,0,0,1-.464.271.381.381,0,0,0-.226.288l-.237,1.422H8.506L8.27,8.866a.381.381,0,0,0-.225-.288,2.28,2.28,0,0,1-.464-.271.381.381,0,0,0-.362-.052l-1.354.508L5.426,8l1.115-.917.019-.021.021-.022a.371.371,0,0,0,.068-.105l0,0A.377.377,0,0,0,6.676,6.8a.126.126,0,0,0,0-.016s0-.008,0-.013,0-.017,0-.026a2.05,2.05,0,0,1,0-.536.382.382,0,0,0-.136-.34ZM.806,6.685a.377.377,0,0,1,.223-.191.381.381,0,0,1,.233.724.38.38,0,0,1-.456-.533Zm0,0" transform="translate(0)" fill="#fe4a55"/>
        <path id="Path_107158" data-name="Path 107158" d="M176.066,320h.762v.762h-.762Zm0,0" transform="translate(-167.682 -304.758)" fill="#fe4a55"/>
        <path id="Path_107159" data-name="Path 107159" d="M176.066,352h.762v.762h-.762Zm0,0" transform="translate(-167.682 -335.234)" fill="#fe4a55"/>
        <path id="Path_107160" data-name="Path 107160" d="M224.066,224h.762v.762h-.762Zm0,0" transform="translate(-213.395 -213.331)" fill="#fe4a55"/>
        <path id="Path_107161" data-name="Path 107161" d="M256.066,224h.762v.762h-.762Zm0,0" transform="translate(-243.871 -213.331)" fill="#fe4a55"/>
        <path id="Path_107162" data-name="Path 107162" d="M328.066,80h.762v1.524h-.762Zm0,0" transform="translate(-312.442 -76.189)" fill="#fe4a55"/>
        <path id="Path_107163" data-name="Path 107163" d="M328.066,128h.762v.762h-.762Zm0,0" transform="translate(-312.442 -121.903)" fill="#fe4a55"/>
        <path id="Path_107164" data-name="Path 107164" d="M328.066,160h.762v.762h-.762Zm0,0" transform="translate(-312.442 -152.379)" fill="#fe4a55"/>
      </g>
    </g>
  </g>
</svg>
