<svg xmlns="http://www.w3.org/2000/svg" width="41.021" height="41.021" viewBox="0 0 41.021 41.021">
  <g id="Group_66318" data-name="Group 66318" transform="translate(-603.458 -353.618)">
    <rect id="Rectangle_28961" data-name="Rectangle 28961" width="41.021" height="41.021" rx="4" transform="translate(603.458 353.618)" fill="#212189"/>
    <g id="Group_65698" data-name="Group 65698" transform="translate(623.971 362.147) rotate(45)">
      <path id="Path_106484" data-name="Path 106484" d="M0,6.783C.07,6.7.054,6.594.075,6.5A3.826,3.826,0,0,1,1.109,4.553C2.277,3.381,3.433,2.2,4.625,1.049A3.882,3.882,0,0,1,10.55,1.8c.061.1.057.151-.027.227-.164.149-.314.313-.473.468a.971.971,0,0,1-1.4.019,1.961,1.961,0,0,0-2.794.042Q4.2,4.214,2.535,5.879A1.864,1.864,0,0,0,2.026,7.8,1.841,1.841,0,0,0,3.469,9.163a1.867,1.867,0,0,0,1.813-.531c.651-.642,1.307-1.278,1.933-1.944a.639.639,0,0,1,.793-.209,4.259,4.259,0,0,0,2,.142c.012.052-.031.067-.055.091C8.847,7.823,7.75,8.944,6.625,10.036a3.71,3.71,0,0,1-3.764.979A3.779,3.779,0,0,1,.111,8.2,2.575,2.575,0,0,0,0,7.724Z" transform="translate(0 5.449)" fill="#fff"/>
      <path id="Path_106485" data-name="Path 106485" d="M7.086,0c.2.042.395.077.589.127A3.887,3.887,0,0,1,9.507,6.579q-1.738,1.794-3.537,3.53A3.9,3.9,0,0,1,.5,9.95,4.291,4.291,0,0,1,.03,9.33C-.02,9.253,0,9.213.055,9.156c.168-.16.329-.329.5-.491A.963.963,0,0,1,1.933,8.64a1.986,1.986,0,0,0,1.146.55,1.9,1.9,0,0,0,1.626-.553c.485-.478.965-.963,1.446-1.444.642-.642,1.291-1.279,1.926-1.929a1.939,1.939,0,0,0-.813-3.226A1.846,1.846,0,0,0,5.348,2.5c-.746.722-1.474,1.463-2.2,2.2a.212.212,0,0,1-.263.058A4.855,4.855,0,0,0,.6,4.528c-.018-.057.033-.075.06-.1Q2.3,2.784,3.943,1.144A3.88,3.88,0,0,1,6.163.035c.029,0,.067.008.08-.035Z" transform="translate(6.022 0)" fill="#fff"/>
    </g>
  </g>
</svg>
