<svg xmlns="http://www.w3.org/2000/svg" width="54.093" height="63.156" viewBox="0 0 54.093 63.156">
  <path id="Path_106487" data-name="Path 106487" d="M-416.2,2353.125a1.884,1.884,0,0,1-1.025-1.966c.06-1.044,0-2.1.026-3.143a4.3,4.3,0,0,1,4.01-4.163c.86-.056,1.726-.048,2.589-.025.391.011.476-.115.473-.486-.018-1.952-.01-3.906-.008-5.858,0-1.156.315-1.562,1.448-1.878a6.7,6.7,0,0,0,4.891-6.437.823.823,0,0,0-.561-.873,17.761,17.761,0,0,1-7.155-6.505,28.056,28.056,0,0,1-2.539-4.7,1.508,1.508,0,0,0-.665-.751,23.428,23.428,0,0,1-11.557-16.56,4.547,4.547,0,0,1,4.5-5.333q1.942-.041,3.885.005c.44.01.566-.127.541-.554a5.226,5.226,0,0,1,.081-1.595,3.1,3.1,0,0,1,3.1-2.331q7.092-.01,14.185,0h15.295a3.113,3.113,0,0,1,3.437,3.433c0,1.038,0,1.024,1.019,1.041a34.411,34.411,0,0,1,4.065.073,4.5,4.5,0,0,1,3.835,5.255,23.413,23.413,0,0,1-11.4,16.467,2.107,2.107,0,0,0-.9,1.013,23.8,23.8,0,0,1-6.742,9.27,12.585,12.585,0,0,1-2.818,1.746.706.706,0,0,0-.473.74,6.685,6.685,0,0,0,4.844,6.589c1.209.34,1.486.706,1.486,1.967,0,1.891.021,3.783-.014,5.674-.009.507.158.6.617.589.821-.028,1.646-.03,2.465.024a4.281,4.281,0,0,1,3.987,4.05c.056,1.231.012,2.466.029,3.7a1.664,1.664,0,0,1-1.032,1.522Zm16.937-60.224c-4.83,0-9.661.011-14.491-.014-.586,0-.714.176-.706.729.032,2.1,0,4.193.015,6.29a40.218,40.218,0,0,0,3.054,15.972,21.358,21.358,0,0,0,5.713,8.138,9.288,9.288,0,0,0,11.909.647,15.819,15.819,0,0,0,3.967-4.1c3.34-4.867,4.841-10.358,5.423-16.151.363-3.608.175-7.229.236-10.844.009-.554-.154-.684-.69-.682C-389.642,2292.911-394.451,2292.9-399.261,2292.9Zm.091,57.294h13.558c1.459,0,1.459,0,1.459-1.461,0-1.508-.487-2-1.975-2H-412.32c-.164,0-.329-.006-.493,0a1.458,1.458,0,0,0-1.475,1.435c-.035.448.022.906-.024,1.354-.054.527.094.689.66.686C-408.825,2350.184-404,2350.2-399.17,2350.2Zm-.075-11.625c-2.484,0-4.968.008-7.453-.009-.392,0-.518.084-.51.5.028,1.416.024,2.833,0,4.25-.006.388.076.523.5.522q7.483-.023,14.967,0c.381,0,.485-.1.479-.481-.022-1.417-.027-2.834,0-4.25.009-.43-.1-.543-.534-.539C-394.276,2338.581-396.761,2338.57-399.245,2338.57Zm-16.74-26.632a1.348,1.348,0,0,0-.054-.759,48.609,48.609,0,0,1-1.034-5.87,58.848,58.848,0,0,1-.266-7.38c.005-.471-.123-.583-.58-.569-1.149.035-2.3.012-3.449.012q-2.409,0-1.949,2.342a20.7,20.7,0,0,0,2.441,6.526A20.657,20.657,0,0,0-415.985,2311.938Zm33.288-.031a1.114,1.114,0,0,0,.236-.094,20.4,20.4,0,0,0,7.228-12.507,1.585,1.585,0,0,0-1.673-1.932c-1.233-.013-2.467.034-3.7-.019-.572-.024-.666.163-.656.683a50.36,50.36,0,0,1-.654,10C-382.145,2309.306-382.423,2310.563-382.7,2311.908Zm-20.611,23.685h8.167a9.614,9.614,0,0,1-2.431-5.982c-.011-.271-.13-.295-.347-.26a9.142,9.142,0,0,1-2.637.019c-.241-.032-.331.028-.34.277A9.55,9.55,0,0,1-403.308,2335.592Zm20.641-23.612-.037-.045c-.013.014-.035.026-.036.04s.021.028.032.042Z" transform="translate(426.347 -2289.969)" fill="#212189"/>
</svg>
