<svg xmlns="http://www.w3.org/2000/svg" width="58" height="58" viewBox="0 0 58 58">
  <g id="Group_65193" data-name="Group 65193" transform="translate(-1165 -405)">
    <g id="Ellipse_1086" data-name="Ellipse 1086" transform="translate(1165 405)" fill="#e3e3ff" stroke="#212189" stroke-width="1">
      <circle cx="29" cy="29" r="29" stroke="none"/>
      <circle cx="29" cy="29" r="28.5" fill="none"/>
    </g>
    <g id="Group_65186" data-name="Group 65186" transform="translate(1181.596 417.74)">
      <path id="Path_106412" data-name="Path 106412" d="M-156.609,1742.5c-.1-.119-.245-.1-.369-.114a10.653,10.653,0,0,1-2.708-.776.656.656,0,0,1-.447-.679c.007-1.4,0-2.792.01-4.187a.613.613,0,0,0-.318-.6,9.541,9.541,0,0,1-4.24-6.075,9.552,9.552,0,0,1,.871-6.769c.136-.258-.006-.4-.078-.589-.285-.753-.565-1.508-.847-2.262-.169-.45-.347-.9-.5-1.353a.318.318,0,0,0-.364-.245c-1.49.009-2.98.005-4.471,0a1.87,1.87,0,0,1-.376-.025.518.518,0,0,1-.339-.785,1.471,1.471,0,0,1,.225-.261q3.594-3.6,7.186-7.2a1,1,0,0,1,.9-.308c1.783.194,3.568.365,5.352.544,1.356.136,2.713.268,4.069.411a1.094,1.094,0,0,0,.52-.055c.616-.232,1.236-.456,1.855-.681.539-.2.745-.1.939.425.42,1.138.841,2.276,1.253,3.417.065.181.134.249.353.229a2.411,2.411,0,0,1,2.5,2.451,2.41,2.41,0,0,1-2.22,2.358,2.394,2.394,0,0,1-2.54-1.889,2.294,2.294,0,0,1,.789-2.348.329.329,0,0,0,.11-.444c-.355-.939-.7-1.881-1.036-2.828-.075-.213-.155-.218-.356-.165a2.389,2.389,0,0,0-.989.688c-.785.726-1.607,1.413-2.434,2.092a.511.511,0,0,0-.184.7c.43,1.066.819,2.149,1.217,3.229a.442.442,0,0,0,.317.3,9.431,9.431,0,0,1,6.473,6.822,9.624,9.624,0,0,1-4.1,10.552.772.772,0,0,0-.421.767c.027,1.343.011,2.687.01,4.03,0,.463-.081.565-.513.751a10.283,10.283,0,0,1-3.084.811c-.023,0-.042.035-.063.054Zm1.855-8.5c0,.924.009,1.847-.006,2.771,0,.263.042.372.337.356.5-.027,1.007-.005,1.511-.008.271,0,.629.089.788-.048s.064-.516.045-.784a.822.822,0,0,1,.477-.835,8.567,8.567,0,0,0,3.373-11.476,8.191,8.191,0,0,0-5.532-4.387.669.669,0,0,0-.426.038q-3.916,1.527-7.836,3.045a.581.581,0,0,0-.3.21,8.568,8.568,0,0,0-1.42,6.373,8.544,8.544,0,0,0,4.256,6.215.757.757,0,0,1,.433.792c-.019.2.01.4-.007.6s.051.268.261.265c.892-.012,1.784-.014,2.676,0,.238,0,.3-.062.294-.3q-.015-2.818,0-5.635a.454.454,0,0,0-.206-.416c-1.23-.911-2.452-1.833-3.676-2.753a1.825,1.825,0,0,1-.263-.222.49.49,0,0,1-.06-.635.492.492,0,0,1,.6-.221,1.183,1.183,0,0,1,.348.206c1.184.885,2.37,1.768,3.545,2.665a.344.344,0,0,0,.505,0q1.813-1.383,3.645-2.741a.556.556,0,0,1,.815.04.555.555,0,0,1-.169.818c-.065.052-.134.1-.2.151-1.191.894-2.379,1.791-3.575,2.678a.508.508,0,0,0-.236.466C-154.748,1732.155-154.754,1733.079-154.754,1734Zm-.477-21.908-1-.1q-3.068-.306-6.135-.617a.487.487,0,0,0-.44.16q-3,3.011-6.007,6.014c-.053.053-.143.089-.137.207.051,0,.1.011.149.011q4.408,0,8.815,0a.522.522,0,0,0,.365-.142q2.565-2.207,5.134-4.408c.054-.047.16-.072.119-.187-.127-.045-.227.037-.33.074q-2.653.966-5.3,1.94c-.234.086-.5.3-.7.212-.21-.1-.192-.458-.312-.687-.11-.21-.041-.289.175-.366,1.76-.636,3.516-1.286,5.272-1.933A.557.557,0,0,0-155.231,1712.094Zm-.27,3.434c-.107.088-.188.152-.266.22-1.09.934-2.185,1.863-3.266,2.807a1.163,1.163,0,0,1-.824.3c-1.352-.01-2.7,0-4.056-.008-.215,0-.272.032-.184.256.339.865.664,1.737.985,2.609.052.14.082.2.257.135q4.143-1.621,8.294-3.225c.145-.056.186-.113.124-.273C-154.8,1717.427-155.139,1716.5-155.5,1715.528Zm-.054,23.745c.9,0,1.8,0,2.707,0,.249,0,.571.108.727-.046s.022-.479.053-.725-.057-.309-.3-.307c-1.962.011-3.924.006-5.886.006-.813,0-.805,0-.8.818,0,.209.06.264.264.262C-157.717,1739.268-156.636,1739.273-155.556,1739.273Zm0,1.075c-1.081,0-2.161,0-3.242,0-.093,0-.242-.08-.265.116a.266.266,0,0,0,.2.324,8.961,8.961,0,0,0,6.6,0,.264.264,0,0,0,.186-.331c-.021-.2-.177-.105-.268-.106C-153.411,1740.345-154.481,1740.348-155.551,1740.348Zm8.846-23.369a1.347,1.347,0,0,0-1.329-1.35,1.347,1.347,0,0,0-1.341,1.337,1.343,1.343,0,0,0,1.329,1.348A1.345,1.345,0,0,0-146.7,1716.979Z" transform="translate(170.866 -1710.27)" fill="#212189"/>
    </g>
  </g>
</svg>
