<svg xmlns="http://www.w3.org/2000/svg" width="74.973" height="64.775" viewBox="0 0 74.973 64.775">
  <g id="Group_65046" data-name="Group 65046" transform="translate(-768.064 -374.171)">
    <path id="Path_106241" data-name="Path 106241" d="M768.064,390.9a.738.738,0,0,0,.153-.125,1.106,1.106,0,0,1,1.361-.413,1.06,1.06,0,0,1,.687,1.164c-.012,1.538,0,3.075,0,4.612q0,16.8,0,33.6c0,.945,0,.948.926.948q22.99,0,45.979.016c.639,0,.757-.2.743-.782-.036-1.532-.009-1.533-1.568-1.533h-42.1c-1.411,0-1.674-.258-1.674-1.645q0-23.208,0-46.417c0-1.4.256-1.648,1.675-1.648h62.6c1.449,0,1.69.244,1.69,1.707q0,14.569,0,29.138c0,1.048-.316,1.464-1.094,1.458a.99.99,0,0,1-1.072-.89,4.658,4.658,0,0,1-.031-.8q0-13.8.015-27.6c0-.671-.172-.828-.832-.827q-29.982.028-59.964,0c-.616,0-.808.109-.807.779q.035,21.927,0,43.854c0,.582.157.707.718.707q20.866-.024,41.733,0c.582,0,.727-.157.707-.719-.044-1.219-.028-2.44,0-3.66.007-.381-.093-.534-.486-.482a2.873,2.873,0,0,1-.657-.012,2.32,2.32,0,0,1-2.38-2.523A3.872,3.872,0,0,0,813,415.365c-1.229-1.081-1.134-2.464-.04-3.692a3.769,3.769,0,0,1,.578-.559,1.887,1.887,0,0,0,.825-1.967,4.061,4.061,0,0,1-.014-.8,2.5,2.5,0,0,1,2.483-2.629,2.591,2.591,0,0,1,.73,0,2.321,2.321,0,0,0,2.343-.969c1.485-1.692,3.047-1.69,4.524.013a2.56,2.56,0,0,0,2.347.97c2.224-.155,3.365,1.009,3.174,3.224a2.381,2.381,0,0,0,.891,2.233q2.7,2.325.009,4.681a2.209,2.209,0,0,0-.875,2.3,2.615,2.615,0,0,1,.027.511c.026,1.811-.871,2.756-2.674,2.672-.76-.036-1,.135-.951.915.072,1.142.034,2.293.01,3.44-.008.387.115.495.5.493,3-.014,6-.021,9.005.005.523,0,.453-.276.452-.594q0-4.722,0-9.444c0-.531.041-1.036.591-1.313a1.08,1.08,0,0,1,1.6,1.038c.018,2.1.006,4.2.007,6.3,0,1.611.005,3.221,0,4.832,0,1-.371,1.366-1.364,1.367-3.368,0-6.736.015-10.1-.013-.549,0-.7.131-.687.683.029,1.63,0,1.631,1.641,1.631h11.861c.96,0,.962,0,.962-.913q0-26.247.015-52.493c0-.719-.22-.9-.915-.9q-34.375.024-68.75,0c-.741,0-.958.2-.946.944.043,2.659.011,5.32.021,7.98,0,.608,0,1.21-.69,1.457a1.293,1.293,0,0,1-1.511-.55V375.96c.8-1.522,2.1-1.792,3.716-1.789q33.916.057,67.832,0c1.6,0,2.778.411,3.426,1.934v54.909c-.693,1.51-1.913,1.915-3.5,1.89-4.146-.066-8.294-.01-12.441-.036-.578,0-.737.153-.718.725.044,1.291.019,2.585.012,3.878-.007,1.32-.763,1.864-1.882,1.17a4.03,4.03,0,0,0-4.682-.014c-1.15.708-1.917.155-1.928-1.2-.01-1.244-.043-2.49.014-3.731.031-.67-.165-.829-.829-.828-15.173.02-30.347,0-45.52.037-1.585,0-2.809-.376-3.5-1.889Zm58.008,28.214.5.032c1.262.069,1.3.053,1.175-1.218a3.982,3.982,0,0,1,1.645-3.688c.759-.614.763-.805.017-1.395a4.093,4.093,0,0,1-1.647-3.975c.114-.929-.011-1.061-.946-.957a4.119,4.119,0,0,1-3.976-1.649c-.6-.764-.77-.763-1.388.015a4.1,4.1,0,0,1-3.911,1.637c-1.011-.108-1.092-.03-.992.972a4.142,4.142,0,0,1-1.615,3.924c-.811.646-.807.782,0,1.437a4.093,4.093,0,0,1,1.627,3.776c-.108,1.179-.037,1.245,1.126,1.111a3.727,3.727,0,0,1,3.647,1.49c.864,1.1.7,1.164,1.673-.017C823.871,419.554,824.855,418.878,826.072,419.11Zm-5.979,3.6c0,4.38,0,8.642,0,12.9,0,.377.113.535.45.3a2.749,2.749,0,0,1,3.374.068c.052.034.139.015.239.023V422.787C822.257,424.032,821.939,424.03,820.094,422.712Z" fill="#fe4a55"/>
    <path id="Path_106244" data-name="Path 106244" d="M859.877,478.493h22.687a4.643,4.643,0,0,1,.658.011,1.022,1.022,0,0,1,.973,1.006,1.036,1.036,0,0,1-.894,1.152,2.773,2.773,0,0,1-.656.025H837.125a3.341,3.341,0,0,1-.657-.02,1.015,1.015,0,0,1-.888-1.15.988.988,0,0,1,.952-1.015,5.96,5.96,0,0,1,.658-.01Z" transform="translate(-54.327 -83.942)" fill="#fe4a55"/>
    <path id="Path_106245" data-name="Path 106245" d="M855.625,446.436h-18.37c-.244,0-.488,0-.731-.016a.963.963,0,0,1-.951-1.006.984.984,0,0,1,.818-1.128,3.757,3.757,0,0,1,.8-.048q18.37,0,36.74,0a3.506,3.506,0,0,1,.868.073.966.966,0,0,1,.739,1.11.951.951,0,0,1-.885.99,6.552,6.552,0,0,1-.8.024Z" transform="translate(-54.321 -56.381)" fill="#fe4a55"/>
    <path id="Path_106246" data-name="Path 106246" d="M841.186,556.677a35.246,35.246,0,0,1-1.171,3.917,1.439,1.439,0,0,1-.461.728,1.147,1.147,0,0,1-1.427.009.9.9,0,0,1-.283-1.169,31.975,31.975,0,0,0,1.595-6.135,32.633,32.633,0,0,0,.39-3.781,11.718,11.718,0,0,1,.091-1.24,1.059,1.059,0,0,1,1.119-.945.9.9,0,0,1,1.023.9c.267,1.807.528,3.615.821,5.418a10.172,10.172,0,0,0,.823,2.639c.333.719.637.76,1.168.161a3.837,3.837,0,0,0,.651-1.134,1.159,1.159,0,0,1,1.264-.781c.56.041.77.426.909.9.321,1.1.734,1.388,2.067,1.393,2.2.009,4.391-.007,6.586-.012.2,0,.391-.006.585,0,.784.033,1.179.4,1.176,1.091a1,1,0,0,1-1.108,1.09c-2.658,0-5.317.11-7.974-.028a3.489,3.489,0,0,1-2.278-.852c-.168-.155-.285-.221-.47-.024-1.564,1.666-3.832,1.145-4.74-1.3C841.451,557.284,841.34,557.044,841.186,556.677Z" transform="translate(-56.074 -139.926)" fill="#fe4a55"/>
    <path id="Path_106247" data-name="Path 106247" d="M849.794,514.886h-12.8a1.633,1.633,0,0,1-1.055-.207,1.071,1.071,0,0,1-.4-1.173.932.932,0,0,1,.849-.788c.266-.025.535-.034.8-.034q12.58,0,25.16,0a4.334,4.334,0,0,1,.873.05,1.073,1.073,0,0,1,.022,2.092,3.537,3.537,0,0,1-.8.058Q856.12,514.888,849.794,514.886Z" transform="translate(-54.265 -111.458)" fill="#fe4a55"/>
    <path id="Path_106250" data-name="Path 106250" d="M1027.33,562.27a4.3,4.3,0,1,1,4.285-4.292A4.329,4.329,0,0,1,1027.33,562.27Zm-.029-2.2a2.1,2.1,0,1,0-2.08-2.111A2.14,2.14,0,0,0,1027.3,560.07Z" transform="translate(-205.163 -144.444)" fill="#fe4a55"/>
    <path id="Path_106251" data-name="Path 106251" d="M1036.354,569.135a2.1,2.1,0,1,1,2.113-2.082A2.132,2.132,0,0,1,1036.354,569.135Z" transform="translate(-214.216 -153.508)" fill="#fe4a55"/>
  </g>
</svg>
