<svg xmlns="http://www.w3.org/2000/svg" xmlns:xlink="http://www.w3.org/1999/xlink" width="370" height="257" viewBox="0 0 370 257">
  <defs>
    <filter id="Rectangle_29499-2" x="0" y="0" width="370" height="257" filterUnits="userSpaceOnUse">
      <feOffset dx="5" dy="1" input="SourceAlpha"/>
      <feGaussianBlur stdDeviation="9" result="blur"/>
      <feFlood flood-color="#78a4f3" flood-opacity="0.161"/>
      <feComposite operator="in" in2="blur"/>
      <feComposite in="SourceGraphic"/>
    </filter>
    <linearGradient id="linear-gradient" x1="50.403" y1="-374.573" x2="51.536" y2="-374.573" gradientUnits="objectBoundingBox">
      <stop offset="0" stop-color="#e82f41"/>
      <stop offset="0.021" stop-color="#dd2136"/>
      <stop offset="0.059" stop-color="#c81229"/>
      <stop offset="0.105" stop-color="#bb0722"/>
      <stop offset="0.17" stop-color="#b20a1e"/>
      <stop offset="0.347" stop-color="#b10a1d"/>
    </linearGradient>
    <linearGradient id="linear-gradient-2" x1="108.9" y1="-900.505" x2="110.141" y2="-900.505" gradientUnits="objectBoundingBox">
      <stop offset="0" stop-color="#e82f41"/>
      <stop offset="0.09" stop-color="#d81e33"/>
      <stop offset="0.22" stop-color="#c10925"/>
      <stop offset="0.355" stop-color="#b5091f"/>
      <stop offset="0.502" stop-color="#b10a1d"/>
    </linearGradient>
    <linearGradient id="linear-gradient-3" x1="-32.777" y1="2.303" x2="-32.727" y2="2.303" gradientUnits="objectBoundingBox">
      <stop offset="0" stop-color="#141c4e"/>
      <stop offset="1" stop-color="#102370"/>
    </linearGradient>
    <linearGradient id="linear-gradient-4" x1="-41.116" y1="0.074" x2="-41.051" y2="0.074" gradientUnits="objectBoundingBox">
      <stop offset="0" stop-color="#e82f41"/>
      <stop offset="0.775" stop-color="#b10a1d"/>
    </linearGradient>
    <linearGradient id="linear-gradient-5" x1="-52.825" y1="-7.805" x2="-52.741" y2="-7.805" xlink:href="#linear-gradient-4"/>
  </defs>
  <g id="Group_106872" data-name="Group 106872" transform="translate(-640.479 -655.61)">
    <g id="Group_106869" data-name="Group 106869">
      <g transform="matrix(1, 0, 0, 1, 640.48, 655.61)" filter="url(#Rectangle_29499-2)">
        <rect id="Rectangle_29499-2-2" data-name="Rectangle 29499-2" width="316" height="203" transform="translate(22 26)" fill="#fff"/>
      </g>
    </g>
    <path id="Path_125194" data-name="Path 125194" d="M875.48,681.61V819.2l35.549,21.068L948.553,819.2V681.61Z" fill="#102370"/>
    <g id="Ellipse_3039" data-name="Ellipse 3039">
      <circle id="Ellipse_3045" data-name="Ellipse 3045" cx="31" cy="31" r="31" transform="translate(881.479 797.61)" fill="#fff"/>
      <circle id="Ellipse_3046" data-name="Ellipse 3046" cx="29" cy="29" r="29" transform="translate(883.479 799.61)" fill="none" stroke="#d67217" stroke-width="4"/>
    </g>
    <path id="Rectangle_29500" data-name="Rectangle 29500" d="M682.48,741.61h30a2,2,0,0,1,2,2h0a2,2,0,0,1-2,2h-30a2,2,0,0,1-2-2h0A2,2,0,0,1,682.48,741.61Z" fill="#b7b8dc"/>
    <path id="Rectangle_29502" data-name="Rectangle 29502" d="M682.48,761.61h41a2,2,0,0,1,2,2h0a2,2,0,0,1-2,2h-41a2,2,0,0,1-2-2h0A2,2,0,0,1,682.48,761.61Z" fill="#b7b8dc"/>
    <path id="Rectangle_29507" data-name="Rectangle 29507" d="M891.98,701.61h42a1.5,1.5,0,0,1,1.5,1.5h0a1.5,1.5,0,0,1-1.5,1.5h-42a1.5,1.5,0,0,1-1.5-1.5h0A1.5,1.5,0,0,1,891.98,701.61Z" fill="#fff"/>
    <path id="Rectangle_29508" data-name="Rectangle 29508" d="M893.98,708.61h37a1.5,1.5,0,0,1,1.5,1.5h0a1.5,1.5,0,0,1-1.5,1.5h-37a1.5,1.5,0,0,1-1.5-1.5h0A1.5,1.5,0,0,1,893.98,708.61Z" fill="#fff"/>
    <path id="Rectangle_29503" data-name="Rectangle 29503" d="M682.48,770.61h137a2,2,0,0,1,2,2h0a2,2,0,0,1-2,2h-137a2,2,0,0,1-2-2h0A2,2,0,0,1,682.48,770.61Z" fill="#b7b8dc"/>
    <path id="Rectangle_29504" data-name="Rectangle 29504" d="M682.48,779.61h131a2,2,0,0,1,2,2h0a2,2,0,0,1-2,2h-131a2,2,0,0,1-2-2h0A2,2,0,0,1,682.48,779.61Z" fill="#b7b8dc"/>
    <path id="Rectangle_29505" data-name="Rectangle 29505" d="M682.48,788.61h120a2,2,0,0,1,2,2h0a2,2,0,0,1-2,2h-120a2,2,0,0,1-2-2h0A2,2,0,0,1,682.48,788.61Z" fill="#b7b8dc"/>
    <path id="Rectangle_29501" data-name="Rectangle 29501" d="M683.48,750.61h83a3,3,0,0,1,3,3h0a3,3,0,0,1-3,3h-83a3,3,0,0,1-3-3h0A3,3,0,0,1,683.48,750.61Z" fill="#102370"/>
    <path id="Rectangle_29506" data-name="Rectangle 29506" d="M683.48,854.61h83a3,3,0,0,1,3,3h0a3,3,0,0,1-3,3h-83a3,3,0,0,1-3-3h0A3,3,0,0,1,683.48,854.61Z" fill="#102370"/>
    <g id="Group_106730" data-name="Group 106730">
      <path id="Path_106455" data-name="Path 106455" d="M893.709,831.914l1.355,1.288-.288,1.125-1.284-.85-.009.938-.313.081a7.335,7.335,0,0,0,.089-1.946C893.127,831.8,893.709,831.914,893.709,831.914Z" fill="#5d5d5d"/>
      <path id="Path_106456" data-name="Path 106456" d="M894.075,825.777a3.093,3.093,0,0,0-1.773,3.518c.03.138.122.494.156.635a8.988,8.988,0,0,0,.739,1.6l-.472-.752a4.254,4.254,0,0,1,.148-5.2,3.755,3.755,0,0,1,.763-.677l.439.876Z" fill="#5d5d5d"/>
      <ellipse id="Ellipse_1089" data-name="Ellipse 1089" cx="0.858" cy="0.872" rx="0.858" ry="0.872" transform="matrix(1, -0.031, 0.031, 1, 892.294, 830.82)" fill="#5d5d5d"/>
      <path id="Path_106457" data-name="Path 106457" d="M933.027,827.489,910.868,837,891,824.733l21.031-8.15Z" fill="#5d5d5d"/>
      <path id="Path_106458" data-name="Path 106458" d="M927.709,826.561l-17.031,7.064-11.969-6.594-4.131-2.37L911.814,818Z" fill="#1f1e1e"/>
      <g id="Group_65225" data-name="Group 65225">
        <path id="Path_106459" data-name="Path 106459" d="M909.643,823.505l-6.711,2.717-2.821-1.632,6.7-2.642Z" fill="#fff"/>
        <path id="Path_106460" data-name="Path 106460" d="M911.389,820.159l-3.416,1.348,7.694,4.2-3.069,1.3,3.023,1.687,6.474-2.822-2.98-1.585.018-.008Z" fill="#fff"/>
        <path id="Path_106461" data-name="Path 106461" d="M910.62,824.025l-6.712,2.743.5.29h0l6.4,3.7,3.607-1.572-3.992-2.247,3.121-1.311Z" fill="#fff"/>
      </g>
      <ellipse id="Ellipse_1090" data-name="Ellipse 1090" cx="0.919" cy="0.641" rx="0.919" ry="0.641" transform="translate(919.383 830.933) rotate(-18.439)" fill="#fff"/>
      <path id="Path_106462" data-name="Path 106462" d="M924.015,831.384l-.609,3.211s-8.533,1.79-12.6,6.048c0,0-4.712-5.529-11.181-7.448l-.955-3.686,12.075,7.358Z" fill="#1f1e1e"/>
    </g>
    <g id="Group_65227" data-name="Group 65227">
      <g id="Group_65226" data-name="Group 65226">
        <path id="Path_106455-2" data-name="Path 106455-2" d="M681.756,709.383l.636.6-.136.529-.6-.4v.441l-.147.038a3.378,3.378,0,0,0,.041-.915C681.48,709.332,681.756,709.383,681.756,709.383Z" fill="url(#linear-gradient)"/>
        <path id="Path_106456-2" data-name="Path 106456-2" d="M681.923,706.5a1.453,1.453,0,0,0-.833,1.654c.014.065.057.232.073.3a4.219,4.219,0,0,0,.346.751l-.221-.353a2,2,0,0,1,.07-2.444,1.758,1.758,0,0,1,.359-.318l.206.412Z" fill="#121b4a"/>
        <ellipse id="Ellipse_1089-2" data-name="Ellipse 1089-2" cx="0.403" cy="0.41" rx="0.403" ry="0.41" transform="matrix(1, -0.031, 0.031, 1, 681.086, 708.869)" fill="url(#linear-gradient-2)"/>
        <path id="Path_106457-2" data-name="Path 106457-2" d="M700.233,707.3l-10.416,4.469-9.337-5.764,9.885-3.831Z" fill="url(#linear-gradient-3)"/>
        <path id="Path_106458-2" data-name="Path 106458-2" d="M697.734,706.867l-8,3.32-5.626-3.1-1.942-1.114,8.1-3.132Z" fill="url(#linear-gradient-4)"/>
        <g id="Group_65225-2" data-name="Group 65225-2">
          <path id="Path_106459-2" data-name="Path 106459-2" d="M689.241,705.43l-3.154,1.277-1.326-.767,3.15-1.242Z" fill="#fff"/>
          <path id="Path_106460-2" data-name="Path 106460-2" d="M690.061,703.858l-1.606.633,3.617,1.973-1.443.611,1.421.793,3.043-1.326-1.4-.745h.008Z" fill="#fff"/>
          <path id="Path_106461-2" data-name="Path 106461-2" d="M689.7,705.675l-3.155,1.289.236.136h0l3.011,1.741,1.7-.739-1.876-1.056,1.467-.616Z" fill="#fff"/>
        </g>
        <ellipse id="Ellipse_1090-2" data-name="Ellipse 1090-2" cx="0.432" cy="0.301" rx="0.432" ry="0.301" transform="translate(693.819 708.922) rotate(-18.439)" fill="#fff"/>
        <path id="Path_106462-2" data-name="Path 106462-2" d="M696,709.13l-.287,1.509s-4.01.842-5.923,2.843a12.61,12.61,0,0,0-5.256-3.5l-.449-1.733,5.676,3.459Z" fill="url(#linear-gradient-5)"/>
      </g>
      <g id="FastLearner" style="isolation: isolate">
        <g id="Group_106870" data-name="Group 106870" style="isolation: isolate">
          <path id="Path_125202" data-name="Path 125202" d="M706.543,703.993l-.192,1.08h-2.288l-.208,1.208h1.712l-.192,1.04h-1.712l-.4,2.288H701.9l.992-5.616Z" fill="#102370"/>
          <path id="Path_125203" data-name="Path 125203" d="M706.951,706.161a2.53,2.53,0,0,1,.849-.8,2.1,2.1,0,0,1,1.047-.28,1.514,1.514,0,0,1,.792.193,1.122,1.122,0,0,1,.464.5l.113-.631h1.367l-.792,4.463h-1.367l.119-.631a1.9,1.9,0,0,1-.648.5,1.948,1.948,0,0,1-.863.192,1.6,1.6,0,0,1-.836-.217,1.451,1.451,0,0,1-.564-.611,2.039,2.039,0,0,1-.2-.933,3.445,3.445,0,0,1,.048-.544A3.082,3.082,0,0,1,706.951,706.161Zm2.9.952a.827.827,0,0,0-.228-.616.792.792,0,0,0-.58-.223,1.1,1.1,0,0,0-.743.292,1.32,1.32,0,0,0-.425.8,1.638,1.638,0,0,0-.024.265.838.838,0,0,0,.228.619.777.777,0,0,0,.572.229,1.1,1.1,0,0,0,.744-.3,1.379,1.379,0,0,0,.433-.809A1.6,1.6,0,0,0,709.847,707.113Z" fill="#102370"/>
          <path id="Path_125204" data-name="Path 125204" d="M712.771,709.506a1.571,1.571,0,0,1-.66-.469,1.074,1.074,0,0,1-.24-.691c0-.037.005-.1.016-.2h1.32a.466.466,0,0,0,.148.4.674.674,0,0,0,.468.149.855.855,0,0,0,.424-.1.3.3,0,0,0-.012-.54,3.885,3.885,0,0,0-.6-.244,6.415,6.415,0,0,1-.724-.285,1.389,1.389,0,0,1-.5-.4,1.041,1.041,0,0,1-.208-.664,1.166,1.166,0,0,1,.232-.708,1.511,1.511,0,0,1,.652-.491,2.487,2.487,0,0,1,.972-.177,2.363,2.363,0,0,1,.96.181,1.469,1.469,0,0,1,.632.5,1.227,1.227,0,0,1,.224.72l-.008.12h-1.24a.445.445,0,0,0-.144-.384.653.653,0,0,0-.456-.145.7.7,0,0,0-.38.1.3.3,0,0,0-.148.265.339.339,0,0,0,.2.292,3.569,3.569,0,0,0,.612.259,5.654,5.654,0,0,1,.716.285,1.417,1.417,0,0,1,.488.391.967.967,0,0,1,.2.628,1.121,1.121,0,0,1-.26.744,1.623,1.623,0,0,1-.712.477,3.034,3.034,0,0,1-1.028.164A2.554,2.554,0,0,1,712.771,709.506Z" fill="#102370"/>
          <path id="Path_125205" data-name="Path 125205" d="M718.263,708.073a.6.6,0,0,0-.008.1.245.245,0,0,0,.084.208.468.468,0,0,0,.276.063h.488l-.208,1.16h-.7q-1.344,0-1.344-1.127a2.79,2.79,0,0,1,.04-.424l.32-1.777h-.544l.2-1.135h.544l.192-1.088h1.368l-.192,1.088h.9l-.2,1.135h-.9Z" fill="#102370"/>
        </g>
        <g id="Group_106871" data-name="Group 106871" style="isolation: isolate">
          <path id="Path_125206" data-name="Path 125206" d="M720.527,709.169h2.008l-.08.44h-2.568l.984-5.591h.56Z" fill="#102370"/>
          <path id="Path_125207" data-name="Path 125207" d="M726.471,705.39a1.45,1.45,0,0,1,.6.58,1.7,1.7,0,0,1,.2.84,2.093,2.093,0,0,1-.032.383c-.032.161-.064.3-.1.432h-3.624a1.854,1.854,0,0,0-.024.288,1.215,1.215,0,0,0,.372.952,1.356,1.356,0,0,0,.948.336,1.775,1.775,0,0,0,.968-.263,1.554,1.554,0,0,0,.608-.712h.6a2.362,2.362,0,0,1-.868,1.044,2.416,2.416,0,0,1-1.388.4,1.816,1.816,0,0,1-1.308-.469,1.675,1.675,0,0,1-.492-1.275,2.821,2.821,0,0,1,.048-.5,2.9,2.9,0,0,1,.484-1.193,2.485,2.485,0,0,1,.9-.784,2.542,2.542,0,0,1,1.16-.271A1.95,1.95,0,0,1,726.471,705.39Zm.232,1.443a1.079,1.079,0,0,0-.36-.872,1.381,1.381,0,0,0-.92-.3,1.817,1.817,0,0,0-1.44.7,2,2,0,0,0-.384.848h3.064A2.154,2.154,0,0,0,726.7,706.833Z" fill="#102370"/>
          <path id="Path_125208" data-name="Path 125208" d="M728.039,706.237a2.526,2.526,0,0,1,.884-.784,2.386,2.386,0,0,1,1.124-.275,1.71,1.71,0,0,1,1.024.288,1.3,1.3,0,0,1,.52.735l.168-.96h.56l-.768,4.368h-.56l.168-.967a2.125,2.125,0,0,1-.78.74,2.239,2.239,0,0,1-1.132.292,1.85,1.85,0,0,1-.912-.217,1.509,1.509,0,0,1-.608-.611,1.922,1.922,0,0,1-.216-.933,2.79,2.79,0,0,1,.048-.5A2.9,2.9,0,0,1,728.039,706.237Zm3.376.788a1.323,1.323,0,0,0-.376-.992,1.338,1.338,0,0,0-.976-.368,1.868,1.868,0,0,0-.868.208,1.9,1.9,0,0,0-.684.605,2.284,2.284,0,0,0-.376.939,2.626,2.626,0,0,0-.04.408,1.268,1.268,0,0,0,1.344,1.361,1.84,1.84,0,0,0,.86-.216,1.978,1.978,0,0,0,.7-.616,2.443,2.443,0,0,0,.42-1.329Z" fill="#102370"/>
          <path id="Path_125209" data-name="Path 125209" d="M734.295,705.409a1.918,1.918,0,0,1,.984-.248l-.1.584h-.16a1.67,1.67,0,0,0-.992.3,1.591,1.591,0,0,0-.576.977l-.456,2.591h-.56l.768-4.368h.56l-.152.872A1.907,1.907,0,0,1,734.295,705.409Z" fill="#102370"/>
          <path id="Path_125210" data-name="Path 125210" d="M738.843,705.525a1.356,1.356,0,0,1,.4,1.06,2.534,2.534,0,0,1-.04.465l-.456,2.559H738.2l.44-2.5a2.309,2.309,0,0,0,.032-.391,1.051,1.051,0,0,0-.288-.8,1.131,1.131,0,0,0-.808-.272,1.564,1.564,0,0,0-1.08.4,1.966,1.966,0,0,0-.584,1.176V707.2l-.424,2.408h-.56l.768-4.368h.56l-.136.752a1.9,1.9,0,0,1,.712-.616,2.063,2.063,0,0,1,.936-.216A1.549,1.549,0,0,1,738.843,705.525Z" fill="#102370"/>
          <path id="Path_125211" data-name="Path 125211" d="M743.207,705.39a1.449,1.449,0,0,1,.6.58,1.7,1.7,0,0,1,.2.84,2.092,2.092,0,0,1-.032.383c-.032.161-.064.3-.1.432h-3.624a1.854,1.854,0,0,0-.024.288,1.215,1.215,0,0,0,.372.952,1.356,1.356,0,0,0,.948.336,1.777,1.777,0,0,0,.968-.263,1.553,1.553,0,0,0,.608-.712h.6a2.361,2.361,0,0,1-.868,1.044,2.416,2.416,0,0,1-1.388.4,1.816,1.816,0,0,1-1.308-.469,1.675,1.675,0,0,1-.492-1.275,2.821,2.821,0,0,1,.048-.5,2.9,2.9,0,0,1,.484-1.193,2.476,2.476,0,0,1,.9-.784,2.542,2.542,0,0,1,1.16-.271A1.95,1.95,0,0,1,743.207,705.39Zm.232,1.443a1.079,1.079,0,0,0-.36-.872,1.381,1.381,0,0,0-.92-.3,1.817,1.817,0,0,0-1.44.7,1.994,1.994,0,0,0-.384.848H743.4A2.149,2.149,0,0,0,743.439,706.833Z" fill="#102370"/>
          <path id="Path_125212" data-name="Path 125212" d="M746.031,705.409a1.918,1.918,0,0,1,.984-.248l-.1.584h-.16a1.668,1.668,0,0,0-.992.3,1.591,1.591,0,0,0-.576.977l-.456,2.591h-.56l.768-4.368h.56l-.152.872A1.906,1.906,0,0,1,746.031,705.409Z" fill="#102370"/>
        </g>
      </g>
    </g>
  </g>
</svg>
