<svg id="checked" xmlns="http://www.w3.org/2000/svg" width="28.34" height="28.34" viewBox="0 0 28.34 28.34">
  <g id="Group_105966" data-name="Group 105966" transform="translate(6.729 3.561)">
    <g id="Group_105965" data-name="Group 105965">
      <path id="Path_123577" data-name="Path 123577" d="M142.369,64.641a1.068,1.068,0,0,0-1.51,0l-12.814,12.78L123.422,72.4a1.068,1.068,0,0,0-1.572,1.447l5.376,5.839a1.067,1.067,0,0,0,.763.344h.023a1.069,1.069,0,0,0,.754-.312l13.6-13.565A1.068,1.068,0,0,0,142.369,64.641Z" transform="translate(-121.568 -64.327)" fill="#00bf08"/>
    </g>
  </g>
  <g id="Group_105968" data-name="Group 105968">
    <g id="Group_105967" data-name="Group 105967">
      <path id="Path_123578" data-name="Path 123578" d="M27.272,13.1A1.068,1.068,0,0,0,26.2,14.17,12.034,12.034,0,1,1,14.17,2.136,1.068,1.068,0,1,0,14.17,0,14.17,14.17,0,1,0,28.34,14.17,1.068,1.068,0,0,0,27.272,13.1Z" fill="#00bf08"/>
    </g>
  </g>
</svg>
