<svg xmlns="http://www.w3.org/2000/svg" width="56.35" height="56.35" viewBox="0 0 56.35 56.35">
  <g id="Group_63901" data-name="Group 63901" transform="translate(371 -949)">
    <path id="Path_105192" data-name="Path 105192" d="M-371,1215.085l1.1-1.045c0-.793,0-1.833,0-2.874,0-.915.391-1.348,1.288-1.344a20.324,20.324,0,0,0,8.749-2.069,22.8,22.8,0,0,1,5.775-2.057,10.283,10.283,0,0,1,9.757,3.286c.525.559.99,1.173,1.514,1.8.351-.438.689-.885,1.052-1.31a10.334,10.334,0,0,1,8.782-3.943,15.968,15.968,0,0,1,5.794,1.585,25.53,25.53,0,0,0,6.22,2.284c1.259.218,2.542.315,3.819.406,1.017.073,1.4.408,1.4,1.416s0,2.015,0,2.844l1.1,1.019v5.613a1.5,1.5,0,0,1-1.494.782c-7.2-.019-14.393-.008-21.589-.021a1.1,1.1,0,0,0-.97.491,8.98,8.98,0,0,1-1.749,1.62,7.411,7.411,0,0,1-1.6.65H-343.6c-.115-.042-.228-.095-.346-.126a4.836,4.836,0,0,1-3.015-2.134.958.958,0,0,0-.96-.5c-7.2.014-14.393,0-21.589.021A1.5,1.5,0,0,1-371,1220.7Zm2.215,4.182H-346.9c.962,0,1.139.129,1.525,1.02a2.673,2.673,0,0,0,2.522,1.725,2.717,2.717,0,0,0,2.576-1.729c.368-.882.568-1.015,1.527-1.015h21.867v-2.751h-.566q-10.676,0-21.351-.007a3.311,3.311,0,0,0-3.131,1.54,1.037,1.037,0,0,1-1.8,0,3.265,3.265,0,0,0-3.077-1.535q-10.7.018-21.406.006h-.577Zm50.812-7.172c-1.307-.209-2.57-.336-3.793-.628a28.708,28.708,0,0,1-3.6-1.148c-1.3-.5-2.539-1.137-3.829-1.655a9.783,9.783,0,0,0-7.018-.513,10.383,10.383,0,0,0-5,4.2,3.634,3.634,0,0,0-.482,2.53,7.261,7.261,0,0,1,3.378-.573q9.843.012,19.685,0h.659Zm-25.877,2.824c-.083-.732.039-1.463-.258-1.924a17.392,17.392,0,0,0-2.489-3.118,7.722,7.722,0,0,0-6.522-2.093,16.393,16.393,0,0,0-5.049,1.614,26.172,26.172,0,0,1-5.818,2.109c-1.213.245-2.446.387-3.674.576v2.231h.694q9.9,0,19.8,0A7.374,7.374,0,0,1-343.85,1214.92Z" transform="translate(0 -218.871)" fill="#262261"/>
    <path id="Path_105193" data-name="Path 105193" d="M-248.277,949c.924.214,1.874.353,2.769.654a12.09,12.09,0,0,1,5.909,18.585q-1.114,1.534-2.232,3.067a4.906,4.906,0,0,0-.954,3.087c.038,2.071,0,4.144.019,6.216a1.677,1.677,0,0,1-.548,1.316c-.61.583-1.2,1.183-1.79,1.789a1.577,1.577,0,0,1-1.221.511c-2.035-.016-4.071.018-6.106-.028a2.017,2.017,0,0,1-1.162-.467,16.666,16.666,0,0,1-1.9-1.9,2.013,2.013,0,0,1-.463-1.164c-.045-2.126-.041-4.254-.013-6.381a4.64,4.64,0,0,0-.863-2.839c-.712-1-1.427-2-2.161-2.983a12.11,12.11,0,0,1,7.067-19.187c.48-.109.968-.183,1.452-.274Zm3.353,24.192a7.478,7.478,0,0,1,1.547-3.523c.582-.823,1.184-1.632,1.79-2.437a9.667,9.667,0,0,0,1.938-7.921,9.867,9.867,0,0,0-11.254-7.994,9.955,9.955,0,0,0-8.206,11.639,11.665,11.665,0,0,0,2.289,4.752c1.266,1.67,2.683,3.272,3.006,5.471h3.279c.027-.049.043-.064.043-.08.006-3.025.014-6.051,0-9.076a.85.85,0,0,0-.251-.508c-.517-.546-1.068-1.059-1.583-1.606a1.076,1.076,0,0,1-.067-1.534,1.1,1.1,0,0,1,1.654.018c.459.435.9.891,1.392,1.384.437-.459.808-.865,1.2-1.254.613-.615,1.238-.681,1.732-.2s.441,1.134-.192,1.774c-.438.443-.866.9-1.328,1.317a1.047,1.047,0,0,0-.348.867c.012,2.787.006,5.574.008,8.362,0,.177.016.354.026.55Zm-8.822,2.249v2.136h8.727v-2.136Zm8.952,4.4h-9.128a5.527,5.527,0,0,0,.476.928,5.709,5.709,0,0,0,.93.93,1.386,1.386,0,0,0,.757.3c1.171.032,2.351-.071,3.512.037a2.877,2.877,0,0,0,2.917-1.234C-245.151,980.545-245.019,980.25-244.795,979.841Z" transform="translate(-93.447 0)" fill="#fe4a55"/>
    <path id="Path_105194" data-name="Path 105194" d="M-308.033,1026.148c-.365,0-.731.015-1.1,0a1.1,1.1,0,0,1-1.095-1.074,1.091,1.091,0,0,1,1.108-1.115q1.095-.03,2.191,0a1.091,1.091,0,0,1,1.1,1.072,1.1,1.1,0,0,1-1.108,1.117C-307.3,1026.161-307.668,1026.148-308.033,1026.148Z" transform="translate(-51.858 -63.943)" fill="#fe4a55"/>
    <path id="Path_105195" data-name="Path 105195" d="M-75.52,1026.139c-.383,0-.768.02-1.15,0a1.093,1.093,0,0,1-1.053-1.113,1.076,1.076,0,0,1,1.04-1.068c.766-.029,1.534-.028,2.3,0a1.081,1.081,0,0,1,1.054,1.11,1.091,1.091,0,0,1-1.04,1.07C-74.751,1026.159-75.136,1026.139-75.52,1026.139Z" transform="translate(-250.24 -63.937)" fill="#fe4a55"/>
    <path id="Path_105196" data-name="Path 105196" d="M-289.609,964.112c.008,1-.8,1.551-1.539,1.186a20.678,20.678,0,0,1-2.09-1.212,1.03,1.03,0,0,1-.309-1.413,1.049,1.049,0,0,1,1.378-.455,19.84,19.84,0,0,1,2.134,1.244C-289.8,963.624-289.69,963.982-289.609,964.112Z" transform="translate(-65.954 -11.187)" fill="#fe4a55"/>
    <path id="Path_105197" data-name="Path 105197" d="M-289.486,1079.7a4.168,4.168,0,0,1-.705.827,19.175,19.175,0,0,1-1.8,1.055,1.1,1.1,0,0,1-1.536-.365,1.069,1.069,0,0,1,.418-1.515c.624-.384,1.254-.761,1.906-1.093A1.186,1.186,0,0,1-289.486,1079.7Z" transform="translate(-65.966 -110.473)" fill="#fe4a55"/>
    <path id="Path_105198" data-name="Path 105198" d="M-88.179,1080.411c-.026.966-.826,1.5-1.538,1.161a20.192,20.192,0,0,1-2.094-1.206,1.055,1.055,0,0,1-.334-1.411,1.054,1.054,0,0,1,1.419-.457,19.163,19.163,0,0,1,2.084,1.22A1.969,1.969,0,0,1-88.179,1080.411Z" transform="translate(-237.815 -110.393)" fill="#fe4a55"/>
    <path id="Path_105199" data-name="Path 105199" d="M-88.186,963.536a2.392,2.392,0,0,1-.531.69,19.313,19.313,0,0,1-1.945,1.135,1.067,1.067,0,0,1-1.476-.411,1.066,1.066,0,0,1,.357-1.449c.649-.412,1.313-.807,2-1.153C-89.019,961.963-88.17,962.5-88.186,963.536Z" transform="translate(-237.816 -11.283)" fill="#fe4a55"/>
  </g>
</svg>
