<svg id="Group_109911" data-name="Group 109911" xmlns="http://www.w3.org/2000/svg" xmlns:xlink="http://www.w3.org/1999/xlink" width="41.546" height="23.783" viewBox="0 0 41.546 23.783">
  <defs>
    <linearGradient id="linear-gradient" y1="0.5" x2="1" y2="0.5" gradientUnits="objectBoundingBox">
      <stop offset="0" stop-color="#f44852"/>
      <stop offset="0.021" stop-color="#e63a46"/>
      <stop offset="0.059" stop-color="#d52a38"/>
      <stop offset="0.105" stop-color="#c91e2e"/>
      <stop offset="0.17" stop-color="#c21728"/>
      <stop offset="0.347" stop-color="#c11627"/>
    </linearGradient>
    <linearGradient id="linear-gradient-2" y1="0.5" x2="1" y2="0.5" gradientUnits="objectBoundingBox">
      <stop offset="0" stop-color="#f44852"/>
      <stop offset="0.09" stop-color="#e23643"/>
      <stop offset="0.22" stop-color="#cf2433"/>
      <stop offset="0.355" stop-color="#c4192a"/>
      <stop offset="0.502" stop-color="#c11627"/>
    </linearGradient>
    <linearGradient id="linear-gradient-3" x1="-0.339" y1="-1.288" x2="0.658" y2="-1.288" gradientUnits="objectBoundingBox">
      <stop offset="0" stop-color="#262261"/>
      <stop offset="1" stop-color="#212189"/>
    </linearGradient>
    <linearGradient id="linear-gradient-4" y1="0.5" x2="1" y2="0.5" gradientUnits="objectBoundingBox">
      <stop offset="0" stop-color="#f44852"/>
      <stop offset="0.775" stop-color="#c11627"/>
    </linearGradient>
  </defs>
  <path id="Path_106455" data-name="Path 106455" d="M271.576,1554.254l1.338,1.273-.285,1.112-1.27-.84-.009.928-.309.08a7.263,7.263,0,0,0,.087-1.924C271,1554.146,271.576,1554.254,271.576,1554.254Z" transform="translate(-268.901 -1539.097)" fill="url(#linear-gradient)"/>
  <path id="Path_106456" data-name="Path 106456" d="M268.665,1529.962a3.058,3.058,0,0,0-1.753,3.478c.03.137.121.488.154.628a8.934,8.934,0,0,0,.73,1.58l-.466-.743a4.206,4.206,0,0,1,.147-5.141,3.722,3.722,0,0,1,.755-.669l.434.866Z" transform="translate(-265.629 -1520.873)" fill="#161e5d"/>
  <ellipse id="Ellipse_1089" data-name="Ellipse 1089" cx="0.848" cy="0.862" rx="0.848" ry="0.862" transform="translate(1.276 14.075) rotate(-1.774)" fill="url(#linear-gradient-2)"/>
  <path id="Path_106457" data-name="Path 106457" d="M304.815,1510.026l-21.907,9.4L263.269,1507.3l20.792-8.057Z" transform="translate(-263.269 -1499.244)" fill="url(#linear-gradient-3)"/>
  <path id="Path_106458" data-name="Path 106458" d="M308.854,1512.789l-16.837,6.984-11.833-6.519-4.085-2.343,17.04-6.588Z" transform="translate(-272.565 -1502.924)" fill="url(#linear-gradient-4)"/>
  <g id="Group_65225" data-name="Group 65225" transform="translate(9.003 3.535)">
    <path id="Path_106459" data-name="Path 106459" d="M305.377,1520.037l-6.635,2.686-2.79-1.614,6.626-2.612Z" transform="translate(-295.953 -1516.729)" fill="#fff"/>
    <path id="Path_106460" data-name="Path 106460" d="M327.547,1512.078l-3.378,1.332,7.607,4.149-3.034,1.286,2.989,1.668,6.4-2.79-2.946-1.567.018-.008Z" transform="translate(-316.397 -1512.078)" fill="#fff"/>
    <path id="Path_106461" data-name="Path 106461" d="M316.226,1525.955l-6.636,2.711.5.287,0,0,6.332,3.662,3.566-1.554-3.946-2.222,3.085-1.3Z" transform="translate(-305.833 -1522.133)" fill="#fff"/>
  </g>
  <ellipse id="Ellipse_1090" data-name="Ellipse 1090" cx="0.908" cy="0.633" rx="0.908" ry="0.633" transform="translate(28.056 14.187) rotate(-18.439)" fill="#fff"/>
  <path id="Path_106462" data-name="Path 106462" d="M315.836,1547.475l-.6,3.175s-8.435,1.77-12.458,5.979c0,0-4.658-5.466-11.054-7.364l-.945-3.644,11.937,7.275Z" transform="translate(-283.2 -1532.846)" fill="url(#linear-gradient-4)"/>
</svg>
