<svg xmlns="http://www.w3.org/2000/svg" width="22" height="28.878" viewBox="0 0 22 28.878">
  <g id="Group_66170" data-name="Group 66170" transform="translate(946.491 -1055.497)">
    <path id="Path_106318" data-name="Path 106318" d="M-931.941,1055.5a1.671,1.671,0,0,1,.628.442q3.206,3.213,6.421,6.418a1.28,1.28,0,0,1,.4.975q-.012,9.192-.006,18.384a2.547,2.547,0,0,1-1.9,2.575,2.846,2.846,0,0,1-.725.085q-8.374,0-16.747,0a2.532,2.532,0,0,1-2.62-2.607q0-11.828,0-23.656a2.52,2.52,0,0,1,2.083-2.565c.022-.005.039-.031.059-.048Zm-12.858,14.439q0,5.893,0,11.787a.859.859,0,0,0,.927.958q8.374,0,16.748,0a.854.854,0,0,0,.934-.924q0-8.784.006-17.567c0-.207-.064-.239-.252-.238-1.287.008-2.575.006-3.863,0a2.54,2.54,0,0,1-2.658-2.656c0-1.279-.008-2.557.006-3.835,0-.245-.069-.283-.294-.283q-5.273.012-10.545.005c-.7,0-1.01.317-1.01,1.017Zm13.535-11.476c0,.984,0,1.97,0,2.956a.811.811,0,0,0,.753.838c1.02.022,2.04.007,3.046.007Z" transform="translate(0 0)" fill="#212189"/>
    <path id="Path_106319" data-name="Path 106319" d="M-873.184,1214.109c1.663,0,3.325,0,4.988,0a.842.842,0,0,1,.824,1.192.849.849,0,0,1-.841.5q-2.706,0-5.411,0-2.311,0-4.622,0a.842.842,0,0,1-.859-.632.833.833,0,0,1,.343-.911,1,1,0,0,1,.589-.15Q-875.677,1214.112-873.184,1214.109Z" transform="translate(-62.281 -146.655)" fill="#212189"/>
    <path id="Path_106320" data-name="Path 106320" d="M-873.3,1260.7c-1.663,0-3.325,0-4.988,0a.844.844,0,0,1-.826-1.192.85.85,0,0,1,.841-.5q2.874,0,5.749,0c1.428,0,2.856,0,4.284,0a.84.84,0,0,1,.779,1.254.865.865,0,0,1-.822.439Q-870.789,1260.7-873.3,1260.7Z" transform="translate(-62.225 -188.174)" fill="#212189"/>
    <path id="Path_106321" data-name="Path 106321" d="M-873.3,1305.6c-1.663,0-3.325,0-4.988,0a.844.844,0,0,1-.826-1.192.85.85,0,0,1,.841-.5q2.875,0,5.749,0c1.428,0,2.856,0,4.284,0a.84.84,0,0,1,.779,1.253.863.863,0,0,1-.822.439Q-870.789,1305.6-873.3,1305.6Z" transform="translate(-62.225 -229.686)" fill="#212189"/>
    <path id="Path_106322" data-name="Path 106322" d="M-874.906,1350.505q-1.634,0-3.268,0a.862.862,0,0,1-.962-.838.857.857,0,0,1,.945-.853q3.3,0,6.593,0a.847.847,0,0,1,.86,1.152.853.853,0,0,1-.843.538C-872.69,1350.507-873.8,1350.505-874.906,1350.505Z" transform="translate(-62.278 -271.208)" fill="#212189"/>
  </g>
</svg>
