<svg xmlns="http://www.w3.org/2000/svg" width="27.409" height="27.413" viewBox="0 0 27.409 27.413">
  <g id="Group_66172" data-name="Group 66172" transform="translate(-1281.576 -2786.021)">
    <path id="Path_106937" data-name="Path 106937" d="M1295.121,2813.434a2.013,2.013,0,0,1-.411-.369c-.7-.787-1.406-1.566-2.1-2.357a.515.515,0,0,0-.434-.191q-4.2.008-8.4,0a2.062,2.062,0,0,1-2.113-1.469,2.2,2.2,0,0,1-.086-.633q0-5.084,0-10.167a2.033,2.033,0,0,1,2.108-2.106q3.05,0,6.1,0h.3a6.341,6.341,0,0,1-1-5.284,6.173,6.173,0,0,1,2.366-3.553,6.394,6.394,0,0,1,9.031,8.837h6.319a2.029,2.029,0,0,1,2.132,1.609c.006.02.033.034.05.051v11.081c-.014.009-.036.015-.041.028a2.083,2.083,0,0,1-2.328,1.609q-4.117,0-8.234,0a.513.513,0,0,0-.432.195c-.628.718-1.266,1.426-1.9,2.134a2.8,2.8,0,0,1-.6.588Zm12.794-10.107q0-2.516,0-5.031a.975.975,0,0,0-1.071-1.081q-3.559,0-7.119,0a.593.593,0,0,0-.406.148,6.358,6.358,0,0,1-8.082,0,.588.588,0,0,0-.408-.142q-3.546.005-7.092,0a.979.979,0,0,0-1.089,1.089q0,5.031,0,10.063a1.419,1.419,0,0,0,.031.344.989.989,0,0,0,1.094.739q4.349,0,8.7,0a.9.9,0,0,1,.742.333c.625.721,1.274,1.421,1.9,2.141.142.163.206.142.336-.006.623-.711,1.266-1.4,1.883-2.121a.944.944,0,0,1,.79-.347q4.335.014,8.671,0a.991.991,0,0,0,1.12-1.117Q1307.915,2805.829,1307.915,2803.327Zm-17.948-10.909a5.313,5.313,0,1,0,5.317-5.322A5.327,5.327,0,0,0,1289.967,2792.418Z" transform="translate(0 0)" fill="#212189"/>
    <path id="Path_106938" data-name="Path 106938" d="M1326.2,2991.486a3.172,3.172,0,0,1-3.3-2.964,3.113,3.113,0,0,1,2.645-3.219,3.11,3.11,0,0,1,3.149,4.647c-.087.156-.089.243.046.354a1.884,1.884,0,0,1,.3.308.523.523,0,0,1-.048.7.478.478,0,0,1-.7.023c-.322-.421-.618-.384-1.027-.126A2.065,2.065,0,0,1,1326.2,2991.486Zm-.2-1.07a2.243,2.243,0,0,0,.88-.187c.156-.069.155-.13.036-.236a3.552,3.552,0,0,1-.355-.362.53.53,0,0,1,.748-.747,3.117,3.117,0,0,1,.362.355c.115.134.158.081.213-.046a2.011,2.011,0,0,0,.174-.829,2.047,2.047,0,1,0-2.058,2.054Z" transform="translate(-38.365 -184.99)" fill="#212189"/>
    <path id="Path_106939" data-name="Path 106939" d="M1563.1,2986.189h-2.157c-.39,0-.637-.2-.645-.522s.251-.547.65-.548c1.017,0,2.034,0,3.051,0a.554.554,0,0,1,.489.915q-1.295,1.979-2.583,3.961a.564.564,0,0,0-.135.255c.083.057.174.029.258.03.687,0,1.374,0,2.061,0,.387,0,.629.229.618.552s-.245.515-.624.516c-1.088,0-2.177,0-3.265,0a.565.565,0,0,1-.561-.286.574.574,0,0,1,.076-.625q1.295-1.979,2.582-3.962Z" transform="translate(-258.688 -184.852)" fill="#212189"/>
    <path id="Path_106940" data-name="Path 106940" d="M1431.539,2987.554c0,.5-.025,1,0,1.5a2.282,2.282,0,0,1-2.426,2.306,2.247,2.247,0,0,1-2.235-2.331c0-1.088,0-2.176,0-3.264,0-.508.423-.79.815-.554a.57.57,0,0,1,.256.55c0,1.088.018,2.177-.009,3.264a1.15,1.15,0,0,0,.88,1.211,1.417,1.417,0,0,0,1.5-.517.993.993,0,0,0,.145-.586q0-1.632,0-3.264a1.751,1.751,0,0,1,.009-.267.542.542,0,0,1,.557-.472.518.518,0,0,1,.5.526c.009.633,0,1.266,0,1.9Z" transform="translate(-134.91 -184.859)" fill="#212189"/>
    <path id="Path_106941" data-name="Path 106941" d="M1519.811,2988.289c0,.848,0,1.7,0,2.542a.535.535,0,0,1-1.045.192.869.869,0,0,1-.023-.238q0-2.5,0-5a.539.539,0,1,1,1.069-.008C1519.813,2986.612,1519.811,2987.451,1519.811,2988.289Z" transform="translate(-220.196 -184.902)" fill="#212189"/>
    <path id="Path_106942" data-name="Path 106942" d="M1444.687,2822.6c0-.277-.006-.553,0-.829a.521.521,0,0,1,.487-.537,2.471,2.471,0,0,0,.393-.071,1.084,1.084,0,0,0-.411-2.111,1.062,1.062,0,0,0-1.011.989.6.6,0,0,1-.393.606.525.525,0,0,1-.683-.557,2.151,2.151,0,0,1,3.541-1.594,2.142,2.142,0,0,1-.659,3.665c-.145.053-.207.113-.2.276.015.32.008.642,0,.963a.537.537,0,1,1-1.069,0C1444.684,2823.134,1444.687,2822.867,1444.687,2822.6Z" transform="translate(-149.941 -29.656)" fill="#212189"/>
    <path id="Path_106943" data-name="Path 106943" d="M1466.191,2917.693a.527.527,0,0,1,.539.538.534.534,0,1,1-1.068-.016A.526.526,0,0,1,1466.191,2917.693Z" transform="translate(-170.916 -122.252)" fill="#212189"/>
  </g>
</svg>
