<svg xmlns="http://www.w3.org/2000/svg" width="33.359" height="25.413" viewBox="0 0 33.359 25.413">
  <g id="Group_66169" data-name="Group 66169" transform="translate(-370.573 -1400.992)">
    <path id="Path_106410" data-name="Path 106410" d="M370.573,1405.164a1.425,1.425,0,0,0,.173-.571,4.871,4.871,0,0,1,4.682-3.594q11.823-.011,23.646,0a4.861,4.861,0,0,1,4.849,4.85q.018,7.849,0,15.7a4.861,4.861,0,0,1-4.848,4.851q-11.823.016-23.646,0a4.874,4.874,0,0,1-4.745-3.847c-.024-.106.009-.243-.111-.319Zm16.665,19.283H398.83a2.944,2.944,0,0,0,3.143-3.157q0-7.6,0-15.207a2.939,2.939,0,0,0-3.134-3.133H375.653a2.94,2.94,0,0,0-3.126,3.141q0,7.6,0,15.207a2.941,2.941,0,0,0,3.15,3.15Z" transform="translate(0)" fill="#212189"/>
    <path id="Path_106411" data-name="Path 106411" d="M517.2,1485.455c0-1.585,0-3.17,0-4.755a1,1,0,0,1,1.615-.886q3.787,2.372,7.577,4.738a.993.993,0,0,1-.008,1.819q-3.773,2.362-7.549,4.721a1.027,1.027,0,0,1-1.13.1,1.045,1.045,0,0,1-.506-1.017C517.206,1488.6,517.2,1487.029,517.2,1485.455Zm1.971,3.118,4.981-3.114-4.981-3.114Z" transform="translate(-133.859 -71.761)" fill="#212189"/>
  </g>
</svg>
