<svg xmlns="http://www.w3.org/2000/svg" width="21.001" height="21" viewBox="0 0 21.001 21">
  <g id="Group_105966" data-name="Group 105966" transform="translate(721.626 -76.037)">
    <g id="Group_105965" data-name="Group 105965">
      <g id="Group_105964" data-name="Group 105964">
        <g id="Group_105963" data-name="Group 105963">
          <path id="Path_106845" data-name="Path 106845" d="M-572.082,233.667q0-2.744,0-5.489a2.465,2.465,0,0,1,1.945-2.49,2.783,2.783,0,0,1,.629-.061q5.467,0,10.934,0A2.473,2.473,0,0,1-556,228.2q0,5.467,0,10.933a2.475,2.475,0,0,1-2.574,2.573h-10.934a2.475,2.475,0,0,1-2.573-2.574Q-572.085,236.4-572.082,233.667Zm1.648,0q0,2.722,0,5.444a.827.827,0,0,0,.949.949h10.89a.828.828,0,0,0,.948-.949q0-5.444,0-10.889a.827.827,0,0,0-.949-.948h-10.89a.826.826,0,0,0-.948.949Q-570.434,230.946-570.434,233.668Z" transform="translate(-144.625 -144.672)" fill="#fff"/>
        </g>
        <path id="Path_106846" data-name="Path 106846" d="M-713.587,76.042c1.83,0,3.659.014,5.489,0a2.494,2.494,0,0,1,2.478,1.878,5.976,5.976,0,0,1,.068,1.262c0,.093-.045.1-.122.1-.459,0-.919,0-1.378,0-.105,0-.14-.031-.136-.136.007-.2,0-.394,0-.59a.829.829,0,0,0-.876-.88q-5.522,0-11.043,0a.824.824,0,0,0-.88.874q0,5.521,0,11.043a.83.83,0,0,0,.875.881c.2,0,.408.007.612,0,.12-.005.165.026.163.156-.008.444,0,.889,0,1.334,0,.071.017.149-.1.148a3.7,3.7,0,0,1-1.816-.258,2.342,2.342,0,0,1-1.354-2.112c-.027-1.676-.01-3.353-.011-5.029q0-3.072,0-6.144a2.439,2.439,0,0,1,2.086-2.494,3.092,3.092,0,0,1,.523-.028Q-716.3,76.04-713.587,76.042Z" fill="#fff"/>
      </g>
    </g>
  </g>
</svg>
