<svg id="copy" xmlns="http://www.w3.org/2000/svg" width="15.499" height="19.356" viewBox="0 0 15.499 19.356">
  <g id="Group_109404" data-name="Group 109404" transform="translate(0)">
    <path id="Path_125752" data-name="Path 125752" d="M59.178,101.371h-9a1.531,1.531,0,0,1-1.53-1.53V86.93a1.531,1.531,0,0,1,1.53-1.53h9a1.531,1.531,0,0,1,1.53,1.53V99.841A1.536,1.536,0,0,1,59.178,101.371Zm.456-14.437a.46.46,0,0,0-.46-.46h-9a.46.46,0,0,0-.46.46V99.841a.46.46,0,0,0,.46.46h9a.46.46,0,0,0,.46-.46Z" transform="translate(-48.65 -85.4)" fill="#212189"/>
    <path id="Path_125753" data-name="Path 125753" d="M145.978,15.971h-9a1.531,1.531,0,0,1-1.53-1.53.535.535,0,1,1,1.07,0,.46.46,0,0,0,.46.46h9a.46.46,0,0,0,.46-.46V1.53a.46.46,0,0,0-.46-.46.535.535,0,1,1,0-1.07,1.531,1.531,0,0,1,1.53,1.53V14.441A1.531,1.531,0,0,1,145.978,15.971Z" transform="translate(-132.009 3.385)" fill="#212189"/>
  </g>
</svg>
