<svg id="Group_65501" data-name="Group 65501" xmlns="http://www.w3.org/2000/svg" width="20.617" height="16.59" viewBox="0 0 20.617 16.59">
  <path id="Path_106223" data-name="Path 106223" d="M1951.908,282.547c.011-.006.029-.01.032-.018a1.148,1.148,0,0,1,1.251-.788q9.079.01,18.158,0a1.069,1.069,0,0,1,1.151.852,1.629,1.629,0,0,1,.024.32q0,4.862,0,9.724a1.068,1.068,0,0,1-1.159,1.168q-9.15,0-18.3,0a1.064,1.064,0,0,1-1.121-.789c-.006-.016-.025-.028-.038-.042Zm10.3,10.407h9.079c.36,0,.385-.026.385-.392v-9.583c0-.345-.039-.384-.376-.384h-18.158c-.35,0-.385.036-.385.4v9.563c0,.378.022.4.4.4Z" transform="translate(-1951.908 -281.74)" fill="#212189"/>
  <path id="Path_106224" data-name="Path 106224" d="M1951.908,534.117a.732.732,0,0,1,.688-.263c2.637,0,5.274,0,7.911.007a.25.25,0,0,0,.283-.2,1.667,1.667,0,0,1,3.115.013.238.238,0,0,0,.273.184q3.865-.007,7.73,0a1.646,1.646,0,0,1,.28.018.416.416,0,0,1,.334.4.412.412,0,0,1-.32.408,1.477,1.477,0,0,1-.3.026q-3.865,0-7.73,0a.237.237,0,0,0-.27.186,1.665,1.665,0,0,1-3.1.022.274.274,0,0,0-.317-.208c-2.63.006-5.26,0-7.891.008a.736.736,0,0,1-.683-.274Zm9.61.157a.836.836,0,0,0,.821.841.833.833,0,1,0,.014-1.665A.833.833,0,0,0,1961.518,534.274Z" transform="translate(-1951.908 -519.376)" fill="#212189"/>
  <path id="Path_106225" data-name="Path 106225" d="M2101.415,337.434c0-.906,0-1.812,0-2.718,0-.2.023-.392.229-.5a.488.488,0,0,1,.54.094q1.906,1.361,3.817,2.717c.377.268.375.563,0,.833q-1.908,1.359-3.817,2.718a.446.446,0,0,1-.765-.389C2101.417,339.273,2101.415,338.354,2101.415,337.434Zm.86,2.033,2.84-2.022-2.84-2.018Z" transform="translate(-2093.535 -331.41)" fill="#212189"/>
</svg>
