<svg width="48" height="40" viewBox="0 0 48 40" fill="none" xmlns="http://www.w3.org/2000/svg">
<path d="M0 2.75085C0.153361 2.70397 0.128292 2.55305 0.165157 2.4483C0.386638 1.75364 0.821261 1.14522 1.40816 0.708199C1.99505 0.271182 2.70483 0.0274835 3.43808 0.011221C3.54573 0.00536086 3.65486 0.00679479 3.76325 0.00679479H41.1546C41.966 -0.0434196 42.7701 0.185848 43.4313 0.655934C44.0925 1.12602 44.5704 1.80819 44.7844 2.58748C44.8841 2.97549 44.9298 3.37528 44.92 3.77564C44.92 7.99643 44.9176 12.2167 44.9127 16.4365C44.8966 16.5826 44.9244 16.7302 44.9926 16.8605C45.0609 16.9909 45.1664 17.0983 45.2961 17.1691C45.8992 17.5507 46.4149 18.0539 46.8099 18.6461C47.2049 19.2383 47.4704 19.9062 47.5891 20.6068C47.66 21.0109 47.6299 21.4262 47.5013 21.816C47.3727 22.2059 47.1497 22.5584 46.8518 22.8424C44.9458 24.8884 43.031 26.9263 41.058 28.9085C39.228 30.7471 37.353 32.5381 35.4544 34.3013C35.5156 34.461 35.6432 34.3995 35.7353 34.4002C37.5786 34.4039 39.4219 34.4104 41.2696 34.4002C41.5576 34.4193 41.8464 34.3767 42.1164 34.2755C42.3865 34.1743 42.6315 34.0167 42.835 33.8133C43.0385 33.6099 43.1958 33.3656 43.2961 33.0967C43.3964 32.8278 43.4375 32.5406 43.4166 32.2546C43.4255 31.0826 43.4166 29.9105 43.4166 28.7429C43.4166 28.1042 43.6673 27.7833 44.154 27.7804C44.6406 27.7775 44.9163 28.1064 44.9186 28.7268C44.9186 29.9128 44.9259 31.0994 44.9186 32.2847C44.9344 32.7637 44.8512 33.2409 44.6741 33.6868C44.497 34.1327 44.2298 34.5377 43.8889 34.8769C43.5481 35.2161 43.1408 35.4823 42.6923 35.6589C42.2438 35.8356 41.7636 35.919 41.2814 35.904C38.8947 35.9209 36.5073 35.9084 34.1191 35.904C34.0054 35.8831 33.8882 35.89 33.7776 35.9239C33.667 35.9578 33.5664 36.0179 33.4843 36.0989C32.3015 37.3985 30.699 38.2471 28.9535 38.4979C28.0024 38.7001 27.0689 38.9865 26.1252 39.2304C25.0096 39.5154 24.3379 38.8349 24.6292 37.7112C25.0332 36.1495 25.4498 34.5906 25.8531 33.0296C26.0066 32.4474 26.3083 31.9141 26.729 31.4811C31.3427 26.5717 36.1106 21.8142 41.0329 17.2086C41.2898 16.9295 41.6081 16.713 41.963 16.576C42.3178 16.439 42.6998 16.3853 43.079 16.419C43.4056 16.4578 43.4211 16.3223 43.4203 16.0659C43.4122 13.7401 43.4159 11.4144 43.4159 9.08861C43.4159 7.31688 43.4159 5.5454 43.4159 3.77416C43.4534 3.46961 43.421 3.16057 43.321 2.87027C43.221 2.57996 43.0562 2.31595 42.8387 2.09804C42.6213 1.88014 42.357 1.714 42.0657 1.61214C41.7744 1.51028 41.4637 1.47534 41.1568 1.50993C28.6928 1.50993 16.2287 1.50993 3.76471 1.50993C3.45807 1.47357 3.14713 1.5069 2.85533 1.60735C2.56353 1.7078 2.2985 1.87276 2.08024 2.08982C1.86198 2.30687 1.69616 2.57034 1.59534 2.86034C1.49452 3.15034 1.46131 3.45931 1.49821 3.76392C1.49821 13.2213 1.49821 22.6784 1.49821 32.1353C1.46024 32.4438 1.49376 32.757 1.59622 33.0507C1.69868 33.3445 1.86736 33.6111 2.08938 33.8302C2.31139 34.0493 2.58088 34.215 2.87725 34.3148C3.17361 34.4146 3.48901 34.4459 3.79936 34.4061C9.84532 34.4061 15.8913 34.4061 21.9373 34.4061C22.1229 34.4008 22.3087 34.4091 22.4932 34.431C22.6578 34.4459 22.8112 34.5205 22.9239 34.6406C23.0367 34.7608 23.1009 34.9179 23.1044 35.0821C23.1292 35.2519 23.0903 35.4249 22.9951 35.568C22.9 35.7112 22.7552 35.8146 22.5883 35.8586C22.3932 35.9097 22.1906 35.9268 21.9896 35.9092H3.89742C3.05428 35.9906 2.20959 35.7705 1.51508 35.2887C0.820579 34.8068 0.321811 34.0946 0.108387 33.2802C0.0870052 33.2208 0.072994 33.1644 0 33.1527V2.75085ZM42.9507 17.8964C42.8011 17.8889 42.6517 17.9144 42.5132 17.9712C42.3747 18.0279 42.2507 18.1145 42.1499 18.2246C41.8241 18.5315 41.5114 18.8553 41.1664 19.1396C40.8995 19.3593 40.8493 19.4963 41.1383 19.7615C41.8432 20.409 42.5112 21.0961 43.1925 21.7693C43.6666 22.2381 43.7249 22.6608 43.3658 23.0087C43.0185 23.3464 42.5872 23.2812 42.1124 22.8154C41.4414 22.1561 40.7557 21.5063 40.1076 20.8229C39.8436 20.5452 39.7065 20.5108 39.402 20.8009C35.4869 24.5368 31.7118 28.403 27.9854 32.3198C27.5499 32.8181 27.2506 33.4192 27.1162 34.0654C27.0697 34.2346 27.1316 34.2779 27.257 34.3335C28.2692 34.7853 29.0849 35.5827 29.5559 36.5809C29.6097 36.6886 29.6296 36.7626 29.7808 36.7171C30.3883 36.601 30.9579 36.3387 31.4397 35.9531C33.0014 34.4793 34.5962 33.0406 36.1644 31.5734C39.472 28.4785 42.6086 25.2165 45.6824 21.8946C45.814 21.7747 45.9201 21.63 45.9947 21.4688C46.0692 21.3077 46.1107 21.1334 46.1167 20.9562C45.9979 20.1723 45.6242 19.4486 45.0525 18.8955C44.4808 18.3425 43.7426 17.9906 42.9507 17.8935V17.8964Z" fill="#FE4A55"/>
<path d="M15.8266 17.9434C15.8266 15.6652 15.834 13.3871 15.8266 11.1089C15.7875 10.7163 15.8619 10.3207 16.0411 9.96862C16.2203 9.61651 16.4968 9.32244 16.8382 9.12088C17.1838 8.92696 17.5783 8.83612 17.9745 8.85924C18.3708 8.88237 18.7519 9.01851 19.0722 9.2513C22.9515 11.5407 26.8347 13.8239 30.7218 16.1011C32.3874 17.0812 32.3807 18.8415 30.7063 19.8245C26.8231 22.1065 22.9385 24.3881 19.0523 26.6692C18.734 26.8997 18.3553 27.0337 17.9619 27.0548C17.5686 27.0759 17.1775 26.9832 16.8361 26.788C16.4947 26.5928 16.2175 26.3035 16.0382 25.955C15.8589 25.6066 15.7852 25.2139 15.8258 24.8247C15.8332 22.5268 15.8266 20.2369 15.8266 17.9434ZM17.3337 17.9471C17.3337 20.2423 17.3337 22.5353 17.3337 24.8262C17.3337 25.5675 17.6514 25.7462 18.2966 25.3682C22.1798 23.0886 26.0642 20.8073 29.9498 18.5243C30.62 18.1295 30.623 17.7771 29.9638 17.3896C26.0924 15.1168 22.2205 12.8448 18.3482 10.5735C18.1145 10.4365 17.8888 10.2321 17.5836 10.4175C17.2887 10.5955 17.3329 10.887 17.3329 11.1602C17.3324 13.4218 17.3327 15.684 17.3337 17.9471Z" fill="#FE4A55"/>
</svg>
