<svg xmlns="http://www.w3.org/2000/svg" width="20.898" height="17.35" viewBox="0 0 20.898 17.35">
  <g id="Group_66074" data-name="Group 66074" transform="translate(-385.087 -792.451)">
    <path id="Path_106853" data-name="Path 106853" d="M385.087,793.662c.067-.021.056-.087.073-.134a1.542,1.542,0,0,1,1.436-1.076c.047,0,.1,0,.143,0h16.4a1.551,1.551,0,0,1,1.593,1.14,1.933,1.933,0,0,1,.06.525q0,2.8,0,5.591a.328.328,0,0,0,.168.325,2.241,2.241,0,0,1,1.006,1.518,1.105,1.105,0,0,1-.325.987c-.836.9-1.676,1.8-2.542,2.679-.8.812-1.625,1.6-2.459,2.381.027.07.083.043.123.044.809,0,1.619,0,2.428,0a.886.886,0,0,0,.942-.947c0-.517,0-1.034,0-1.551,0-.282.11-.424.324-.425s.335.144.335.418c0,.524,0,1.048,0,1.571a1.548,1.548,0,0,1-1.6,1.6c-1.047.007-2.095,0-3.142,0a.314.314,0,0,0-.279.086,3.321,3.321,0,0,1-1.988,1.058c-.417.089-.827.216-1.241.322-.489.126-.784-.175-.656-.671.177-.69.36-1.378.537-2.068a1.55,1.55,0,0,1,.384-.684q3.036-3.252,6.276-6.3a1.085,1.085,0,0,1,.9-.349c.143.017.15-.043.15-.156,0-1.027,0-2.054,0-3.081q0-1.174,0-2.347a.9.9,0,0,0-.991-1H386.739a.9.9,0,0,0-.994,1q0,6.265,0,12.529a.9.9,0,0,0,1.009,1h7.958a1.657,1.657,0,0,1,.244.011.3.3,0,0,1,.268.288.309.309,0,0,1-.227.343.769.769,0,0,1-.263.022H386.8a1.562,1.562,0,0,1-1.662-1.161c-.01-.026-.016-.051-.048-.056Zm18.844,6.688a.444.444,0,0,0-.351.145c-.143.135-.28.279-.432.4-.117.1-.139.158-.012.275.309.286.6.589.9.887.208.207.233.394.076.547s-.342.12-.549-.085c-.294-.292-.6-.578-.88-.88-.116-.123-.176-.138-.31-.01-1.718,1.649-3.374,3.357-5.009,5.087a1.7,1.7,0,0,0-.382.771c-.02.075.007.094.062.118a2.035,2.035,0,0,1,1.009.993c.024.048.032.08.1.06a1.66,1.66,0,0,0,.728-.337c.685-.651,1.385-1.286,2.073-1.934,1.451-1.367,2.827-2.807,4.176-4.274a.589.589,0,0,0,.19-.414A1.6,1.6,0,0,0,403.931,800.35Z" transform="translate(0 0)" fill="#212189"/>
    <path id="Path_106854" data-name="Path 106854" d="M404.778,807.545c0-1.006,0-2.012,0-3.018a.916.916,0,0,1,.444-.878.9.9,0,0,1,.98.057q2.553,1.517,5.111,3.025a.89.89,0,0,1-.007,1.644q-2.556,1.512-5.113,3.023a.894.894,0,0,1-1.416-.815C404.781,809.571,404.778,808.558,404.778,807.545Zm.661,0q0,1.519,0,3.038c0,.328.139.406.422.239q2.557-1.51,5.113-3.022c.294-.174.3-.33.006-.5l-5.1-3.01c-.1-.061-.2-.151-.335-.069s-.11.207-.11.328Q405.439,806.048,405.44,807.547Z" transform="translate(-12.748 -7.172)" fill="#212189"/>
  </g>
</svg>
