<svg id="Group_65583" data-name="Group 65583" xmlns="http://www.w3.org/2000/svg" width="22" height="22" viewBox="0 0 22 22">
  <path id="Path_2" data-name="Path 2" d="M151.074,98.256h5.473a2.689,2.689,0,0,0,2.673-2.673.636.636,0,0,0-1.273,0,1.412,1.412,0,0,1-1.4,1.4h-5.473a1.412,1.412,0,0,1-1.4-1.4V89.475a1.412,1.412,0,0,1,1.4-1.4h5.473a1.412,1.412,0,0,1,1.4,1.4v4.232a.636.636,0,1,0,1.273,0V89.475a2.689,2.689,0,0,0-2.673-2.673h-5.473a2.689,2.689,0,0,0-2.673,2.673v6.109A2.689,2.689,0,0,0,151.074,98.256Z" transform="translate(-148.401 -86.802)" fill="#212189"/>
  <path id="Path_3" data-name="Path 3" d="M151.074,314.108h5.473a2.689,2.689,0,0,0,2.673-2.673v-3.564a2.689,2.689,0,0,0-2.673-2.673h-5.473a2.689,2.689,0,0,0-2.673,2.673v3.564A2.689,2.689,0,0,0,151.074,314.108Zm-1.4-6.236a1.412,1.412,0,0,1,1.4-1.4h5.473a1.412,1.412,0,0,1,1.4,1.4v3.564a1.412,1.412,0,0,1-1.4,1.4h-5.473a1.412,1.412,0,0,1-1.4-1.4Z" transform="translate(-148.401 -292.108)" fill="#212189"/>
  <path id="Path_4" data-name="Path 4" d="M358.274,277.138h5.155a2.689,2.689,0,0,0,2.673-2.673v-5.791A2.689,2.689,0,0,0,363.428,266h-5.155a2.689,2.689,0,0,0-2.673,2.673.636.636,0,1,0,1.273,0,1.412,1.412,0,0,1,1.4-1.4h5.155a1.412,1.412,0,0,1,1.4,1.4v5.791a1.412,1.412,0,0,1-1.4,1.4h-5.155a1.412,1.412,0,0,1-1.4-1.4V270.52a.636.636,0,0,0-1.273,0v3.945A2.689,2.689,0,0,0,358.274,277.138Z" transform="translate(-344.101 -255.138)" fill="#212189"/>
  <path id="Path_5" data-name="Path 5" d="M358.274,96.029h5.155a2.689,2.689,0,0,0,2.673-2.673V89.475a2.689,2.689,0,0,0-2.673-2.673h-5.155a2.689,2.689,0,0,0-2.673,2.673v3.882A2.689,2.689,0,0,0,358.274,96.029Zm-1.4-6.555a1.412,1.412,0,0,1,1.4-1.4h5.155a1.412,1.412,0,0,1,1.4,1.4v3.882a1.412,1.412,0,0,1-1.4,1.4h-5.155a1.412,1.412,0,0,1-1.4-1.4Z" transform="translate(-344.101 -86.802)" fill="#212189"/>
</svg>
