<svg xmlns="http://www.w3.org/2000/svg" width="19.042" height="13.941" viewBox="0 0 19.042 13.941">
  <g id="Group_65505" data-name="Group 65505" transform="translate(0 0)">
    <path id="Path_106555" data-name="Path 106555" d="M-1970.54-297.426q-3.468,0-6.936,0a2.5,2.5,0,0,1-2.518-1.994,3.714,3.714,0,0,1-.055-.983.337.337,0,0,1,.377-.341c.278-.005.556-.011.834,0,.153.007.193-.035.193-.191-.006-1.61,0-3.219,0-4.829q0-2.03,0-4.061a1.408,1.408,0,0,1,1.542-1.537c4.361,0,8.721.008,13.082-.006a1.467,1.467,0,0,1,1.537,1.529c-.023,2.956-.007,5.912-.014,8.868,0,.181.04.238.225.228.292-.017.585-.008.878,0a.336.336,0,0,1,.371.325,2.7,2.7,0,0,1-.848,2.362,2.542,2.542,0,0,1-1.751.633Q-1967.083-297.427-1970.54-297.426Zm-.022-13.253q-3.314,0-6.627,0a.7.7,0,0,0-.775.75q0,4.51,0,9.019c0,.142.043.167.172.165.512-.007,1.024,0,1.536,0q1.383,0,2.765,0c.25,0,.378.1.413.3.084.493.263.645.765.646h3.555a1.621,1.621,0,0,0,.219-.012.6.6,0,0,0,.542-.519c.063-.358.129-.416.484-.416,1.368,0,2.736,0,4.1,0,.187,0,.256-.029.255-.241q-.013-4.422-.006-8.844c0-.593-.26-.852-.857-.852Zm.021,12.572h.636c2.15,0,4.3.008,6.451-.009a1.8,1.8,0,0,0,1.751-1.783c0-.13-.023-.175-.165-.175q-2.666.008-5.332,0a.2.2,0,0,0-.223.15,1.224,1.224,0,0,1-1.18.794q-1.942.016-3.884,0a1.2,1.2,0,0,1-1.142-.747.289.289,0,0,0-.326-.2q-2.5.006-5,0c-.469,0-.482.017-.381.49a1.824,1.824,0,0,0,1.885,1.473Q-1974-298.1-1970.541-298.107Z" transform="translate(1980.057 311.366)" fill="#212189"/>
    <path id="Path_106556" data-name="Path 106556" d="M-1789-210.277c-.585,0-1.17,0-1.755,0-.311,0-.42-.109-.42-.422q0-1.327,0-2.655c0-.3.112-.41.41-.41q1.777,0,3.554,0c.3,0,.408.111.409.411q0,1.338,0,2.676c0,.284-.116.4-.4.4C-1787.8-210.275-1788.4-210.277-1789-210.277Zm-.01-.668c.461,0,.922,0,1.382,0,.124,0,.159-.033.158-.157q-.009-.921,0-1.843c0-.126-.037-.156-.158-.155q-1.36.008-2.72,0c-.122,0-.159.03-.158.156q.01.921,0,1.843c0,.125.035.158.158.157C-1789.9-210.95-1789.458-210.945-1789.012-210.945Z" transform="translate(1802.527 219.629)" fill="#212189"/>
    <path id="Path_106557" data-name="Path 106557" d="M-1875.06-278.6c.592,0,1.184,0,1.776,0,.305,0,.427.118.428.424q0,1.129,0,2.259c0,.292-.122.413-.417.413q-1.776,0-3.552,0c-.3,0-.41-.12-.411-.414q0-1.14,0-2.281c0-.28.121-.4.4-.4C-1876.244-278.6-1875.652-278.6-1875.06-278.6Zm0,2.417c.446,0,.893-.008,1.339,0,.159,0,.192-.046.188-.195-.01-.461-.008-.922,0-1.383,0-.133-.032-.175-.17-.174q-1.349.009-2.7,0c-.142,0-.169.048-.167.177.007.468.009.937,0,1.4,0,.139.04.171.172.168C-1875.953-276.188-1875.507-276.183-1875.061-276.183Z" transform="translate(1883.416 280.568)" fill="#212189"/>
    <path id="Path_106558" data-name="Path 106558" d="M-1789-275.492c-.577,0-1.154,0-1.732,0-.34,0-.446-.107-.446-.445q0-1.107,0-2.214c0-.324.112-.436.432-.436h3.507c.322,0,.434.111.435.433q0,1.118,0,2.236c0,.312-.111.424-.42.426C-1787.815-275.49-1788.407-275.492-1789-275.492Zm-.006-.68c.46,0,.921,0,1.381,0,.1,0,.155-.012.153-.138q-.011-.734,0-1.469c0-.123-.045-.143-.154-.142-.906,0-1.812.006-2.719,0-.145,0-.166.052-.164.177.007.46.009.921,0,1.381,0,.149.028.2.188.194C-1789.883-276.18-1789.444-276.172-1789.005-276.172Z" transform="translate(1802.526 280.558)" fill="#212189"/>
    <path id="Path_106559" data-name="Path 106559" d="M-1853.616-188.743c-.366,0-.731,0-1.1,0-.278,0-.443-.139-.435-.351s.166-.329.435-.329q1.1,0,2.194,0c.263,0,.424.133.424.341s-.157.337-.424.34C-1852.885-188.74-1853.25-188.743-1853.616-188.743Z" transform="translate(1862.653 196.752)" fill="#212189"/>
    <path id="Path_106560" data-name="Path 106560" d="M-1853.576-213.768c.365,0,.731,0,1.1,0,.252,0,.4.129.4.333s-.155.335-.4.335q-1.129,0-2.258,0c-.242,0-.4-.143-.391-.346s.155-.32.391-.322C-1854.35-213.77-1853.963-213.768-1853.576-213.768Z" transform="translate(1862.635 219.632)" fill="#212189"/>
    <path id="Path_106561" data-name="Path 106561" d="M-1853.58-166.844c.373,0,.745,0,1.118,0a.341.341,0,0,1,.38.334.338.338,0,0,1-.381.333q-1.151,0-2.3,0a.337.337,0,0,1-.369-.343.338.338,0,0,1,.369-.322C-1854.369-166.846-1853.975-166.843-1853.58-166.844Z" transform="translate(1862.639 175.528)" fill="#212189"/>
    <path id="Path_106562" data-name="Path 106562" d="M-1927.942-220.095c.2,0,.394,0,.591,0a.349.349,0,0,1,.372.346.344.344,0,0,1-.365.329q-.612.011-1.225,0a.345.345,0,0,1-.371-.345.351.351,0,0,1,.386-.331C-1928.351-220.1-1928.146-220.1-1927.942-220.095Z" transform="translate(1932.012 225.58)" fill="#212189"/>
    <path id="Path_106563" data-name="Path 106563" d="M-1927.96-247.919c-.2,0-.394.005-.591,0-.241-.008-.4-.153-.391-.351a.351.351,0,0,1,.388-.33q.591-.007,1.182,0a.355.355,0,0,1,.392.328.357.357,0,0,1-.389.354C-1927.566-247.914-1927.764-247.919-1927.96-247.919Z" transform="translate(1932.013 252.376)" fill="#212189"/>
    <path id="Path_106564" data-name="Path 106564" d="M-1927.943-191.63c.2,0,.394-.006.591,0a.35.35,0,0,1,.367.33.339.339,0,0,1-.349.345q-.634.014-1.269,0a.338.338,0,0,1-.344-.348.343.343,0,0,1,.348-.325C-1928.381-191.637-1928.161-191.63-1927.943-191.63Z" transform="translate(1932.018 198.827)" fill="#212189"/>
    <path id="Path_106565" data-name="Path 106565" d="M-1927.966-163.13c.2,0,.408,0,.613,0a.349.349,0,0,1,.369.327.338.338,0,0,1-.347.347q-.634.016-1.269,0a.338.338,0,0,1-.347-.346.351.351,0,0,1,.367-.329h.613Z" transform="translate(1932.018 172.038)" fill="#212189"/>
    <path id="Path_106566" data-name="Path 106566" d="M-1927.947-277.051c.2,0,.394,0,.591,0a.352.352,0,0,1,.38.339.35.35,0,0,1-.379.34q-.6.01-1.2,0a.349.349,0,0,1-.379-.339c0-.2.156-.336.4-.34C-1928.341-277.054-1928.144-277.051-1927.947-277.051Z" transform="translate(1932.009 279.114)" fill="#212189"/>
    <path id="Path_106567" data-name="Path 106567" d="M-1876.749-189.414c.272,0,.425.114.436.321.013.235-.151.363-.461.361-.294,0-.45-.133-.436-.364C-1877.2-189.31-1877.043-189.416-1876.749-189.414Z" transform="translate(1883.39 196.741)" fill="#212189"/>
    <path id="Path_106568" data-name="Path 106568" d="M-1876.747-166.163c-.295,0-.441-.106-.447-.324s.149-.345.471-.344c.281,0,.432.125.425.347S-1876.449-166.163-1876.747-166.163Z" transform="translate(1883.374 175.515)" fill="#212189"/>
    <path id="Path_106569" data-name="Path 106569" d="M-1876.773-213.822a.366.366,0,0,1,.4.191.324.324,0,0,1-.036.35.576.576,0,0,1-.765,0,.333.333,0,0,1,.2-.526A1.5,1.5,0,0,1-1876.773-213.822Z" transform="translate(1883.415 219.684)" fill="#212189"/>
  </g>
</svg>
