<svg id="discover-light-large" xmlns="http://www.w3.org/2000/svg" width="36" height="24" viewBox="0 0 36 24">
  <path id="card_bg" d="M36,3V21a3,3,0,0,1-3,3H3a2.858,2.858,0,0,1-1.02-.18A3,3,0,0,1,0,21V3A3,3,0,0,1,3,0H33A3,3,0,0,1,36,3Z" transform="translate(0)" fill="#fff"/>
  <g id="discover" transform="translate(1.5 7.769)">
    <path id="Path" d="M34.5,0V8.973A3.034,3.034,0,0,1,31.458,12H1.034A2.911,2.911,0,0,1,0,11.818c2.556-.363,5.02-.817,7.438-1.332.639-.121,1.263-.272,1.886-.409C19.38,7.793,28.081,4.434,32.979,1.135,33.526.757,34.044.378,34.5,0Z" transform="translate(0 4.231)" fill="#ee7623"/>
    <path id="Shape" d="M1.514,4.811c-.05,0-.1,0-.149,0H0V.037H1.365V.006C1.427,0,1.486,0,1.54,0A2.415,2.415,0,0,1,3.09,4.266,2.566,2.566,0,0,1,1.514,4.811ZM.945.847v3.21h.24c.05,0,.1.007.152.007a1.731,1.731,0,0,0,1.138-.427A1.605,1.605,0,0,0,3,2.436a1.579,1.579,0,0,0-.524-1.2,1.751,1.751,0,0,0-1.29-.39Z" transform="translate(1.5 0.174)" fill="#231f20"/>
    <rect id="Rectangle" width="0.937" height="4.815" transform="translate(5.887 0.203)" fill="#231f20"/>
    <path id="Path-2" data-name="Path" d="M1.987,1.93c-.562-.2-.75-.345-.75-.607a.642.642,0,0,1,.7-.532,1,1,0,0,1,.75.39L3.172.543A2.062,2.062,0,0,0,1.762,0a1.41,1.41,0,0,0-1.5,1.38c0,.667.3,1,1.177,1.32a3.855,3.855,0,0,1,.652.277.57.57,0,0,1,.285.495.69.69,0,0,1-.75.682,1.11,1.11,0,0,1-1.02-.645L0,4.1a1.867,1.867,0,0,0,1.71.915A1.545,1.545,0,0,0,3.36,3.438C3.36,2.673,3.052,2.32,1.987,1.93Z" transform="translate(7.14 0.118)" fill="#231f20"/>
    <path id="Path-3" data-name="Path" d="M0,2.52A2.49,2.49,0,0,0,2.543,5.033,2.572,2.572,0,0,0,3.72,4.755v-1.1a1.5,1.5,0,0,1-1.132.525A1.582,1.582,0,0,1,.968,2.513,1.6,1.6,0,0,1,2.543.863,1.567,1.567,0,0,1,3.72,1.4V.3A2.392,2.392,0,0,0,2.565,0,2.535,2.535,0,0,0,0,2.52Z" transform="translate(10.807 0.09)" fill="#231f20"/>
    <path id="Path-4" data-name="Path" d="M2.31,3.232,1.02,0H0L2.04,4.935h.5L4.627,0H3.607L2.31,3.232Z" transform="translate(19.665 0.203)" fill="#231f20"/>
    <path id="Path-5" data-name="Path" d="M0,4.815H2.67V4H.937V2.7H2.6V1.882H.937V.817H2.67V0H0V4.815Z" transform="translate(24.712 0.203)" fill="#231f20"/>
    <path id="Shape-2" data-name="Shape" d="M.945,4.771H0V0H1.38C2.467,0,3.09.514,3.09,1.41A1.3,1.3,0,0,1,2,2.79l1.5,1.979H2.355L1.05,2.865H.945V4.77ZM.945.75V2.205h.3c.6,0,.886-.231.886-.705,0-.5-.3-.75-.886-.75Z" transform="translate(28.005 0.211)" fill="#231f20"/>
    <path id="Path-6" data-name="Path" d="M5.115,2.557A2.557,2.557,0,1,1,2.557,0,2.557,2.557,0,0,1,5.115,2.557Z" transform="translate(14.827 0.053)" fill="#ee7623"/>
    <path id="Shape-3" data-name="Shape" d="M.105.435H0V0H.15C.258,0,.315.047.315.135A.114.114,0,0,1,.225.24L.359.434H.24L.105.255v.18Z" transform="translate(31.275 0.166)" fill="#231f20"/>
    <path id="Shape-4" data-name="Shape" d="M.375.751A.375.375,0,0,1,.36,0H.375A.374.374,0,0,1,.635.1a.376.376,0,0,1-.26.646ZM.36.091A.285.285,0,0,0,.075.376.293.293,0,0,0,.36.691H.366A.239.239,0,0,0,.555.6.343.343,0,0,0,.645.376.286.286,0,0,0,.36.091Z" transform="translate(31.095 0)" fill="#231f20"/>
  </g>
</svg>
