<svg xmlns="http://www.w3.org/2000/svg" width="31" height="31" viewBox="0 0 31 31">
  <g id="Group_66311" data-name="Group 66311" transform="translate(-324 -3065.68)">
    <g id="Ellipse_1162" data-name="Ellipse 1162" transform="translate(324 3065.68)" fill="none" stroke="#212189" stroke-width="2">
      <circle cx="15.5" cy="15.5" r="15.5" stroke="none"/>
      <circle cx="15.5" cy="15.5" r="14.5" fill="none"/>
    </g>
    <path id="like-dislike-button-icon" d="M76.029,71.531H73.074a.5.5,0,0,1-.5-.5V64.409a.5.5,0,0,1,.5-.5h2.955a.5.5,0,0,1,.5.5v6.622A.5.5,0,0,1,76.029,71.531Zm-1.448-4.808a.638.638,0,1,1,.638-.638A.637.637,0,0,1,74.581,66.722ZM69.153,76.5c-.262,1.33-2.44.106-2.583-2.04a9.222,9.222,0,0,1,.185-2.272H63.643c-1.3-.051-2.425-.978-1.626-2.5-.182-.664-.21-1.442.284-1.749a2.562,2.562,0,0,1,.769-2.207,2.63,2.63,0,0,1,.4-1.346c.418-.591.758-.45,1.416-.45h5.257a2.023,2.023,0,0,1,1.832.913V70.7c-1.567.424-2.4,2.567-2.822,3.975Z" transform="translate(270.362 3011.629)" fill="#212189" fill-rule="evenodd"/>
  </g>
</svg>
