<svg xmlns="http://www.w3.org/2000/svg" width="13.761" height="18.063" viewBox="0 0 13.761 18.063">
  <g id="Group_65079" data-name="Group 65079" transform="translate(946.491 -1055.497)">
    <path id="Path_106318" data-name="Path 106318" d="M-937.39,1055.5a1.044,1.044,0,0,1,.393.276q2.005,2.01,4.016,4.014a.8.8,0,0,1,.251.61q-.007,5.749,0,11.5a1.593,1.593,0,0,1-1.189,1.611,1.779,1.779,0,0,1-.453.053q-5.237,0-10.475,0a1.583,1.583,0,0,1-1.639-1.631q0-7.4,0-14.8a1.576,1.576,0,0,1,1.3-1.6c.014,0,.025-.02.037-.03Zm-8.042,9.031q0,3.686,0,7.372a.537.537,0,0,0,.58.6h10.476a.534.534,0,0,0,.584-.578q0-5.494,0-10.988c0-.13-.04-.15-.157-.149-.805.005-1.611,0-2.416,0a1.589,1.589,0,0,1-1.662-1.661c0-.8-.005-1.6,0-2.4,0-.153-.043-.177-.184-.177q-3.3.007-6.6,0c-.435,0-.632.2-.632.636Q-945.433,1060.86-945.433,1064.528Zm8.466-7.178c0,.616,0,1.232,0,1.849a.507.507,0,0,0,.471.524c.638.014,1.276,0,1.905,0Z" transform="translate(0)" fill="#212189"/>
    <path id="Path_106319" data-name="Path 106319" d="M-875.412,1214.108c1.04,0,2.08,0,3.12,0a.527.527,0,0,1,.516.746.531.531,0,0,1-.526.313q-1.692,0-3.384,0-1.445,0-2.891,0a.527.527,0,0,1-.537-.4.521.521,0,0,1,.215-.57.626.626,0,0,1,.368-.094Q-876.972,1214.11-875.412,1214.108Z" transform="translate(-64.182 -151.132)" fill="#212189"/>
    <path id="Path_106320" data-name="Path 106320" d="M-875.505,1260.07c-1.04,0-2.08,0-3.12,0a.528.528,0,0,1-.517-.745.532.532,0,0,1,.526-.313q1.8,0,3.6,0c.893,0,1.786,0,2.679,0a.525.525,0,0,1,.487.784.54.54,0,0,1-.514.274Q-873.936,1260.068-875.505,1260.07Z" transform="translate(-64.125 -193.92)" fill="#212189"/>
    <path id="Path_106321" data-name="Path 106321" d="M-875.505,1304.966c-1.04,0-2.08,0-3.12,0a.528.528,0,0,1-.517-.745.532.532,0,0,1,.526-.313q1.8,0,3.6,0c.893,0,1.786,0,2.679,0a.525.525,0,0,1,.487.784.54.54,0,0,1-.514.275Q-873.937,1304.964-875.505,1304.966Z" transform="translate(-64.125 -236.699)" fill="#212189"/>
    <path id="Path_106322" data-name="Path 106322" d="M-876.491,1349.872h-2.044a.539.539,0,0,1-.6-.524.536.536,0,0,1,.591-.534q2.062,0,4.124,0a.53.53,0,0,1,.538.721.534.534,0,0,1-.527.337Q-875.451,1349.874-876.491,1349.872Z" transform="translate(-64.179 -279.488)" fill="#212189"/>
  </g>
</svg>
