<svg xmlns="http://www.w3.org/2000/svg" width="14.136" height="25.7" viewBox="0 0 14.136 25.7">
  <g id="dot-right-arrow" transform="translate(-66.96)">
    <circle id="Ellipse_3088" data-name="Ellipse 3088" cx="1.281" cy="1.281" r="1.281" transform="translate(66.96 3.881)" fill="#fe4a55"/>
    <circle id="Ellipse_3089" data-name="Ellipse 3089" cx="1.281" cy="1.281" r="1.281" transform="translate(66.96 7.684)" fill="#fe4a55"/>
    <circle id="Ellipse_3090" data-name="Ellipse 3090" cx="1.281" cy="1.281" r="1.281" transform="translate(66.96 0)" fill="#fe4a55"/>
    <circle id="Ellipse_3091" data-name="Ellipse 3091" cx="1.281" cy="1.281" r="1.281" transform="translate(70.763 3.881)" fill="#fe4a55"/>
    <circle id="Ellipse_3092" data-name="Ellipse 3092" cx="1.281" cy="1.281" r="1.281" transform="translate(70.763 7.684)" fill="#fe4a55"/>
    <circle id="Ellipse_3093" data-name="Ellipse 3093" cx="1.281" cy="1.281" r="1.281" transform="translate(66.96 11.487)" fill="#fe4a55"/>
    <circle id="Ellipse_3094" data-name="Ellipse 3094" cx="1.281" cy="1.281" r="1.281" transform="translate(70.763 11.487)" fill="#fe4a55"/>
    <circle id="Ellipse_3095" data-name="Ellipse 3095" cx="1.281" cy="1.281" r="1.281" transform="translate(66.96 15.368)" fill="#fe4a55"/>
    <circle id="Ellipse_3096" data-name="Ellipse 3096" cx="1.281" cy="1.281" r="1.281" transform="translate(70.763 15.368)" fill="#fe4a55"/>
    <circle id="Ellipse_3097" data-name="Ellipse 3097" cx="1.281" cy="1.281" r="1.281" transform="translate(66.96 19.176)" fill="#fe4a55"/>
    <circle id="Ellipse_3098" data-name="Ellipse 3098" cx="1.281" cy="1.281" r="1.281" transform="translate(70.763 19.176)" fill="#fe4a55"/>
    <circle id="Ellipse_3099" data-name="Ellipse 3099" cx="1.281" cy="1.281" r="1.281" transform="translate(74.727 7.684)" fill="#fe4a55"/>
    <circle id="Ellipse_3100" data-name="Ellipse 3100" cx="1.281" cy="1.281" r="1.281" transform="translate(74.727 11.487)" fill="#fe4a55"/>
    <circle id="Ellipse_3101" data-name="Ellipse 3101" cx="1.281" cy="1.281" r="1.281" transform="translate(74.727 15.368)" fill="#fe4a55"/>
    <circle id="Ellipse_3102" data-name="Ellipse 3102" cx="1.281" cy="1.281" r="1.281" transform="translate(66.96 23.139)" fill="#fe4a55"/>
    <circle id="Ellipse_3103" data-name="Ellipse 3103" cx="1.281" cy="1.281" r="1.281" transform="translate(78.534 11.487)" fill="#fe4a55"/>
  </g>
</svg>
