<svg xmlns="http://www.w3.org/2000/svg" xmlns:xlink="http://www.w3.org/1999/xlink" width="362" height="251.041" viewBox="0 0 362 251.041">
  <defs>
    <linearGradient id="linear-gradient" x1="0.976" y1="0.036" x2="0" y2="1" gradientUnits="objectBoundingBox">
      <stop offset="0" stop-color="#edf6ff"/>
      <stop offset="1" stop-color="#dae8f8"/>
    </linearGradient>
  </defs>
  <g id="Group_105927" data-name="Group 105927" transform="translate(-1181 -2375)">
    <path id="Rectangle_22260" data-name="Rectangle 22260" d="M8,0H354a8,8,0,0,1,8,8V251.041a0,0,0,0,1,0,0H0a0,0,0,0,1,0,0V8A8,8,0,0,1,8,0Z" transform="translate(1181 2375)" fill="url(#linear-gradient)"/>
    <g id="money" transform="translate(1328 2410.158)">
      <path id="Path_123496" data-name="Path 123496" d="M228.21,242.368a2.108,2.108,0,0,1,2.105,2.105,1.053,1.053,0,0,0,2.105,0,4.218,4.218,0,0,0-3.158-4.077v-1.186a1.053,1.053,0,0,0-2.105,0V240.4a4.211,4.211,0,0,0,1.053,8.287,2.105,2.105,0,1,1-2.105,2.105,1.053,1.053,0,0,0-2.105,0,4.218,4.218,0,0,0,3.158,4.077v1.186a1.053,1.053,0,0,0,2.105,0v-1.186a4.211,4.211,0,0,0-1.053-8.287,2.105,2.105,0,1,1,0-4.21Z" transform="translate(-194.528 -149.644)" fill="#fe4a55"/>
      <path id="Path_123497" data-name="Path 123497" d="M165.683,206.158a13.683,13.683,0,1,0,13.683,13.683A13.7,13.7,0,0,0,165.683,206.158Zm0,25.262a11.578,11.578,0,1,1,11.578-11.578A11.591,11.591,0,0,1,165.683,231.42Z" transform="translate(-132.001 -121.855)" fill="#212189"/>
      <path id="Path_123498" data-name="Path 123498" d="M64.084,80.093l-.673-5.383a3.156,3.156,0,0,0-3.57-2.736l-1.524.218-.99-3.959a3.156,3.156,0,0,0-3.895-2.28L3,80.1a3.162,3.162,0,0,0-3,3.154v29.472a3.161,3.161,0,0,0,3.158,3.158H64.207a3.161,3.161,0,0,0,3.158-3.158V83.251a3.162,3.162,0,0,0-3.281-3.158Zm-3.95-6.034a1.052,1.052,0,0,1,1.188.912l.64,5.122H17.949ZM53.99,67.983a1.052,1.052,0,0,1,1.295.761l.937,3.748-37.37,5.345Zm11.269,44.74a1.054,1.054,0,0,1-1.053,1.053H3.158a1.054,1.054,0,0,1-1.053-1.053V83.251A1.054,1.054,0,0,1,3.155,82.2H64.207a1.054,1.054,0,0,1,1.053,1.053Z" fill="#212189"/>
      <path id="Path_123499" data-name="Path 123499" d="M353.894,209.316a2.108,2.108,0,0,1-2.105-2.105,1.053,1.053,0,0,0-1.053-1.053H337.053a1.053,1.053,0,1,0,0,2.105h12.764a4.226,4.226,0,0,0,3.024,3.024V228.4a4.226,4.226,0,0,0-3.024,3.024H337.053a1.053,1.053,0,1,0,0,2.105h13.683a1.053,1.053,0,0,0,1.053-1.053,2.108,2.108,0,0,1,2.105-2.105,1.053,1.053,0,0,0,1.053-1.053V210.368a1.053,1.053,0,0,0-1.053-1.052Z" transform="translate(-291.792 -121.855)" fill="#212189"/>
      <path id="Path_123500" data-name="Path 123500" d="M49.894,231.42H37.13a4.226,4.226,0,0,0-3.024-3.024V211.288a4.226,4.226,0,0,0,3.024-3.024H49.894a1.053,1.053,0,1,0,0-2.105H36.21a1.053,1.053,0,0,0-1.053,1.053,2.108,2.108,0,0,1-2.105,2.105A1.053,1.053,0,0,0,32,210.368v18.946a1.053,1.053,0,0,0,1.053,1.053,2.108,2.108,0,0,1,2.105,2.105,1.053,1.053,0,0,0,1.053,1.053H49.894a1.053,1.053,0,1,0,0-2.105Z" transform="translate(-27.79 -121.855)" fill="#212189"/>
      <path id="Path_123501" data-name="Path 123501" d="M72,289.316a3.158,3.158,0,1,0,3.158-3.158A3.161,3.161,0,0,0,72,289.316Zm4.21,0a1.053,1.053,0,1,1-1.053-1.053A1.054,1.054,0,0,1,76.21,289.316Z" transform="translate(-62.527 -191.329)" fill="#212189"/>
      <path id="Path_123502" data-name="Path 123502" d="M398.315,289.316a3.158,3.158,0,1,0-3.158,3.158A3.161,3.161,0,0,0,398.315,289.316Zm-4.21,0a1.053,1.053,0,1,1,1.053,1.053A1.054,1.054,0,0,1,394.105,289.316Z" transform="translate(-340.424 -191.329)" fill="#212189"/>
    </g>
  </g>
</svg>
