<svg xmlns="http://www.w3.org/2000/svg" width="21.5" height="21.15" viewBox="0 0 21.5 21.15">
  <path id="edit-text" d="M4.76,18.81h.11l2.93-.27a1.767,1.767,0,0,0,1.08-.51L19.94,6.97a2.728,2.728,0,0,0,0-3.88l-.71-.71a2.815,2.815,0,0,0-3.89,0L13.93,3.79h0L4.29,13.43a1.7,1.7,0,0,0-.5,1.08l-.27,2.93a1.285,1.285,0,0,0,.36,1,1.234,1.234,0,0,0,.88.37ZM17.29,3.07a1.21,1.21,0,0,1,.88.37l.71.71a1.234,1.234,0,0,1,.37.88,1.217,1.217,0,0,1-.37.88L18,6.79,15.53,4.32l.88-.88a1.251,1.251,0,0,1,.88-.37ZM5.28,14.65a.213.213,0,0,1,.07-.15l9.11-9.12,2.47,2.47L7.82,16.96a.418.418,0,0,1-.15.07l-2.63.24.24-2.63ZM22.75,22a.755.755,0,0,1-.75.75H2a.75.75,0,0,1,0-1.5H22A.755.755,0,0,1,22.75,22Z" transform="translate(-1.25 -1.6)" fill="#212189"/>
</svg>
