<svg xmlns="http://www.w3.org/2000/svg" width="68.433" height="62.961" viewBox="0 0 68.433 62.961">
  <g id="exam" transform="translate(0 -20.469)">
    <g id="Group_105916" data-name="Group 105916" transform="translate(0 20.469)">
      <path id="Path_123506" data-name="Path 123506" d="M47.334,57.923a1.336,1.336,0,1,0-.723,1.746A1.349,1.349,0,0,0,47.334,57.923Z" transform="translate(-38.782 -52.205)" fill="#212189"/>
      <path id="Path_123507" data-name="Path 123507" d="M81.545,57.928a1.336,1.336,0,1,0-.723,1.744A1.348,1.348,0,0,0,81.545,57.928Z" transform="translate(-68.421 -52.209)" fill="#212189"/>
      <path id="Path_123508" data-name="Path 123508" d="M117.756,57.931a1.336,1.336,0,1,0-.723,1.744A1.349,1.349,0,0,0,117.756,57.931Z" transform="translate(-99.791 -52.211)" fill="#212189"/>
      <path id="Path_123509" data-name="Path 123509" d="M68.045,76.732l-5.915-5.915,5.312-1.646a1.337,1.337,0,0,0,.01-2.55L60.483,64.4V54.668a1.337,1.337,0,0,0-2.673,0v8.884L46.621,59.99a1.349,1.349,0,0,0-1.68,1.679l3.729,11.712H6.4a3.727,3.727,0,0,1-3.723-3.723V32.929H57.81V42.9a1.337,1.337,0,1,0,2.673,0V26.865a6.4,6.4,0,0,0-6.4-6.4H6.4a6.4,6.4,0,0,0-6.4,6.4V69.658a6.4,6.4,0,0,0,6.4,6.4H49.522L51.574,82.5a1.337,1.337,0,0,0,2.548,0l1.716-5.412,5.927,5.927a1.337,1.337,0,0,0,1.89,0l4.39-4.39A1.345,1.345,0,0,0,68.045,76.732ZM2.674,26.865A3.727,3.727,0,0,1,6.4,23.142H54.089a3.727,3.727,0,0,1,3.722,3.722v3.391H2.674ZM62.709,80.177l-6.536-6.537a1.35,1.35,0,0,0-2.219.541l-1.109,3.5L48.274,63.322l14.311,4.556-3.363,1.042a1.35,1.35,0,0,0-.55,2.222l6.537,6.537Z" transform="translate(0 -20.469)" fill="#212189"/>
      <path id="Path_123510" data-name="Path 123510" d="M57.829,133.988a8.081,8.081,0,1,0,6.84,9.623,1.337,1.337,0,1,0-2.62-.532,5.409,5.409,0,1,1-5.3-6.491,5.5,5.5,0,0,1,.725.05,1.337,1.337,0,1,0,.354-2.65Z" transform="translate(-42.163 -118.75)" fill="#fe4a55"/>
      <path id="Path_123511" data-name="Path 123511" d="M56.75,290.2a8.082,8.082,0,1,0-8.082-8.082A8.091,8.091,0,0,0,56.75,290.2Zm0-13.49a5.408,5.408,0,1,1-5.408,5.408A5.414,5.414,0,0,1,56.75,276.707Z" transform="translate(-42.163 -240.141)" fill="#212189"/>
      <path id="Path_123512" data-name="Path 123512" d="M216.682,159.046H194.876a1.337,1.337,0,1,0,0,2.673h21.806a1.337,1.337,0,0,0,0-2.673Z" transform="translate(-167.67 -140.523)" fill="#212189"/>
      <path id="Path_123513" data-name="Path 123513" d="M218.018,208.424a1.337,1.337,0,0,0-1.337-1.337H194.876a1.337,1.337,0,0,0,0,2.673h21.806A1.337,1.337,0,0,0,218.018,208.424Z" transform="translate(-167.67 -182.143)" fill="#212189"/>
      <path id="Path_123514" data-name="Path 123514" d="M194.876,303.791h12.308a1.337,1.337,0,0,0,0-2.673H194.876a1.337,1.337,0,0,0,0,2.673Z" transform="translate(-167.67 -263.605)" fill="#212189"/>
      <path id="Path_123515" data-name="Path 123515" d="M194.876,351.833h13.645a1.337,1.337,0,1,0,0-2.673H194.876a1.337,1.337,0,0,0,0,2.673Z" transform="translate(-167.67 -305.226)" fill="#212189"/>
      <path id="Path_123516" data-name="Path 123516" d="M86.76,150.081a1.337,1.337,0,0,0-1.89,1.89l2.049,2.049a1.337,1.337,0,0,0,1.89,0l6.494-6.494a1.337,1.337,0,1,0-1.89-1.89l-5.549,5.549Z" transform="translate(-73.186 -128.566)" fill="#fe4a55"/>
      <path id="Path_123517" data-name="Path 123517" d="M434.949,222.83a1.336,1.336,0,1,0-.125,1.645,1.344,1.344,0,0,0,.125-1.645Z" transform="translate(-374.691 -195.269)" fill="#212189"/>
    </g>
  </g>
</svg>
