<svg xmlns="http://www.w3.org/2000/svg" xmlns:xlink="http://www.w3.org/1999/xlink" width="20.16" height="19.354" viewBox="0 0 20.16 19.354">
  <defs>
    <clipPath id="clip-path">
      <rect id="Rectangle_29795" data-name="Rectangle 29795" width="20.16" height="19.353" transform="translate(0 0)" fill="#fff"/>
    </clipPath>
  </defs>
  <g id="Group_109438" data-name="Group 109438" clip-path="url(#clip-path)">
    <path id="Path_125756" data-name="Path 125756" d="M36.255,30.211A9.361,9.361,0,0,1,33.577,30c-2.745-.507-5.494-.992-8.243-1.486-.184-.033-.367-.07-.56-.1V12.707l2.088-.364c2.607-.46,5.212-.931,7.821-1.372a13.246,13.246,0,0,1,1.57-.082Zm-8.586-6.4.025.1c.432,0,.864.006,1.3-.007.059,0,.14-.084.167-.149.25-.576.491-1.156.732-1.737.093-.225.179-.453.288-.727.051.132.076.208.107.288.307.767.608,1.536.922,2.3.031.076.11.18.175.187.48.052.963.08,1.493.119-.058-.128-.093-.212-.133-.294-.525-1.075-1.048-2.15-1.58-3.219a.475.475,0,0,1-.007-.476c.522-1.057,1.03-2.121,1.541-3.182.038-.078.069-.16.119-.275-.485.029-.918.045-1.35.089a.351.351,0,0,0-.216.2c-.329.8-.646,1.6-.968,2.393a.763.763,0,0,1-.06.1c-.3-.8-.594-1.589-.9-2.376-.028-.073-.114-.176-.17-.174-.44.012-.88.047-1.354.077.051.121.088.208.126.29.442.971.882,1.944,1.331,2.911a.465.465,0,0,1-.016.456C28.708,21.738,28.19,22.777,27.669,23.814Z" transform="translate(-24.776 -10.887)" fill="#fff"/>
    <path id="Path_125757" data-name="Path 125757" d="M44.073,12.925V27.9H35.988V26.734H38.3v-1.7h-2.31V24.016H38.3V22.268H35.991v-.952h2.3V19.55h-2.3v-.968H38.3V16.817h-.735c-.461,0-.922-.006-1.38,0-.164,0-.229-.047-.22-.221.013-.232,0-.464,0-.732H38.3V14.106H35.992V12.925ZM38.9,14.11v1.725h3.379V14.11Zm-.01,4.444h3.393V16.837H38.888Zm3.4,1.011H38.9v1.718h3.387Zm-3.4,4.426h3.387V22.277H38.888Zm3.395,2.742V25.059H38.9v1.673Z" transform="translate(-23.913 -10.731)" fill="#fff"/>
  </g>
</svg>
