<svg xmlns="http://www.w3.org/2000/svg" width="56.388" height="56.3" viewBox="0 0 56.388 56.3">
  <g id="Group_63900" data-name="Group 63900" transform="translate(870.383 -809.263)">
    <path id="Path_105176" data-name="Path 105176" d="M-870.383,953.255q1.724.027,3.448.054c.234,0,.468,0,.72,0v1.709h-4.168Z" transform="translate(0 -122.793)" fill="#262261"/>
    <path id="Path_105177" data-name="Path 105177" d="M-772.535,874.2a4.968,4.968,0,0,1-1.531-3.2,4.939,4.939,0,0,1,3.025-5.02.6.6,0,0,0,.443-.581,3.628,3.628,0,0,1,2.856-3.241,1.1,1.1,0,0,0,.619-.424,4.99,4.99,0,0,1,6.693-1.784.706.706,0,0,0,.789-.014,4.963,4.963,0,0,1,6.609,1.739,1,1,0,0,0,.7.514,3.622,3.622,0,0,1,2.862,3.235.736.736,0,0,0,.35.5,4.989,4.989,0,0,1,1.72,8.092c-.049.054-.094.111-.159.187a4.562,4.562,0,0,1,.859,2.5,4.167,4.167,0,0,1-1.348,3.2.574.574,0,0,0-.2.655,4.274,4.274,0,0,1-3,5.25,1.189,1.189,0,0,0-.583.423,5.691,5.691,0,0,1-7.886,1.54.509.509,0,0,0-.67.02,5.7,5.7,0,0,1-7.85-1.538,1.384,1.384,0,0,0-.676-.471,4.312,4.312,0,0,1-2.948-5.2.748.748,0,0,0-.134-.6,4.248,4.248,0,0,1-.65-5.565C-772.614,874.356-772.583,874.29-772.535,874.2Zm5.394,2.158a13.214,13.214,0,0,0-1.191-1.383,1.965,1.965,0,0,0-3.058.538,2.58,2.58,0,0,0,.846,3.484c.32.208.665.377,1.016.574-.181.311-.356.589-.507.878a2.617,2.617,0,0,0,1.816,3.8,1.775,1.775,0,0,0,2.229-1.727c.009-.212,0-.424,0-.64l1.625-.146a3.53,3.53,0,0,1-2.131,3.985,3.96,3.96,0,0,0,5.372.553.9.9,0,0,0,.239-.615q.018-11.791.019-23.582a.739.739,0,0,0-.484-.757,3.3,3.3,0,0,0-4.563,1.758.9.9,0,0,1-1.095.709,1.764,1.764,0,0,0-1.891,1.829,4.479,4.479,0,0,1,3.433,2.387c-.26.152-.48.283-.7.409s-.466.26-.688.384c-.793-1.008-1.285-1.362-2.042-1.494a3.172,3.172,0,0,0-3.246,1.876,3.316,3.316,0,0,0,.749,3.79.52.52,0,0,0,.427.082c2.2-.827,4.265.543,5.158,2.6Zm13.9-7.548-1.511-.877a12.371,12.371,0,0,1,1.59-1.543,12.354,12.354,0,0,1,1.989-.9,1.818,1.818,0,0,0-2.082-1.7.7.7,0,0,1-.86-.563,3.325,3.325,0,0,0-4.632-1.907.708.708,0,0,0-.482.759c.034.512.008,1.028.008,1.542q0,10.936.01,21.872a1.136,1.136,0,0,0,.242.776,3.94,3.94,0,0,0,5.347-.52c-1.78-1.168-2.469-2.511-2.037-4.023l1.552.16c0,.237-.008.435,0,.633a1.761,1.761,0,0,0,2.119,1.748,2.616,2.616,0,0,0,2-3.672c-.161-.346-.369-.67-.572-1.035.3-.162.589-.312.872-.477a2.6,2.6,0,0,0,1.276-1.716,2.353,2.353,0,0,0-1.554-2.836,1.96,1.96,0,0,0-2,.617c-.347.367-.631.793-.959,1.213l-1.36-.711c.86-2,2.918-3.444,5.157-2.6a.494.494,0,0,0,.426-.083,3.152,3.152,0,0,0,.939-3.216,3.13,3.13,0,0,0-2.509-2.43,2.619,2.619,0,0,0-2.814,1.3C-753.118,868.667-753.156,868.707-753.241,868.812Z" transform="translate(-82.124 -42.694)" fill="#fe4a55"/>
    <path id="Path_105178" data-name="Path 105178" d="M-782.253,990.732l1.528.538c-.229.561-.43,1.1-.669,1.626a21.4,21.4,0,0,1-7.487,8.981,8.164,8.164,0,0,0-3.825,7.308c.016.826,0,1.653,0,2.48,0,2.079-.7,3.011-2.723,3.588-.028.258-.047.531-.09.8a2.874,2.874,0,0,1-2.577,2.42c-2.09.074-4.187.08-6.276,0a2.857,2.857,0,0,1-2.63-2.725c-.031-.38-.128-.549-.537-.649a2.876,2.876,0,0,1-2.22-2.694c-.057-1.136-.03-2.277-.028-3.415a7.977,7.977,0,0,0-3.628-6.964,21.571,21.571,0,0,1-8.921-12.68c-.027-.1-.037-.209-.058-.333.215-.058.406-.115.6-.161.3-.071.6-.135.954-.213.135.452.258.886.393,1.317a19.743,19.743,0,0,0,7.65,10.474,11.861,11.861,0,0,1,3.078,2.96.886.886,0,0,0,.648.258c3.306.016,6.612.011,9.918.011,1.91,0,3.82-.008,5.73.007a.928.928,0,0,0,.769-.39,16.018,16.018,0,0,1,2.44-2.432,20.854,20.854,0,0,0,7.836-9.9A1.894,1.894,0,0,1-782.253,990.732Zm-12.146,21.243h-13.692c-.032.914.376,1.457,1.162,1.564a6.781,6.781,0,0,0,.878.037c.929,0,1.857,0,2.8,0v1.653h-2.081a1.365,1.365,0,0,0,1.518,1.647c1.358.02,2.716.009,4.074,0a11.38,11.38,0,0,0,1.483-.051,1.25,1.25,0,0,0,1.039-1.611h-4.317v-1.642h.682c1.633,0,3.267.012,4.9,0A1.367,1.367,0,0,0-794.4,1011.975Zm.626-6.634h-14.941l.449,1.608h14.036Zm-14.323,4.9h13.689v-1.582H-808.1Z" transform="translate(-40.926 -152.967)" fill="#262261"/>
    <path id="Path_105179" data-name="Path 105179" d="M-802.874,810.962a19.857,19.857,0,0,0-16.478,6.309c-4.426,4.706-6.048,10.358-5.268,16.816l-1.617.272a21.569,21.569,0,0,1,4.844-17.3,21.449,21.449,0,0,1,18.658-7.678Z" transform="translate(-37.456 0)" fill="#262261"/>
    <path id="Path_105180" data-name="Path 105180" d="M-637.946,838.308l-1.516-.408a20.087,20.087,0,0,0-2.521-16.073,19.834,19.834,0,0,0-13.511-8.989l.275-1.62a21.673,21.673,0,0,1,14,8.8A21.479,21.479,0,0,1-637.946,838.308Z" transform="translate(-183.252 -1.667)" fill="#262261"/>
    <path id="Path_105181" data-name="Path 105181" d="M-511.213,955.527h-4.115v-1.579h4.115Z" transform="translate(-302.782 -123.384)" fill="#262261"/>
    <path id="Path_105182" data-name="Path 105182" d="M-856.807,1009.86l.563,1.552-3.92,1.429-.576-1.544Z" transform="translate(-8.222 -171.064)" fill="#262261"/>
    <path id="Path_105183" data-name="Path 105183" d="M-556.217,1059.9l3.206,2.7-1.063,1.26-3.2-2.69Z" transform="translate(-267.007 -213.736)" fill="#262261"/>
    <path id="Path_105184" data-name="Path 105184" d="M-828.054,831.772l3.207,2.693-1.058,1.263-3.205-2.685Z" transform="translate(-35.196 -19.195)" fill="#262261"/>
    <path id="Path_105185" data-name="Path 105185" d="M-553.068,833l-3.2,2.692-1.063-1.262,3.2-2.691Z" transform="translate(-266.959 -19.17)" fill="#262261"/>
    <path id="Path_105186" data-name="Path 105186" d="M-860.717,889.992l.571-1.55,3.925,1.426-.56,1.548Z" transform="translate(-8.243 -67.522)" fill="#262261"/>
    <path id="Path_105187" data-name="Path 105187" d="M-523.295,888.5l.571,1.547-3.926,1.433-.575-1.546Z" transform="translate(-292.637 -67.574)" fill="#262261"/>
    <path id="Path_105188" data-name="Path 105188" d="M-527.263,1011.239l.567-1.548,3.93,1.425-.569,1.55Z" transform="translate(-292.604 -170.92)" fill="#262261"/>
    <path id="Path_105189" data-name="Path 105189" d="M-825.868,1059.845l1.065,1.258-3.2,2.692-1.065-1.264Z" transform="translate(-35.231 -213.69)" fill="#262261"/>
    <path id="Path_105190" data-name="Path 105190" d="M-562.775,942.2v1.6h-1.589v-1.6Z" transform="translate(-260.965 -113.368)" fill="#262261"/>
    <path id="Path_105191" data-name="Path 105191" d="M-564.388,966.962v-1.587h1.589v1.587Z" transform="translate(-260.945 -133.128)" fill="#262261"/>
  </g>
</svg>
