<svg xmlns="http://www.w3.org/2000/svg" width="299.782" height="41.621" xmlns:v="https://vecta.io/nano"><defs><linearGradient id="A" y1=".5" x2="1" y2=".5"><stop offset="0" stop-color="#f44852"/><stop offset=".021" stop-color="#e63a46"/><stop offset=".059" stop-color="#d52a38"/><stop offset=".105" stop-color="#c91e2e"/><stop offset=".17" stop-color="#c21728"/><stop offset=".347" stop-color="#c11627"/></linearGradient><linearGradient id="B" y1=".5" x2="1" y2=".5"><stop offset="0" stop-color="#f44852"/><stop offset=".09" stop-color="#e23643"/><stop offset=".22" stop-color="#cf2433"/><stop offset=".355" stop-color="#c4192a"/><stop offset=".502" stop-color="#c11627"/></linearGradient><linearGradient id="C" x1="-.339" y1="-1.288" x2=".658" y2="-1.288"><stop offset="0" stop-color="#262261"/><stop offset="1" stop-color="#212189"/></linearGradient><linearGradient id="D" y1=".5" x2="1" y2=".5"><stop offset="0" stop-color="#f44852"/><stop offset=".775" stop-color="#c11627"/></linearGradient></defs><g transform="translate(-120 -32.088)"><g transform="translate(120 32.088)"><path d="M4.682 26.527l2.342 2.229-.5 1.946-2.222-1.47-.016 1.623-.54.14a12.71 12.71 0 0 0 .152-3.368c-.217-1.29.784-1.1.784-1.1z" fill="url(#A)"/><path d="M5.314 15.906c-2.35 1.031-3.637 3.585-3.068 6.087l.269 1.1c.335.961.763 1.888 1.278 2.766l-.816-1.3c-1.7-2.8-2.136-6.407.256-9a6.5 6.5 0 0 1 1.32-1.171l.76 1.515z" fill="#161e5d"/><ellipse cx="1.484" cy="1.509" rx="1.484" ry="1.509" transform="matrix(.999521 -.030957 .030957 .999521 2.234 24.632)" fill="url(#B)"/><path d="M72.708 18.87L34.369 35.318 0 14.101 36.388.001z" fill="url(#C)"/><path d="M63.508 17.264L34.042 29.486 13.333 18.077l-7.148-4.1L36.006 2.448z" fill="url(#D)"/><g fill="#fff"><path d="M32.249 11.976l-11.611 4.7-4.882-2.824 11.6-4.572zm3.021-5.789l-5.912 2.331 13.313 7.261-5.31 2.25 5.231 2.919 11.2-4.882-5.155-2.742.031-.013zm-1.33 6.689l-11.61 4.745.868.5h-.008l11.082 6.409 6.24-2.719-6.907-3.888 5.4-2.267z"/><ellipse cx="1.589" cy="1.108" rx="1.589" ry="1.108" transform="matrix(.948661 -.316295 .316295 .948661 49.1 24.828)"/></g><path d="M57.116 25.601l-1.055 5.556s-14.762 3.1-21.8 10.464c0 0-8.152-9.566-19.345-12.886l-1.653-6.377 20.891 12.731z" fill="url(#D)"/></g><path d="M392.28 48.86h20a7.5 7.5 0 0 1 7.5 7.5h0a7.5 7.5 0 0 1-7.5 7.5h-20a7.5 7.5 0 0 1-7.5-7.5h0a7.5 7.5 0 0 1 7.5-7.5z" fill="#fe4a55"/><path d="M395.737 56.578c.21.168.381.379.5.62a1.8 1.8 0 0 1-.085 1.745c-.192.294-.465.526-.785.67a2.81 2.81 0 0 1-1.215.245h-2.6v-6.969h2.5a2.84 2.84 0 0 1 1.21.234c.307.134.568.355.75.636.168.27.255.582.25.9a1.56 1.56 0 0 1-.335 1.025 1.88 1.88 0 0 1-.885.585 1.48 1.48 0 0 1 .695.309zm-3.275-.68h1.53a1.47 1.47 0 0 0 .99-.3 1.16 1.16 0 0 0 0-1.66 1.51 1.51 0 0 0-1.01-.3h-1.51zm2.67 2.89a1.1 1.1 0 0 0 .38-.89 1.13 1.13 0 0 0-.4-.915c-.305-.236-.685-.355-1.07-.335h-1.58v2.46h1.61c.38.024.756-.089 1.06-.318zm7.61-1.328h-4.381c.001.467.191.913.527 1.237s.788.499 1.254.484a1.68 1.68 0 0 0 .985-.276c.26-.179.454-.436.555-.735h.98c-.139.516-.45.969-.881 1.285a2.65 2.65 0 0 1-1.639.5 2.76 2.76 0 0 1-1.4-.35 2.48 2.48 0 0 1-.966-1 3.09 3.09 0 0 1-.349-1.5 3.14 3.14 0 0 1 .339-1.49 2.38 2.38 0 0 1 .955-.984 2.84 2.84 0 0 1 1.416-.346 2.74 2.74 0 0 1 1.379.34 2.35 2.35 0 0 1 .925.935 2.75 2.75 0 0 1 .325 1.345 5.34 5.34 0 0 1-.024.555zm-1.141-1.635a1.5 1.5 0 0 0-.625-.57 1.95 1.95 0 0 0-.875-.195c-.433-.01-.854.148-1.174.44a1.79 1.79 0 0 0-.555 1.221h3.46a1.67 1.67 0 0 0-.231-.896zm3.571-.695v3.23a.77.77 0 0 0 .17.566.84.84 0 0 0 .59.165h.669v.769h-.821a1.63 1.63 0 0 1-1.14-.349 1.51 1.51 0 0 1-.38-1.151v-3.23h-.71v-.75h.71V53h.91v1.38h1.429v.75zm2.62.495a2.46 2.46 0 0 1 .934-.984 2.56 2.56 0 0 1 1.326-.351 2.43 2.43 0 0 1 1.25.31c.329.184.602.453.79.78v-1h.92v5.48h-.92v-1.019c-.191.331-.468.606-.8.795a2.41 2.41 0 0 1-1.245.314 2.49 2.49 0 0 1-1.32-.359 2.52 2.52 0 0 1-.93-1.011 3.14 3.14 0 0 1-.34-1.48 3.07 3.07 0 0 1 .335-1.475zm4.05.405a1.78 1.78 0 0 0-.675-.705c-.579-.325-1.285-.327-1.865-.005-.285.165-.518.408-.67.7a2.23 2.23 0 0 0-.25 1.08c-.01.38.076.757.25 1.095a1.76 1.76 0 0 0 .67.71c.286.169.603.248.929.245a1.85 1.85 0 0 0 .936-.245 1.76 1.76 0 0 0 .675-.71 2.27 2.27 0 0 0 .25-1.085 2.23 2.23 0 0 0-.25-1.08z" fill="#fff"/><path d="M217.098 41.14l-.768 4.321h-9.152l-.832 4.832h6.848l-.768 4.159h-6.848l-1.6 9.152h-5.472l3.968-22.464zm1.632 8.672c.865-1.317 2.027-2.413 3.392-3.2a8.4 8.4 0 0 1 4.192-1.12c1.106-.038 2.202.228 3.168.768a4.56 4.56 0 0 1 1.856 2.016l.448-2.528h5.472l-3.168 17.856h-5.472l.48-2.528a7.67 7.67 0 0 1-2.592 2.017 7.77 7.77 0 0 1-3.456.767 6.42 6.42 0 0 1-3.344-.864c-.975-.578-1.76-1.429-2.259-2.447a8.17 8.17 0 0 1-.8-3.729 13.26 13.26 0 0 1 .192-2.176 12.26 12.26 0 0 1 1.891-4.832zm11.584 3.808a3.3 3.3 0 0 0-.912-2.464c-.619-.603-1.456-.928-2.32-.9-1.103.006-2.164.422-2.976 1.168a5.28 5.28 0 0 0-1.7 3.216c-.062.349-.096.702-.1 1.056a3.35 3.35 0 0 0 .912 2.48 3.1 3.1 0 0 0 2.288.913 4.4 4.4 0 0 0 2.976-1.185 5.5 5.5 0 0 0 1.728-3.232c.063-.347.098-.698.104-1.05zm11.695 9.568a6.27 6.27 0 0 1-2.639-1.872c-.634-.782-.974-1.761-.961-2.767 0-.15.021-.416.065-.8h5.28c-.069.592.151 1.182.591 1.584a2.7 2.7 0 0 0 1.873.593 3.37 3.37 0 0 0 1.7-.385c.42-.201.683-.63.672-1.095s-.293-.882-.721-1.064c-.768-.388-1.564-.714-2.383-.977-.989-.319-1.958-.698-2.9-1.136a5.59 5.59 0 0 1-2-1.616 4.15 4.15 0 0 1-.832-2.656c-.008-1.02.317-2.014.927-2.832a6.05 6.05 0 0 1 2.609-1.968 10 10 0 0 1 3.887-.7 9.44 9.44 0 0 1 3.841.721 5.9 5.9 0 0 1 2.528 2 4.9 4.9 0 0 1 .9 2.88l-.033.479h-4.966c.067-.575-.147-1.147-.575-1.536a2.64 2.64 0 0 0-1.824-.575 2.75 2.75 0 0 0-1.52.383c-.374.218-.601.623-.592 1.056.021.505.323.957.783 1.168a14.28 14.28 0 0 0 2.449 1.04 23.18 23.18 0 0 1 2.863 1.136 5.78 5.78 0 0 1 1.953 1.568c.558.716.847 1.605.815 2.512a4.5 4.5 0 0 1-1.04 2.977c-.762.877-1.745 1.533-2.847 1.9a12.02 12.02 0 0 1-4.113.656 10.14 10.14 0 0 1-3.79-.674zm21.968-5.727a2.23 2.23 0 0 0-.031.416c-.029.315.095.625.335.831a1.84 1.84 0 0 0 1.1.257h1.953l-.832 4.639h-2.785q-5.376 0-5.376-4.511a11.14 11.14 0 0 1 .161-1.7l1.279-7.1h-2.175l.8-4.545h2.176l.768-4.352h5.472l-.768 4.352h3.584l-.8 4.545h-3.584zm9.056 4.383h8.032l-.32 1.76h-10.272l3.936-22.368h2.24zm23.775-15.122a5.82 5.82 0 0 1 2.385 2.321 6.81 6.81 0 0 1 .816 3.359 8.3 8.3 0 0 1-.128 1.536q-.192.96-.384 1.729h-14.5a7.27 7.27 0 0 0-.1 1.151 4.87 4.87 0 0 0 1.487 3.809c1.046.915 2.403 1.396 3.792 1.343a7.06 7.06 0 0 0 3.872-1.056 6.19 6.19 0 0 0 2.433-2.848h2.4a9.4 9.4 0 0 1-3.471 4.176 9.66 9.66 0 0 1-5.552 1.616c-1.923.093-3.804-.58-5.232-1.872a6.71 6.71 0 0 1-1.968-5.1 11.28 11.28 0 0 1 .192-2.017 11.57 11.57 0 0 1 1.936-4.768 9.84 9.84 0 0 1 3.6-3.135 10.1 10.1 0 0 1 4.641-1.088c1.311-.04 2.611.251 3.781.844zm.929 5.777c.081-1.322-.45-2.609-1.44-3.489a5.51 5.51 0 0 0-3.68-1.215 7.27 7.27 0 0 0-5.76 2.815 7.97 7.97 0 0 0-1.536 3.393h12.256a8.9 8.9 0 0 0 .16-1.502zm5.344-2.383a10.02 10.02 0 0 1 3.536-3.136 9.5 9.5 0 0 1 4.5-1.1c1.454-.062 2.89.341 4.1 1.151a5.23 5.23 0 0 1 2.08 2.944l.672-3.839h2.24l-3.072 17.471h-2.241l.672-3.872c-.769 1.238-1.844 2.257-3.12 2.96a8.92 8.92 0 0 1-4.527 1.168 7.44 7.44 0 0 1-3.649-.864 6.03 6.03 0 0 1-2.431-2.447c-.599-1.15-.896-2.433-.865-3.729a11.11 11.11 0 0 1 .193-1.983 11.55 11.55 0 0 1 1.912-4.724zm13.5 3.152a5.11 5.11 0 0 0-1.477-3.94 5.12 5.12 0 0 0-3.932-1.5c-1.207-.007-2.398.279-3.471.832a7.59 7.59 0 0 0-2.737 2.416 9.16 9.16 0 0 0-1.5 3.761c-.098.538-.152 1.084-.161 1.631a5.07 5.07 0 0 0 5.376 5.44 7.33 7.33 0 0 0 3.441-.863 7.89 7.89 0 0 0 2.783-2.465 9.14 9.14 0 0 0 1.521-3.712 9.26 9.26 0 0 0 .161-1.6zm11.523-6.464a7.66 7.66 0 0 1 3.937-.992l-.416 2.336h-.641c-1.415-.036-2.804.379-3.968 1.184-1.22.973-2.039 2.361-2.3 3.9L322.891 63.6h-2.244l3.072-17.471h2.241l-.613 3.493a7.59 7.59 0 0 1 2.757-2.818zm18.193.464c1.134 1.109 1.724 2.659 1.616 4.241a9.92 9.92 0 0 1-.16 1.855l-1.825 10.24h-2.208l1.76-9.984a9.26 9.26 0 0 0 .128-1.568 4.2 4.2 0 0 0-1.151-3.2 4.53 4.53 0 0 0-3.233-1.088 6.26 6.26 0 0 0-4.32 1.6 7.9 7.9 0 0 0-2.336 4.7v-.1l-1.7 9.632h-2.24l3.072-17.471h2.247l-.544 3.007a7.56 7.56 0 0 1 2.849-2.464 8.24 8.24 0 0 1 3.743-.864 6.2 6.2 0 0 1 4.302 1.464zm17.45-.546c1.004.525 1.833 1.331 2.384 2.321a6.81 6.81 0 0 1 .816 3.359 8.3 8.3 0 0 1-.128 1.536q-.192.96-.384 1.729h-14.488a7.39 7.39 0 0 0-.1 1.151 4.87 4.87 0 0 0 1.488 3.809 5.45 5.45 0 0 0 3.792 1.343 7.07 7.07 0 0 0 3.872-1.056 6.19 6.19 0 0 0 2.432-2.848h2.4a9.42 9.42 0 0 1-3.472 4.176 9.66 9.66 0 0 1-5.552 1.616 7.28 7.28 0 0 1-5.232-1.872 6.71 6.71 0 0 1-1.968-5.1 11.28 11.28 0 0 1 .193-2.017 11.57 11.57 0 0 1 1.935-4.768 9.84 9.84 0 0 1 3.6-3.135 10.1 10.1 0 0 1 4.64-1.088 7.84 7.84 0 0 1 3.772.844zm.928 5.777c.081-1.322-.45-2.609-1.44-3.489a5.51 5.51 0 0 0-3.68-1.215 7.27 7.27 0 0 0-5.759 2.815 7.97 7.97 0 0 0-1.537 3.393h12.256a8.8 8.8 0 0 0 .165-1.502zm10.372-5.695a7.65 7.65 0 0 1 3.936-.992l-.416 2.336h-.641a6.67 6.67 0 0 0-3.967 1.184c-1.22.973-2.039 2.361-2.3 3.9L369.835 63.6h-2.24l3.072-17.471h2.24l-.608 3.487a7.59 7.59 0 0 1 2.748-2.812z" fill="#212189"/></g></svg>