<svg xmlns="http://www.w3.org/2000/svg" xmlns:xlink="http://www.w3.org/1999/xlink" width="326.227" height="56" viewBox="0 0 326.227 56">
  <defs>
    <linearGradient id="linear-gradient" x1="-0.145" y1="0.5" x2="1" y2="0.5" gradientUnits="objectBoundingBox">
      <stop offset="0" stop-color="#f44852"/>
      <stop offset="0.775" stop-color="#c11627"/>
    </linearGradient>
    <linearGradient id="linear-gradient-2" x1="-0.389" y1="-1.314" x2="0.608" y2="-1.314" xlink:href="#linear-gradient"/>
    <linearGradient id="linear-gradient-3" y1="0.5" x2="1" y2="0.5" gradientUnits="objectBoundingBox">
      <stop offset="0" stop-color="#262261"/>
      <stop offset="1" stop-color="#212189"/>
    </linearGradient>
  </defs>
  <g id="Group_65263" data-name="Group 65263" transform="translate(16676 10448)">
    <text id="FastLearner" transform="translate(-16576.773 -10406)" fill="#fff" font-size="40" font-family="Poppins-BoldItalic, Poppins" font-weight="700" font-style="italic" letter-spacing="0.01em"><tspan x="0" y="0">Fast</tspan><tspan y="0" font-family="Poppins-LightItalic, Poppins" font-weight="300" letter-spacing="-0.05em">Learner</tspan></text>
    <g id="Group_65229" data-name="Group 65229" transform="translate(-16676 -10445.473)">
      <path id="Path_106463" data-name="Path 106463" d="M214.544,1799.368l2.96,2.817-.629,2.459-2.81-1.858-.02,2.052-.683.177a16.064,16.064,0,0,0,.192-4.257C213.28,1799.127,214.544,1799.368,214.544,1799.368Z" transform="translate(-208.626 -1765.84)" fill="#fff"/>
      <path id="Path_106464" data-name="Path 106464" d="M213.559,1776.117a4.541,4.541,0,0,0-.71.347,8.141,8.141,0,0,0-.723.475,7.028,7.028,0,0,0-1.231,1.237,6.658,6.658,0,0,0-1.3,3.3l-.043.927c.012.311.058.621.085.935l.049.471.111.461.23.928c.216.6.45,1.2.7,1.793l.918,1.7-1.032-1.644c-.3-.571-.6-1.152-.88-1.742a11.074,11.074,0,0,1-.921-3.858,8,8,0,0,1,.915-4.016,8.7,8.7,0,0,1,1.21-1.755,9.987,9.987,0,0,1,.759-.771,6.538,6.538,0,0,1,.911-.709Z" transform="translate(-206.844 -1756.013)" fill="url(#linear-gradient)"/>
      <ellipse id="Ellipse_1091" data-name="Ellipse 1091" cx="1.876" cy="1.908" rx="1.876" ry="1.908" transform="translate(2.823 31.133) rotate(-1.774)" fill="#fff"/>
      <path id="Path_106465" data-name="Path 106465" d="M297.489,1768.2l-48.459,20.79-43.441-26.817,45.992-17.823Z" transform="translate(-205.589 -1744.35)" fill="url(#linear-gradient-2)"/>
      <path id="Path_106466" data-name="Path 106466" d="M290.873,1768.157,253.63,1783.6l-26.175-14.42L218.42,1764l37.692-14.572Z" transform="translate(-210.602 -1746.335)" fill="#fff"/>
      <g id="Group_65228" data-name="Group 65228" transform="translate(19.915 7.82)">
        <path id="Path_106467" data-name="Path 106467" d="M259.12,1767.009l-14.675,5.942-6.171-3.569,14.656-5.778Z" transform="translate(-238.274 -1759.693)" fill="url(#linear-gradient-3)"/>
        <path id="Path_106468" data-name="Path 106468" d="M273.962,1757.185l-7.472,2.946,16.826,9.178-6.712,2.845,6.612,3.69,14.156-6.171-6.516-3.466.039-.017Z" transform="translate(-249.297 -1757.185)" fill="url(#linear-gradient-3)"/>
        <path id="Path_106469" data-name="Path 106469" d="M266.589,1771.062l-14.679,6,1.1.634-.011,0L267,1785.8l7.887-3.438-8.73-4.914,6.825-2.866Z" transform="translate(-243.601 -1762.606)" fill="url(#linear-gradient-3)"/>
      </g>
      <ellipse id="Ellipse_1092" data-name="Ellipse 1092" cx="2.009" cy="1.401" rx="2.009" ry="1.401" transform="translate(62.059 31.381) rotate(-18.439)" fill="#fff"/>
      <path id="Path_106470" data-name="Path 106470" d="M288.528,1794.827l-1.334,7.022s-18.657,3.916-27.556,13.226c0,0-10.3-12.091-24.451-16.288l-2.089-8.061,26.4,16.091Z" transform="translate(-216.337 -1762.469)" fill="#fff"/>
    </g>
  </g>
</svg>
