<svg xmlns="http://www.w3.org/2000/svg" xmlns:xlink="http://www.w3.org/1999/xlink" width="347.397" height="62.146" viewBox="0 0 347.397 62.146">
  <defs>
    <linearGradient id="linear-gradient" x1="0.5" x2="0.5" y2="1" gradientUnits="objectBoundingBox">
      <stop offset="0" stop-color="#212189" stop-opacity="0.302"/>
      <stop offset="1" stop-color="#cfcfcf" stop-opacity="0.11"/>
    </linearGradient>
  </defs>
  <g id="Group_65620" data-name="Group 65620" transform="translate(-705.018 -268)">
    <path id="Path_106666" data-name="Path 106666" d="M47.435-20403.281h-347.4l.68-15.416,5.79-14.771,3.545-1.654,6.736,5.908,5.146.688,6.363-4.127,5.174-2.469,6.573-4.8,5.454-.629,6.013,2.727,5.664,1.609,6.013-2.309,5.244-2.309,6.083-3.984,5.734-.281,6.713,6.574,4.685,1.189,6.223-5.174,4.825-.561,6.713,4.545,5.454,1.887,6.643-5.383,4.475-1.049,7.2,7.342h4.265l7.342-6.293,3.706-4.406,8.251-8.67,4.405-1.26,6.852,5.875,4.545,3.637,7.552,9.371,2.657,3.145,10.441-8.348,9.767-5.777,12.027-9.02h4.405l7.342,9.859,4.475,3.355h6.153l4.965-1.187,8.111-8.182,4.056-1.469,6.363,3.707,4.335.838,7.971-9.508,3.916-1.119,7.132,5.1h4.405l6.992-3.984,5.174-.561,7.272,4.545,4.125.979,6.5-3.217h5.594l7.272,6.854h3.566l7.761-6.854,4.557-2.307Z" transform="translate(1004.981 20733.428)" fill="url(#linear-gradient)"/>
    <g id="Ellipse_1167" data-name="Ellipse 1167" transform="translate(709.371 294.276)" fill="#fff" stroke="#212189" stroke-width="1">
      <circle cx="2.92" cy="2.92" r="2.92" stroke="none"/>
      <circle cx="2.92" cy="2.92" r="2.42" fill="none"/>
    </g>
    <g id="Ellipse_1168" data-name="Ellipse 1168" transform="translate(721.049 303.034)" fill="#fff" stroke="#212189" stroke-width="1">
      <circle cx="2.92" cy="2.92" r="2.92" stroke="none"/>
      <circle cx="2.92" cy="2.92" r="2.42" fill="none"/>
    </g>
    <g id="Ellipse_1169" data-name="Ellipse 1169" transform="translate(732.727 296.465)" fill="#fff" stroke="#212189" stroke-width="1">
      <circle cx="2.92" cy="2.92" r="2.92" stroke="none"/>
      <circle cx="2.92" cy="2.92" r="2.42" fill="none"/>
    </g>
    <g id="Ellipse_1170" data-name="Ellipse 1170" transform="translate(744.405 289.167)" fill="#fff" stroke="#212189" stroke-width="1">
      <circle cx="2.92" cy="2.92" r="2.92" stroke="none"/>
      <circle cx="2.92" cy="2.92" r="2.42" fill="none"/>
    </g>
    <g id="Ellipse_1171" data-name="Ellipse 1171" transform="translate(756.083 293.546)" fill="#fff" stroke="#212189" stroke-width="1">
      <circle cx="2.92" cy="2.92" r="2.92" stroke="none"/>
      <circle cx="2.92" cy="2.92" r="2.42" fill="none"/>
    </g>
    <g id="Ellipse_1172" data-name="Ellipse 1172" transform="translate(767.761 290.626)" fill="#fff" stroke="#212189" stroke-width="1">
      <circle cx="2.92" cy="2.92" r="2.92" stroke="none"/>
      <circle cx="2.92" cy="2.92" r="2.42" fill="none"/>
    </g>
    <g id="Ellipse_1173" data-name="Ellipse 1173" transform="translate(779.44 284.787)" fill="#fff" stroke="#212189" stroke-width="1">
      <circle cx="2.92" cy="2.92" r="2.92" stroke="none"/>
      <circle cx="2.92" cy="2.92" r="2.42" fill="none"/>
    </g>
    <g id="Ellipse_1174" data-name="Ellipse 1174" transform="translate(791.118 294.276)" fill="#fff" stroke="#212189" stroke-width="1">
      <circle cx="2.92" cy="2.92" r="2.92" stroke="none"/>
      <circle cx="2.92" cy="2.92" r="2.42" fill="none"/>
    </g>
    <g id="Ellipse_1175" data-name="Ellipse 1175" transform="translate(802.066 286.247)" fill="#fff" stroke="#212189" stroke-width="1">
      <circle cx="2.92" cy="2.92" r="2.92" stroke="none"/>
      <circle cx="2.92" cy="2.92" r="2.42" fill="none"/>
    </g>
    <g id="Ellipse_1176" data-name="Ellipse 1176" transform="translate(813.744 293.546)" fill="#fff" stroke="#212189" stroke-width="1">
      <circle cx="2.92" cy="2.92" r="2.92" stroke="none"/>
      <circle cx="2.92" cy="2.92" r="2.42" fill="none"/>
    </g>
    <g id="Ellipse_1177" data-name="Ellipse 1177" transform="translate(825.422 286.247)" fill="#fff" stroke="#212189" stroke-width="1">
      <circle cx="2.92" cy="2.92" r="2.92" stroke="none"/>
      <circle cx="2.92" cy="2.92" r="2.42" fill="none"/>
    </g>
    <g id="Ellipse_1178" data-name="Ellipse 1178" transform="translate(837.1 296.465)" fill="#fff" stroke="#212189" stroke-width="1">
      <circle cx="2.92" cy="2.92" r="2.92" stroke="none"/>
      <circle cx="2.92" cy="2.92" r="2.42" fill="none"/>
    </g>
    <g id="Ellipse_1179" data-name="Ellipse 1179" transform="translate(848.779 286.247)" fill="#fff" stroke="#212189" stroke-width="1">
      <circle cx="2.92" cy="2.92" r="2.92" stroke="none"/>
      <circle cx="2.92" cy="2.92" r="2.42" fill="none"/>
    </g>
    <g id="Ellipse_1180" data-name="Ellipse 1180" transform="translate(860.457 273.109)" fill="#fff" stroke="#212189" stroke-width="1">
      <circle cx="2.92" cy="2.92" r="2.92" stroke="none"/>
      <circle cx="2.92" cy="2.92" r="2.42" fill="none"/>
    </g>
    <g id="Ellipse_1181" data-name="Ellipse 1181" transform="translate(872.135 281.868)" fill="#fff" stroke="#212189" stroke-width="1">
      <circle cx="2.92" cy="2.92" r="2.92" stroke="none"/>
      <circle cx="2.92" cy="2.92" r="2.42" fill="none"/>
    </g>
    <g id="Ellipse_1182" data-name="Ellipse 1182" transform="translate(883.813 295.006)" fill="#fff" stroke="#212189" stroke-width="1">
      <circle cx="2.92" cy="2.92" r="2.92" stroke="none"/>
      <circle cx="2.92" cy="2.92" r="2.42" fill="none"/>
    </g>
    <g id="Ellipse_1183" data-name="Ellipse 1183" transform="translate(895.491 287.707)" fill="#fff" stroke="#212189" stroke-width="1">
      <circle cx="2.92" cy="2.92" r="2.92" stroke="none"/>
      <circle cx="2.92" cy="2.92" r="2.42" fill="none"/>
    </g>
    <g id="Ellipse_1184" data-name="Ellipse 1184" transform="translate(907.169 280.408)" fill="#fff" stroke="#212189" stroke-width="1">
      <circle cx="2.92" cy="2.92" r="2.92" stroke="none"/>
      <circle cx="2.92" cy="2.92" r="2.42" fill="none"/>
    </g>
    <g id="Ellipse_1185" data-name="Ellipse 1185" transform="translate(918.847 270.92)" fill="#fff" stroke="#212189" stroke-width="1">
      <circle cx="2.92" cy="2.92" r="2.92" stroke="none"/>
      <circle cx="2.92" cy="2.92" r="2.42" fill="none"/>
    </g>
    <g id="Ellipse_1186" data-name="Ellipse 1186" transform="translate(930.525 284.787)" fill="#fff" stroke="#212189" stroke-width="1">
      <circle cx="2.92" cy="2.92" r="2.92" stroke="none"/>
      <circle cx="2.92" cy="2.92" r="2.42" fill="none"/>
    </g>
    <g id="Ellipse_1187" data-name="Ellipse 1187" transform="translate(942.204 286.247)" fill="#fff" stroke="#212189" stroke-width="1">
      <circle cx="2.92" cy="2.92" r="2.92" stroke="none"/>
      <circle cx="2.92" cy="2.92" r="2.42" fill="none"/>
    </g>
    <g id="Ellipse_1188" data-name="Ellipse 1188" transform="translate(953.882 274.569)" fill="#fff" stroke="#212189" stroke-width="1">
      <circle cx="2.92" cy="2.92" r="2.92" stroke="none"/>
      <circle cx="2.92" cy="2.92" r="2.42" fill="none"/>
    </g>
    <g id="Ellipse_1189" data-name="Ellipse 1189" transform="translate(964.83 280.408)" fill="#fff" stroke="#212189" stroke-width="1">
      <circle cx="2.92" cy="2.92" r="2.92" stroke="none"/>
      <circle cx="2.92" cy="2.92" r="2.42" fill="none"/>
    </g>
    <g id="Ellipse_1190" data-name="Ellipse 1190" transform="translate(976.508 268)" fill="#fff" stroke="#212189" stroke-width="1">
      <circle cx="2.92" cy="2.92" r="2.92" stroke="none"/>
      <circle cx="2.92" cy="2.92" r="2.42" fill="none"/>
    </g>
    <g id="Ellipse_1191" data-name="Ellipse 1191" transform="translate(988.186 276.029)" fill="#fff" stroke="#212189" stroke-width="1">
      <circle cx="2.92" cy="2.92" r="2.92" stroke="none"/>
      <circle cx="2.92" cy="2.92" r="2.42" fill="none"/>
    </g>
    <g id="Ellipse_1192" data-name="Ellipse 1192" transform="translate(999.864 268.73)" fill="#fff" stroke="#212189" stroke-width="1">
      <circle cx="2.92" cy="2.92" r="2.92" stroke="none"/>
      <circle cx="2.92" cy="2.92" r="2.42" fill="none"/>
    </g>
    <g id="Ellipse_1193" data-name="Ellipse 1193" transform="translate(1011.543 276.029)" fill="#fff" stroke="#212189" stroke-width="1">
      <circle cx="2.92" cy="2.92" r="2.92" stroke="none"/>
      <circle cx="2.92" cy="2.92" r="2.42" fill="none"/>
    </g>
    <g id="Ellipse_1194" data-name="Ellipse 1194" transform="translate(1023.221 270.92)" fill="#fff" stroke="#212189" stroke-width="1">
      <circle cx="2.92" cy="2.92" r="2.92" stroke="none"/>
      <circle cx="2.92" cy="2.92" r="2.42" fill="none"/>
    </g>
    <g id="Ellipse_1195" data-name="Ellipse 1195" transform="translate(1034.899 280.408)" fill="#fff" stroke="#212189" stroke-width="1">
      <circle cx="2.92" cy="2.92" r="2.92" stroke="none"/>
      <circle cx="2.92" cy="2.92" r="2.42" fill="none"/>
    </g>
    <g id="Ellipse_1196" data-name="Ellipse 1196" transform="translate(1046.577 270.19)" fill="#fff" stroke="#212189" stroke-width="1">
      <circle cx="2.92" cy="2.92" r="2.92" stroke="none"/>
      <circle cx="2.92" cy="2.92" r="2.42" fill="none"/>
    </g>
    <path id="Path_106636" data-name="Path 106636" d="M-299.177-20408.559l5.738-15.023" transform="translate(1004.769 20723.271)" fill="none" stroke="#212189" stroke-width="1"/>
    <path id="Path_106637" data-name="Path 106637" d="M-286.566-20425.49l7.09,5.816" transform="translate(1001.363 20723.787)" fill="none" stroke="#212189" stroke-width="1"/>
    <path id="Path_106638" data-name="Path 106638" d="M-270-20417.842l6.715-4.039" transform="translate(996.535 20722.813)" fill="none" stroke="#212189" stroke-width="1"/>
    <path id="Path_106639" data-name="Path 106639" d="M-254.559-20427.24l6.727-4.727" transform="translate(992.717 20725.537)" fill="none" stroke="#212189" stroke-width="1"/>
    <path id="Path_106640" data-name="Path 106640" d="M-238-20433.088l6.737,2.908" transform="translate(987.964 20725.84)" fill="none" stroke="#212189" stroke-width="1"/>
    <path id="Path_106641" data-name="Path 106641" d="M-222-20427.83l6.751-2.393" transform="translate(983.495 20725.066)" fill="none" stroke="#212189" stroke-width="1"/>
    <path id="Path_106642" data-name="Path 106642" d="M-206.611-20434.635l6.8-4.182" transform="translate(979.766 20727.385)" fill="none" stroke="#212189" stroke-width="1"/>
    <path id="Path_106643" data-name="Path 106643" d="M-190.546-20440l7.344,6.758" transform="translate(975.445 20728.447)" fill="none" stroke="#212189" stroke-width="1"/>
    <path id="Path_106644" data-name="Path 106644" d="M-174.854-20430.439l6.609-5.014" transform="translate(971.187 20726.375)" fill="none" stroke="#212189" stroke-width="1"/>
    <path id="Path_106645" data-name="Path 106645" d="M-159.784-20436.7l7.272,4.637" transform="translate(967.117 20726.814)" fill="none" stroke="#212189" stroke-width="1"/>
    <path id="Path_106646" data-name="Path 106646" d="M-143-20429.525l7.429-5.8" transform="translate(962.174 20726.418)" fill="none" stroke="#212189" stroke-width="1"/>
    <path id="Path_106647" data-name="Path 106647" d="M-127.653-20436.7l7.454,7.453" transform="translate(958.438 20726.814)" fill="none" stroke="#212189" stroke-width="1"/>
    <path id="Path_106648" data-name="Path 106648" d="M-112.086-20428.844l7.726-6.361" transform="translate(954.233 20726.412)" fill="none" stroke="#212189" stroke-width="1"/>
    <path id="Path_106649" data-name="Path 106649" d="M-97.016-20444.287l8.726-8.727" transform="translate(950.162 20731.223)" fill="none" stroke="#212189" stroke-width="1"/>
    <path id="Path_106650" data-name="Path 106650" d="M-79.705-20455l7.454,6.176" transform="translate(945.486 20731.758)" fill="none" stroke="#212189" stroke-width="1"/>
    <path id="Path_106651" data-name="Path 106651" d="M-63.764-20442l7.636,9.5" transform="translate(941.18 20728.248)" fill="none" stroke="#212189" stroke-width="1"/>
    <path id="Path_106652" data-name="Path 106652" d="M-47.574-20428.406l6.908-5.18" transform="translate(936.807 20725.975)" fill="none" stroke="#212189" stroke-width="1"/>
    <path id="Path_106653" data-name="Path 106653" d="M-32.007-20439.668l7.272-4.5" transform="translate(932.602 20728.834)" fill="none" stroke="#212189" stroke-width="1"/>
    <path id="Path_106654" data-name="Path 106654" d="M-15.941-20450.229l7.545-6.023" transform="translate(928.262 20732.098)" fill="none" stroke="#212189" stroke-width="1"/>
    <path id="Path_106655" data-name="Path 106655" d="M.249-20456.5l7.859,10.355" transform="translate(923.585 20731.9)" fill="none" stroke="#212189" stroke-width="1"/>
    <path id="Path_106656" data-name="Path 106656" d="M16.439-20438h6.848" transform="translate(919.122 20727.166)" fill="none" stroke="#212189" stroke-width="1"/>
    <path id="Path_106657" data-name="Path 106657" d="M32.38-20442.75l7.956-8.271" transform="translate(914.981 20730.684)" fill="none" stroke="#212189" stroke-width="1"/>
    <path id="Path_106658" data-name="Path 106658" d="M48.2-20453.014l6.454,3.818" transform="translate(910.938 20731.223)" fill="none" stroke="#212189" stroke-width="1"/>
    <path id="Path_106659" data-name="Path 106659" d="M64-20450.727l7.826-9.25" transform="translate(906.252 20733.104)" fill="none" stroke="#212189" stroke-width="1"/>
    <path id="Path_106660" data-name="Path 106660" d="M78.846-20462l7.289,5.346" transform="translate(902.814 20733.801)" fill="none" stroke="#212189" stroke-width="1"/>
    <path id="Path_106661" data-name="Path 106661" d="M95.2-20455.484l7.326-4.332" transform="translate(898.242 20733.061)" fill="none" stroke="#212189" stroke-width="1"/>
    <path id="Path_106662" data-name="Path 106662" d="M112-20460.789l7.633,4.566" transform="translate(893.187 20733.25)" fill="none" stroke="#212189" stroke-width="1"/>
    <path id="Path_106663" data-name="Path 106663" d="M128-20453.916l6.675-3.309" transform="translate(889.134 20732.359)" fill="none" stroke="#212189" stroke-width="1"/>
    <path id="Path_106664" data-name="Path 106664" d="M144-20457.711l7.347,6.488" transform="translate(884.634 20732.383)" fill="none" stroke="#212189" stroke-width="1"/>
    <path id="Path_106665" data-name="Path 106665" d="M158.987-20450.607l7.917-6.617" transform="translate(881.011 20732.359)" fill="none" stroke="#212189" stroke-width="1"/>
  </g>
</svg>
