<svg width="18" height="18" viewBox="0 0 18 18" fill="none" xmlns="http://www.w3.org/2000/svg">
<path d="M0.5625 13.3031H9.72116C9.97379 12.2824 10.8971 11.5233 11.9948 11.5233C13.0925 11.5233 14.0158 12.2824 14.2685 13.3031H17.4375C17.7481 13.3031 18 13.555 18 13.8656C18 14.1763 17.7481 14.4281 17.4375 14.4281H14.2684C14.0158 15.4488 13.0925 16.208 11.9948 16.208C10.8971 16.208 9.97372 15.4488 9.72112 14.4281H0.5625C0.251859 14.4281 0 14.1763 0 13.8656C0 13.555 0.251859 13.3031 0.5625 13.3031ZM11.9948 15.083C12.6661 15.083 13.2122 14.5369 13.2122 13.8657C13.2122 13.1944 12.6661 12.6483 11.9948 12.6483C11.3235 12.6483 10.7774 13.1944 10.7774 13.8657C10.7774 14.5369 11.3235 15.083 11.9948 15.083ZM0.5625 8.43792H3.73155C3.98419 7.41719 4.9075 6.65806 6.00521 6.65806C7.10293 6.65806 8.02624 7.41719 8.27888 8.43792H17.4375C17.7481 8.43792 18 8.68977 18 9.00042C18 9.31106 17.7481 9.56291 17.4375 9.56291H8.27884C8.02621 10.5836 7.1029 11.3428 6.00518 11.3428C4.90746 11.3428 3.98415 10.5836 3.73152 9.56291H0.5625C0.251859 9.56291 0 9.31106 0 9.00042C0 8.68977 0.251824 8.43792 0.5625 8.43792ZM6.00518 10.2178C6.67645 10.2178 7.22257 9.67169 7.22257 9.00042C7.22257 8.32918 6.67645 7.78306 6.00518 7.78306C5.33391 7.78306 4.78779 8.32918 4.78779 9.00042C4.78779 9.67169 5.33391 10.2178 6.00518 10.2178ZM17.4375 4.69771H14.2684C14.0158 5.71844 13.0925 6.4776 11.9948 6.4776C10.8971 6.4776 9.97376 5.71844 9.72112 4.69771H0.5625C0.251859 4.69771 0 4.44585 0 4.13521C0 3.82457 0.251859 3.57271 0.5625 3.57271H9.72116C9.97379 2.55199 10.8971 1.79282 11.9948 1.79282C13.0925 1.79282 14.0158 2.55199 14.2685 3.57271H17.4375C17.7481 3.57271 18 3.82457 18 4.13521C18 4.44585 17.7482 4.69771 17.4375 4.69771ZM11.9948 2.91782C11.3235 2.91782 10.7774 3.46394 10.7774 4.13521C10.7774 4.80649 11.3235 5.3526 11.9948 5.3526C12.6661 5.3526 13.2122 4.80649 13.2122 4.13521C13.2122 3.46394 12.6661 2.91782 11.9948 2.91782Z" fill="#212189"/>
</svg>
