<svg xmlns="http://www.w3.org/2000/svg" xmlns:xlink="http://www.w3.org/1999/xlink" width="259.506" height="45" viewBox="0 0 259.506 45">
  <defs>
    <linearGradient id="linear-gradient" y1="0.5" x2="1" y2="0.5" gradientUnits="objectBoundingBox">
      <stop offset="0" stop-color="#f44852"/>
      <stop offset="0.021" stop-color="#e63a46"/>
      <stop offset="0.059" stop-color="#d52a38"/>
      <stop offset="0.105" stop-color="#c91e2e"/>
      <stop offset="0.17" stop-color="#c21728"/>
      <stop offset="0.347" stop-color="#c11627"/>
    </linearGradient>
    <linearGradient id="linear-gradient-2" y1="0.5" x2="1" y2="0.5" gradientUnits="objectBoundingBox">
      <stop offset="0" stop-color="#f44852"/>
      <stop offset="0.09" stop-color="#e23643"/>
      <stop offset="0.22" stop-color="#cf2433"/>
      <stop offset="0.355" stop-color="#c4192a"/>
      <stop offset="0.502" stop-color="#c11627"/>
    </linearGradient>
    <linearGradient id="linear-gradient-3" x1="-0.339" y1="-1.288" x2="0.658" y2="-1.288" gradientUnits="objectBoundingBox">
      <stop offset="0" stop-color="#262261"/>
      <stop offset="1" stop-color="#212189"/>
    </linearGradient>
    <linearGradient id="linear-gradient-4" y1="0.5" x2="1" y2="0.5" gradientUnits="objectBoundingBox">
      <stop offset="0" stop-color="#f44852"/>
      <stop offset="0.775" stop-color="#c11627"/>
    </linearGradient>
  </defs>
  <g id="Group_65227" data-name="Group 65227" transform="translate(-263.269 -1494.912)">
    <g id="Group_65226" data-name="Group 65226" transform="translate(263.269 1497.001)">
      <path id="Path_106455" data-name="Path 106455" d="M271.977,1554.259l2.342,2.229-.5,1.946-2.222-1.47-.016,1.623-.54.14a12.71,12.71,0,0,0,.152-3.368C270.976,1554.069,271.977,1554.259,271.977,1554.259Z" transform="translate(-267.295 -1527.732)" fill="url(#linear-gradient)"/>
      <path id="Path_106456" data-name="Path 106456" d="M270.27,1530.611a5.352,5.352,0,0,0-3.068,6.087c.053.239.211.854.269,1.1a15.636,15.636,0,0,0,1.278,2.766l-.816-1.3c-1.7-2.8-2.136-6.407.256-9a6.5,6.5,0,0,1,1.32-1.171l.76,1.515Z" transform="translate(-264.956 -1514.705)" fill="#161e5d"/>
      <ellipse id="Ellipse_1089" data-name="Ellipse 1089" cx="1.484" cy="1.509" rx="1.484" ry="1.509" transform="translate(2.234 24.632) rotate(-1.774)" fill="url(#linear-gradient-2)"/>
      <path id="Path_106457" data-name="Path 106457" d="M335.977,1518.114l-38.339,16.448-34.369-21.217,36.388-14.1Z" transform="translate(-263.269 -1499.244)" fill="url(#linear-gradient-3)"/>
      <path id="Path_106458" data-name="Path 106458" d="M333.422,1519.139l-29.466,12.222-20.709-11.409-7.148-4.1,29.821-11.529Z" transform="translate(-269.914 -1501.875)" fill="url(#linear-gradient-4)"/>
      <g id="Group_65225" data-name="Group 65225" transform="translate(15.756 6.187)">
        <path id="Path_106459" data-name="Path 106459" d="M312.446,1521.192l-11.611,4.7-4.882-2.824,11.6-4.572Z" transform="translate(-295.953 -1515.403)" fill="#fff"/>
        <path id="Path_106460" data-name="Path 106460" d="M330.081,1512.078l-5.912,2.331,13.313,7.261-5.31,2.25,5.231,2.919,11.2-4.882-5.155-2.742.031-.013Z" transform="translate(-310.567 -1512.078)" fill="#fff"/>
        <path id="Path_106461" data-name="Path 106461" d="M321.2,1525.955,309.59,1530.7l.868.5-.008,0,11.082,6.409,6.24-2.719-6.907-3.888,5.4-2.267Z" transform="translate(-303.016 -1519.266)" fill="#fff"/>
      </g>
      <ellipse id="Ellipse_1090" data-name="Ellipse 1090" cx="1.589" cy="1.108" rx="1.589" ry="1.108" transform="translate(49.1 24.828) rotate(-18.439)" fill="#fff"/>
      <path id="Path_106462" data-name="Path 106462" d="M334.632,1548.865l-1.055,5.556s-14.762,3.1-21.8,10.464c0,0-8.152-9.566-19.345-12.886l-1.653-6.377,20.891,12.731Z" transform="translate(-277.516 -1523.264)" fill="url(#linear-gradient-4)"/>
    </g>
    <text id="FastLearner" transform="translate(341.775 1528.912)" fill="#212189" font-size="32" font-family="Poppins-BoldItalic, Poppins" font-weight="700" font-style="italic" letter-spacing="0.01em"><tspan x="0" y="0">Fast</tspan><tspan y="0" font-family="Poppins-LightItalic, Poppins" font-weight="300" letter-spacing="-0.05em">Learner</tspan></text>
  </g>
</svg>
