<svg xmlns="http://www.w3.org/2000/svg" xmlns:xlink="http://www.w3.org/1999/xlink" width="259.506" height="40.85" viewBox="0 0 259.506 40.85">
  <defs>
    <linearGradient id="linear-gradient" y1="0.5" x2="1" y2="0.5" gradientUnits="objectBoundingBox">
      <stop offset="0" stop-color="#f44852"/>
      <stop offset="0.021" stop-color="#e63a46"/>
      <stop offset="0.059" stop-color="#d52a38"/>
      <stop offset="0.105" stop-color="#c91e2e"/>
      <stop offset="0.17" stop-color="#c21728"/>
      <stop offset="0.347" stop-color="#c11627"/>
    </linearGradient>
    <linearGradient id="linear-gradient-2" y1="0.5" x2="1" y2="0.5" gradientUnits="objectBoundingBox">
      <stop offset="0" stop-color="#f44852"/>
      <stop offset="0.09" stop-color="#e23643"/>
      <stop offset="0.22" stop-color="#cf2433"/>
      <stop offset="0.355" stop-color="#c4192a"/>
      <stop offset="0.502" stop-color="#c11627"/>
    </linearGradient>
    <linearGradient id="linear-gradient-3" x1="-0.335" y1="-1.864" x2="0.663" y2="-1.864" gradientUnits="objectBoundingBox">
      <stop offset="0" stop-color="#262261"/>
      <stop offset="1" stop-color="#212189"/>
    </linearGradient>
    <linearGradient id="linear-gradient-4" y1="0.5" x2="1" y2="0.5" gradientUnits="objectBoundingBox">
      <stop offset="0" stop-color="#f44852"/>
      <stop offset="0.775" stop-color="#c11627"/>
    </linearGradient>
  </defs>
  <g id="Group_66503" data-name="Group 66503" transform="translate(23474 24063)">
    <g id="Group_66501" data-name="Group 66501" transform="translate(-23474 -24063)">
      <path id="Path_107071" data-name="Path 107071" d="M214.28,1554.258l2.3,2.187-.488,1.91-2.182-1.443-.015,1.593-.53.137a12.476,12.476,0,0,0,.149-3.305C213.3,1554.072,214.28,1554.258,214.28,1554.258Z" transform="translate(-209.685 -1528.223)" fill="url(#linear-gradient)"/>
      <path id="Path_107072" data-name="Path 107072" d="M212.453,1530.667s-5.987,3-1.119,10.512" transform="translate(-207.611 -1515.799)" fill="none" stroke="#707070" stroke-miterlimit="10" stroke-width="3.516"/>
      <ellipse id="Ellipse_1298" data-name="Ellipse 1298" cx="1.457" cy="1.481" rx="1.457" ry="1.481" transform="translate(2.192 24.176) rotate(-1.774)" fill="url(#linear-gradient-2)"/>
      <path id="Path_107073" data-name="Path 107073" d="M276.952,1517.764l-37.629,16.144-33.733-20.824,35.714-13.84Z" transform="translate(-205.589 -1499.244)" fill="url(#linear-gradient-3)"/>
      <path id="Path_107074" data-name="Path 107074" d="M274.682,1518.865l-28.92,12-20.325-11.2-7.016-4.025,29.269-11.315Z" transform="translate(-212.349 -1501.92)" fill="url(#linear-gradient-4)"/>
      <g id="Group_66500" data-name="Group 66500" transform="translate(15.465 6.073)">
        <path id="Path_107075" data-name="Path 107075" d="M254.461,1521.142l-11.4,4.614-4.792-2.771,11.381-4.487Z" transform="translate(-238.273 -1515.46)" fill="#fff"/>
        <path id="Path_107076" data-name="Path 107076" d="M272.292,1512.078l-5.8,2.288,13.066,7.127-5.212,2.209,5.134,2.865,10.993-4.792-5.06-2.691.031-.013Z" transform="translate(-253.139 -1512.078)" fill="#fff"/>
        <path id="Path_107077" data-name="Path 107077" d="M263.309,1525.955l-11.4,4.657.851.492-.008,0,10.877,6.29,6.125-2.669-6.779-3.816,5.3-2.225Z" transform="translate(-245.458 -1519.389)" fill="#fff"/>
      </g>
      <ellipse id="Ellipse_1299" data-name="Ellipse 1299" cx="1.56" cy="1.088" rx="1.56" ry="1.088" transform="translate(48.191 24.368) rotate(-18.439)" fill="#fff"/>
      <path id="Path_107078" data-name="Path 107078" d="M276.141,1548.8l-1.036,5.453s-14.488,3.04-21.4,10.271c0,0-8-9.389-18.987-12.648l-1.622-6.259,20.5,12.495Z" transform="translate(-220.082 -1523.678)" fill="url(#linear-gradient-4)"/>
    </g>
    <g id="Group_66502" data-name="Group 66502" transform="translate(-23395.176 -24053.947)">
      <path id="Path_107079" data-name="Path 107079" d="M395.8,1518.937l-.769,4.325h-9.162l-.833,4.838h6.856l-.769,4.165h-6.856l-1.6,9.162h-5.478l3.972-22.489Z" transform="translate(-377.185 -1518.937)" fill="#212189"/>
      <path id="Path_107080" data-name="Path 107080" d="M417.657,1532.471a10.088,10.088,0,0,1,3.4-3.2,8.413,8.413,0,0,1,4.2-1.121,6.067,6.067,0,0,1,3.172.769,4.562,4.562,0,0,1,1.858,2.018l.449-2.531h5.478l-3.172,17.876h-5.478l.48-2.531a7.67,7.67,0,0,1-2.595,2.018,7.762,7.762,0,0,1-3.46.769,6.436,6.436,0,0,1-3.348-.865,5.836,5.836,0,0,1-2.259-2.451,8.184,8.184,0,0,1-.8-3.733,13.266,13.266,0,0,1,.192-2.178A12.273,12.273,0,0,1,417.657,1532.471Zm11.6,3.812a3.3,3.3,0,0,0-.913-2.467,3.18,3.18,0,0,0-2.323-.9,4.439,4.439,0,0,0-2.979,1.17,5.29,5.29,0,0,0-1.7,3.22,6.486,6.486,0,0,0-.1,1.057,3.353,3.353,0,0,0,.913,2.483,3.107,3.107,0,0,0,2.29.913,4.4,4.4,0,0,0,2.979-1.185,5.508,5.508,0,0,0,1.73-3.236A6.486,6.486,0,0,0,429.254,1536.283Z" transform="translate(-397.411 -1523.789)" fill="#212189"/>
      <path id="Path_107081" data-name="Path 107081" d="M465.219,1545.862a6.29,6.29,0,0,1-2.643-1.874,4.309,4.309,0,0,1-.961-2.771q0-.224.064-.8h5.286a1.855,1.855,0,0,0,.593,1.586,2.7,2.7,0,0,0,1.874.593,3.387,3.387,0,0,0,1.7-.385,1.188,1.188,0,0,0-.048-2.162,16.532,16.532,0,0,0-2.387-.978,25.281,25.281,0,0,1-2.9-1.137,5.607,5.607,0,0,1-2-1.618,4.161,4.161,0,0,1-.833-2.659,4.673,4.673,0,0,1,.929-2.835,6.036,6.036,0,0,1,2.611-1.97,10.012,10.012,0,0,1,3.892-.7,9.459,9.459,0,0,1,3.844.721,5.918,5.918,0,0,1,2.531,2,4.913,4.913,0,0,1,.9,2.883l-.032.481h-4.966a1.8,1.8,0,0,0-.576-1.538,2.64,2.64,0,0,0-1.826-.577,2.747,2.747,0,0,0-1.522.385,1.2,1.2,0,0,0-.592,1.057,1.352,1.352,0,0,0,.784,1.169,14.358,14.358,0,0,0,2.451,1.041,23.234,23.234,0,0,1,2.867,1.137,5.779,5.779,0,0,1,1.954,1.57,3.868,3.868,0,0,1,.817,2.515,4.508,4.508,0,0,1-1.041,2.979,6.487,6.487,0,0,1-2.851,1.906,12.026,12.026,0,0,1-4.116.657A10.161,10.161,0,0,1,465.219,1545.862Z" transform="translate(-421.667 -1523.789)" fill="#212189"/>
      <path id="Path_107082" data-name="Path 107082" d="M508.615,1535.561a2.165,2.165,0,0,0-.032.416.98.98,0,0,0,.336.833,1.846,1.846,0,0,0,1.105.256h1.954l-.833,4.646h-2.787q-5.382,0-5.382-4.517a11.318,11.318,0,0,1,.16-1.7l1.281-7.111H502.24l.8-4.549h2.178l.769-4.357h5.478l-.769,4.357h3.588l-.8,4.549H509.9Z" transform="translate(-443.07 -1519.223)" fill="#212189"/>
      <path id="Path_107083" data-name="Path 107083" d="M532.021,1539.771h8.041l-.32,1.762H529.458l3.94-22.393h2.243Z" transform="translate(-457.41 -1519.044)" fill="#212189"/>
      <path id="Path_107084" data-name="Path 107084" d="M569.414,1529.807a5.823,5.823,0,0,1,2.387,2.323,6.822,6.822,0,0,1,.817,3.364,8.3,8.3,0,0,1-.128,1.538q-.192.961-.385,1.73H557.592a7.434,7.434,0,0,0-.1,1.153,4.874,4.874,0,0,0,1.49,3.813,5.45,5.45,0,0,0,3.8,1.346,7.078,7.078,0,0,0,3.876-1.057,6.2,6.2,0,0,0,2.435-2.851h2.4a9.424,9.424,0,0,1-3.476,4.181,9.668,9.668,0,0,1-5.559,1.618,7.284,7.284,0,0,1-5.238-1.874,6.717,6.717,0,0,1-1.97-5.11,11.287,11.287,0,0,1,.192-2.018,11.593,11.593,0,0,1,1.938-4.773,9.852,9.852,0,0,1,3.6-3.14,10.118,10.118,0,0,1,4.645-1.089A7.852,7.852,0,0,1,569.414,1529.807Zm.929,5.782a4.317,4.317,0,0,0-1.441-3.492,5.515,5.515,0,0,0-3.684-1.217,7.273,7.273,0,0,0-5.766,2.819,7.991,7.991,0,0,0-1.538,3.4h12.27A8.842,8.842,0,0,0,570.343,1535.589Z" transform="translate(-471 -1524.217)" fill="#212189"/>
      <path id="Path_107085" data-name="Path 107085" d="M596.1,1533.2a10.036,10.036,0,0,1,3.54-3.139,9.512,9.512,0,0,1,4.5-1.105,6.846,6.846,0,0,1,4.1,1.154,5.224,5.224,0,0,1,2.082,2.947l.673-3.844h2.243l-3.076,17.492h-2.243l.673-3.877a8.525,8.525,0,0,1-3.123,2.963,8.927,8.927,0,0,1-4.533,1.17,7.447,7.447,0,0,1-3.652-.865,6.048,6.048,0,0,1-2.435-2.451,7.681,7.681,0,0,1-.865-3.733,11.129,11.129,0,0,1,.193-1.986A11.574,11.574,0,0,1,596.1,1533.2Zm13.519,3.156a5.12,5.12,0,0,0-5.414-5.446,7.482,7.482,0,0,0-3.476.833,7.583,7.583,0,0,0-2.739,2.418,9.181,9.181,0,0,0-1.506,3.764,10.123,10.123,0,0,0-.16,1.634,5.073,5.073,0,0,0,5.382,5.446,7.324,7.324,0,0,0,3.444-.865,7.879,7.879,0,0,0,2.787-2.467,9.793,9.793,0,0,0,1.682-5.318Z" transform="translate(-491.404 -1524.217)" fill="#212189"/>
      <path id="Path_107086" data-name="Path 107086" d="M643.086,1529.815a7.664,7.664,0,0,1,3.94-.993l-.416,2.339h-.641a6.673,6.673,0,0,0-3.973,1.186,6.346,6.346,0,0,0-2.307,3.908l-1.826,10.38h-2.242l3.076-17.492h2.242l-.608,3.492A7.593,7.593,0,0,1,643.086,1529.815Z" transform="translate(-513.342 -1524.145)" fill="#212189"/>
      <path id="Path_107087" data-name="Path 107087" d="M672.429,1530.28a5.421,5.421,0,0,1,1.618,4.245,9.859,9.859,0,0,1-.16,1.858l-1.826,10.252h-2.211l1.762-10a9.188,9.188,0,0,0,.128-1.57,4.2,4.2,0,0,0-1.154-3.2,4.528,4.528,0,0,0-3.235-1.09,6.269,6.269,0,0,0-4.325,1.6,7.91,7.91,0,0,0-2.338,4.709v-.1l-1.7,9.643h-2.242l3.076-17.492h2.242l-.545,3.012a7.563,7.563,0,0,1,2.851-2.467,8.268,8.268,0,0,1,3.748-.865A6.2,6.2,0,0,1,672.429,1530.28Z" transform="translate(-524.472 -1524.145)" fill="#212189"/>
      <path id="Path_107088" data-name="Path 107088" d="M711.057,1529.807a5.824,5.824,0,0,1,2.387,2.323,6.822,6.822,0,0,1,.817,3.364,8.3,8.3,0,0,1-.128,1.538q-.192.961-.384,1.73H699.236a7.367,7.367,0,0,0-.1,1.153,4.874,4.874,0,0,0,1.489,3.813,5.451,5.451,0,0,0,3.8,1.346,7.076,7.076,0,0,0,3.876-1.057,6.2,6.2,0,0,0,2.435-2.851h2.4a9.423,9.423,0,0,1-3.476,4.181,9.667,9.667,0,0,1-5.559,1.618,7.284,7.284,0,0,1-5.238-1.874,6.717,6.717,0,0,1-1.97-5.11,11.333,11.333,0,0,1,.192-2.018,11.592,11.592,0,0,1,1.938-4.773,9.847,9.847,0,0,1,3.6-3.14,10.121,10.121,0,0,1,4.645-1.089A7.851,7.851,0,0,1,711.057,1529.807Zm.929,5.782a4.317,4.317,0,0,0-1.442-3.492,5.514,5.514,0,0,0-3.684-1.217,7.273,7.273,0,0,0-5.766,2.819,7.99,7.99,0,0,0-1.538,3.4h12.27A8.849,8.849,0,0,0,711.986,1535.589Z" transform="translate(-545.625 -1524.217)" fill="#212189"/>
      <path id="Path_107089" data-name="Path 107089" d="M742.413,1529.815a7.663,7.663,0,0,1,3.94-.993l-.416,2.339H745.3a6.671,6.671,0,0,0-3.972,1.186,6.346,6.346,0,0,0-2.307,3.908l-1.826,10.38h-2.242l3.075-17.492h2.242l-.609,3.492A7.587,7.587,0,0,1,742.413,1529.815Z" transform="translate(-565.673 -1524.145)" fill="#212189"/>
    </g>
  </g>
</svg>
