<svg xmlns="http://www.w3.org/2000/svg" xmlns:xlink="http://www.w3.org/1999/xlink" width="259.335" height="41.621" viewBox="0 0 259.335 41.621">
  <defs>
    <linearGradient id="linear-gradient" x1="-299.423" y1="-41.908" x2="-299.119" y2="-41.908" gradientUnits="objectBoundingBox">
      <stop offset="0" stop-color="#f44852"/>
      <stop offset="0.775" stop-color="#c11627"/>
    </linearGradient>
    <linearGradient id="linear-gradient-2" x1="-20.8" y1="-11.273" x2="-20.786" y2="-11.273" xlink:href="#linear-gradient"/>
    <linearGradient id="linear-gradient-3" x1="-88.27" y1="-71.779" x2="-88.21" y2="-71.779" gradientUnits="objectBoundingBox">
      <stop offset="0" stop-color="#262261"/>
      <stop offset="1" stop-color="#212189"/>
    </linearGradient>
    <linearGradient id="linear-gradient-4" x1="-61.376" y1="-30.475" x2="-61.335" y2="-30.475" xlink:href="#linear-gradient-3"/>
    <linearGradient id="linear-gradient-5" x1="-80.907" y1="-40.966" x2="-80.852" y2="-40.966" xlink:href="#linear-gradient-3"/>
  </defs>
  <g id="Group_65230" data-name="Group 65230" transform="translate(-341.304 -1141.439)">
    <g id="FastLearner" style="isolation: isolate">
      <g id="Group_66531" data-name="Group 66531" style="isolation: isolate">
        <path id="Path_107071" data-name="Path 107071" d="M438.753,1150.975l-.769,4.321h-9.151l-.832,4.832h6.847l-.767,4.159h-6.849l-1.6,9.152h-5.472l3.968-22.464Z" fill="#fff"/>
        <path id="Path_107072" data-name="Path 107072" d="M440.385,1159.647a10.061,10.061,0,0,1,3.391-3.2,8.407,8.407,0,0,1,4.193-1.12,6.064,6.064,0,0,1,3.168.768,4.563,4.563,0,0,1,1.855,2.016l.448-2.528h5.472l-3.168,17.856h-5.472l.481-2.528a7.658,7.658,0,0,1-2.593,2.016,7.748,7.748,0,0,1-3.456.768,6.428,6.428,0,0,1-3.344-.864,5.831,5.831,0,0,1-2.256-2.447,8.182,8.182,0,0,1-.8-3.729,13.255,13.255,0,0,1,.191-2.176A12.246,12.246,0,0,1,440.385,1159.647Zm11.584,3.808a3.3,3.3,0,0,0-.913-2.464,3.174,3.174,0,0,0-2.32-.9,4.431,4.431,0,0,0-2.975,1.168,5.284,5.284,0,0,0-1.7,3.216,6.579,6.579,0,0,0-.1,1.056,3.346,3.346,0,0,0,.912,2.48,3.1,3.1,0,0,0,2.288.912,4.392,4.392,0,0,0,2.975-1.184,5.5,5.5,0,0,0,1.729-3.232A6.563,6.563,0,0,0,451.969,1163.455Z" fill="#fff"/>
        <path id="Path_107073" data-name="Path 107073" d="M463.664,1173.023a6.276,6.276,0,0,1-2.64-1.872,4.311,4.311,0,0,1-.96-2.767c0-.15.021-.416.065-.8h5.279a1.851,1.851,0,0,0,.592,1.584,2.7,2.7,0,0,0,1.872.593,3.371,3.371,0,0,0,1.7-.385,1.186,1.186,0,0,0-.048-2.159,16.482,16.482,0,0,0-2.383-.977,25.346,25.346,0,0,1-2.9-1.136,5.609,5.609,0,0,1-2-1.616,4.158,4.158,0,0,1-.832-2.656,4.677,4.677,0,0,1,.928-2.832,6.045,6.045,0,0,1,2.608-1.968,10,10,0,0,1,3.888-.7,9.44,9.44,0,0,1,3.841.721,5.893,5.893,0,0,1,2.527,2,4.9,4.9,0,0,1,.9,2.879l-.033.48H471.1a1.794,1.794,0,0,0-.576-1.536,2.636,2.636,0,0,0-1.824-.575,2.754,2.754,0,0,0-1.52.383,1.2,1.2,0,0,0-.591,1.056,1.348,1.348,0,0,0,.783,1.168,14.262,14.262,0,0,0,2.448,1.04,23.284,23.284,0,0,1,2.864,1.136,5.773,5.773,0,0,1,1.952,1.568,3.865,3.865,0,0,1,.816,2.512,4.5,4.5,0,0,1-1.04,2.976,6.481,6.481,0,0,1-2.848,1.9,12.014,12.014,0,0,1-4.112.656A10.141,10.141,0,0,1,463.664,1173.023Z" fill="#fff"/>
        <path id="Path_107074" data-name="Path 107074" d="M485.632,1167.3a2.133,2.133,0,0,0-.032.416.978.978,0,0,0,.336.831,1.838,1.838,0,0,0,1.1.257h1.952l-.832,4.639h-2.784q-5.376,0-5.376-4.512a11.339,11.339,0,0,1,.16-1.7l1.28-7.1h-2.176l.8-4.545h2.176l.768-4.352h5.472l-.768,4.352H491.3l-.8,4.545h-3.584Z" fill="#fff"/>
      </g>
      <g id="Group_66532" data-name="Group 66532" style="isolation: isolate">
        <path id="Path_107075" data-name="Path 107075" d="M494.687,1171.679h8.033l-.32,1.76H492.128l3.936-22.368H498.3Z" fill="#fff"/>
        <path id="Path_107076" data-name="Path 107076" d="M518.463,1156.559a5.807,5.807,0,0,1,2.384,2.321,6.808,6.808,0,0,1,.817,3.359,8.205,8.205,0,0,1-.129,1.536q-.19.96-.384,1.729H506.656a7.4,7.4,0,0,0-.1,1.151,4.87,4.87,0,0,0,1.488,3.809,5.448,5.448,0,0,0,3.793,1.343,7.071,7.071,0,0,0,3.871-1.056,6.189,6.189,0,0,0,2.432-2.848h2.4a9.411,9.411,0,0,1-3.471,4.176,9.656,9.656,0,0,1-5.553,1.616,7.278,7.278,0,0,1-5.232-1.872,6.709,6.709,0,0,1-1.968-5.1,11.284,11.284,0,0,1,.193-2.016,11.581,11.581,0,0,1,1.935-4.768,9.841,9.841,0,0,1,3.6-3.135,10.1,10.1,0,0,1,4.64-1.088A7.837,7.837,0,0,1,518.463,1156.559Zm.928,5.777a4.31,4.31,0,0,0-1.44-3.489,5.509,5.509,0,0,0-3.68-1.215,7.27,7.27,0,0,0-5.759,2.815,7.97,7.97,0,0,0-1.537,3.393h12.256A8.8,8.8,0,0,0,519.391,1162.336Z" fill="#fff"/>
        <path id="Path_107077" data-name="Path 107077" d="M524.735,1159.951a10.028,10.028,0,0,1,3.536-3.136,9.507,9.507,0,0,1,4.5-1.1,6.837,6.837,0,0,1,4.1,1.151,5.222,5.222,0,0,1,2.08,2.944l.672-3.839h2.24l-3.072,17.471h-2.24l.672-3.872a8.519,8.519,0,0,1-3.119,2.96,8.926,8.926,0,0,1-4.529,1.168,7.433,7.433,0,0,1-3.647-.864,6.029,6.029,0,0,1-2.433-2.447,7.674,7.674,0,0,1-.864-3.729,11.107,11.107,0,0,1,.192-1.983A11.566,11.566,0,0,1,524.735,1159.951Zm13.5,3.152a5.115,5.115,0,0,0-5.408-5.44,7.482,7.482,0,0,0-3.472.832,7.579,7.579,0,0,0-2.736,2.416,9.193,9.193,0,0,0-1.5,3.761,10.124,10.124,0,0,0-.16,1.631,5.068,5.068,0,0,0,5.377,5.44,7.327,7.327,0,0,0,3.439-.863,7.872,7.872,0,0,0,2.783-2.465,9.14,9.14,0,0,0,1.521-3.712A9.262,9.262,0,0,0,538.239,1163.1Z" fill="#fff"/>
        <path id="Path_107078" data-name="Path 107078" d="M549.76,1156.639a7.646,7.646,0,0,1,3.935-.992l-.416,2.336h-.64a6.669,6.669,0,0,0-3.967,1.184,6.343,6.343,0,0,0-2.3,3.9l-1.824,10.368H542.3l3.072-17.471h2.24l-.607,3.487A7.582,7.582,0,0,1,549.76,1156.639Z" fill="#fff"/>
        <path id="Path_107079" data-name="Path 107079" d="M567.951,1157.1a5.416,5.416,0,0,1,1.616,4.241,9.833,9.833,0,0,1-.16,1.855l-1.824,10.24h-2.208l1.76-9.984a9.073,9.073,0,0,0,.129-1.568,4.2,4.2,0,0,0-1.153-3.2,4.528,4.528,0,0,0-3.232-1.088,6.268,6.268,0,0,0-4.321,1.6,7.915,7.915,0,0,0-2.336,4.7v-.1l-1.7,9.632h-2.24l3.072-17.471h2.24l-.544,3.007a7.567,7.567,0,0,1,2.848-2.464,8.254,8.254,0,0,1,3.743-.864A6.192,6.192,0,0,1,567.951,1157.1Z" fill="#fff"/>
        <path id="Path_107080" data-name="Path 107080" d="M585.406,1156.559a5.815,5.815,0,0,1,2.385,2.321,6.807,6.807,0,0,1,.816,3.359,8.206,8.206,0,0,1-.129,1.536c-.127.64-.256,1.216-.383,1.729H573.6a7.387,7.387,0,0,0-.1,1.151,4.873,4.873,0,0,0,1.487,3.809,5.448,5.448,0,0,0,3.793,1.343,7.066,7.066,0,0,0,3.871-1.056,6.191,6.191,0,0,0,2.433-2.848h2.4a9.4,9.4,0,0,1-3.471,4.176,9.653,9.653,0,0,1-5.552,1.616,7.281,7.281,0,0,1-5.233-1.872,6.712,6.712,0,0,1-1.967-5.1,11.279,11.279,0,0,1,.192-2.016,11.594,11.594,0,0,1,1.935-4.768,9.84,9.84,0,0,1,3.6-3.135,10.1,10.1,0,0,1,4.641-1.088A7.835,7.835,0,0,1,585.406,1156.559Zm.929,5.777a4.311,4.311,0,0,0-1.441-3.489,5.506,5.506,0,0,0-3.679-1.215,7.27,7.27,0,0,0-5.76,2.815,7.968,7.968,0,0,0-1.536,3.393h12.256A8.9,8.9,0,0,0,586.335,1162.336Z" fill="#fff"/>
        <path id="Path_107081" data-name="Path 107081" d="M596.7,1156.639a7.649,7.649,0,0,1,3.936-.992l-.417,2.336h-.64a6.671,6.671,0,0,0-3.967,1.184,6.348,6.348,0,0,0-2.3,3.9l-1.824,10.368h-2.24l3.072-17.471h2.24l-.607,3.487A7.582,7.582,0,0,1,596.7,1156.639Z" fill="#fff"/>
      </g>
    </g>
    <g id="Group_65229" data-name="Group 65229">
      <path id="Path_106463" data-name="Path 106463" d="M345.987,1167.965l2.342,2.229-.5,1.946-2.223-1.47-.015,1.623-.54.14a12.714,12.714,0,0,0,.152-3.368C344.987,1167.775,345.987,1167.965,345.987,1167.965Z" fill="#fff"/>
      <path id="Path_106464" data-name="Path 106464" d="M346.615,1157.344a3.558,3.558,0,0,0-.562.275,6.548,6.548,0,0,0-.572.376,5.608,5.608,0,0,0-.974.979,5.267,5.267,0,0,0-1.031,2.612l-.034.733c.01.246.046.491.067.739l.039.373.088.365.182.734c.171.474.356.948.552,1.418l.727,1.348-.816-1.3c-.24-.452-.476-.911-.7-1.378a8.766,8.766,0,0,1-.728-3.052,6.336,6.336,0,0,1,.724-3.177,6.885,6.885,0,0,1,.957-1.388,8.03,8.03,0,0,1,.6-.61,5.294,5.294,0,0,1,.721-.561Z" fill="url(#linear-gradient)"/>
      <ellipse id="Ellipse_1091" data-name="Ellipse 1091" cx="1.484" cy="1.509" rx="1.484" ry="1.509" transform="matrix(1, -0.031, 0.031, 1, 343.536, 1166.07)" fill="#fff"/>
      <path id="Path_106465" data-name="Path 106465" d="M414.013,1160.308l-38.339,16.448-34.37-21.217,36.388-14.1Z" fill="url(#linear-gradient-2)"/>
      <path id="Path_106466" data-name="Path 106466" d="M404.811,1158.7l-29.466,12.222-20.709-11.409-7.148-4.1,29.821-11.529Z" fill="#fff"/>
      <g id="Group_65228" data-name="Group 65228">
        <path id="Path_106467" data-name="Path 106467" d="M373.552,1153.417l-11.611,4.7-4.882-2.824,11.6-4.572Z" fill="url(#linear-gradient-3)"/>
        <path id="Path_106468" data-name="Path 106468" d="M376.572,1147.626l-5.912,2.331,13.313,7.261-5.31,2.251,5.231,2.919,11.2-4.882-5.155-2.742.031-.013Z" fill="url(#linear-gradient-4)"/>
        <path id="Path_106469" data-name="Path 106469" d="M375.247,1154.316l-11.614,4.745.868.5h-.008l11.082,6.409,6.24-2.72-6.907-3.888,5.4-2.267Z" fill="url(#linear-gradient-5)"/>
      </g>
      <ellipse id="Ellipse_1092" data-name="Ellipse 1092" cx="1.589" cy="1.108" rx="1.589" ry="1.108" transform="translate(390.402 1166.266) rotate(-18.439)" fill="#fff"/>
      <path id="Path_106470" data-name="Path 106470" d="M398.419,1167.04l-1.055,5.556s-14.761,3.1-21.8,10.464c0,0-8.152-9.566-19.345-12.887l-1.653-6.377,20.891,12.731Z" fill="#fff"/>
    </g>
  </g>
</svg>
