<svg xmlns="http://www.w3.org/2000/svg" xmlns:xlink="http://www.w3.org/1999/xlink" width="378.656" height="52.606" viewBox="0 0 378.656 52.606">
  <defs>
    <linearGradient id="linear-gradient" x1="-0.145" y1="0.5" x2="1" y2="0.5" gradientUnits="objectBoundingBox">
      <stop offset="0" stop-color="#f44852"/>
      <stop offset="0.775" stop-color="#c11627"/>
    </linearGradient>
    <linearGradient id="linear-gradient-2" x1="-0.389" y1="-1.314" x2="0.608" y2="-1.314" xlink:href="#linear-gradient"/>
    <linearGradient id="linear-gradient-3" y1="0.5" x2="1" y2="0.5" gradientUnits="objectBoundingBox">
      <stop offset="0" stop-color="#262261"/>
      <stop offset="1" stop-color="#212189"/>
    </linearGradient>
  </defs>
  <g id="Footer_beta_logo" data-name="Footer beta logo" transform="translate(-120 -5721.527)">
    <g id="Group_65229" data-name="Group 65229" transform="translate(120 5721.527)">
      <path id="Path_106463" data-name="Path 106463" d="M214.544,1799.368l2.96,2.817-.629,2.459-2.81-1.858-.02,2.052-.683.177a16.064,16.064,0,0,0,.192-4.257C213.28,1799.127,214.544,1799.368,214.544,1799.368Z" transform="translate(-208.626 -1765.84)" fill="#fff"/>
      <path id="Path_106464" data-name="Path 106464" d="M213.559,1776.117a4.541,4.541,0,0,0-.71.347,8.141,8.141,0,0,0-.723.475,7.028,7.028,0,0,0-1.231,1.237,6.658,6.658,0,0,0-1.3,3.3l-.043.927c.012.311.058.621.085.935l.049.471.111.461.23.928c.216.6.45,1.2.7,1.793l.918,1.7-1.032-1.644c-.3-.571-.6-1.152-.88-1.742a11.074,11.074,0,0,1-.921-3.858,8,8,0,0,1,.915-4.016,8.7,8.7,0,0,1,1.21-1.755,9.987,9.987,0,0,1,.759-.771,6.538,6.538,0,0,1,.911-.709Z" transform="translate(-206.844 -1756.013)" fill="url(#linear-gradient)"/>
      <ellipse id="Ellipse_1091" data-name="Ellipse 1091" cx="1.876" cy="1.908" rx="1.876" ry="1.908" transform="translate(2.823 31.133) rotate(-1.774)" fill="#fff"/>
      <path id="Path_106465" data-name="Path 106465" d="M297.489,1768.2l-48.459,20.79-43.441-26.817,45.992-17.823Z" transform="translate(-205.589 -1744.35)" fill="url(#linear-gradient-2)"/>
      <path id="Path_106466" data-name="Path 106466" d="M290.873,1768.157,253.63,1783.6l-26.175-14.42L218.42,1764l37.692-14.572Z" transform="translate(-210.602 -1746.335)" fill="#fff"/>
      <g id="Group_65228" data-name="Group 65228" transform="translate(19.915 7.82)">
        <path id="Path_106467" data-name="Path 106467" d="M259.12,1767.009l-14.675,5.942-6.171-3.569,14.656-5.778Z" transform="translate(-238.274 -1759.693)" fill="url(#linear-gradient-3)"/>
        <path id="Path_106468" data-name="Path 106468" d="M273.962,1757.185l-7.472,2.946,16.826,9.178-6.712,2.845,6.612,3.69,14.156-6.171-6.516-3.466.039-.017Z" transform="translate(-249.297 -1757.185)" fill="url(#linear-gradient-3)"/>
        <path id="Path_106469" data-name="Path 106469" d="M266.589,1771.062l-14.679,6,1.1.634-.011,0L267,1785.8l7.887-3.438-8.73-4.914,6.825-2.866Z" transform="translate(-243.601 -1762.606)" fill="url(#linear-gradient-3)"/>
      </g>
      <ellipse id="Ellipse_1092" data-name="Ellipse 1092" cx="2.009" cy="1.401" rx="2.009" ry="1.401" transform="translate(62.059 31.381) rotate(-18.439)" fill="#fff"/>
      <path id="Path_106470" data-name="Path 106470" d="M288.528,1794.827l-1.334,7.022s-18.657,3.916-27.556,13.226c0,0-10.3-12.091-24.451-16.288l-2.089-8.061,26.4,16.091Z" transform="translate(-216.337 -1762.469)" fill="#fff"/>
    </g>
    <g id="Group_66540" data-name="Group 66540" transform="translate(452.553 5737.121)">
      <path id="Rectangle_29374" data-name="Rectangle 29374" d="M338.081,99.782h26.345a9.88,9.88,0,0,1,9.879,9.879h0a9.88,9.88,0,0,1-9.879,9.879H338.081a9.88,9.88,0,0,1-9.879-9.879h0A9.88,9.88,0,0,1,338.081,99.782Z" transform="translate(-328.202 -99.782)" fill="#fe4a55"/>
      <g id="Beta" transform="translate(8.918 5.31)" style="isolation: isolate">
        <g id="Group_66543" data-name="Group 66543" style="isolation: isolate">
          <path id="Path_107151" data-name="Path 107151" d="M340.485,108.672a2.419,2.419,0,0,1,.659.817,2.376,2.376,0,0,1-.112,2.3,2.419,2.419,0,0,1-1.034.883,3.7,3.7,0,0,1-1.6.323h-3.425v-9.18h3.293a3.739,3.739,0,0,1,1.594.308,2.249,2.249,0,0,1,.988.838,2.181,2.181,0,0,1,.329,1.184,2.048,2.048,0,0,1-.441,1.35,2.477,2.477,0,0,1-1.166.771A1.951,1.951,0,0,1,340.485,108.672Zm-4.314-.9h2.015a1.936,1.936,0,0,0,1.3-.4,1.527,1.527,0,0,0,0-2.187,1.988,1.988,0,0,0-1.33-.394h-1.989Zm3.517,3.807a1.446,1.446,0,0,0,.5-1.172,1.49,1.49,0,0,0-.527-1.205,2.127,2.127,0,0,0-1.409-.441h-2.081V112h2.121A2.1,2.1,0,0,0,339.688,111.583Z" transform="translate(-334.972 -103.813)" fill="#fff"/>
          <path id="Path_107152" data-name="Path 107152" d="M347.847,109.388h-5.771a2.273,2.273,0,0,0,2.346,2.267,2.214,2.214,0,0,0,1.3-.364,1.919,1.919,0,0,0,.731-.968h1.291a3.1,3.1,0,0,1-1.161,1.693,3.493,3.493,0,0,1-2.159.652,3.636,3.636,0,0,1-1.838-.461,3.269,3.269,0,0,1-1.272-1.311,4.064,4.064,0,0,1-.46-1.969,4.136,4.136,0,0,1,.447-1.963,3.133,3.133,0,0,1,1.258-1.3,3.738,3.738,0,0,1,1.865-.456,3.61,3.61,0,0,1,1.816.448,3.1,3.1,0,0,1,1.218,1.232,3.631,3.631,0,0,1,.428,1.772A7.033,7.033,0,0,1,347.847,109.388Zm-1.5-2.154a1.971,1.971,0,0,0-.823-.751,2.562,2.562,0,0,0-1.153-.257,2.222,2.222,0,0,0-1.546.58,2.357,2.357,0,0,0-.731,1.608h4.558A2.207,2.207,0,0,0,346.344,107.234Z" transform="translate(-333.107 -103.369)" fill="#fff"/>
          <path id="Path_107153" data-name="Path 107153" d="M349.106,106.728v4.255a1.013,1.013,0,0,0,.224.746,1.107,1.107,0,0,0,.777.217h.881v1.013h-1.079a2.15,2.15,0,0,1-1.5-.46,1.986,1.986,0,0,1-.5-1.516v-4.255h-.935v-.988h.935v-1.818h1.2v1.818h1.882v.988Z" transform="translate(-331.165 -103.778)" fill="#fff"/>
          <path id="Path_107154" data-name="Path 107154" d="M351.32,106.97a3.243,3.243,0,0,1,1.23-1.3,3.375,3.375,0,0,1,1.747-.462,3.2,3.2,0,0,1,1.647.408,2.736,2.736,0,0,1,1.041,1.027v-1.317H358.2v7.218h-1.212v-1.342a2.84,2.84,0,0,1-1.06,1.047,3.174,3.174,0,0,1-1.64.414,3.281,3.281,0,0,1-1.739-.473,3.32,3.32,0,0,1-1.225-1.332,4.138,4.138,0,0,1-.448-1.95A4.052,4.052,0,0,1,351.32,106.97Zm5.335.534a2.343,2.343,0,0,0-.889-.929,2.522,2.522,0,0,0-2.457-.007,2.285,2.285,0,0,0-.883.922,2.932,2.932,0,0,0-.329,1.423,2.994,2.994,0,0,0,.329,1.442,2.312,2.312,0,0,0,.883.935,2.39,2.39,0,0,0,1.224.323,2.434,2.434,0,0,0,1.233-.323,2.318,2.318,0,0,0,.889-.935,2.981,2.981,0,0,0,.329-1.429A2.947,2.947,0,0,0,356.655,107.5Z" transform="translate(-329.928 -103.369)" fill="#fff"/>
        </g>
      </g>
    </g>
    <g id="FastLearner" transform="translate(219.227 5734.549)" style="isolation: isolate">
      <g id="Group_66541" data-name="Group 66541" transform="translate(0 0)" style="isolation: isolate">
        <path id="Path_107140" data-name="Path 107140" d="M170.34,91.318l-.962,5.411h-11.46l-1.042,6.051h8.575l-.962,5.208h-8.575l-2,11.46h-6.852l4.969-28.13Z" transform="translate(-147.059 -91.318)" fill="#fff"/>
        <path id="Path_107141" data-name="Path 107141" d="M167.808,101.08a12.614,12.614,0,0,1,4.248-4.007,10.526,10.526,0,0,1,5.249-1.4,7.594,7.594,0,0,1,3.967.962,5.709,5.709,0,0,1,2.324,2.524l.561-3.166h6.852l-3.967,22.36H180.19l.6-3.166a9.605,9.605,0,0,1-3.246,2.526,9.726,9.726,0,0,1-4.328.96,8.045,8.045,0,0,1-4.187-1.082,7.293,7.293,0,0,1-2.825-3.064,10.229,10.229,0,0,1-1-4.67,16.607,16.607,0,0,1,.24-2.725A15.351,15.351,0,0,1,167.808,101.08Zm14.506,4.768a4.13,4.13,0,0,0-1.142-3.085,3.976,3.976,0,0,0-2.905-1.122,5.554,5.554,0,0,0-3.727,1.463,6.615,6.615,0,0,0-2.124,4.027,8.11,8.11,0,0,0-.12,1.322,4.2,4.2,0,0,0,1.142,3.106A3.886,3.886,0,0,0,176.3,112.7a5.506,5.506,0,0,0,3.727-1.484,6.888,6.888,0,0,0,2.164-4.047A8.082,8.082,0,0,0,182.313,105.848Z" transform="translate(-142.483 -90.22)" fill="#fff"/>
        <path id="Path_107142" data-name="Path 107142" d="M191.47,117.829a7.847,7.847,0,0,1-3.3-2.344,5.392,5.392,0,0,1-1.2-3.465c0-.188.026-.521.081-1h6.612A2.32,2.32,0,0,0,194.4,113a3.379,3.379,0,0,0,2.345.743,4.224,4.224,0,0,0,2.124-.482,1.484,1.484,0,0,0-.061-2.7,20.569,20.569,0,0,0-2.984-1.223,31.771,31.771,0,0,1-3.626-1.423,7,7,0,0,1-2.5-2.024,5.2,5.2,0,0,1-1.042-3.326,5.856,5.856,0,0,1,1.161-3.546,7.575,7.575,0,0,1,3.267-2.464,12.518,12.518,0,0,1,4.867-.882,11.821,11.821,0,0,1,4.81.9,7.383,7.383,0,0,1,3.166,2.5,6.141,6.141,0,0,1,1.122,3.606l-.041.6h-6.211a2.246,2.246,0,0,0-.72-1.923,3.3,3.3,0,0,0-2.284-.72,3.443,3.443,0,0,0-1.9.48,1.5,1.5,0,0,0-.741,1.322,1.687,1.687,0,0,0,.98,1.463,17.885,17.885,0,0,0,3.067,1.3,29.027,29.027,0,0,1,3.585,1.423,7.233,7.233,0,0,1,2.446,1.963,4.839,4.839,0,0,1,1.021,3.146,5.636,5.636,0,0,1-1.3,3.728,8.122,8.122,0,0,1-3.565,2.383,15.052,15.052,0,0,1-5.15.821A12.7,12.7,0,0,1,191.47,117.829Z" transform="translate(-136.994 -90.22)" fill="#fff"/>
        <path id="Path_107143" data-name="Path 107143" d="M214.136,111.691a2.789,2.789,0,0,0-.039.521,1.224,1.224,0,0,0,.419,1.041,2.3,2.3,0,0,0,1.382.322h2.446l-1.042,5.809h-3.487q-6.732,0-6.732-5.649a14.059,14.059,0,0,1,.2-2.125l1.6-8.895h-2.724l1-5.691h2.725l.962-5.45H217.7l-.962,5.45h4.488l-1,5.691H215.74Z" transform="translate(-132.151 -91.253)" fill="#fff"/>
      </g>
      <g id="Group_66542" data-name="Group 66542" transform="translate(90.119 0.12)" style="isolation: isolate">
        <path id="Path_107144" data-name="Path 107144" d="M222.232,117.22H232.29l-.4,2.2H219.026l4.929-28.01h2.8Z" transform="translate(-219.026 -91.414)" fill="#fff"/>
        <path id="Path_107145" data-name="Path 107145" d="M248.928,97.116a7.282,7.282,0,0,1,2.987,2.906,8.525,8.525,0,0,1,1.022,4.206,10.388,10.388,0,0,1-.16,1.923q-.24,1.2-.481,2.165H234.143a9.1,9.1,0,0,0-.12,1.441,6.1,6.1,0,0,0,1.862,4.77,6.822,6.822,0,0,0,4.748,1.682,8.849,8.849,0,0,0,4.849-1.322,7.753,7.753,0,0,0,3.047-3.566h3a11.776,11.776,0,0,1-4.346,5.229,12.091,12.091,0,0,1-6.952,2.024,9.113,9.113,0,0,1-6.552-2.344,8.4,8.4,0,0,1-2.464-6.39,14.128,14.128,0,0,1,.24-2.526,14.486,14.486,0,0,1,2.424-5.971,12.32,12.32,0,0,1,4.507-3.926,12.653,12.653,0,0,1,5.812-1.362A9.811,9.811,0,0,1,248.928,97.116Zm1.163,7.234a5.4,5.4,0,0,0-1.8-4.369,6.9,6.9,0,0,0-4.608-1.521,9.1,9.1,0,0,0-7.213,3.525,9.978,9.978,0,0,0-1.923,4.249h15.347A11.143,11.143,0,0,0,250.092,104.35Z" transform="translate(-215.951 -90.243)" fill="#fff"/>
        <path id="Path_107146" data-name="Path 107146" d="M252.167,101.363a12.547,12.547,0,0,1,4.428-3.927,11.892,11.892,0,0,1,5.629-1.381,8.572,8.572,0,0,1,5.13,1.441,6.552,6.552,0,0,1,2.6,3.687l.841-4.807h2.8l-3.847,21.878h-2.806l.841-4.849a10.652,10.652,0,0,1-3.907,3.707,11.162,11.162,0,0,1-5.669,1.463,9.314,9.314,0,0,1-4.569-1.082,7.551,7.551,0,0,1-3.044-3.064,9.61,9.61,0,0,1-1.083-4.67,13.91,13.91,0,0,1,.242-2.483A14.466,14.466,0,0,1,252.167,101.363Zm16.91,3.947A6.406,6.406,0,0,0,262.3,98.5a9.363,9.363,0,0,0-4.346,1.042,9.5,9.5,0,0,0-3.427,3.025,11.476,11.476,0,0,0-1.882,4.71,12.556,12.556,0,0,0-.2,2.042,6.348,6.348,0,0,0,6.732,6.812,9.18,9.18,0,0,0,4.309-1.081,9.879,9.879,0,0,0,3.485-3.087,11.445,11.445,0,0,0,1.9-4.648A11.6,11.6,0,0,0,269.077,105.31Z" transform="translate(-211.334 -90.243)" fill="#fff"/>
        <path id="Path_107147" data-name="Path 107147" d="M278.538,97.232a9.59,9.59,0,0,1,4.93-1.242l-.521,2.925h-.8a8.359,8.359,0,0,0-4.969,1.483,7.947,7.947,0,0,0-2.884,4.889l-2.285,12.983H269.2l3.847-21.878h2.806l-.763,4.367A9.5,9.5,0,0,1,278.538,97.232Z" transform="translate(-206.37 -90.26)" fill="#fff"/>
        <path id="Path_107148" data-name="Path 107148" d="M298.8,97.813a6.783,6.783,0,0,1,2.024,5.311,12.419,12.419,0,0,1-.2,2.323l-2.285,12.823h-2.765l2.2-12.5a11.487,11.487,0,0,0,.16-1.963A5.258,5.258,0,0,0,296.5,99.8a5.675,5.675,0,0,0-4.048-1.362,7.843,7.843,0,0,0-5.41,2,9.9,9.9,0,0,0-2.925,5.89v-.12l-2.123,12.061h-2.8l3.847-21.878h2.8l-.681,3.765a9.469,9.469,0,0,1,3.568-3.086,10.328,10.328,0,0,1,4.687-1.082A7.758,7.758,0,0,1,298.8,97.813Z" transform="translate(-203.852 -90.26)" fill="#fff"/>
        <path id="Path_107149" data-name="Path 107149" d="M315.872,97.116a7.271,7.271,0,0,1,2.985,2.906,8.525,8.525,0,0,1,1.022,4.206,10.393,10.393,0,0,1-.16,1.923q-.241,1.2-.481,2.165H301.086a9.262,9.262,0,0,0-.12,1.441,6.1,6.1,0,0,0,1.863,4.77,6.822,6.822,0,0,0,4.748,1.682,8.855,8.855,0,0,0,4.849-1.322,7.75,7.75,0,0,0,3.045-3.566h3.005a11.787,11.787,0,0,1-4.348,5.229,12.088,12.088,0,0,1-6.952,2.024,9.115,9.115,0,0,1-6.552-2.344,8.4,8.4,0,0,1-2.464-6.39,14.138,14.138,0,0,1,.242-2.526,14.485,14.485,0,0,1,2.423-5.971,12.324,12.324,0,0,1,4.508-3.926,12.645,12.645,0,0,1,5.81-1.362A9.816,9.816,0,0,1,315.872,97.116Zm1.162,7.234a5.4,5.4,0,0,0-1.8-4.369,6.9,6.9,0,0,0-4.608-1.521,9.1,9.1,0,0,0-7.212,3.525,9.981,9.981,0,0,0-1.925,4.249h15.347A11.015,11.015,0,0,0,317.035,104.35Z" transform="translate(-199.066 -90.243)" fill="#fff"/>
        <path id="Path_107150" data-name="Path 107150" d="M325.482,97.232a9.582,9.582,0,0,1,4.929-1.242l-.521,2.925h-.8a8.353,8.353,0,0,0-4.968,1.483,7.947,7.947,0,0,0-2.885,4.889L318.95,118.27h-2.805l3.847-21.878h2.8l-.761,4.367A9.5,9.5,0,0,1,325.482,97.232Z" transform="translate(-194.53 -90.26)" fill="#fff"/>
      </g>
    </g>
  </g>
</svg>
