<svg xmlns="http://www.w3.org/2000/svg" width="92.354" height="92.354" viewBox="0 0 92.354 92.354">
  <g id="Group_65061" data-name="Group 65061" transform="translate(82.474) rotate(45)">
    <path id="Path_106291" data-name="Path 106291" d="M13.972,108.846a10.985,10.985,0,0,1-3.221,7.79L6.714,112.6a5.315,5.315,0,0,0,0-7.508l-.824-.824a11.031,11.031,0,0,1,0-15.58l.825-.825a5.315,5.315,0,0,0,0-7.508L5.066,78.705a11.029,11.029,0,0,1,0-15.581,5.309,5.309,0,0,0,0-7.508l-.824-.824a11.028,11.028,0,0,1,0-15.58l.85-.85a5.321,5.321,0,0,0,.016-7.491L3.17,28.914A11.072,11.072,0,0,1,3.1,13.475l1.052-1.081A5.329,5.329,0,0,0,4.1,4.938l-.9-.9L7.236,0l.9.9a11.06,11.06,0,0,1,.1,15.474L7.191,17.457A5.335,5.335,0,0,0,7.225,24.9l1.938,1.956A11.039,11.039,0,0,1,9.127,42.4l-.85.85a5.313,5.313,0,0,0,0,7.509l.825.824a11.018,11.018,0,0,1,0,15.58,5.315,5.315,0,0,0,0,7.508l1.649,1.648a11.032,11.032,0,0,1,0,15.581l-.825.825a5.313,5.313,0,0,0,0,7.507l.824.825A10.982,10.982,0,0,1,13.972,108.846Z" fill="#fe4a55"/>
  </g>
</svg>
