<svg xmlns="http://www.w3.org/2000/svg" width="92.354" height="92.354" viewBox="0 0 92.354 92.354">
  <g id="Group_65060" data-name="Group 65060" transform="translate(82.474) rotate(45)">
    <path id="Path_106290" data-name="Path 106290" d="M13.973,108.846a10.989,10.989,0,0,1-3.221,7.79L6.715,112.6a5.315,5.315,0,0,0,0-7.508l-.824-.824a11.03,11.03,0,0,1,0-15.58l.826-.825a5.317,5.317,0,0,0,0-7.508L5.066,78.705a11.031,11.031,0,0,1,0-15.581,5.309,5.309,0,0,0,0-7.508l-.824-.824a11.028,11.028,0,0,1,0-15.58l.85-.85a5.32,5.32,0,0,0,.016-7.491L3.171,28.914A11.07,11.07,0,0,1,3.1,13.475l1.052-1.081A5.329,5.329,0,0,0,4.1,4.938l-.9-.9L7.236,0l.9.9a11.06,11.06,0,0,1,.1,15.474L7.191,17.457A5.336,5.336,0,0,0,7.225,24.9l1.938,1.956A11.04,11.04,0,0,1,9.128,42.4l-.85.85a5.31,5.31,0,0,0,0,7.509l.824.824a11.018,11.018,0,0,1,0,15.58,5.317,5.317,0,0,0,0,7.508l1.649,1.648a11.032,11.032,0,0,1,0,15.581l-.826.825a5.313,5.313,0,0,0,0,7.507l.824.825A10.983,10.983,0,0,1,13.973,108.846Z" fill="#212189"/>
  </g>
</svg>
