<svg xmlns="http://www.w3.org/2000/svg" width="51.735" height="57.57" viewBox="0 0 51.735 57.57">
  <g id="Group_65062" data-name="Group 65062" transform="translate(0 0)">
    <path id="Path_106266" data-name="Path 106266" d="M513.927,409.767a.937.937,0,1,1,.937.936A.938.938,0,0,1,513.927,409.767Z" transform="translate(-464.066 -353.134)" fill="#0052f5"/>
    <path id="Path_106267" data-name="Path 106267" d="M500.618,409.767a.937.937,0,1,1,.937.936A.938.938,0,0,1,500.618,409.767Z" transform="translate(-463.222 -353.134)" fill="#0052f5"/>
    <path id="Path_106268" data-name="Path 106268" d="M487.309,409.767a.937.937,0,1,1,.937.936A.937.937,0,0,1,487.309,409.767Z" transform="translate(-462.378 -353.134)" fill="#0052f5"/>
    <path id="Path_106269" data-name="Path 106269" d="M474,409.767a.937.937,0,1,1,.936.936A.937.937,0,0,1,474,409.767Z" transform="translate(-461.535 -353.134)" fill="#0052f5"/>
    <path id="Path_106270" data-name="Path 106270" d="M460.691,409.767a.937.937,0,1,1,.936.936A.937.937,0,0,1,460.691,409.767Z" transform="translate(-460.691 -353.134)" fill="#0052f5"/>
    <path id="Path_106271" data-name="Path 106271" d="M513.927,397.874a.937.937,0,1,1,.937.936A.937.937,0,0,1,513.927,397.874Z" transform="translate(-464.066 -352.38)" fill="#0052f5"/>
    <path id="Path_106272" data-name="Path 106272" d="M500.618,397.874a.937.937,0,1,1,.937.936A.937.937,0,0,1,500.618,397.874Z" transform="translate(-463.222 -352.38)" fill="#0052f5"/>
    <path id="Path_106273" data-name="Path 106273" d="M487.309,397.874a.937.937,0,1,1,.937.936A.936.936,0,0,1,487.309,397.874Z" transform="translate(-462.378 -352.38)" fill="#0052f5"/>
    <path id="Path_106274" data-name="Path 106274" d="M474,397.874a.937.937,0,1,1,.936.936A.936.936,0,0,1,474,397.874Z" transform="translate(-461.535 -352.38)" fill="#0052f5"/>
    <path id="Path_106275" data-name="Path 106275" d="M460.691,397.874a.937.937,0,1,1,.936.936A.936.936,0,0,1,460.691,397.874Z" transform="translate(-460.691 -352.38)" fill="#0052f5"/>
    <path id="Path_106276" data-name="Path 106276" d="M513.927,385.98a.937.937,0,1,1,.937.937A.937.937,0,0,1,513.927,385.98Z" transform="translate(-464.066 -351.626)" fill="#0052f5"/>
    <ellipse id="Ellipse_28" data-name="Ellipse 28" cx="0.937" cy="0.937" rx="0.937" ry="0.937" transform="translate(37.397 33.418)" fill="#0052f5"/>
    <ellipse id="Ellipse_29" data-name="Ellipse 29" cx="0.937" cy="0.937" rx="0.937" ry="0.937" transform="translate(24.93 33.418)" fill="#0052f5"/>
    <path id="Path_106277" data-name="Path 106277" d="M474,385.98a.937.937,0,1,1,.936.937A.936.936,0,0,1,474,385.98Z" transform="translate(-461.535 -351.626)" fill="#0052f5"/>
    <path id="Path_106278" data-name="Path 106278" d="M460.691,385.98a.937.937,0,1,1,.936.937A.936.936,0,0,1,460.691,385.98Z" transform="translate(-460.691 -351.626)" fill="#0052f5"/>
    <path id="Path_106279" data-name="Path 106279" d="M513.927,374.087a.937.937,0,1,1,.937.937A.937.937,0,0,1,513.927,374.087Z" transform="translate(-464.066 -350.872)" fill="#0052f5"/>
    <ellipse id="Ellipse_30" data-name="Ellipse 30" cx="0.937" cy="0.937" rx="0.937" ry="0.937" transform="translate(37.397 22.278)" fill="#0052f5"/>
    <ellipse id="Ellipse_31" data-name="Ellipse 31" cx="0.937" cy="0.937" rx="0.937" ry="0.937" transform="translate(24.93 22.278)" fill="#0052f5"/>
    <path id="Path_106280" data-name="Path 106280" d="M474,374.087a.937.937,0,1,1,.936.937A.937.937,0,0,1,474,374.087Z" transform="translate(-461.535 -350.872)" fill="#0052f5"/>
    <path id="Path_106281" data-name="Path 106281" d="M460.691,374.087a.937.937,0,1,1,.936.937A.937.937,0,0,1,460.691,374.087Z" transform="translate(-460.691 -350.872)" fill="#0052f5"/>
    <path id="Path_106282" data-name="Path 106282" d="M513.927,362.194a.937.937,0,1,1,.937.936A.938.938,0,0,1,513.927,362.194Z" transform="translate(-464.066 -350.118)" fill="#0052f5"/>
    <ellipse id="Ellipse_32" data-name="Ellipse 32" cx="0.937" cy="0.937" rx="0.937" ry="0.937" transform="translate(37.397 11.14)" fill="#0052f5"/>
    <ellipse id="Ellipse_33" data-name="Ellipse 33" cx="0.937" cy="0.937" rx="0.937" ry="0.937" transform="translate(24.93 11.14)" fill="#0052f5"/>
    <path id="Path_106283" data-name="Path 106283" d="M474,362.194a.937.937,0,1,1,.936.936A.937.937,0,0,1,474,362.194Z" transform="translate(-461.535 -350.118)" fill="#0052f5"/>
    <path id="Path_106284" data-name="Path 106284" d="M460.691,362.194a.937.937,0,1,1,.936.936A.937.937,0,0,1,460.691,362.194Z" transform="translate(-460.691 -350.118)" fill="#0052f5"/>
    <path id="Path_106285" data-name="Path 106285" d="M513.927,350.3a.937.937,0,1,1,.937.937A.937.937,0,0,1,513.927,350.3Z" transform="translate(-464.066 -349.364)" fill="#0052f5"/>
    <path id="Path_106286" data-name="Path 106286" d="M500.618,350.3a.937.937,0,1,1,.937.937A.937.937,0,0,1,500.618,350.3Z" transform="translate(-463.222 -349.364)" fill="#0052f5"/>
    <path id="Path_106287" data-name="Path 106287" d="M487.309,350.3a.937.937,0,1,1,.937.937A.936.936,0,0,1,487.309,350.3Z" transform="translate(-462.378 -349.364)" fill="#0052f5"/>
    <path id="Path_106288" data-name="Path 106288" d="M474,350.3a.937.937,0,1,1,.936.937A.936.936,0,0,1,474,350.3Z" transform="translate(-461.535 -349.364)" fill="#0052f5"/>
    <path id="Path_106289" data-name="Path 106289" d="M460.691,350.3a.937.937,0,1,1,.936.937A.936.936,0,0,1,460.691,350.3Z" transform="translate(-460.691 -349.364)" fill="#0052f5"/>
  </g>
</svg>
