<svg xmlns="http://www.w3.org/2000/svg" width="398" height="356.017" viewBox="0 0 398 356.017">
  <g id="Path_107073" data-name="Path 107073" transform="translate(0 -41.983)" fill="none">
    <path d="M335.629,54.315A198.383,198.383,0,0,1,398,199c0,109.9-89.1,199-199,199S0,308.9,0,199A198.6,198.6,0,0,1,61.781,54.875C79.96,37.509,318.392,38.049,335.629,54.315Z" stroke="none"/>
    <path d="M 199.1154479980469 42.1832275390625 C 165.7877960205078 42.1832275390625 134.0880126953125 43.3155517578125 109.8554382324219 45.37158203125 C 82.68963623046875 47.67648315429688 66.1134033203125 51.01278686523438 61.918701171875 55.01974487304688 C 52.39254760742188 64.11944580078125 43.73831176757812 74.18069458007812 36.1964111328125 84.92410278320312 C 28.58880615234375 95.76113891601562 22.05184936523438 107.3800964355469 16.76715087890625 119.458251953125 C 11.38739013671875 131.7536315917969 7.2547607421875 144.6428833007812 4.4840087890625 157.7679748535156 C 1.641357421875 171.2337341308594 0.20001220703125 185.1061859130859 0.20001220703125 198.9999847412109 C 0.20001220703125 212.4884338378906 1.55889892578125 225.9683837890625 4.2388916015625 239.0653381347656 C 6.850799560546875 251.829345703125 10.74813842773438 264.3844604492188 15.82260131835938 276.3818359375 C 20.80499267578125 288.1615600585938 26.9718017578125 299.5230407714844 34.15179443359375 310.1507873535156 C 41.26361083984375 320.6776428222656 49.43099975585938 330.5766296386719 58.42718505859375 339.5727844238281 C 67.42333984375 348.5689697265625 77.32235717773438 356.7363891601562 87.84921264648438 363.8482055664062 C 98.47695922851562 371.0281982421875 109.8384399414062 377.1949768066406 121.6181640625 382.1773986816406 C 133.6155395507812 387.2518310546875 146.170654296875 391.1492004394531 158.9346466064453 393.7610778808594 C 172.0316009521484 396.4411010742188 185.5115509033203 397.7999877929688 199 397.7999877929688 C 212.4884490966797 397.7999877929688 225.9683990478516 396.4411010742188 239.0653533935547 393.7610778808594 C 251.829345703125 391.1492004394531 264.3844604492188 387.2518310546875 276.3818359375 382.1773986816406 C 288.1615600585938 377.1949768066406 299.5230407714844 371.0281982421875 310.1508178710938 363.8482055664062 C 320.6776428222656 356.7363891601562 330.57666015625 348.5689697265625 339.5728149414062 339.5727844238281 C 348.5690002441406 330.5766296386719 356.7363891601562 320.6776428222656 363.8482055664062 310.1507873535156 C 371.0281982421875 299.5230407714844 377.1950073242188 288.1615600585938 382.1773986816406 276.3818359375 C 387.2518615722656 264.3844604492188 391.1492004394531 251.829345703125 393.7611083984375 239.0653381347656 C 396.4411010742188 225.9683837890625 397.7999877929688 212.4884338378906 397.7999877929688 198.9999847412109 C 397.7999877929688 185.0053863525391 396.338134765625 171.0301513671875 393.4549865722656 157.4624938964844 C 390.6477355957031 144.251953125 386.46435546875 131.2864990234375 381.02099609375 118.9263305664062 C 375.6775512695312 106.7929992675781 369.0758972167969 95.14028930664062 361.3994140625 84.29193115234375 C 353.7908020019531 73.53958129882812 345.0741577148438 63.50277709960938 335.4915466308594 54.46038818359375 C 333.4447937011719 52.529052734375 328.1080017089844 50.743896484375 319.6293334960938 49.15447998046875 C 311.6850891113281 47.66534423828125 301.0877685546875 46.36822509765625 288.1317138671875 45.29934692382812 C 263.7750854492188 43.28988647460938 232.1618499755859 42.1832275390625 199.1154479980469 42.1832275390625 M 199.1154479980469 41.9832763671875 C 263.1347045898438 41.9832763671875 327.0122985839844 46.18414306640625 335.6287841796875 54.31494140625 C 374.0011901855469 90.52413940429688 398 141.9595031738281 398 198.9999847412109 C 398 308.9046325683594 308.9046630859375 398 199 398 C 89.0953369140625 398 0 308.9046325683594 0 198.9999847412109 C 0 142.3990783691406 23.63031005859375 91.31735229492188 61.78054809570312 54.87515258789062 C 70.87252807617188 46.19009399414062 135.0649108886719 41.9832763671875 199.1154479980469 41.9832763671875 Z" stroke="none" fill="#e22b36"/>
  </g>
</svg>
