<svg xmlns="http://www.w3.org/2000/svg" width="209" height="31" viewBox="0 0 209 31">
  <g id="Group_109860" data-name="Group 109860" transform="translate(-113 -188)">
    <text id="_15_days_free_trial" data-name="15 days free trial" transform="translate(142 211)" fill="#00ba00" font-size="22" font-family="Poppins-Medium, Poppins" font-weight="500"><tspan x="0" y="0">15 days free trial</tspan></text>
    <g id="Layer_11" transform="translate(111.91 192.91)">
      <path id="Path_126222" data-name="Path 126222" d="M6.856,25.018A8.569,8.569,0,0,1,3.634,26a8.586,8.586,0,0,1,.984-3.223.628.628,0,1,0-1.09-.626,10.116,10.116,0,0,0-1.2,4.524.628.628,0,0,0,.628.628,10.116,10.116,0,0,0,4.524-1.2.629.629,0,0,0-.626-1.091Z" transform="translate(-0.374 -6.26)" fill="#00ba00"/>
      <path id="Path_126223" data-name="Path 126223" d="M21.912,2.616a1.486,1.486,0,0,0-.439-1.089,1.587,1.587,0,0,0-1.087-.436A17.083,17.083,0,0,0,9.511,5.609,6.745,6.745,0,0,0,6.62,4.96c-1.332.171-3.3,1.984-5.229,3.918a1.033,1.033,0,0,0,.418,1.713l3.065.985c-.231.422-.459.853-.679,1.309a1.5,1.5,0,0,0,.292,1.71l3.919,3.919a1.5,1.5,0,0,0,1.711.293c.455-.22.887-.448,1.307-.678l.985,3.065a1.029,1.029,0,0,0,.742.691,1.057,1.057,0,0,0,.246.029,1.023,1.023,0,0,0,.725-.3c1.934-1.928,3.747-3.9,3.917-5.227a6.7,6.7,0,0,0-.649-2.892A17.087,17.087,0,0,0,21.912,2.616ZM2.541,9.506c1.023-1.019,3.245-3.172,4.239-3.3a4.462,4.462,0,0,1,1.728.367,22.521,22.521,0,0,0-2.987,3.889Zm7.031,8.168a.244.244,0,0,1-.275-.049L5.377,13.7a.244.244,0,0,1-.048-.275C10.21,3.318,18.106,2.391,20.411,2.348h.006a.233.233,0,0,1,.17.069.241.241,0,0,1,.071.176C20.612,4.9,19.684,12.793,9.572,17.674ZM16.8,16.223c-.128.994-2.281,3.216-3.3,4.239l-.958-2.98a22.482,22.482,0,0,0,3.891-2.987A4.428,4.428,0,0,1,16.8,16.223Z" fill="#00ba00"/>
      <path id="Path_126224" data-name="Path 126224" d="M22.182,11.279a2.642,2.642,0,0,0,0-3.73,2.7,2.7,0,0,0-3.73,0,2.638,2.638,0,0,0,3.73,3.73Zm-.89-.889a1.411,1.411,0,0,1-1.952,0,1.38,1.38,0,1,1,1.952,0Z" transform="translate(-5.006 -1.724)" fill="#00ba00"/>
    </g>
  </g>
</svg>
