<svg xmlns="http://www.w3.org/2000/svg" width="20.829" height="16.05" viewBox="0 0 20.829 16.05">
  <g id="Layer_1" transform="translate(-1 -4.441)">
    <g id="Group_109256" data-name="Group 109256" transform="translate(1 4.441)">
      <g id="Group_109255" data-name="Group 109255">
        <path id="Path_125733" data-name="Path 125733" d="M2.276,15.922,1.009,7.687A.687.687,0,0,1,2.1,7.032L6.047,9.993A.943.943,0,0,0,7.4,9.762l3.286-4.93a.877.877,0,0,1,1.46,0l3.286,4.93a.943.943,0,0,0,1.351.231l3.947-2.961a.687.687,0,0,1,1.091.654l-1.267,8.236Z" transform="translate(-1 -4.441)" fill="#fc9c00"/>
        <path id="Path_125734" data-name="Path 125734" d="M20.162,26.217H3.79a.953.953,0,0,1-.953-.953V23.171H21.115v2.093A.953.953,0,0,1,20.162,26.217Z" transform="translate(-1.562 -10.167)" fill="#fc9c00"/>
      </g>
    </g>
  </g>
</svg>
