<svg xmlns="http://www.w3.org/2000/svg" width="344" height="55" viewBox="0 0 344 55">
  <g id="Group_65621" data-name="Group 65621" transform="translate(-199 21292.809)">
    <path id="Path_106667" data-name="Path 106667" d="M-218.343-20089.18s51.851-38.99,82.71-23.037,74.1-20.363,102.652-6.088,42.614,14.275,65.916-6.3,39.256-10.707,58.778,10.5,22.042,25.191,22.042,25.191" transform="translate(423.218 -1154)" fill="none" stroke="#fe4a55" stroke-width="1"/>
    <g id="Ellipse_1197" data-name="Ellipse 1197" transform="translate(199 -21244.809)" fill="#fff" stroke="#fe4a55" stroke-width="1">
      <circle cx="3.5" cy="3.5" r="3.5" stroke="none"/>
      <circle cx="3.5" cy="3.5" r="3" fill="none"/>
    </g>
    <g id="Ellipse_1198" data-name="Ellipse 1198" transform="translate(220 -21258.809)" fill="#fff" stroke="#fe4a55" stroke-width="1">
      <circle cx="3.5" cy="3.5" r="3.5" stroke="none"/>
      <circle cx="3.5" cy="3.5" r="3" fill="none"/>
    </g>
    <g id="Ellipse_1204" data-name="Ellipse 1204" transform="translate(264 -21272.809)" fill="#fff" stroke="#fe4a55" stroke-width="1">
      <circle cx="3.5" cy="3.5" r="3.5" stroke="none"/>
      <circle cx="3.5" cy="3.5" r="3" fill="none"/>
    </g>
    <g id="Ellipse_1199" data-name="Ellipse 1199" transform="translate(312 -21265.809)" fill="#fff" stroke="#fe4a55" stroke-width="1">
      <circle cx="3.5" cy="3.5" r="3.5" stroke="none"/>
      <circle cx="3.5" cy="3.5" r="3" fill="none"/>
    </g>
    <g id="Ellipse_1200" data-name="Ellipse 1200" transform="translate(367 -21278.809)" fill="#fff" stroke="#fe4a55" stroke-width="1">
      <ellipse cx="3.5" cy="3" rx="3.5" ry="3" stroke="none"/>
      <ellipse cx="3.5" cy="3" rx="3" ry="2.5" fill="none"/>
    </g>
    <g id="Ellipse_1201" data-name="Ellipse 1201" transform="translate(424 -21265.809)" fill="#fff" stroke="#fe4a55" stroke-width="1">
      <circle cx="3.5" cy="3.5" r="3.5" stroke="none"/>
      <circle cx="3.5" cy="3.5" r="3" fill="none"/>
    </g>
    <g id="Ellipse_1213" data-name="Ellipse 1213" transform="translate(476 -21292.809)" fill="#fff" stroke="#fe4a55" stroke-width="1">
      <circle cx="3.5" cy="3.5" r="3.5" stroke="none"/>
      <circle cx="3.5" cy="3.5" r="3" fill="none"/>
    </g>
    <g id="Ellipse_1203" data-name="Ellipse 1203" transform="translate(536 -21244.809)" fill="#fff" stroke="#fe4a55" stroke-width="1">
      <circle cx="3.5" cy="3.5" r="3.5" stroke="none"/>
      <circle cx="3.5" cy="3.5" r="3" fill="none"/>
    </g>
  </g>
</svg>
