<svg xmlns="http://www.w3.org/2000/svg" width="28.333" height="18.394" viewBox="0 0 28.333 18.394">
  <path id="ic_group_24px" d="M19.636,12.454a3.727,3.727,0,1,0-3.727-3.727A3.712,3.712,0,0,0,19.636,12.454Zm-9.939,0A3.727,3.727,0,1,0,5.97,8.727,3.712,3.712,0,0,0,9.7,12.454Zm0,2.485C6.8,14.939,1,16.393,1,19.288v3.106H18.394V19.288C18.394,16.393,12.592,14.939,9.7,14.939Zm9.939,0c-.36,0-.77.025-1.205.062a5.243,5.243,0,0,1,2.448,4.286v3.106h7.454V19.288C28.333,16.393,22.531,14.939,19.636,14.939Z" transform="translate(-0.5 -4.5)" fill="none" stroke="#212189" stroke-width="1"/>
</svg>
