<svg xmlns="http://www.w3.org/2000/svg" xmlns:xlink="http://www.w3.org/1999/xlink" width="189.558" height="37.5" viewBox="0 0 189.558 37.5">
  <defs>
    <linearGradient id="linear-gradient" y1="0.5" x2="1" y2="0.5" gradientUnits="objectBoundingBox">
      <stop offset="0" stop-color="#f44852"/>
      <stop offset="0.021" stop-color="#e63a46"/>
      <stop offset="0.059" stop-color="#d52a38"/>
      <stop offset="0.105" stop-color="#c91e2e"/>
      <stop offset="0.17" stop-color="#c21728"/>
      <stop offset="0.347" stop-color="#c11627"/>
    </linearGradient>
    <linearGradient id="linear-gradient-2" y1="0.5" x2="1" y2="0.5" gradientUnits="objectBoundingBox">
      <stop offset="0" stop-color="#f44852"/>
      <stop offset="0.09" stop-color="#e23643"/>
      <stop offset="0.22" stop-color="#cf2433"/>
      <stop offset="0.355" stop-color="#c4192a"/>
      <stop offset="0.502" stop-color="#c11627"/>
    </linearGradient>
    <linearGradient id="linear-gradient-3" x1="-0.339" y1="-1.288" x2="0.658" y2="-1.288" gradientUnits="objectBoundingBox">
      <stop offset="0" stop-color="#262261"/>
      <stop offset="1" stop-color="#212189"/>
    </linearGradient>
    <linearGradient id="linear-gradient-4" y1="0.5" x2="1" y2="0.5" gradientUnits="objectBoundingBox">
      <stop offset="0" stop-color="#f44852"/>
      <stop offset="0.775" stop-color="#c11627"/>
    </linearGradient>
  </defs>
  <g id="Group_65227" data-name="Group 65227" transform="translate(-263.269 -1493.912)">
    <g id="Group_65226" data-name="Group 65226" transform="translate(263.269 1496.656)">
      <path id="Path_106455" data-name="Path 106455" d="M271.823,1554.257l1.956,1.861-.416,1.625-1.856-1.228-.013,1.355-.451.117a10.614,10.614,0,0,0,.127-2.812C270.987,1554.1,271.823,1554.257,271.823,1554.257Z" transform="translate(-267.913 -1532.106)" fill="url(#linear-gradient)"/>
      <path id="Path_106456" data-name="Path 106456" d="M269.652,1530.361a4.47,4.47,0,0,0-2.562,5.083c.044.2.176.713.225.918a13.06,13.06,0,0,0,1.067,2.31l-.682-1.086c-1.418-2.34-1.783-5.35.214-7.512a5.428,5.428,0,0,1,1.1-.978l.634,1.265Z" transform="translate(-265.215 -1517.078)" fill="#161e5d"/>
      <ellipse id="Ellipse_1089" data-name="Ellipse 1089" cx="1.239" cy="1.26" rx="1.239" ry="1.26" transform="translate(1.865 20.569) rotate(-1.774)" fill="url(#linear-gradient-2)"/>
      <path id="Path_106457" data-name="Path 106457" d="M323.986,1515l-32.016,13.735-28.7-17.717,30.386-11.775Z" transform="translate(-263.269 -1499.244)" fill="url(#linear-gradient-3)"/>
      <path id="Path_106458" data-name="Path 106458" d="M323.968,1516.7,299.362,1526.9l-17.293-9.527-5.969-3.425,24.9-9.627Z" transform="translate(-270.934 -1502.278)" fill="url(#linear-gradient-4)"/>
      <g id="Group_65225" data-name="Group 65225" transform="translate(13.158 5.167)">
        <path id="Path_106459" data-name="Path 106459" d="M309.726,1520.747l-9.7,3.926-4.077-2.358,9.683-3.818Z" transform="translate(-295.953 -1515.913)" fill="#fff"/>
        <path id="Path_106460" data-name="Path 106460" d="M329.106,1512.078l-4.937,1.947,11.117,6.064-4.435,1.879,4.368,2.438,9.353-4.077-4.3-2.29.026-.011Z" transform="translate(-312.81 -1512.078)" fill="#fff"/>
        <path id="Path_106461" data-name="Path 106461" d="M319.288,1525.955l-9.7,3.962.724.419-.007,0,9.254,5.352,5.211-2.271L319,1530.173l4.509-1.893Z" transform="translate(-304.1 -1520.369)" fill="#fff"/>
      </g>
      <ellipse id="Ellipse_1090" data-name="Ellipse 1090" cx="1.327" cy="0.925" rx="1.327" ry="0.925" transform="translate(41.002 20.733) rotate(-18.439)" fill="#fff"/>
      <path id="Path_106462" data-name="Path 106462" d="M327.4,1548.33l-.881,4.639s-12.327,2.587-18.206,8.739c0,0-6.807-7.989-16.155-10.761l-1.38-5.326,17.446,10.631Z" transform="translate(-279.703 -1526.951)" fill="url(#linear-gradient-4)"/>
    </g>
    <text id="FastLearner" transform="translate(328.827 1521.912)" fill="#212189" font-size="26" font-family="SegoeUI, Segoe UI" letter-spacing="0.01em"><tspan x="0" y="0">Fast</tspan><tspan y="0" letter-spacing="-0.05em">Learner</tspan></text>
  </g>
</svg>
