<svg xmlns="http://www.w3.org/2000/svg" width="65.525" height="56.35" viewBox="0 0 65.525 56.35">
  <g id="Group_63903" data-name="Group 63903" transform="translate(1100.254 -1393.355)">
    <path id="Path_105213" data-name="Path 105213" d="M-885.918,1405.6a4.9,4.9,0,0,1-1.181.758c-1.594.462-3.209.853-4.823,1.244a.616.616,0,0,0-.55.574c-.259,1.427-.6,2.84-.833,4.271a4.1,4.1,0,0,1-1.676,2.7,11.3,11.3,0,0,1-5.5,2.089,16.824,16.824,0,0,1-13.383-3.748,8.748,8.748,0,0,1-2.429-3.019,3.747,3.747,0,0,1-.281-2.433c.293-1.421.534-2.853.857-4.267a.813.813,0,0,0-.415-.987c-1.341-.947-2.653-1.937-3.987-2.894a1.154,1.154,0,0,1-.612-1.228c.111-.546.539-.727,1.013-.847q8.636-2.192,17.269-4.395a1.678,1.678,0,0,1,1.54.326q7.111,5.236,14.234,10.453a6.66,6.66,0,0,1,.755.764Zm-3.453-.784a2.165,2.165,0,0,0-.215-.224q-6.086-4.465-12.182-8.915a.934.934,0,0,0-.69-.1c-3.182.786-6.359,1.593-9.536,2.4-1.751.443-3.5.891-5.322,1.355.152.139.237.23.336.3q6.011,4.4,12.033,8.793a1.086,1.086,0,0,0,.8.132c2.831-.7,5.655-1.423,8.481-2.141Zm-24.393-.262c-.222,1.13-.361,2.212-.658,3.247a2.991,2.991,0,0,0,.8,3.046,10.28,10.28,0,0,0,.753.784,14.628,14.628,0,0,0,11.337,3.646,10.344,10.344,0,0,0,4.679-1.362c.526-.324,1.188-.759,1.35-1.28a43.887,43.887,0,0,0,.93-4.355c-.231.048-.351.069-.468.1-3.031.767-6.066,1.52-9.089,2.315a1.818,1.818,0,0,1-1.713-.34c-2.42-1.817-4.867-3.6-7.306-5.387C-913.332,1404.836-913.526,1404.717-913.764,1404.558Z" transform="translate(-148.811)" fill="#262261"/>
    <path id="Path_105214" data-name="Path 105214" d="M-1094.111,1517.813v-1.726q0-14.9,0-29.809c0-2.2,1.152-3.343,3.36-3.343H-1069c.149,0,.3-.005.448,0a1.02,1.02,0,0,1,1.052.984,1.039,1.039,0,0,1-.991,1.055,6.267,6.267,0,0,1-.639.01h-21.561c-1.153,0-1.375.224-1.375,1.384q0,15.032,0,30.065c0,1.131.249,1.377,1.4,1.377h44.274c1.184,0,1.422-.239,1.422-1.42q0-11.346,0-22.693a3.837,3.837,0,0,1,.015-.64.956.956,0,0,1,.941-.882.964.964,0,0,1,1.062.817,2.659,2.659,0,0,1,.028.638q0,11.443,0,22.885c0,.4-.04.806-.067,1.294h.656c1.472,0,2.943-.008,4.415,0a1.031,1.031,0,0,1,1.141,1.155,4.753,4.753,0,0,1-4.827,5h-53.807a4.749,4.749,0,0,1-4.84-4.981,1.039,1.039,0,0,1,1.187-1.171c1.45-.008,2.9,0,4.35,0Zm55.118,2.1h-59.048a2.422,2.422,0,0,0,2.62,2h53.809A2.422,2.422,0,0,0-1038.992,1519.913Z" transform="translate(0 -74.264)" fill="#262261"/>
    <path id="Path_105215" data-name="Path 105215" d="M-956.8,1544.674q0-4.357,0-8.714c0-1.354.684-1.77,1.886-1.14q8.347,4.373,16.691,8.752c.468.245.915.5.909,1.116s-.456.865-.923,1.109q-8.347,4.372-16.692,8.75c-1.194.626-1.87.209-1.872-1.16Q-956.8,1549.031-956.8,1544.674Zm2.108-7.422v14.864l14.159-7.435Z" transform="translate(-118.929 -117.041)" fill="#fe4a55"/>
  </g>
</svg>
