<svg xmlns="http://www.w3.org/2000/svg" width="51.407" height="48.542" viewBox="0 0 51.407 48.542">
  <g id="Group_65269" data-name="Group 65269" transform="translate(-271.519 -1252.295)">
    <path id="Path_106481" data-name="Path 106481" d="M271.519,1275.064c.174-.057.118-.226.147-.34a7,7,0,0,1,6.933-5.568c.326-.006.415-.1.451-.416a17.729,17.729,0,0,1,7.263-12.793,18.233,18.233,0,0,1,27.942,8.011,16.761,16.761,0,0,1,1.139,4.765c.026.3.083.427.433.434a7,7,0,0,1,7.1,7.3c0,1.324.006,2.649,0,3.973a7,7,0,0,1-7,7.04q-.979.01-1.958,0a1.559,1.559,0,0,1-1.677-1.7c0-5.03.073-10.061-.02-15.089-.12-6.454-3.145-11.183-8.992-13.86a15.024,15.024,0,0,0-20.931,11.393,17.006,17.006,0,0,0-.193,2.654q.005,7.318,0,14.636c0,1.321-.379,1.855-1.667,1.981a8.123,8.123,0,0,1-6.8-1.961,6.906,6.906,0,0,1-2-3.529c-.037-.164.016-.377-.17-.495Z" transform="translate(0)" fill="#fff"/>
    <path id="Path_106482" data-name="Path 106482" d="M429.572,1572.359c-.669,0-1.339.012-2.008,0a3.215,3.215,0,0,1-.049-6.429q2.056-.055,4.116,0a3.215,3.215,0,0,1-.051,6.429C430.91,1572.371,430.241,1572.359,429.572,1572.359Z" transform="translate(-132.352 -271.527)" fill="#fff"/>
    <path id="Path_106483" data-name="Path 106483" d="M333.038,1537.373a10.955,10.955,0,0,1-10.7-8.67c-.088-.4-.043-.578.428-.516.427.056.982-.125,1.265.087s.267.784.407,1.191a9.122,9.122,0,0,0,8.439,6.094c.351,0,.7.016,1.054,0,.262-.014.37.055.314.335a3.142,3.142,0,0,0,0,1.2c.043.227-.036.3-.26.286C333.674,1537.361,333.356,1537.373,333.038,1537.373Z" transform="translate(-43.971 -238.857)" fill="#fff"/>
  </g>
</svg>
