<svg xmlns="http://www.w3.org/2000/svg" width="18.065" height="15.273" viewBox="0 0 18.065 15.273">
  <path id="Path_106222" data-name="Path 106222" d="M2045.6,342.783a1.948,1.948,0,0,0,.1-.524,4.7,4.7,0,0,1,3.922-3.844,5.625,5.625,0,0,1,3.661.727,7.007,7.007,0,0,1,1.235.873c.09.08.136.077.227,0a6.732,6.732,0,0,1,3.021-1.548,4.765,4.765,0,0,1,5.837,4.055,6,6,0,0,1-.781,3.844,13.639,13.639,0,0,1-2.685,3.337,29.1,29.1,0,0,1-5.127,3.8.673.673,0,0,1-.758,0,27.638,27.638,0,0,1-5.79-4.461,11.19,11.19,0,0,1-2.422-3.519,6.288,6.288,0,0,1-.4-1.491c0-.032.008-.074-.04-.086Zm4.663-3.3a3.438,3.438,0,0,0-3.157,2.088,4.359,4.359,0,0,0,.1,3.8,11,11,0,0,0,2.245,3.071,26.33,26.33,0,0,0,5.079,3.919.177.177,0,0,0,.218-.012,28.223,28.223,0,0,0,3.946-2.86,14.288,14.288,0,0,0,3-3.438,4.942,4.942,0,0,0,.769-3.479,3.533,3.533,0,0,0-1.841-2.646,3.926,3.926,0,0,0-3.307-.153,6.065,6.065,0,0,0-2.209,1.441.584.584,0,0,1-.947.01c-.179-.17-.36-.339-.552-.493A5.288,5.288,0,0,0,2050.268,339.48Z" transform="translate(-2045.605 -338.349)" fill="#212189"/>
</svg>
