<svg xmlns="http://www.w3.org/2000/svg" width="50" height="50" viewBox="0 0 50 50">
  <g id="Group_66501" data-name="Group 66501" transform="translate(23278.5 16948.5)">
    <g id="Rectangle_29353" data-name="Rectangle 29353" transform="translate(-23278.5 -16948.5)" fill="none" stroke="#fe4a55" stroke-width="0.5">
      <rect width="50" height="50" rx="4" stroke="none"/>
      <rect x="0.25" y="0.25" width="49.5" height="49.5" rx="3.75" fill="none"/>
    </g>
    <g id="Group_66500" data-name="Group 66500" transform="translate(-25310.578 -17271.047)">
      <path id="Path_106222" data-name="Path 106222" d="M2045.605,343.98a2.5,2.5,0,0,0,.13-.665,5.972,5.972,0,0,1,4.981-4.882,7.144,7.144,0,0,1,4.649.923,8.911,8.911,0,0,1,1.568,1.108c.114.1.173.1.287,0a8.548,8.548,0,0,1,3.836-1.966,6.052,6.052,0,0,1,7.414,5.15,7.619,7.619,0,0,1-.991,4.882,17.324,17.324,0,0,1-3.41,4.238,36.949,36.949,0,0,1-6.511,4.83.855.855,0,0,1-.962,0,35.087,35.087,0,0,1-7.353-5.666,14.211,14.211,0,0,1-3.076-4.469,7.981,7.981,0,0,1-.511-1.894c-.006-.04.01-.094-.051-.109Zm5.921-4.194a4.367,4.367,0,0,0-4.009,2.652,5.536,5.536,0,0,0,.132,4.823,13.965,13.965,0,0,0,2.851,3.9,33.438,33.438,0,0,0,6.45,4.977.225.225,0,0,0,.277-.015,35.845,35.845,0,0,0,5.012-3.632,18.149,18.149,0,0,0,3.811-4.366,6.279,6.279,0,0,0,.977-4.418,4.487,4.487,0,0,0-2.338-3.361,4.985,4.985,0,0,0-4.2-.195,7.7,7.7,0,0,0-2.806,1.831.742.742,0,0,1-1.2.013c-.228-.216-.457-.431-.7-.626A6.715,6.715,0,0,0,2051.527,339.786Z" transform="translate(0 0)" fill="#fe4a55"/>
    </g>
    <path id="ic_favorite_24px" d="M13.47,22.4,11.807,21C5.9,16.065,2,12.809,2,8.814A6.017,6.017,0,0,1,8.309,3,7.121,7.121,0,0,1,13.47,5.209,7.121,7.121,0,0,1,18.632,3a6.017,6.017,0,0,1,6.309,5.814c0,4-3.9,7.251-9.807,12.2Z" transform="translate(-23266.971 -16935.699)" fill="#fe4a55"/>
  </g>
</svg>
