<svg xmlns="http://www.w3.org/2000/svg" width="109" height="70.221" viewBox="0 0 109 70.221">
  <g id="Group_65592" data-name="Group 65592" transform="translate(602.92 -209.279)" opacity="0.44">
    <path id="Path_106668" data-name="Path 106668" d="M-602.92,212.987c.224-.041.213-.22.27-.358.893-2.14,2.684-3.2,5.23-3.341.283-.016.567,0,.851,0q48.156,0,96.313,0a7.644,7.644,0,0,1,3.494.626,4.735,4.735,0,0,1,2.8,3.741,6.89,6.89,0,0,1,.037.933q0,29.809,0,59.619a4.914,4.914,0,0,1-3.913,5.069,8.356,8.356,0,0,1-2.1.23q-48.476,0-96.951,0c-3.006,0-4.662-1.018-5.823-3.522-.034-.073-.138-.12-.209-.18Zm3.627,37.316a2.839,2.839,0,0,0,.257-.139q6.818-5.975,13.635-11.95a6.077,6.077,0,0,1,8.6.025q8.325,7.3,16.627,14.612c.653.579.978.65,1.681.029q14.565-12.853,29.194-25.651c2.97-2.606,6.019-2.611,8.977-.016q10.917,9.579,21.836,19.158c.258.227.537.436.942.763v-.994q0-15.655,0-31.31c0-1.875-.554-2.353-2.733-2.353h-96.224c-2.282,0-2.787.453-2.787,2.492q0,17.151,0,34.3Zm19.306,25.717.2.285h.613q39.54,0,79.08,0c1.923,0,2.538-.548,2.539-2.241,0-7.165-.007-14.33.015-21.495a1.761,1.761,0,0,0-.685-1.462q-12.3-10.747-24.557-21.524c-1.744-1.53-2.315-1.534-4.03-.029q-26.121,22.926-52.246,45.848A8.189,8.189,0,0,1-579.986,276.02Zm-19.306-11.107q0,4.579,0,9.158c0,1.688.617,2.231,2.547,2.233,3.548,0,7.1-.015,10.642.016a2.143,2.143,0,0,0,1.567-.6q10.972-9.66,21.984-19.284c.577-.5.548-.737-.012-1.224q-8.429-7.333-16.8-14.713c-1.323-1.159-2.174-1.159-3.5,0q-7.9,6.936-15.814,13.865a1.636,1.636,0,0,0-.621,1.388C-599.28,258.808-599.292,261.861-599.292,264.913Z" fill="#212189"/>
    <path id="Path_106669" data-name="Path 106669" d="M-465.56,273a8.054,8.054,0,0,1-7.993-7.979,8.088,8.088,0,0,1,8-7.986,8.06,8.06,0,0,1,7.986,7.988A8.029,8.029,0,0,1-465.56,273Zm5.308-7.893a5.344,5.344,0,0,0-5.2-5.406,5.39,5.39,0,0,0-5.433,5.28,5.347,5.347,0,0,0,5.188,5.342A5.3,5.3,0,0,0-460.251,265.11Z" transform="translate(-92.557 -35.882)" fill="#212189"/>
  </g>
</svg>
