<svg id="Component_175_2" data-name="Component 175 – 2" xmlns="http://www.w3.org/2000/svg" width="14.328" height="20" viewBox="0 0 14.328 20">
    <path id="Path_106474" data-name="Path 106474" d="M1774.925,1794.708a.4.4,0,0,0,.188-.118c.631-.5,1.264-1,1.888-1.513a.553.553,0,0,1,.424-.13c.818.054,1.637.094,2.455.144.13.008.169,0,.12-.15-.219-.658-.425-1.322-.636-1.983q-.429-1.344-.862-2.687c-.017-.051,0-.163-.1-.134-.148.046-.308.064-.406.231-.3.51-.619,1.007-.924,1.513a.2.2,0,0,1-.232.107c-.567-.077-1.135-.144-1.7-.21a.405.405,0,0,0-.3.037c-.368.244-.74.483-1.116.713-.1.063-.1.119-.068.22.163.493.317.988.476,1.483Q1774.528,1793.469,1774.925,1794.708Zm-3.47.026c.431-1.351.851-2.674,1.279-3.995a.153.153,0,0,0-.079-.216c-.342-.212-.684-.426-1.018-.651a.54.54,0,0,0-.4-.094c-.574.076-1.149.14-1.722.215a.16.16,0,0,1-.188-.086c-.152-.258-.311-.51-.468-.765-.167-.271-.338-.539-.5-.813a.451.451,0,0,0-.386-.187c-.11-.011-.094.148-.12.231-.35,1.08-.693,2.162-1.038,3.244-.156.487-.313.974-.477,1.483l1.913-.108a3.4,3.4,0,0,1,.912-.034c.295.067.5.351.746.542C1770.419,1793.9,1770.924,1794.309,1771.455,1794.733Z" transform="translate(-1766.029 -1774.733)" fill="#fff"/>
    <path id="Path_106475" data-name="Path 106475" d="M1767.64,1531.476c.444.336.932.606,1.4.913.062.042.126.014.189.006.478-.057.956-.113,1.432-.177a.2.2,0,0,1,.231.122c.244.407.5.807.742,1.214a.4.4,0,0,0,.232.186c.456.151.907.314,1.364.461a.2.2,0,0,1,.16.2c.045.5.1,1,.151,1.495a.3.3,0,0,0,.117.192c.343.338.684.678,1.032,1.011a.2.2,0,0,1,.058.251c-.167.443-.321.891-.489,1.334a.439.439,0,0,0,0,.334c.164.437.317.879.481,1.316a.21.21,0,0,1-.058.267c-.341.322-.668.658-1,.984a.438.438,0,0,0-.147.3c-.04.479-.1.957-.145,1.437-.01.121-.079.148-.167.178-.455.154-.908.314-1.364.461a.37.37,0,0,0-.218.175c-.249.411-.505.818-.752,1.23a.2.2,0,0,1-.231.11c-.483-.068-.968-.116-1.452-.177a.355.355,0,0,0-.254.064c-.4.262-.813.514-1.214.779a.2.2,0,0,1-.259,0c-.4-.261-.8-.51-1.2-.769a.4.4,0,0,0-.291-.071c-.484.062-.969.112-1.452.178a.171.171,0,0,1-.2-.1c-.245-.406-.5-.805-.742-1.214a.488.488,0,0,0-.294-.229c-.444-.145-.884-.3-1.328-.447a.187.187,0,0,1-.15-.19c-.045-.5-.1-1-.151-1.495a.3.3,0,0,0-.114-.193c-.343-.338-.682-.681-1.031-1.013a.211.211,0,0,1-.058-.267c.164-.437.317-.879.481-1.316a.44.44,0,0,0,0-.334c-.167-.443-.322-.891-.489-1.334a.2.2,0,0,1,.058-.251c.349-.333.688-.675,1.034-1.009a.368.368,0,0,0,.119-.252c.045-.492.1-.983.15-1.475.01-.114.078-.132.16-.159.449-.152.9-.31,1.345-.458a.42.42,0,0,0,.25-.193c.24-.4.5-.794.73-1.2a.241.241,0,0,1,.281-.134c.47.063.942.118,1.413.18a.3.3,0,0,0,.221-.04c.431-.278.864-.553,1.3-.831a.244.244,0,0,0,.046-.055Zm5.014,7.383a5.053,5.053,0,1,0-5.073,5.043A5.062,5.062,0,0,0,1772.654,1538.859Z" transform="translate(-1760.438 -1531.476)" fill="#fff"/>
    <path id="Path_106476" data-name="Path 106476" d="M1907.437,1794.708q-.4-1.238-.793-2.477c-.158-.494-.312-.99-.475-1.483-.034-.1-.035-.157.068-.22.376-.231.748-.47,1.116-.713a.405.405,0,0,1,.3-.037c.568.066,1.137.133,1.7.21a.2.2,0,0,0,.232-.107c.3-.506.625-1,.924-1.513.1-.167.257-.185.406-.231.094-.029.08.083.1.134q.435,1.343.862,2.687c.211.661.417,1.324.636,1.983.048.146.01.158-.12.15-.818-.05-1.637-.09-2.455-.144a.553.553,0,0,0-.424.13c-.624.51-1.257,1.01-1.888,1.513A.4.4,0,0,1,1907.437,1794.708Z" transform="translate(-1898.541 -1774.733)" fill="#fff"/>
    <path id="Path_106477" data-name="Path 106477" d="M1771.455,1794.887c-.531-.424-1.036-.833-1.547-1.233-.244-.191-.452-.475-.746-.542a3.408,3.408,0,0,0-.912.034l-1.913.108c.164-.51.321-1,.477-1.483.345-1.082.688-2.164,1.038-3.244.027-.083.011-.242.12-.231a.451.451,0,0,1,.386.187c.162.274.333.542.5.813.157.254.316.507.468.764a.16.16,0,0,0,.188.087c.574-.075,1.149-.14,1.722-.216a.542.542,0,0,1,.4.095c.334.225.676.438,1.018.65a.153.153,0,0,1,.079.217C1772.306,1792.214,1771.886,1793.537,1771.455,1794.887Z" transform="translate(-1766.029 -1774.888)" fill="#fff"/>
    <path id="Path_106478" data-name="Path 106478" d="M1831.108,1602.154a3.88,3.88,0,1,1-3.876-3.889A3.878,3.878,0,0,1,1831.108,1602.154Z" transform="translate(-1820.064 -1594.778)" fill="#fff"/>
  </svg>
  