<svg id="Component_170_2" data-name="Component 170 – 2" xmlns="http://www.w3.org/2000/svg" width="21" height="21" viewBox="0 0 21 21">
  <g id="Group_66494" data-name="Group 66494" transform="translate(7.65 4.258)">
    <g id="Group_66493" data-name="Group 66493" transform="translate(0 0)">
      <path id="Path_107066" data-name="Path 107066" d="M202.305,220.8a1.209,1.209,0,0,1-.729-.164.757.757,0,0,1-.209-.622,3.23,3.23,0,0,1,.068-.565,6.229,6.229,0,0,1,.147-.633l.667-2.294a3.474,3.474,0,0,0,.136-.7c0-.254.034-.43.034-.531a1.486,1.486,0,0,0-.526-1.181,2.21,2.21,0,0,0-1.492-.452,3.872,3.872,0,0,0-1.13.186q-.6.186-1.26.446l-.192.746c.13-.045.288-.1.469-.153a1.922,1.922,0,0,1,.531-.079,1.085,1.085,0,0,1,.718.175.82.82,0,0,1,.186.616,2.681,2.681,0,0,1-.062.565q-.059.3-.153.627l-.673,2.306a6.593,6.593,0,0,0-.13.65,4.04,4.04,0,0,0-.04.565,1.475,1.475,0,0,0,.565,1.17,2.261,2.261,0,0,0,1.515.463,3.486,3.486,0,0,0,1.13-.164q.48-.164,1.283-.469l.181-.712a3.121,3.121,0,0,1-.446.147A2.147,2.147,0,0,1,202.305,220.8Z" transform="translate(-197.818 -209.498)" fill="#212189"/>
      <path id="Path_107067" data-name="Path 107067" d="M251.289,128.414a1.719,1.719,0,0,0-2.261,0,1.351,1.351,0,0,0,0,2.046,1.7,1.7,0,0,0,2.261,0,1.357,1.357,0,0,0,0-2.046Z" transform="translate(-246.096 -127.989)" fill="#212189"/>
    </g>
  </g>
  <g id="Ellipse_1292" data-name="Ellipse 1292" fill="none" stroke="#fe4a55" stroke-width="1">
    <circle cx="10.5" cy="10.5" r="10.5" stroke="none"/>
    <circle cx="10.5" cy="10.5" r="10" fill="none"/>
  </g>
</svg>
