<svg xmlns="http://www.w3.org/2000/svg" width="45.666" height="45.666" viewBox="0 0 45.666 45.666">
  <g id="Group_66293" data-name="Group 66293" transform="translate(456.302 -519.884)">
    <path id="Path_106960" data-name="Path 106960" d="M-441.493,565.55H-453.8c-.068-.141-.222-.123-.336-.177a2.225,2.225,0,0,1-1.38-1.922,6.1,6.1,0,0,1-.014-.8.571.571,0,0,0-.233-.532,1.43,1.43,0,0,1-.533-1.173c0-3.581-.016-7.163.009-10.744a5.422,5.422,0,0,1,4.074-5.173c.788-.206,1.589-.363,2.383-.547a.72.72,0,0,0,.358-.136,1.533,1.533,0,0,0-.224-1.255,5.258,5.258,0,0,1-1.938-3.2.554.554,0,0,0-.333-.459,2.2,2.2,0,0,1-1.283-2.031c-.023-.832-.02-1.665,0-2.5a6.838,6.838,0,0,1,5.737-6.539c.3-.046.351-.162.35-.429q-.015-2.786,0-5.572a2.3,2.3,0,0,1,2.472-2.476q15.78,0,31.559,0a3.339,3.339,0,0,1,.664.048,2.38,2.38,0,0,1,1.839,1.823v25.33c-.023.014-.063.023-.069.043a2.433,2.433,0,0,1-2.622,1.68c-4.144-.03-8.289-.012-12.433-.011-.2,0-.391-.073-.394.287a2.471,2.471,0,0,1-1.756,2.458,6.9,6.9,0,0,0-1.364.642c-.349.221-.692.43-.774.907a1.175,1.175,0,0,1-.555.67q-2.4,1.775-4.789,3.557a2.647,2.647,0,0,1-4.128-.938c-.232-.45-.474-.894-.71-1.34l-.091.032v.428c0,2.7-.024,5.408.014,8.111A1.787,1.787,0,0,1-441.493,565.55Zm12.619-44.146h-15.781c-.7,0-.984.247-.987.906-.008,1.887,0,3.775-.009,5.662,0,.272.1.34.35.387a6.684,6.684,0,0,1,5.419,4.7,12.09,12.09,0,0,1,.277,4.683,1.988,1.988,0,0,1-1.23,1.682.549.549,0,0,0-.336.456,4.812,4.812,0,0,1-1.679,2.958,1.329,1.329,0,0,0-.522,1.247c.01.254.077.356.324.42.976.248,1.945.526,2.918.786a5.167,5.167,0,0,1,2.671,1.677.82.82,0,0,0,.719.313c1.515-.014,3.031,0,4.547-.007.758,0,1.549.137,2.174-.477a.079.079,0,0,1,.039-.021c.312-.045.336-.254.331-.519-.013-.8-.019-1.605,0-2.407.008-.311-.062-.417-.4-.46A9.1,9.1,0,0,1-438,535.167a9.122,9.122,0,0,1,10.429-9.857,9.084,9.084,0,0,1,7.492,11.3,8.89,8.89,0,0,1-7.731,6.789c-.265.043-.341.109-.332.373.021.594.037,1.191,0,1.782-.043.649-.008,1.151.759,1.426a3.29,3.29,0,0,0,1.157.3q6.531-.013,13.062-.005c.765,0,1.006-.244,1.006-1.016q0-11.9,0-23.807c0-.818-.236-1.049-1.07-1.049Zm-25.9,33.982c0,1.754.005,3.507-.007,5.262,0,.269.062.363.344.349a12.606,12.606,0,0,1,1.47,0c.382.026.5-.068.5-.478-.022-2.764-.012-5.529-.011-8.295a3.458,3.458,0,0,1,.015-.489.688.688,0,0,1,.644-.631.714.714,0,0,1,.787.452,1.383,1.383,0,0,1,.075.614c0,2.81,0,5.62-.007,8.429,0,.3.065.4.386.4q4.191-.02,8.383,0c.3,0,.366-.088.364-.373-.012-1.933-.007-3.865-.007-5.8,0-.966-.007-1.933,0-2.9a.762.762,0,0,1,.829-.831.856.856,0,0,1,.692.555q1.08,2.043,2.177,4.079a1.125,1.125,0,0,0,1.759.427c1.542-1.137,3.072-2.288,4.614-3.425.187-.137.225-.225.045-.4a12.347,12.347,0,0,1-.85-.914c-.169-.2-.285-.161-.462-.011-.441.374-.9.732-1.353,1.09a1.493,1.493,0,0,1-2.471-.687c-.333-.872-.642-1.753-.987-2.619a3.958,3.958,0,0,0-2.532-2.393c-.318-.107-.491-.091-.64.256a5.971,5.971,0,0,1-1.357,1.913,2.992,2.992,0,0,1-1.075.774c-.561.195-.7.413-.606,1q.338,2.2.671,4.4a1.418,1.418,0,0,1-.645,1.5c-.519.346-1.035.7-1.557,1.036a1.4,1.4,0,0,1-1.666-.023c-.454-.308-.9-.631-1.371-.912a1.583,1.583,0,0,1-.765-1.822c.244-1.435.445-2.875.657-4.314a.675.675,0,0,0-.571-.86,1.932,1.932,0,0,1-.658-.363,6.5,6.5,0,0,1-1.9-2.488c-.14-.33-.284-.317-.55-.187a3.866,3.866,0,0,0-2.354,3.591C-454.81,552-454.777,553.691-454.778,555.387Zm33.486-21.03a7.622,7.622,0,0,0-9.071-7.485,7.607,7.607,0,0,0-6.141,7.306,7.573,7.573,0,0,0,5.949,7.588c.272.063.608.2.815.1s.053-.483.09-.739a.74.74,0,0,1,.7-.683.726.726,0,0,1,.773.541,1.6,1.6,0,0,1,.042.619c-.016.254.049.324.321.284A7.634,7.634,0,0,0-421.292,534.357Zm-25.111,8.359a3.8,3.8,0,0,0,3.786-3.525c.081-.823.111-.855.911-1.053a.728.728,0,0,0,.621-.76.717.717,0,0,0-.646-.733c-.666-.123-.753-.211-.87-.86a.807.807,0,0,0-1.259-.62,4.87,4.87,0,0,1-5.075.01.816.816,0,0,0-1.282.637c-.092.55-.261.719-.822.831a.769.769,0,0,0-.694.74.789.789,0,0,0,.677.765c.7.144.789.245.85.958A3.817,3.817,0,0,0-446.4,542.716Zm-5.3-7.479c.057-.1.095-.163.122-.224a2.325,2.325,0,0,1,3.433-1.139,3.384,3.384,0,0,0,3.513-.015,2.326,2.326,0,0,1,3.4,1.143c.033.074.025.181.155.158a5.34,5.34,0,0,0-5.678-5.372A5.337,5.337,0,0,0-451.7,535.237Zm6.784,19.98c-.069-.443-.142-.9-.211-1.35s-.123-.91-.2-1.362.037-1.106-.28-1.336-.91-.055-1.383-.079c-.228-.011-.291.071-.32.292q-.165,1.255-.377,2.5c-.267,1.565-.271,1.559,1.078,2.376a.338.338,0,0,0,.433-.014c.352-.246.716-.474,1.071-.714C-445,555.462-444.861,555.4-444.918,555.217Zm17.258-6.118a1.093,1.093,0,0,0-.848-1.014,1.1,1.1,0,0,0-1.246.441A8.271,8.271,0,0,1-430.9,550.1c-.418.44-.42.443,0,.884.119.124.2.345.453.151a7.39,7.39,0,0,1,2.087-1.055A1.012,1.012,0,0,0-427.66,549.1Zm-4.13-.3c-1.516,0-2.932,0-4.349,0-.225,0-.191.107-.136.252.292.77.582,1.54.886,2.352l1.594-1.328a1.262,1.262,0,0,1,.774-.4C-432.422,549.676-432.2,549.211-431.79,548.8Zm-11.976,15.232c.253,0,.506.009.759,0,.38-.017.9.168,1.1-.08s.042-.738.066-1.12c.017-.25-.059-.329-.315-.323-.772.018-1.545.007-2.318.007-1.25,0-1.245,0-1.179,1.248.011.212.067.281.281.276C-444.835,564.022-444.3,564.031-443.766,564.031Zm-5.308,0c.253,0,.5.008.756,0,.368-.014.857.161,1.072-.064.232-.243.04-.732.077-1.112.028-.268-.053-.357-.335-.35-.756.022-1.514,0-2.27.011-.383,0-.892-.167-1.113.063-.24.25-.04.761-.079,1.154-.029.277.106.309.334.3C-450.113,564.021-449.593,564.031-449.074,564.031Zm4.182-19.564c.075-.367-.026-.451-.407-.353a5.041,5.041,0,0,1-2.077.044c-.168-.028-.4-.273-.529,0a1.11,1.11,0,0,0,0,.615.66.66,0,0,0,.22.321,1.6,1.6,0,0,0,2.531.03A.62.62,0,0,0-444.891,544.466Zm-4.248,1.416-1.223.273c-.21.047-.1.165-.055.262a5.138,5.138,0,0,0,1.388,1.766c.294.24.479.154.594-.183a3.987,3.987,0,0,1,.452-.959c.1-.144.089-.225-.064-.313a3.342,3.342,0,0,1-.878-.741C-448.985,545.918-449.045,545.851-449.14,545.883Zm5.443.024a.219.219,0,0,0-.21.1c-.272.36-.89.53-.943.869s.357.766.5,1.188c.092.267.287.335.518.154a5.1,5.1,0,0,0,1.408-1.743c.068-.135.058-.221-.1-.263Zm-2.7,3.667c.268,0,.535,0,.8,0,.214,0,.288-.191.207-.285-.413-.473-.445-1.129-.821-1.616-.156-.2-.245-.185-.393.009-.374.488-.411,1.142-.821,1.617-.084.1.018.28.224.276C-446.933,549.569-446.666,549.574-446.4,549.574Zm-6.842,12.938c-.818,0-.818,0-.765.747.043.589.362.785,1.2.776.648-.007.18-.493.324-.712.007-.011,0-.03,0-.044C-452.486,562.511-452.486,562.511-453.241,562.511Z" transform="translate(0 0)" fill="#fe4a55"/>
    <path id="Path_106961" data-name="Path 106961" d="M-434.152,533.443c0-.8,0-1.605,0-2.408a2.031,2.031,0,0,1,1.13-1.927,1.928,1.928,0,0,1,2.133.211c1.1.78,2.22,1.537,3.323,2.317a2.1,2.1,0,0,1-.009,3.634c-1.1.78-2.217,1.543-3.322,2.319a1.94,1.94,0,0,1-2.137.2,2.013,2.013,0,0,1-1.117-1.89C-434.156,535.078-434.151,534.26-434.152,533.443Zm1.521-.015c0,.8,0,1.6,0,2.4a.6.6,0,0,0,.3.6c.229.121.422.009.612-.125,1.081-.758,2.167-1.506,3.247-2.265q.843-.592,0-1.189-1.6-1.125-3.211-2.237c-.193-.134-.383-.3-.645-.152a.648.648,0,0,0-.3.645C-432.629,531.883-432.631,532.656-432.631,533.428Z" transform="translate(2.204 0.895)" fill="#fe4a55"/>
  </g>
</svg>
