<svg xmlns="http://www.w3.org/2000/svg" width="27.638" height="29.481" viewBox="0 0 27.638 29.481">
  <path id="pdf.d3157651ba6ba8d7e23e1e5607fd8a5b" d="M27.111,13.213H19.74V5.843H10.528V16.9H8.685V4h12.9l7.37,7.37V16.9H27.111Zm-.763-1.843L21.583,6.605V11.37ZM5,18.74H32.638v14.74H5Zm1.843,12.9H30.8V20.583H6.843Zm8.249-6.854a2.291,2.291,0,0,1-2.6,2.371H10.933V29.8H9.6v-7.37h2.889a2.282,2.282,0,0,1,2.6,2.358Zm-1.352.011a1.13,1.13,0,0,0-1.3-1.194H10.933V25.98H12.44c.894,0,1.3-.477,1.3-1.185Zm8.151,1.31a3.984,3.984,0,0,1-.864,2.9,2.814,2.814,0,0,1-2.067.79H16.088v-7.37h2.871a2.814,2.814,0,0,1,2.067.79A3.958,3.958,0,0,1,21.891,26.105Zm-1.363,0A2.877,2.877,0,0,0,20,24.047a1.457,1.457,0,0,0-1.039-.416H17.43v4.96h1.529A1.46,1.46,0,0,0,20,28.174a2.906,2.906,0,0,0,.529-2.069Zm7.766-2.463H24.54v1.975h3.348v1.216H24.54V29.8H23.2v-7.37h5.095Z" transform="translate(-5 -4)" fill="#4c7af1"/>
</svg>
