<svg id="Group_65562" data-name="Group 65562" xmlns="http://www.w3.org/2000/svg" width="30.692" height="39.859" viewBox="0 0 30.692 39.859">
  <path id="Path_106618" data-name="Path 106618" d="M1000.72,201.958H1021.9l.156.157c0,2.658.006,5.316-.007,7.973,0,.339.087.443.434.441,2.5-.014,5-.007,7.507-.009.138,0,.289.039.4-.081a1.952,1.952,0,0,1,.216,1.119c.016,1.5.009,3.009.006,4.513q0,2.918-.014,5.836-3.438-3.274-6.872-6.551c-.2-.192-.319-.18-.5.018-.832.926-1.677,1.84-2.516,2.76-1.494,1.638-2.991,3.274-4.475,4.922-.2.222-.307.217-.512.009-1.119-1.138-2.258-2.256-3.376-3.394-.214-.218-.35-.22-.57-.015-.417.389-.862.748-1.3,1.117q-3.806,3.239-7.616,6.475c-.929.786-1.827,1.611-2.8,2.347-.229-.112-.122-.322-.122-.483q-.009-10.671-.005-21.342c0-1.373-.016-2.747.007-4.121C999.961,202.988,1000.005,202.312,1000.72,201.958Zm8.114,7.013a3.227,3.227,0,0,0-3.255,3.238,3.246,3.246,0,1,0,6.492.023A3.281,3.281,0,0,0,1008.834,208.971Z" transform="translate(-999.924 -201.958)" fill="#e7e7de"/>
  <path id="Path_106619" data-name="Path 106619" d="M1000.615,278.411a.225.225,0,0,1-.005-.068c.971-.736,1.868-1.561,2.8-2.347q3.815-3.229,7.616-6.475c.434-.37.879-.729,1.3-1.117.22-.205.355-.2.57.015,1.118,1.138,2.258,2.256,3.376,3.394.2.209.311.214.512-.009,1.484-1.648,2.981-3.283,4.475-4.922.839-.92,1.683-1.834,2.516-2.76.179-.2.3-.21.5-.018q3.429,3.283,6.872,6.551,0,3.712,0,7.424c0,.142-.015.284-.024.426l-.12-.009c-.146-.127-.323-.07-.486-.07q-14.9,0-29.8,0Z" transform="translate(-1000.462 -250.707)" fill="#6cb79a"/>
  <path id="Path_106620" data-name="Path 106620" d="M1103.375,202.69c.079.065.165.125.237.2q3.963,3.96,7.923,7.922c.064.064.119.136.178.2-.116.12-.266.081-.4.081-2.5,0-5-.005-7.507.009-.347,0-.436-.1-.434-.441C1103.381,208.006,1103.375,205.348,1103.375,202.69Z" transform="translate(-1081.248 -202.533)" fill="#d6d5c8"/>
  <path id="Path_106621" data-name="Path 106621" d="M1029.623,234.752a3.281,3.281,0,0,1,3.237,3.26,3.246,3.246,0,1,1-6.492-.023A3.226,3.226,0,0,1,1029.623,234.752Z" transform="translate(-1020.713 -227.739)" fill="#e9d364"/>
  <path id="Path_106622" data-name="Path 106622" d="M1000.171,331.516l.09.011c.12.112.27.073.409.073q14.94,0,29.879,0l.12.009c.008.142.021.284.021.426q0,5.138,0,10.276c0,1-.354,1.36-1.353,1.36H1001.39c-.975,0-1.335-.36-1.335-1.339q0-5.177,0-10.354C1000.058,331.82,999.987,331.633,1000.171,331.516Zm23.382,7.694c0-.389-.005-.779,0-1.168,0-.173-.041-.264-.236-.262-.636.008-1.272,0-1.907,0-.141,0-.2.053-.219.2-.068.545-.021.608.515.609.13,0,.26.009.389,0,.206-.017.31.042.3.277-.015.428-.007.856,0,1.284,0,.155-.026.286-.19.342-.887.3-1.887.322-2.387-.708a4.257,4.257,0,0,1-.059-3.688,1.507,1.507,0,0,1,2.217-.709c.413.293.616.182.876-.113a.554.554,0,0,1,.115-.1c.235-.148.152-.253-.022-.4a2.916,2.916,0,0,0-3.95.461,4.964,4.964,0,0,0-.223,4.945,3.024,3.024,0,0,0,3.871,1.055,1.215,1.215,0,0,0,.916-1.446A3.352,3.352,0,0,1,1023.553,339.21Zm-11.124-1.316v2.763c0,.861,0,.851.866.839.246,0,.308-.085.3-.315-.014-.505,0-1.012,0-1.518,0-.746,0-.741.749-.76a2.739,2.739,0,0,0,2.03-.726,2.251,2.251,0,0,0-1.154-3.761,13.408,13.408,0,0,0-2.442-.1c-.27-.016-.356.07-.353.346C1012.438,335.74,1012.43,336.817,1012.43,337.893Zm-1.731-.723v-2.3c0-.7,0-.681-.718-.712-.375-.016-.477.086-.471.466.023,1.608.014,3.217.008,4.826,0,.709-.224.949-.923,1.048a2.91,2.91,0,0,1-1.545-.289c-.2-.085-.31-.058-.4.13a1.4,1.4,0,0,1-.166.262c-.157.194-.144.312.1.434a4.25,4.25,0,0,0,1.865.484c1.366.005,2.322-.473,2.256-2.134C1010.674,338.651,1010.7,337.91,1010.7,337.171Z" transform="translate(-1000.019 -303.812)" fill="#5c9f85"/>
  <path id="Path_106623" data-name="Path 106623" d="M1031.347,331.606q-14.939,0-29.879,0c-.139,0-.288.039-.409-.073q14.9,0,29.8,0C1031.024,331.536,1031.2,331.478,1031.347,331.606Z" transform="translate(-1000.816 -303.817)" fill="#84bfa9"/>
  <path id="Path_106624" data-name="Path 106624" d="M1090.37,349.111a3.339,3.339,0,0,0,.005.583,1.215,1.215,0,0,1-.916,1.446,3.025,3.025,0,0,1-3.871-1.055,4.963,4.963,0,0,1,.224-4.945,2.915,2.915,0,0,1,3.949-.461c.175.143.257.248.022.4a.555.555,0,0,0-.116.1c-.259.294-.462.406-.876.113a1.506,1.506,0,0,0-2.217.709,4.256,4.256,0,0,0,.059,3.688c.5,1.029,1.5,1.01,2.387.708.164-.056.192-.186.19-.342,0-.428-.012-.857,0-1.284.008-.235-.1-.293-.3-.277-.129.01-.259,0-.389,0-.535,0-.582-.063-.515-.609.019-.15.078-.2.219-.2.636,0,1.272,0,1.907,0,.2,0,.24.089.236.262C1090.365,348.332,1090.37,348.721,1090.37,349.111Z" transform="translate(-1066.835 -313.713)" fill="#fafcfb"/>
  <path id="Path_106625" data-name="Path 106625" d="M1057.939,348.166c0-1.077.009-2.154-.006-3.23,0-.275.083-.361.353-.346a13.4,13.4,0,0,1,2.442.1,2.25,2.25,0,0,1,1.154,3.761,2.739,2.739,0,0,1-2.03.726c-.749.018-.749.013-.749.76,0,.506-.01,1.012,0,1.518.006.23-.056.312-.3.315-.867.012-.866.022-.866-.839Zm1.164-1.26v.388c0,1.16.055,1.192,1.247.995a1.064,1.064,0,0,0,.954-.882c.26-1.2-.209-1.951-1.441-1.943a2.512,2.512,0,0,1-.349,0c-.311-.043-.447.056-.418.4S1059.1,346.557,1059.1,346.906Z" transform="translate(-1045.529 -314.085)" fill="#fafcfc"/>
  <path id="Path_106626" data-name="Path 106626" d="M1033.979,346.894c0,.739-.025,1.48,0,2.218.066,1.661-.89,2.139-2.256,2.134a4.25,4.25,0,0,1-1.865-.484c-.246-.121-.26-.24-.1-.434a1.39,1.39,0,0,0,.166-.262c.092-.188.2-.215.4-.13a2.908,2.908,0,0,0,1.545.289c.7-.1.921-.339.924-1.048.005-1.609.015-3.218-.008-4.826-.005-.38.1-.482.471-.466.717.031.718.008.718.712Z" transform="translate(-1023.3 -313.534)" fill="#fcfdfd"/>
  <path id="Path_106627" data-name="Path 106627" d="M1063.367,350.1c0-.35.023-.7-.007-1.048s.107-.439.418-.4a2.51,2.51,0,0,0,.35,0c1.232-.008,1.7.744,1.441,1.943a1.064,1.064,0,0,1-.954.882c-1.192.2-1.247.165-1.247-.995Z" transform="translate(-1049.792 -317.282)" fill="#5ea187"/>
</svg>
