<svg xmlns="http://www.w3.org/2000/svg" width="30.666" height="33.023" viewBox="0 0 30.666 33.023">
  <g id="Group_65078" data-name="Group 65078" transform="translate(0)">
    <path id="Path_106314" data-name="Path 106314" d="M-577.6,371.874a1.391,1.391,0,0,1-.919-1.511c.027-2.17.009-4.341.01-6.512a1.259,1.259,0,0,1,1.023-1.428c2.244-.748,4.5-1.474,6.732-2.25a1.2,1.2,0,0,1,1.668,1.174,1.152,1.152,0,0,1-.861,1.05l-3.869,1.291c-.413.138-.826.279-1.239.418.011.128.1.177.167.242a12.541,12.541,0,0,0,8.239,3.917,12.616,12.616,0,0,0,11.485-5.156,12.465,12.465,0,0,0,2.592-7.6,1.191,1.191,0,0,1,1.188-1.317,1.174,1.174,0,0,1,1.177,1.259,14.828,14.828,0,0,1-1.461,6.441,14.821,14.821,0,0,1-10.709,8.455,14.884,14.884,0,0,1-13.424-3.638c-.089-.078-.173-.161-.262-.238-.012-.01-.039,0-.093-.009v.57c0,1.118-.023,2.236.008,3.352a1.351,1.351,0,0,1-.936,1.487Z" transform="translate(580.874 -338.851)" fill="#212189"/>
    <path id="Path_106315" data-name="Path 106315" d="M-579.765,182.446c0-.519,0-.956,0-1.393,0-1,0-2,.015-3a1.072,1.072,0,0,1,.731-1.008,1.113,1.113,0,0,1,1.2.209,1.229,1.229,0,0,1,.406,1.007c-.006,1.935,0,3.869,0,5.8,0,.355,0,.709,0,1.064a1.2,1.2,0,0,1-.888,1.235q-3.456,1.161-6.918,2.306a1.172,1.172,0,0,1-1.559-.73,1.167,1.167,0,0,1,.826-1.509c1.653-.559,3.31-1.11,4.965-1.664l.167-.056c-.18-.189-.331-.362-.5-.52a12.723,12.723,0,0,0-9.748-3.664,12.54,12.54,0,0,0-8.848,4.175,12.736,12.736,0,0,0-3.436,8.649,1.188,1.188,0,0,1-1.594,1.216,1.2,1.2,0,0,1-.772-1.217,15.094,15.094,0,0,1,2.911-8.873,14.724,14.724,0,0,1,9.26-6,15,15,0,0,1,13.427,3.649C-580.02,182.21-579.928,182.3-579.765,182.446Z" transform="translate(605.714 -176.955)" fill="#212189"/>
  </g>
</svg>
