<svg xmlns="http://www.w3.org/2000/svg" width="33.023" height="33.024" viewBox="0 0 33.023 33.024">
  <g id="Group_65630" data-name="Group 65630" transform="translate(450.924 -234.069)">
    <path id="Path_106670" data-name="Path 106670" d="M-116.471,267.093a7,7,0,0,1-.9-.464,2.179,2.179,0,0,1-.846-1.632c-.006-.107-.009-.215-.009-.322q0-14.093,0-28.186a2.252,2.252,0,0,1,1.27-2.2,5.925,5.925,0,0,1,.553-.216h.709a3.723,3.723,0,0,1,1.018.469,2.766,2.766,0,0,1,.853,1.337v29.476c-.176.262-.233.581-.427.838a2.586,2.586,0,0,1-1.443.9Zm-.652-16.512q0,7.011,0,14.022c0,.118,0,.237.005.354a1.1,1.1,0,0,0,.978,1.028,1.106,1.106,0,0,0,1.16-.776,1.841,1.841,0,0,0,.054-.574q0-14.055,0-28.109a3.4,3.4,0,0,0-.008-.354,1.111,1.111,0,0,0-1.014-1,1.1,1.1,0,0,0-1.138.809,1.908,1.908,0,0,0-.037.544Q-117.124,243.554-117.123,250.581Z" transform="translate(-304.075)" fill="#212189"/>
    <path id="Path_106671" data-name="Path 106671" d="M-199.633,302.252a6.432,6.432,0,0,1-.922-.486,2.194,2.194,0,0,1-.822-1.645c0-.1,0-.193,0-.29q0-12.445,0-24.89a2.218,2.218,0,0,1,1.137-2.12,2.185,2.185,0,0,1,3.25,1.724c.012.128.012.258.012.386q0,12.461,0,24.922a2.23,2.23,0,0,1-1.586,2.309c-.094.028-.222-.032-.286.09Zm1.548-14.864q0-6.189,0-12.379c0-.118,0-.237-.006-.354a1.092,1.092,0,0,0-1.345-.986,1.1,1.1,0,0,0-.846,1.2q0,12.524,0,25.048a2.449,2.449,0,0,0,.008.258,1.092,1.092,0,0,0,1.384.925,1.11,1.11,0,0,0,.8-1.206Q-198.085,293.642-198.086,287.388Z" transform="translate(-228.071 -35.159)" fill="#212189"/>
    <path id="Path_106672" data-name="Path 106672" d="M-282.763,372.393a6.882,6.882,0,0,1-.921-.488,2.114,2.114,0,0,1-.817-1.647q-.01-9.432,0-18.864a2.125,2.125,0,0,1,1.566-2.021,2.2,2.2,0,0,1,2.8,1.889c.012.128.014.258.014.387q0,9.19,0,18.38A2.218,2.218,0,0,1-281.7,372.3c-.095.028-.221-.031-.287.089Zm1.55-11.578q0-4.24,0-8.48c0-.3.009-.6,0-.9a1.083,1.083,0,0,0-1.122-1.047,1.093,1.093,0,0,0-1.069,1.2q0,9.253,0,18.507c0,.064,0,.129.005.193a1.1,1.1,0,0,0,1.42.949,1.105,1.105,0,0,0,.77-1.167Q-281.212,365.441-281.213,360.815Z" transform="translate(-152.101 -105.3)" fill="#212189"/>
    <path id="Path_106673" data-name="Path 106673" d="M-366.04,442.6c-.257-.168-.57-.22-.818-.409a2.274,2.274,0,0,1-.927-1.921q.007-3.9,0-7.8c0-1.386-.014-2.772,0-4.157a2.176,2.176,0,0,1,2.921-2.087,2.1,2.1,0,0,1,1.454,1.835,2.945,2.945,0,0,1,.015.386q0,5.9,0,11.8a2.214,2.214,0,0,1-1.589,2.27c-.1.028-.221-.031-.288.088Zm1.552-8.236q0-.644,0-1.289c0-1.59.007-3.179,0-4.768a1.085,1.085,0,0,0-1.525-1.023,1.129,1.129,0,0,0-.67,1.144q.007,5.912,0,11.825a1.807,1.807,0,0,0,.008.257,1.071,1.071,0,0,0,.742.925,1.085,1.085,0,0,0,1.444-1.078C-364.483,438.356-364.488,436.359-364.488,434.361Z" transform="translate(-75.983 -175.504)" fill="#212189"/>
    <path id="Path_106674" data-name="Path 106674" d="M-450.924,517.288c.174-.157.176-.4.287-.589a2.233,2.233,0,0,1,2.384-1.072,2.15,2.15,0,0,1,1.708,2q.046,2.332,0,4.665a2.1,2.1,0,0,1-1.8,2.037c-.025,0-.045.036-.067.055h-.774c-.01-.017-.017-.047-.031-.05a2.276,2.276,0,0,1-1.66-1.66c0-.014-.033-.021-.051-.031Zm3.3,2.69c0-.708,0-1.417,0-2.125a1.088,1.088,0,0,0-1.1-1.168,1.1,1.1,0,0,0-1.1,1.172q-.008,2.125,0,4.25a1.113,1.113,0,0,0,1.1,1.174,1.1,1.1,0,0,0,1.092-1.179C-447.624,521.4-447.627,520.687-447.628,519.978Z" transform="translate(0 -257.291)" fill="#212189"/>
  </g>
</svg>
