<svg xmlns="http://www.w3.org/2000/svg" width="31" height="31" viewBox="0 0 31 31">
  <g id="Group_66310" data-name="Group 66310" transform="translate(-279 -3065.68)">
    <g id="Ellipse_1161" data-name="Ellipse 1161" transform="translate(279 3065.68)" fill="none" stroke="#212189" stroke-width="2">
      <circle cx="15.5" cy="15.5" r="15.5" stroke="none"/>
      <circle cx="15.5" cy="15.5" r="14.5" fill="none"/>
    </g>
    <path id="like-dislike-button-icon" d="M62.248,69.43H65.2a.5.5,0,0,1,.5.5v6.622a.5.5,0,0,1-.5.5H62.248a.5.5,0,0,1-.5-.5V69.929A.5.5,0,0,1,62.248,69.43ZM63.7,74.238a.638.638,0,1,1-.638.638A.637.637,0,0,1,63.7,74.238Zm5.428-9.775c.262-1.33,2.44-.106,2.583,2.04a9.222,9.222,0,0,1-.185,2.272h3.112c1.3.051,2.425.978,1.626,2.5.182.664.21,1.442-.284,1.749a2.562,2.562,0,0,1-.769,2.207,2.63,2.63,0,0,1-.4,1.346c-.418.591-.758.45-1.416.45H68.133a2.023,2.023,0,0,1-1.832-.913V70.261c1.567-.424,2.4-2.567,2.822-3.975Z" transform="translate(225.361 3009.77)" fill="#212189" fill-rule="evenodd"/>
  </g>
</svg>
