<svg xmlns="http://www.w3.org/2000/svg" xmlns:xlink="http://www.w3.org/1999/xlink" width="90" height="90" viewBox="0 0 90 90">
  <defs>
    <filter id="Rectangle_23234" x="0" y="0" width="90" height="90" filterUnits="userSpaceOnUse">
      <feOffset dy="4" input="SourceAlpha"/>
      <feGaussianBlur stdDeviation="5" result="blur"/>
      <feFlood flood-color="#78a4f3" flood-opacity="0.149"/>
      <feComposite operator="in" in2="blur"/>
      <feComposite in="SourceGraphic"/>
    </filter>
  </defs>
  <g id="Group_11534" data-name="Group 11534" transform="translate(-993 -355)">
    <g transform="matrix(1, 0, 0, 1, 993, 355)" filter="url(#Rectangle_23234)">
      <g id="Rectangle_23234-2" data-name="Rectangle 23234" transform="translate(15 11)" fill="#f5f7f9" stroke="#0077b7" stroke-width="1">
        <rect width="60" height="60" rx="30" stroke="none"/>
        <rect x="0.5" y="0.5" width="59" height="59" rx="29.5" fill="none"/>
      </g>
    </g>
    <path id="iconmonstr-linkedin-1" d="M4.98,3.5A2.48,2.48,0,1,1,2.5,1,2.49,2.49,0,0,1,4.98,3.5ZM5,8H0V24H5Zm7.982,0H8.014V24h4.969V15.6c0-4.67,6.029-5.052,6.029,0V24H24V13.869c0-7.88-8.922-7.593-11.018-3.714V8Z" transform="translate(1026 384)" fill="#0077b7"/>
  </g>
</svg>
