<svg id="Component_176_1" data-name="Component 176 – 1" xmlns="http://www.w3.org/2000/svg" width="53" height="53" viewBox="0 0 53 53">
    <g id="Rectangle_23231" data-name="Rectangle 23231" fill="#f5f7f9" stroke="#212189" stroke-width="0.5">
      <rect width="53" height="53" rx="26.5" stroke="none"/>
      <rect x="0.25" y="0.25" width="52.5" height="52.5" rx="26.25" fill="none"/>
    </g>
    <g id="Group_65931" data-name="Group 65931" transform="translate(15.016 11.483)">
      <path id="Path_106732" data-name="Path 106732" d="M32.087,18.721A5.879,5.879,0,1,0,26.208,24.6,5.885,5.885,0,0,0,32.087,18.721Zm-10.75,0a4.871,4.871,0,1,1,4.871,4.871A4.877,4.877,0,0,1,21.337,18.721Z" transform="translate(-14.869 -7.381)" fill="#212189"/>
      <path id="Path_106733" data-name="Path 106733" d="M20.827,32.223a.5.5,0,0,0,.379-.172c.447-.512,10.961-12.607,10.961-18.711a11.34,11.34,0,1,0-22.681,0c0,6.1,10.514,18.2,10.961,18.711A.5.5,0,0,0,20.827,32.223Zm0-29.216A10.345,10.345,0,0,1,31.16,13.34c0,5.106-8.427,15.352-10.333,17.6-1.906-2.252-10.333-12.5-10.333-17.6A10.345,10.345,0,0,1,20.827,3.007Z" transform="translate(-9.487 -2)" fill="#212189"/>
    </g>
  </svg>
  