<svg xmlns="http://www.w3.org/2000/svg" width="17.715" height="17.747" viewBox="0 0 17.715 17.747">
  <g id="Group_65647" data-name="Group 65647" transform="translate(-2575.899 382.965)">
    <path id="Path_106691" data-name="Path 106691" d="M2575.9-374.24a8.838,8.838,0,0,1,7.423-8.605,9.9,9.9,0,0,1,1.344-.119.77.77,0,0,1,.849.734.754.754,0,0,1-.8.782,7.189,7.189,0,0,0-4.8,1.841,7.165,7.165,0,0,0-2.474,5.983,7.33,7.33,0,0,0,5.416,6.632,8.752,8.752,0,0,0,1.944.259.749.749,0,0,1,.7.6.771.771,0,0,1-.37.809.866.866,0,0,1-.456.1,8.875,8.875,0,0,1-8.589-7.053A9.7,9.7,0,0,1,2575.9-374.24Z" fill="#212189"/>
    <path id="Path_106692" data-name="Path 106692" d="M2680.76-298.42h-8.148a.767.767,0,0,1-.821-.6.755.755,0,0,1,.665-.915c.086-.008.174,0,.26,0h8.038c.02-.091-.054-.114-.093-.153-.506-.512-1.017-1.02-1.524-1.531a.771.771,0,0,1-.058-1.137.765.765,0,0,1,1.134.066q1.453,1.452,2.9,2.907a.773.773,0,0,1,.01,1.206q-1.456,1.464-2.917,2.925a.78.78,0,0,1-.77.257.758.758,0,0,1-.344-1.292c.5-.516,1.015-1.022,1.526-1.529a1.029,1.029,0,0,1,.194-.121Z" transform="translate(-89.797 -74.911)" fill="#212189"/>
  </g>
</svg>
