<svg id="Group_65507" data-name="Group 65507" xmlns="http://www.w3.org/2000/svg" width="15.052" height="15.053" viewBox="0 0 15.052 15.053">
  <path id="Path_106577" data-name="Path 106577" d="M-1656.95,521.335A7.624,7.624,0,0,1-1663,529a7.5,7.5,0,0,1-8.862-5.981,7.373,7.373,0,0,1,2.591-7.213.471.471,0,0,1,.7.022.48.48,0,0,1-.082.719,6.337,6.337,0,0,0-2.3,4.1,6.377,6.377,0,0,0,2.422,6.109,6.28,6.28,0,0,0,4.368,1.409,6.5,6.5,0,0,0,6.079-5.146,6.324,6.324,0,0,0-2.2-6.419c-.269-.233-.326-.49-.146-.722a.471.471,0,0,1,.707-.068,7.464,7.464,0,0,1,1.885,2.271A7.193,7.193,0,0,1-1656.95,521.335Z" transform="translate(1672.002 -514.098)" fill="#212189"/>
  <path id="Path_106578" data-name="Path 106578" d="M-1497.416,481.046q0,1.745,0,3.489a.487.487,0,0,1-.654.489.491.491,0,0,1-.316-.472c0-.349,0-.7,0-1.047q0-2.966,0-5.932a.494.494,0,0,1,.255-.466.446.446,0,0,1,.488.014.5.5,0,0,1,.231.465Q-1497.419,479.316-1497.416,481.046Z" transform="translate(1505.428 -477.042)" fill="#212189"/>
</svg>
