<svg id="Component_175_1" data-name="Component 175 – 1" xmlns="http://www.w3.org/2000/svg" width="53" height="53" viewBox="0 0 53 53">
    <g id="Component_174_1" data-name="Component 174 – 1">
      <g id="Rectangle_29016" data-name="Rectangle 29016" fill="#f5f7f9" stroke="#212189" stroke-width="0.5">
        <rect width="53" height="53" rx="26.5" stroke="none"/>
        <rect x="0.25" y="0.25" width="52.5" height="52.5" rx="26.25" fill="none"/>
      </g>
    </g>
    <path id="Path_106731" data-name="Path 106731" d="M26.666,13.28H3.02A2.022,2.022,0,0,0,1,15.3V31.634a2.022,2.022,0,0,0,2.02,2.02H26.666a2.022,2.022,0,0,0,2.02-2.02V15.3a2.022,2.022,0,0,0-2.02-2.02Zm1.316,18.736L18.84,23.532l9.2-8.141V31.634a1.361,1.361,0,0,1-.054.382ZM3.02,13.929H26.666a1.371,1.371,0,0,1,1.213.735L14.843,26.2,1.806,14.663a1.371,1.371,0,0,1,1.213-.735ZM1.649,31.634V15.391l9.2,8.14L1.7,32.016a1.361,1.361,0,0,1-.054-.382ZM26.666,33H3.02a1.367,1.367,0,0,1-.981-.415l9.295-8.626,3.295,2.917a.324.324,0,0,0,.43,0l3.295-2.917,9.295,8.628a1.367,1.367,0,0,1-.981.415Z" transform="translate(11.367 2.62)" fill="#212189"/>
  </svg>
  