<svg xmlns="http://www.w3.org/2000/svg" width="70.399" height="64.775" viewBox="0 0 70.399 64.775">
  <g id="Group_65045" data-name="Group 65045" transform="translate(-768.078 -363.378)">
    <path id="Path_106226" data-name="Path 106226" d="M768.078,368.683c.184-.033.161-.2.2-.321a6.586,6.586,0,0,1,6.8-4.982q11.307-.007,22.614,0,12.819,0,25.639,0a6.624,6.624,0,0,1,6.686,4.671,7.269,7.269,0,0,1,.29,2.169q.007,7.939,0,15.879c0,1.066-.454,1.662-1.274,1.713a1.3,1.3,0,0,1-1.44-1.165,10.149,10.149,0,0,1-.036-1.235c0-2.864-.011-5.728.009-8.592,0-.461-.092-.62-.591-.62q-27.8.02-55.608,0c-.4,0-.543.068-.542.513q.021,18.662.019,37.325a3.772,3.772,0,0,0,3.7,3.756c.16.006.321.006.481.006h43.111c-.216-.7-.41-1.337-.613-1.977q-1.566-4.93-3.139-9.857a1.44,1.44,0,0,1,.16-1.43,1.424,1.424,0,0,1,1.727-.426c3.524,1.128,7.057,2.226,10.575,3.373.593.193.73.115.723-.513-.029-2.726-.021-5.453-.008-8.18.005-1.172.819-1.847,1.8-1.521a1.393,1.393,0,0,1,.953,1.5q0,2.509,0,5.018c0,1.329.034,2.659-.016,3.986a.872.872,0,0,0,.739,1.054c1.993.585,3.955,1.272,5.947,1.86a2.028,2.028,0,0,1,1.5,1.3v.55a2.7,2.7,0,0,1-1.735,1.177c-1.571.441-3.122.957-4.774,1.471.364.35.667.627.953.92,1.843,1.89,3.789,3.679,5.556,5.645v.963c-.219.249-.426.509-.66.744q-1.986,2-3.982,3.986c-.933.93-1.572.926-2.512-.013q-2.649-2.646-5.3-5.291c-.15-.149-.249-.393-.55-.38q-.8,2.546-1.6,5.088c-.276.871-.726,1.282-1.4,1.3-.7.017-1.167-.4-1.456-1.3-.591-1.848-1.216-3.687-1.75-5.551-.174-.607-.43-.757-1.029-.756q-21.505.026-43.01.013c-.275,0-.55,0-.824-.012a6.543,6.543,0,0,1-6.067-4.734c-.054-.182-.02-.422-.262-.514Zm31.145,4.779h27.5c.161,0,.321-.007.481,0,.218.012.357-.057.351-.3a22.607,22.607,0,0,0-.125-4.114c-.39-1.833-1.97-2.917-4.116-2.917q-24.129,0-48.258,0a7.4,7.4,0,0,0-.755.036,3.8,3.8,0,0,0-3.467,3.774c-.016.916.037,1.836-.018,2.749-.037.62.137.788.774.786Q785.405,373.443,799.223,373.462Zm23.214,48.763c.372-1.153.7-2.167,1.026-3.183.492-1.537,1.557-1.8,2.7-.657,1.994,1.991,4,3.972,5.967,5.987.391.4.6.361.938-.021a21.011,21.011,0,0,1,1.7-1.7c.372-.33.322-.506-.01-.833-2.057-2.024-4.093-4.071-6.13-6.116a1.413,1.413,0,0,1,.64-2.562c1-.316,2-.613,3.2-.981l-14.728-4.69Z" fill="#fe4a55"/>
    <path id="Path_106229" data-name="Path 106229" d="M804.64,561.863a8.311,8.311,0,1,1,8.313,8.285A8.318,8.318,0,0,1,804.64,561.863Zm2.752-.047a5.557,5.557,0,1,0,5.547-5.547A5.555,5.555,0,0,0,807.392,561.816Z" transform="translate(-29.856 -155.267)" fill="#fe4a55"/>
    <path id="Path_106230" data-name="Path 106230" d="M804.639,456.71a8.326,8.326,0,0,1,9.074-8.25c1.243.123,1.892,1.127,1.342,2.086a1.509,1.509,0,0,1-1.6.663,5.555,5.555,0,1,0,4.837,7.036c.049-.176.083-.357.144-.529a1.351,1.351,0,0,1,1.633-.905,1.309,1.309,0,0,1,1,1.56,7.765,7.765,0,0,1-3.194,5.034,8.028,8.028,0,0,1-8.743.715A8.227,8.227,0,0,1,804.639,456.71Z" transform="translate(-29.855 -69.445)" fill="#fe4a55"/>
    <path id="Path_106231" data-name="Path 106231" d="M925.836,467.3q5.5,0,11,0c1.159,0,1.856.823,1.528,1.794a1.352,1.352,0,0,1-1.425.956c-1.489,0-2.978,0-4.468,0q-8.8,0-17.6,0c-.953,0-1.526-.463-1.588-1.252-.069-.891.542-1.493,1.553-1.495Q920.337,467.291,925.836,467.3Z" transform="translate(-118.571 -84.859)" fill="#fe4a55"/>
    <path id="Path_106232" data-name="Path 106232" d="M925.814,506.033q-5.5,0-11,0a1.391,1.391,0,0,1-1.519-1.009,1.371,1.371,0,0,1,1.141-1.72,4,4,0,0,1,.617-.02h21.583c.115,0,.229,0,.344,0a1.414,1.414,0,0,1,1.441,1.362,1.383,1.383,0,0,1-1.474,1.382Q931.382,506.041,925.814,506.033Z" transform="translate(-118.549 -114.244)" fill="#fe4a55"/>
    <path id="Path_106233" data-name="Path 106233" d="M921.686,612.558c-2.267,0-4.535,0-6.8,0-1.022,0-1.616-.509-1.623-1.358s.6-1.389,1.6-1.39q6.768-.007,13.535,0c.991,0,1.629.543,1.638,1.368s-.628,1.377-1.615,1.38C926.175,612.563,923.931,612.558,921.686,612.558Z" transform="translate(-118.556 -201.232)" fill="#fe4a55"/>
    <path id="Path_106234" data-name="Path 106234" d="M920.946,576.538q-3.023,0-6.045,0c-1.027,0-1.621-.5-1.635-1.344-.014-.872.6-1.4,1.654-1.4q6.045,0,12.09,0c1,0,1.632.533,1.65,1.355.019.845-.63,1.391-1.67,1.393Q923.969,576.542,920.946,576.538Z" transform="translate(-118.56 -171.818)" fill="#fe4a55"/>
    <path id="Path_106235" data-name="Path 106235" d="M842.959,458.466a1.34,1.34,0,0,1-.461.9c-2.184,2.182-4.36,4.372-6.554,6.545a1.337,1.337,0,0,1-2.061-.007q-1.018-.969-1.988-1.989a1.38,1.38,0,0,1-.071-1.971,1.407,1.407,0,0,1,2.024.034c.37.327.68,1,1.087.93.428-.073.778-.648,1.148-1.017q2.237-2.227,4.465-4.461a1.375,1.375,0,0,1,2.411,1.037Z" transform="translate(-51.743 -76.402)" fill="#fe4a55"/>
    <path id="Path_106236" data-name="Path 106236" d="M1093.792,517.378a1.355,1.355,0,0,1-1.395-1.365,1.362,1.362,0,1,1,2.724.016A1.327,1.327,0,0,1,1093.792,517.378Z" transform="translate(-264.838 -123.524)" fill="#fe4a55"/>
    <path id="Path_106237" data-name="Path 106237" d="M801.726,392.254a1.366,1.366,0,0,1,1.38-1.383,1.369,1.369,0,0,1,.02,2.738A1.347,1.347,0,0,1,801.726,392.254Z" transform="translate(-27.477 -22.45)" fill="#fe4a55"/>
    <path id="Path_106238" data-name="Path 106238" d="M830.05,392.255a1.37,1.37,0,1,1-1.322-1.387A1.384,1.384,0,0,1,830.05,392.255Z" transform="translate(-48.369 -22.447)" fill="#fe4a55"/>
    <path id="Path_106239" data-name="Path 106239" d="M855.709,393.61a1.369,1.369,0,1,1,.146-2.734,1.369,1.369,0,0,1-.146,2.734Z" transform="translate(-70.494 -22.452)" fill="#fe4a55"/>
  </g>
</svg>
