<svg xmlns="http://www.w3.org/2000/svg" width="156" height="24" viewBox="0 0 156 24">
  <g id="Group_66502" data-name="Group 66502" transform="translate(-904 -493)">
    <g id="Group_66501" data-name="Group 66501">
      <g id="visa-color_large" transform="translate(904 493)">
        <g id="Group_66500" data-name="Group 66500">
          <rect id="card_bg" width="36" height="24" rx="4" fill="#2a2a6c"/>
        </g>
        <path id="visa-logo" d="M12.76,7.14a5.345,5.345,0,0,1-1.953-.368l.323-1.5a3.764,3.764,0,0,0,1.782.451h.048c.534-.008,1.073-.222,1.073-.682.007-.294-.245-.528-.93-.863S11.535,3.3,11.535,2.295c0-1.351,1.234-2.295,3-2.295a4.81,4.81,0,0,1,1.68.308l-.315,1.5a3.384,3.384,0,0,0-1.44-.324c-.11,0-.221.005-.331.016-.518.069-.75.34-.75.578,0,.291.372.485.842.732.746.391,1.675.877,1.67,2.021l.038-.06c-.007,1.44-1.236,2.37-3.127,2.37Zm4.97-.06H15.84L18.533.653a.815.815,0,0,1,.75-.51h1.5l1.454,6.937H20.573l-.217-1.035H18.1L17.73,7.08Zm1.785-5.063-.945,2.6h1.492Zm-9.99,5.04h-1.8L9.225.12h1.8l-1.5,6.937ZM5.588,7.035H3.63L2.2,1.492A.754.754,0,0,0,1.77.885,7.438,7.438,0,0,0,0,.3L.045.1H3.1A.838.838,0,0,1,3.93.8l.75,4.012L6.547.1H8.5L5.588,7.034Z" transform="translate(6.87 8.423)" fill="#fff"/>
      </g>
    </g>
    <g id="mastercard-color_large" transform="translate(944 493)">
      <path id="card_bg-2" data-name="card_bg" d="M4,0H32a4,4,0,0,1,4,4V20a4,4,0,0,1-4,4H4a4,4,0,0,1-4-4V4A4,4,0,0,1,4,0Z" fill="#fff"/>
      <g id="mastercard" transform="translate(3.487 2.4)">
        <g id="Group" opacity="0">
          <rect id="Rectangle" width="29.032" height="19.2" fill="#fff"/>
        </g>
        <rect id="Rectangle-2" data-name="Rectangle" width="7.658" height="12.51" transform="translate(10.688 3.345)" fill="#f26122"/>
        <path id="Path" d="M9.877,7.958a7.935,7.935,0,0,1,3-6.255,7.958,7.958,0,1,0,0,12.51A7.935,7.935,0,0,1,9.877,7.958Z" transform="translate(1.636 1.642)" fill="#ea1d25"/>
        <path id="Shape" d="M.375.309H.323V0H.4l.1.217L.585,0H.66V.307H.608V.075l-.082.2H.465l-.09-.2V.308ZM.15.308H.105V.053H0V0H.263V.053H.15V.307Z" transform="translate(26.467 14.22)" fill="#f69e1e"/>
        <path id="Path-2" data-name="Path" d="M12.87,7.952A7.957,7.957,0,0,1,0,14.207,7.957,7.957,0,0,0,1.335,3.04,7.8,7.8,0,0,0,0,1.7,7.957,7.957,0,0,1,12.87,7.952Z" transform="translate(14.512 1.648)" fill="#f69e1e"/>
      </g>
    </g>
    <g id="americanexpress-color-large" transform="translate(984 493)">
      <rect id="Rectangle-3" data-name="Rectangle" width="36" height="24" rx="4" fill="#fff"/>
      <g id="amex" transform="translate(0 0)">
        <path id="Path-3" data-name="Path" d="M6.66,13.425v6.12h6.2l.645-.915.63.915h3.788v-1.38h.42A3.7,3.7,0,0,0,19.463,18v1.545h2.573v-1.1l.87,1.1H34.62a2.513,2.513,0,0,0,1.365-.375v2.58A3,3,0,0,1,33.068,24H3a3,3,0,0,1-3-3V11.55H1.71l.353-.915H2.9l.345.915H17v-1.1l.87,1.1H21.48V11a3,3,0,0,0,1.815.555h2.153l.345-.915h.84L27,11.55h3.675V10.365l.75,1.185H33.96V5.43H31.268V6.675l-.8-1.245H28.11V7.005L27.36,5.43H23.355a2.91,2.91,0,0,0-1.875.615V5.43H8.25L7.8,6.75,7.35,5.4h-3V6.975L3.645,5.4H1.2L0,8.25V3A3,3,0,0,1,3,0H33.068A3,3,0,0,1,36,2.25V13.425H14.145l-.645.9-.63-.9Z" transform="translate(0 0)" fill="#296db6"/>
        <path id="Shape-2" data-name="Shape" d="M23.222,4.269c-.036,0-.072,0-.107,0h-2.19v-.9h2.19a.382.382,0,1,0,0-.75h-.99A1.178,1.178,0,0,1,20.8,1.37,1.306,1.306,0,0,1,22.26.05h2.2l-.4.9H22.23a.382.382,0,1,0,0,.75h.983V1.67a1.162,1.162,0,0,1,1.32,1.215,1.313,1.313,0,0,1-1.31,1.384Zm3.9-.013c-.044,0-.088,0-.132-.007H24.833v-.9H27a.383.383,0,1,0,0-.75h-.967a1.178,1.178,0,0,1-1.32-1.245A1.3,1.3,0,0,1,26.168.035h2.2L27.96.95H26.137L26.115.92a.382.382,0,1,0,0,.75h1.02a1.215,1.215,0,0,1,1.23.7V3.38A1.331,1.331,0,0,1,27.117,4.256ZM8.175,4.25H6.885L5.865,2.885l-1.02,1.35H3.615l1.65-2.1L3.548,0H4.822L5.865,1.34l1.05-1.3H8.16l-1.695,2.1L8.174,4.249Zm5.55-.014H12.7V.05H15a1.366,1.366,0,0,1,.159-.009,1.344,1.344,0,0,1,.156,2.679l1.416,1.514H15.45l-1.26-1.5h-.465v1.5Zm0-3.331V1.88H14.91V1.835a.457.457,0,0,0,.525-.465A.466.466,0,0,0,14.91.9Zm6.66,3.33H16.972V.05h3.413v.9L18.008.92v.75h2.317v.915H18.008v.75h2.377v.9Zm-11,0H8.355V.035h2.332V0c.042,0,.079,0,.113,0a1.358,1.358,0,0,1,1.357,1.415,1.395,1.395,0,0,1-1.395,1.429c-.035,0-.07,0-.105,0H9.383V4.234Zm0-3.33V1.97H10.6V1.94A.518.518,0,1,0,10.6.9ZM3.4,4.235H0V0H3.4V.9L1.02.92v.75H3.353v.915H1.02v.75H3.4v.9Z" transform="translate(7.635 14.365)" fill="#296db6"/>
        <path id="Shape-3" data-name="Shape" d="M29.925,4.271H28.92V.041h1.253l1.5,2.25.285.481V.011H33v4.23H31.763L30.195,1.856l-.27-.465V4.271Zm-1.2,0H27.57l-.36-.885h-2l-.36.855H23.753L25.568.011h1.35L28.725,4.27ZM26.2.882h0l-.27.659-.39.99h1.32l-.405-.99L26.2.882ZM4.988,4.271H3.833l-.36-.885H1.5l-.39.855H0L1.837.011H3.173L4.987,4.27ZM2.468.882h0l-.27.659-.413.99H3.143l-.405-.99L2.468.882Zm20.62,3.362h0a1.875,1.875,0,0,1-1.862-2.088V2.1a1.912,1.912,0,0,1,1.9-2.089c.041,0,.082,0,.122,0h1.185V.926H23.274A1.051,1.051,0,0,0,22.23,2.1v.059a1.05,1.05,0,0,0,1.041,1.187h.392l-.413.9H23.19Zm-6.745,0H15.3V.011h2.288a1.328,1.328,0,0,1,1.5,1.334,1.308,1.308,0,0,1-1.155,1.335L19.342,4.24H18.068l-1.26-1.5h-.465v1.5Zm0-3.331v.93h1.185a.464.464,0,0,0,.067,0,.457.457,0,0,0,.458-.47A.472.472,0,0,0,17.58.908l-.053,0ZM6.18,4.242h-1V.011H6.84l.84,2.445.135.465.135-.465L8.775.011h1.642V4.24h-.99V.821l-.2.645L8.25,4.241h-.9L6.39,1.466,6.18.821v3.42Zm14.429,0H19.582V.011H20.61V4.24Zm-5.985,0H11.25V.011h3.375v.9L12.247.926v.75h2.318v.915H12.247v.75h2.378v.9Z" transform="translate(0 6.364)" fill="#296db6"/>
      </g>
    </g>
    <g id="discover-light-large" transform="translate(1024 493)">
      <path id="card_bg-3" data-name="card_bg" d="M36,3V21a3,3,0,0,1-3,3H3a2.858,2.858,0,0,1-1.02-.18A3,3,0,0,1,0,21V3A3,3,0,0,1,3,0H33A3,3,0,0,1,36,3Z" transform="translate(0)" fill="#fff"/>
      <g id="discover" transform="translate(1.5 7.769)">
        <path id="Path-4" data-name="Path" d="M34.5,0V8.973A3.034,3.034,0,0,1,31.458,12H1.034A2.911,2.911,0,0,1,0,11.818c2.556-.363,5.02-.817,7.438-1.332.639-.121,1.263-.272,1.886-.409C19.38,7.793,28.081,4.434,32.979,1.135,33.526.757,34.044.378,34.5,0Z" transform="translate(0 4.231)" fill="#ee7623"/>
        <path id="Shape-4" data-name="Shape" d="M1.514,4.811c-.05,0-.1,0-.149,0H0V.037H1.365V.006C1.427,0,1.486,0,1.54,0A2.415,2.415,0,0,1,3.09,4.266,2.566,2.566,0,0,1,1.514,4.811ZM.945.847v3.21h.24c.05,0,.1.007.152.007a1.731,1.731,0,0,0,1.138-.427A1.605,1.605,0,0,0,3,2.436a1.579,1.579,0,0,0-.524-1.2,1.751,1.751,0,0,0-1.29-.39Z" transform="translate(1.5 0.174)" fill="#231f20"/>
        <rect id="Rectangle-4" data-name="Rectangle" width="0.937" height="4.815" transform="translate(5.887 0.203)" fill="#231f20"/>
        <path id="Path-5" data-name="Path" d="M1.987,1.93c-.562-.2-.75-.345-.75-.607a.642.642,0,0,1,.7-.532,1,1,0,0,1,.75.39L3.172.543A2.062,2.062,0,0,0,1.762,0a1.41,1.41,0,0,0-1.5,1.38c0,.667.3,1,1.177,1.32a3.855,3.855,0,0,1,.652.277.57.57,0,0,1,.285.495.69.69,0,0,1-.75.682,1.11,1.11,0,0,1-1.02-.645L0,4.1a1.867,1.867,0,0,0,1.71.915A1.545,1.545,0,0,0,3.36,3.438C3.36,2.673,3.052,2.32,1.987,1.93Z" transform="translate(7.14 0.118)" fill="#231f20"/>
        <path id="Path-6" data-name="Path" d="M0,2.52A2.49,2.49,0,0,0,2.543,5.033,2.572,2.572,0,0,0,3.72,4.755v-1.1a1.5,1.5,0,0,1-1.132.525A1.582,1.582,0,0,1,.968,2.513,1.6,1.6,0,0,1,2.543.863,1.567,1.567,0,0,1,3.72,1.4V.3A2.392,2.392,0,0,0,2.565,0,2.535,2.535,0,0,0,0,2.52Z" transform="translate(10.807 0.09)" fill="#231f20"/>
        <path id="Path-7" data-name="Path" d="M2.31,3.232,1.02,0H0L2.04,4.935h.5L4.627,0H3.607L2.31,3.232Z" transform="translate(19.665 0.203)" fill="#231f20"/>
        <path id="Path-8" data-name="Path" d="M0,4.815H2.67V4H.937V2.7H2.6V1.882H.937V.817H2.67V0H0V4.815Z" transform="translate(24.712 0.203)" fill="#231f20"/>
        <path id="Shape-5" data-name="Shape" d="M.945,4.771H0V0H1.38C2.467,0,3.09.514,3.09,1.41A1.3,1.3,0,0,1,2,2.79l1.5,1.979H2.355L1.05,2.865H.945V4.77ZM.945.75V2.205h.3c.6,0,.886-.231.886-.705,0-.5-.3-.75-.886-.75Z" transform="translate(28.005 0.211)" fill="#231f20"/>
        <path id="Path-9" data-name="Path" d="M5.115,2.557A2.557,2.557,0,1,1,2.557,0,2.557,2.557,0,0,1,5.115,2.557Z" transform="translate(14.827 0.053)" fill="#ee7623"/>
        <path id="Shape-6" data-name="Shape" d="M.105.435H0V0H.15C.258,0,.315.047.315.135A.114.114,0,0,1,.225.24L.359.434H.24L.105.255v.18Z" transform="translate(31.275 0.166)" fill="#231f20"/>
        <path id="Shape-7" data-name="Shape" d="M.375.751A.375.375,0,0,1,.36,0H.375A.374.374,0,0,1,.635.1a.376.376,0,0,1-.26.646ZM.36.091A.285.285,0,0,0,.075.376.293.293,0,0,0,.36.691H.366A.239.239,0,0,0,.555.6.343.343,0,0,0,.645.376.286.286,0,0,0,.36.091Z" transform="translate(31.095 0)" fill="#231f20"/>
      </g>
    </g>
  </g>
</svg>
