<svg id="mastercard-color_large" xmlns="http://www.w3.org/2000/svg" width="36" height="24" viewBox="0 0 36 24">
  <path id="card_bg" d="M4,0H32a4,4,0,0,1,4,4V20a4,4,0,0,1-4,4H4a4,4,0,0,1-4-4V4A4,4,0,0,1,4,0Z" fill="#fff"/>
  <g id="mastercard" transform="translate(3.487 2.4)">
    <g id="Group" opacity="0">
      <rect id="Rectangle" width="29.032" height="19.2" fill="#fff"/>
    </g>
    <rect id="Rectangle-2" data-name="Rectangle" width="7.658" height="12.51" transform="translate(10.688 3.345)" fill="#f26122"/>
    <path id="Path" d="M9.877,7.958a7.935,7.935,0,0,1,3-6.255,7.958,7.958,0,1,0,0,12.51A7.935,7.935,0,0,1,9.877,7.958Z" transform="translate(1.636 1.642)" fill="#ea1d25"/>
    <path id="Shape" d="M.375.309H.323V0H.4l.1.217L.585,0H.66V.307H.608V.075l-.082.2H.465l-.09-.2V.308ZM.15.308H.105V.053H0V0H.263V.053H.15V.307Z" transform="translate(26.467 14.22)" fill="#f69e1e"/>
    <path id="Path-2" data-name="Path" d="M12.87,7.952A7.957,7.957,0,0,1,0,14.207,7.957,7.957,0,0,0,1.335,3.04,7.8,7.8,0,0,0,0,1.7,7.957,7.957,0,0,1,12.87,7.952Z" transform="translate(14.512 1.648)" fill="#f69e1e"/>
  </g>
</svg>
