<svg xmlns="http://www.w3.org/2000/svg" width="58" height="58" viewBox="0 0 58 58">
  <g id="Group_65194" data-name="Group 65194" transform="translate(-1660 -516)">
    <g id="Ellipse_1085" data-name="Ellipse 1085" transform="translate(1660 516)" fill="#e3e3ff" stroke="#212189" stroke-width="1">
      <circle cx="29" cy="29" r="29" stroke="none"/>
      <circle cx="29" cy="29" r="28.5" fill="none"/>
    </g>
    <g id="Group_65188" data-name="Group 65188" transform="translate(1381.457 -1245.439)">
      <path id="Path_106413" data-name="Path 106413" d="M316.381,1805.614H298.7c.007-.246.031-.493.017-.738-.011-.2.062-.251.252-.246.494.012.989,0,1.483.008.18,0,.24-.046.235-.231-.013-.474-.018-.949,0-1.423.01-.241-.05-.316-.3-.315-1.779.012-3.559.007-5.339.005a3.024,3.024,0,0,1-.794-.071,2.456,2.456,0,0,1-1.893-2.507q0-8.438,0-16.876a2.551,2.551,0,0,1,.248-1.177,2.443,2.443,0,0,1,2.324-1.4c1.631-.008,3.263,0,4.894,0,.387,0,.381,0,.37-.376,0-.129-.037-.193-.172-.224-.288-.067-.571-.153-.855-.234a1.141,1.141,0,0,1,0-2.243q4.088-1.137,8.177-2.271a.707.707,0,0,1,.4,0q4.087,1.139,8.177,2.271a1.187,1.187,0,0,1,.929,1.243c0,.514.018,1.029-.006,1.542-.012.26.076.3.311.3,1-.014,2-.009,3,0a2.512,2.512,0,0,1,2.1,1.018,4.94,4.94,0,0,1,.478,1.055v.237c-.1.086-.058.2-.059.306q0,8.385,0,16.769c0,.1-.041.22.059.306v.3a5.38,5.38,0,0,1-.494,1.051,2.545,2.545,0,0,1-2.142.995c-1.809-.007-3.618,0-5.427-.006-.194,0-.281.033-.273.254.017.494.014.989,0,1.482,0,.186.055.235.235.231.5-.011,1.008,0,1.512-.007.165,0,.227.042.222.216C316.354,1805.1,316.373,1805.358,316.381,1805.614Zm-8.871-7.833q6.97,0,13.939,0c.191,0,.293,0,.292-.256q-.014-7.162-.008-14.324a1.458,1.458,0,0,0-1.569-1.574c-1.028-.007-2.056,0-3.084-.005-.172,0-.238.028-.236.222.011,1.028.007,2.056,0,3.084a.276.276,0,0,0,.172.294,1.385,1.385,0,0,1,.8,1.288c.006,1.078,0,2.155.006,3.233,0,.142-.02.21-.189.208q-1.275-.013-2.55,0c-.16,0-.2-.049-.2-.2.007-1.087,0-2.175.008-3.262a1.336,1.336,0,0,1,.742-1.229.388.388,0,0,0,.227-.414c-.006-1.414,0-2.827,0-4.241,0-.246.082-.614-.041-.709-.172-.132-.466.1-.715.134-.176.027-.218.109-.216.277.008.791-.007,1.582.01,2.372a.324.324,0,0,1-.289.38c-2.1.591-4.194,1.176-6.281,1.8a2.611,2.611,0,0,1-1.573,0c-2.087-.622-4.185-1.208-6.281-1.8-.217-.061-.305-.15-.285-.383.023-.265-.01-.534.01-.8.016-.216-.063-.256-.264-.255-1.661.008-3.322,0-4.982.006a1.84,1.84,0,0,0-.528.054,1.477,1.477,0,0,0-1.075,1.577q0,7.1-.007,14.206c0,.256.054.323.318.322Q300.585,1797.773,307.51,1797.781Zm.031.978H293.719c-.079,0-.158,0-.237,0s-.136.022-.133.115a8.848,8.848,0,0,0,.053,1.714,1.456,1.456,0,0,0,1.579,1.109H320.1c.089,0,.178,0,.267-.007a1.448,1.448,0,0,0,1.356-1.393c.019-.395-.011-.792.016-1.186.019-.28-.053-.361-.348-.36Q314.467,1798.767,307.541,1798.759Zm.008-17.644c.063-.019.119-.037.176-.053q3.918-1.087,7.835-2.176c.113-.032.286-.018.286-.2s-.167-.166-.284-.2q-3.9-1.088-7.8-2.177a.865.865,0,0,0-.488.017q-2.634.735-5.27,1.466l-2.564.713c-.095.026-.2.048-.2.178s.1.152.2.177c.048.012.094.031.141.044l7.722,2.143C307.382,1781.073,307.468,1781.093,307.55,1781.114Zm-6.367.2c0,.237.015.476,0,.711-.015.18.067.234.22.277q2.972.843,5.941,1.7a.661.661,0,0,0,.377.01q3-.859,6-1.712c.154-.044.193-.12.189-.271-.01-.464-.014-.929,0-1.394.007-.23-.053-.253-.266-.193-1.964.552-3.931,1.091-5.9,1.64a.7.7,0,0,1-.4,0c-1.965-.549-3.932-1.088-5.9-1.64-.212-.06-.283-.038-.265.193S301.183,1781.083,301.183,1781.311Zm6.328,23.324c1.877,0,3.754,0,5.632,0,.215,0,.29-.04.28-.273-.021-.493-.013-.988,0-1.482,0-.17-.048-.215-.215-.215q-5.661.007-11.322,0c-.164,0-.222.039-.218.212.012.494.017.988,0,1.482-.009.225.056.277.277.276C303.8,1804.631,305.653,1804.635,307.51,1804.635Zm9.338-16.938c0-.365.006-.73,0-1.1a.508.508,0,0,0-.481-.565c-.294-.007-.5.212-.5.571-.009.533,0,1.066,0,1.6,0,.8,0,.793.8.762.158-.006.2-.056.2-.206C316.842,1788.407,316.848,1788.052,316.848,1787.7Z" fill="#212189"/>
      <path id="Path_106414" data-name="Path 106414" d="M687.661,1892.919c-.1-.087-.059-.2-.059-.306q0-8.385,0-16.769c0-.1-.042-.22.059-.306Z" transform="translate(-364.933 -92.585)" fill="#212189"/>
      <path id="Path_106415" data-name="Path 106415" d="M425.471,1926.489a5.381,5.381,0,1,1,5.4-5.38A5.4,5.4,0,0,1,425.471,1926.489Zm.01-9.789a4.408,4.408,0,1,0,4.4,4.418A4.415,4.415,0,0,0,425.481,1916.7Z" transform="translate(-117.938 -129.694)" fill="#212189"/>
      <path id="Path_106416" data-name="Path 106416" d="M343.92,1980.44c-.486,0-.486,0-.486-.494s0-.5.489-.5.5,0,.5.513C344.427,1980.44,344.427,1980.44,343.92,1980.44Z" transform="translate(-47.159 -188.531)" fill="#212189"/>
      <path id="Path_106417" data-name="Path 106417" d="M369.465,1980.44c-.5,0-.5,0-.5-.513,0-.477,0-.477.479-.477.514,0,.514,0,.514.5C369.961,1980.44,369.961,1980.44,369.465,1980.44Z" transform="translate(-70.736 -188.531)" fill="#212189"/>
      <path id="Path_106418" data-name="Path 106418" d="M395.014,1979.45c.5,0,.5,0,.5.488s0,.5-.51.5c-.483,0-.483,0-.483-.5S394.52,1979.45,395.014,1979.45Z" transform="translate(-94.329 -188.531)" fill="#212189"/>
      <path id="Path_106419" data-name="Path 106419" d="M573.773,1980.44c-.472,0-.472,0-.472-.48,0-.509,0-.509.507-.509.486,0,.486,0,.486.5S574.294,1980.44,573.773,1980.44Z" transform="translate(-259.403 -188.531)" fill="#212189"/>
      <path id="Path_106420" data-name="Path 106420" d="M598.859,1979.941c0-.491,0-.491.5-.491s.5,0,.5.489,0,.5-.509.5C598.859,1980.44,598.859,1980.44,598.859,1979.941Z" transform="translate(-283.001 -188.531)" fill="#212189"/>
      <path id="Path_106421" data-name="Path 106421" d="M624.889,1980.44c-.5,0-.5,0-.5-.487,0-.5,0-.5.514-.5.479,0,.479,0,.479.477v.03C625.386,1980.44,625.386,1980.44,624.889,1980.44Z" transform="translate(-306.577 -188.531)" fill="#212189"/>
      <path id="Path_106422" data-name="Path 106422" d="M454.879,2095.408c-.88,0-1.759-.008-2.638.006-.228,0-.279-.066-.277-.284.009-.7,0-.7.708-.7,1.631,0,3.261,0,4.892-.006.232,0,.3.057.292.291-.014.691,0,.691-.694.691Z" transform="translate(-147.368 -294.691)" fill="#212189"/>
      <path id="Path_106423" data-name="Path 106423" d="M475.664,1951.414l-4.3,2.867v-5.732Zm-3.321,1.036,1.553-1.037-1.553-1.031Z" transform="translate(-165.28 -159.999)" fill="#212189"/>
    </g>
  </g>
</svg>
