<svg xmlns="http://www.w3.org/2000/svg" width="19.126" height="22.896" viewBox="0 0 19.126 22.896">
  <g id="Group_65646" data-name="Group 65646" transform="translate(-2176.972 249.175)">
    <path id="Path_106690" data-name="Path 106690" d="M2186.043-226.28c-.052-.083-.146-.058-.219-.077a3.289,3.289,0,0,1-2.56-2.6c-.034-.145-.082-.188-.228-.187-1.546.005-3.092.01-4.637,0a1.35,1.35,0,0,1-1.271-.8,1.367,1.367,0,0,1,.136-1.475,1.93,1.93,0,0,1,.294-.305,6.613,6.613,0,0,0,2.29-5.092c.008-1.006-.01-2.012.009-3.018a6.651,6.651,0,0,1,4.512-6.108c.2-.065.272-.143.258-.353-.021-.312-.01-.626,0-.939a1.92,1.92,0,0,1,1.9-1.937,1.918,1.918,0,0,1,1.926,1.935c.007.335.011.671,0,1.006-.007.157.051.214.192.264a6.611,6.611,0,0,1,4.357,4.609,6.73,6.73,0,0,1,.23,1.855c.007,1.1-.054,2.207.032,3.308a6.474,6.474,0,0,0,2.106,4.332c.092.087.191.167.281.256a1.407,1.407,0,0,1,.338,1.58,1.378,1.378,0,0,1-1.332.885c-1.538.009-3.077,0-4.615,0-.126,0-.194.018-.225.163a3.294,3.294,0,0,1-2.828,2.662c-.017,0-.03.025-.045.039Zm.48-3.812v-.013q1.444,0,2.889,0,2.565,0,5.129.013a.522.522,0,0,0,.562-.313c.086-.215.024-.394-.211-.6a7.545,7.545,0,0,1-2.621-5.885c0-.887,0-1.774,0-2.66a5.873,5.873,0,0,0-.058-.891,5.732,5.732,0,0,0-7.146-4.72,5.723,5.723,0,0,0-4.264,5.407c-.013,1.073.013,2.146-.011,3.219a7.418,7.418,0,0,1-1.356,4.137,7.6,7.6,0,0,1-1.3,1.438.466.466,0,0,0-.166.557.486.486,0,0,0,.492.314c.06,0,.119,0,.179,0Zm-2.311.96a2.382,2.382,0,0,0,2.337,1.9,2.374,2.374,0,0,0,2.309-1.9Zm3.259-17.742h.014c0-.149.006-.3,0-.447a.95.95,0,0,0-.953-.9.948.948,0,0,0-.943.914c-.011.3.006.6-.008.893-.007.154.052.168.18.151a6.447,6.447,0,0,1,1.139-.041c.19.008.461.125.549.013S2187.471-246.675,2187.471-246.874Z" transform="translate(0 0)" fill="#212189"/>
  </g>
</svg>
