<svg xmlns="http://www.w3.org/2000/svg" width="27.803" height="34" viewBox="0 0 27.803 34">
  <g id="Group_65179" data-name="Group 65179" transform="translate(-1563.459 -1184.988)">
    <path id="Path_106220" data-name="Path 106220" d="M1577.357,1212.8q-6.1,0-12.2,0a1.551,1.551,0,0,1-1.7-1.6,1.622,1.622,0,0,1,.532-1.112c.78-.773,1.549-1.557,2.335-2.324a.718.718,0,0,0,.23-.57c-.007-2.739-.047-5.48.005-8.218a10.6,10.6,0,0,1,6.355-9.918,8.672,8.672,0,0,1,2.58-.787c.295-.044.338-.166.329-.417-.016-.446-.013-.893,0-1.339a1.535,1.535,0,0,1,3.07.01c.012.458.018.918,0,1.375-.011.243.066.318.305.362a10.822,10.822,0,0,1,8.973,10.8c-.012,2.7,0,5.407-.009,8.11a.792.792,0,0,0,.266.627c.8.784,1.6,1.57,2.38,2.382a1.536,1.536,0,0,1-.679,2.573,2.484,2.484,0,0,1-.683.052Zm8.588-3.1a1.175,1.175,0,0,0-.134-.166,2.062,2.062,0,0,1-.728-1.794c.025-2.872.011-5.745.01-8.617a7.819,7.819,0,0,0-.115-1.477,7.726,7.726,0,0,0-15.345,1.378c0,2.981-.008,5.962,0,8.943a1.81,1.81,0,0,1-.6,1.449c-.088.079-.218.146-.22.284Z" fill="#212189"/>
    <path id="Path_106221" data-name="Path 106221" d="M1678.339,1504.24c.939,0,1.879.008,2.818-.005.229,0,.278.056.254.283a3.09,3.09,0,0,1-6.153.023c-.027-.229.01-.311.263-.307C1676.46,1504.25,1677.4,1504.24,1678.339,1504.24Z" transform="translate(-100.971 -288.346)" fill="#212189"/>
  </g>
</svg>
