<svg xmlns="http://www.w3.org/2000/svg" width="15.261" height="18.276" viewBox="0 0 15.261 18.276">
  <path id="Path_106542" data-name="Path 106542" d="M-440.612,223.962a1.192,1.192,0,0,0,.293.085,1.525,1.525,0,0,1,1,1.455c0,.265.007.53,0,.794,0,.116.04.157.144.195a5.218,5.218,0,0,1,3.515,3.992,5.307,5.307,0,0,1,.1,1.122c.008.864-.041,1.73.025,2.593a5.117,5.117,0,0,0,1.661,3.434c.077.073.159.14.233.215a1.115,1.115,0,0,1,.249,1.236,1.077,1.077,0,0,1-1.032.694c-1.209.009-2.418.006-3.627,0-.134,0-.174.041-.2.167a2.611,2.611,0,0,1-2.2,2.062c-.024,0-.046.005-.053.033h-.7c-.049-.064-.126-.048-.19-.064a2.591,2.591,0,0,1-2-2.048c-.029-.127-.079-.15-.2-.149-1.209,0-2.418.008-3.628,0a1.063,1.063,0,0,1-1-.631,1.081,1.081,0,0,1,.1-1.165,1.506,1.506,0,0,1,.23-.242,5.24,5.24,0,0,0,1.8-4.052c0-.788-.008-1.576.007-2.364a5.25,5.25,0,0,1,3.555-4.814c.146-.048.2-.107.2-.266a6.835,6.835,0,0,1,.012-.916,1.471,1.471,0,0,1,1.19-1.331c.023-.005.046-.006.053-.034Zm-.22,15.066v-.01q1.136,0,2.272,0,2.017,0,4.033.01a.408.408,0,0,0,.44-.249c.067-.17.018-.309-.168-.476a5.967,5.967,0,0,1-2.059-4.647c0-.7,0-1.4,0-2.1a4.61,4.61,0,0,0-.046-.7,4.509,4.509,0,0,0-5.621-3.724,4.515,4.515,0,0,0-3.351,4.271c-.01.841.011,1.683-.008,2.524a5.886,5.886,0,0,1-1.289,3.58,6.116,6.116,0,0,1-.8.838.369.369,0,0,0-.128.44.383.383,0,0,0,.389.246c.047,0,.094,0,.141,0Zm1.84.75c-1.2,0-2.381,0-3.566,0-.121,0-.1.049-.075.127a1.9,1.9,0,0,0,1.827,1.383A1.878,1.878,0,0,0-438.992,239.779Zm-1.1-14h.012c0-.112,0-.223,0-.335a.75.75,0,0,0-.751-.73.749.749,0,0,0-.742.74c-.007.229.006.459-.005.687-.006.123.043.132.142.118a5.085,5.085,0,0,1,.9-.032c.15.006.363.1.432.01S-440.088,225.936-440.088,225.779Z" transform="translate(448.448 -223.862)" fill="#212189" stroke="#212189" stroke-width="0.2"/>
</svg>
