<svg width="129" height="130" viewBox="0 0 129 130" fill="none" xmlns="http://www.w3.org/2000/svg">
<path d="M46.4442 62.014C46.4442 57.4007 47.2709 53.7873 48.9242 51.174C50.6042 48.5607 53.3776 47.254 57.2442 47.254C61.1109 47.254 63.8709 48.5607 65.5242 51.174C67.2042 53.7873 68.0442 57.4007 68.0442 62.014C68.0442 66.654 67.2042 70.294 65.5242 72.934C63.8709 75.574 61.1109 76.894 57.2442 76.894C53.3776 76.894 50.6042 75.574 48.9242 72.934C47.2709 70.294 46.4442 66.654 46.4442 62.014ZM62.5242 62.014C62.5242 60.0407 62.3909 58.3873 62.1242 57.054C61.8842 55.694 61.3776 54.5873 60.6042 53.734C59.8576 52.8807 58.7376 52.454 57.2442 52.454C55.7509 52.454 54.6176 52.8807 53.8442 53.734C53.0976 54.5873 52.5909 55.694 52.3242 57.054C52.0842 58.3873 51.9642 60.0407 51.9642 62.014C51.9642 64.0407 52.0842 65.7473 52.3242 67.134C52.5642 68.494 53.0709 69.6007 53.8442 70.454C54.6176 71.2807 55.7509 71.694 57.2442 71.694C58.7376 71.694 59.8709 71.2807 60.6442 70.454C61.4176 69.6007 61.9242 68.494 62.1642 67.134C62.4042 65.7473 62.5242 64.0407 62.5242 62.014ZM71.6236 52.974V47.814H81.2636V76.974H75.5036V52.974H71.6236Z" fill="#FE4A55"/>
<circle cx="64.5" cy="65.474" r="63.5" stroke="#FE4A55" stroke-width="2"/>
</svg>
