<svg xmlns="http://www.w3.org/2000/svg" width="64.323" height="55.278" viewBox="0 0 64.323 55.278">
  <g id="online-income" transform="translate(-1 -5.5)">
    <path id="Path_123530" data-name="Path 123530" d="M63.313,47.712H62.308V8.515A3.024,3.024,0,0,0,59.293,5.5H7.03A3.024,3.024,0,0,0,4.015,8.515v39.2H3.01A2.016,2.016,0,0,0,1,49.722v4.02a7.043,7.043,0,0,0,7.035,7.035H58.288a7.043,7.043,0,0,0,7.035-7.035v-4.02A2.016,2.016,0,0,0,63.313,47.712ZM6.025,8.515A1.008,1.008,0,0,1,7.03,7.51H59.293A1.008,1.008,0,0,1,60.3,8.515v39.2H6.025ZM39.664,49.722,38.6,52.848H27.724l-1.065-3.126Zm23.649,4.02a5.027,5.027,0,0,1-5.025,5.025H8.035A5.027,5.027,0,0,1,3.01,53.742v-4.02H24.528l1.3,3.769a2.011,2.011,0,0,0,1.9,1.357H38.6a2,2,0,0,0,1.9-1.357l1.3-3.769H63.313Z" transform="translate(0 0)" fill="#262261"/>
    <path id="Path_123531" data-name="Path 123531" d="M55.227,45.682a3.024,3.024,0,0,0,3.015-3.015V12.515A3.024,3.024,0,0,0,55.227,9.5H11.005A3.024,3.024,0,0,0,7.99,12.515V42.667a3.024,3.024,0,0,0,3.015,3.015ZM10,42.667V12.515a1.008,1.008,0,0,1,1.005-1.005H55.227a1.008,1.008,0,0,1,1.005,1.005V42.667a1,1,0,0,1-1.005,1.005H11.005A1.008,1.008,0,0,1,10,42.667Z" transform="translate(0.035 0.02)" fill="#262261"/>
    <circle id="Ellipse_2960" data-name="Ellipse 2960" cx="1.005" cy="1.005" r="1.005" transform="translate(46.549 53.24)" fill="#262261"/>
    <circle id="Ellipse_2961" data-name="Ellipse 2961" cx="1.005" cy="1.005" r="1.005" transform="translate(50.247 53.24)" fill="#262261"/>
    <circle id="Ellipse_2962" data-name="Ellipse 2962" cx="1.005" cy="1.005" r="1.005" transform="translate(53.946 53.24)" fill="#262261"/>
    <path id="Path_123532" data-name="Path 123532" d="M25.491,39.722A12.161,12.161,0,1,0,13.33,27.561,12.177,12.177,0,0,0,25.491,39.722Zm0-22.312A10.151,10.151,0,1,1,15.34,27.561,10.161,10.161,0,0,1,25.491,17.41Z" transform="translate(0.062 0.05)" fill="#fe4a55"/>
    <path id="Path_123533" data-name="Path 123533" d="M25.459,32.177a1.808,1.808,0,0,1-1.809-1.809,1.005,1.005,0,0,0-2.01,0,3.808,3.808,0,0,0,2.814,3.668v1.146a1.005,1.005,0,1,0,2.01,0V34.036a3.816,3.816,0,0,0-1.005-7.5,1.814,1.814,0,1,1,1.809-1.809,1.005,1.005,0,0,0,2.01,0,3.829,3.829,0,0,0-2.814-3.678V19.905a1.005,1.005,0,0,0-2.01,0v1.146a3.816,3.816,0,0,0,1.005,7.5,1.814,1.814,0,0,1,0,3.628Z" transform="translate(0.104 0.068)" fill="#fe4a55"/>
    <path id="Path_123534" data-name="Path 123534" d="M46.7,35.326a1.481,1.481,0,0,0,1.2.6,1.521,1.521,0,0,0,1.226-.643l4.3-6.362a1.5,1.5,0,0,0,.131-1.558,1.477,1.477,0,0,0-1.327-.814H50.975V21.125a1.008,1.008,0,0,0-1.005-1.005H45.859a1.008,1.008,0,0,0-1.005,1.005v5.427H43.6a1.481,1.481,0,0,0-1.216,2.332Zm-1.347-6.744A1.484,1.484,0,0,0,46.844,27.1V22.16h2.1V27.1a1.491,1.491,0,0,0,1.487,1.487h.794l-3.337,4.935-3.337-4.935Z" transform="translate(0.208 0.074)" fill="#262261"/>
  </g>
</svg>
