<svg xmlns="http://www.w3.org/2000/svg" width="31.341" height="31.34" viewBox="0 0 31.341 31.34">
  <path id="Path_106199" data-name="Path 106199" d="M772.908,367.342h-2.45a2.487,2.487,0,0,0-.819-.138,15.039,15.039,0,0,1-8.119-3.672,15.309,15.309,0,0,1-5.162-14.811,14.737,14.737,0,0,1,4.726-8.532,15.322,15.322,0,0,1,12.794-4.043,14.936,14.936,0,0,1,8.187,3.733,15.413,15.413,0,0,1,5.245,9.928,1.381,1.381,0,0,0,.112.637v2.51c-.084.023-.058.095-.064.15a18.647,18.647,0,0,1-.3,1.932,15.686,15.686,0,0,1-13.482,12.2A1.465,1.465,0,0,0,772.908,367.342Zm-6.335-28.5a13.273,13.273,0,0,0-4.23,2.678,11.373,11.373,0,0,0-1.333,1.432c1.01.3,2.019.493,3.027.692.178.035.2-.076.239-.195a18.376,18.376,0,0,1,.939-2.281,19.4,19.4,0,0,1,1.4-2.285c.027-.009.057-.023.032-.055C766.638,338.818,766.6,338.835,766.573,338.841Zm10.343,0c-.025-.006-.065-.023-.071-.015-.024.032.005.046.032.055.221.328.452.65.662.986a16.3,16.3,0,0,1,1.683,3.614c.044.135.07.262.282.215.517-.113,1.043-.188,1.561-.3.49-.1.974-.233,1.513-.364-.345-.38-.634-.722-.948-1.041A13.365,13.365,0,0,0,776.916,338.841Zm-9.066,11.906c.917,0,1.835,0,2.753,0,.162,0,.228-.026.227-.211q-.012-2.125,0-4.25c0-.158-.041-.2-.2-.209a48.752,48.752,0,0,1-4.877-.349c-.184-.024-.233.036-.274.213a25.8,25.8,0,0,0-.6,4.5c-.011.229.026.31.28.305C766.055,350.737,766.952,350.747,767.849,350.747Zm7.783,0c.908,0,1.816-.008,2.724.005.219,0,.264-.057.255-.27a26.329,26.329,0,0,0-.583-4.48c-.04-.182-.1-.246-.3-.223-1.623.183-3.251.281-4.884.305-.222,0-.184.125-.184.253,0,1.387,0,2.775,0,4.162,0,.2.047.255.249.252C773.817,350.741,774.725,350.747,775.633,350.747Zm-15.176,0c.785,0,1.571,0,2.356,0,.138,0,.225-.007.23-.187a25.6,25.6,0,0,1,.617-4.9c.036-.16.006-.223-.175-.255a27.154,27.154,0,0,1-3.412-.809.2.2,0,0,0-.292.108,13.73,13.73,0,0,0-1.826,5.833c-.015.183.037.218.207.216C758.927,350.744,759.692,350.748,760.457,350.748ZM783,352.586q-1.162,0-2.324,0c-.128,0-.231-.013-.238.178a25.5,25.5,0,0,1-.622,4.839c-.042.183.047.208.173.23a27.127,27.127,0,0,1,3.5.828c.141.043.192.009.258-.107a13.749,13.749,0,0,0,1.78-5.72c.017-.2-.032-.254-.234-.251C784.534,352.593,783.769,352.586,783,352.586Zm0-1.839c.766,0,1.531-.007,2.3,0,.2,0,.251-.047.234-.251a13.731,13.731,0,0,0-1.769-5.7.207.207,0,0,0-.288-.114,28.119,28.119,0,0,1-3.455.775c-.213.035-.212.123-.176.281a24.954,24.954,0,0,1,.6,4.755c.006.2.062.256.263.253C781.471,350.74,782.236,350.747,783,350.747Zm-7.337,1.839c-.928,0-1.857,0-2.785,0-.138,0-.221,0-.22.187q.012,2.1,0,4.192c0,.167.059.2.212.206a47.552,47.552,0,0,1,4.851.326c.169.019.241,0,.286-.194a26.2,26.2,0,0,0,.6-4.416c.013-.228-.026-.311-.28-.306C777.44,352.6,776.552,352.586,775.664,352.586Zm-7.806,0c-.908,0-1.816,0-2.725,0-.179,0-.268.013-.256.238a25.852,25.852,0,0,0,.6,4.478c.037.162.095.19.242.173a45.156,45.156,0,0,1,4.853-.308c.195,0,.256-.054.255-.258q-.015-2.035,0-4.071c0-.195-.042-.257-.247-.254C769.675,352.593,768.766,352.586,767.858,352.586Zm-7.363,0c-.755,0-1.51.012-2.265-.007-.256-.007-.291.076-.27.3a13.9,13.9,0,0,0,1.681,5.507.283.283,0,0,0,.4.162,26.512,26.512,0,0,1,3.364-.755c.223-.036.288-.1.235-.329a24.524,24.524,0,0,1-.594-4.631c-.007-.193-.055-.259-.259-.255C762.026,352.593,761.261,352.585,760.5,352.585Zm16.951-8.616a13.424,13.424,0,0,0-2.229-4.188,5.432,5.432,0,0,0-2.347-1.751c-.144-.051-.212-.056-.211.138q.009,2.938,0,5.876c0,.184.062.216.227.207.693-.034,1.387-.044,2.08-.087C775.779,344.115,776.591,344.039,777.447,343.97Zm-11.388,15.313a14.449,14.449,0,0,0,.93,2.2,9.139,9.139,0,0,0,2.187,2.873,4.317,4.317,0,0,0,1.648.9c0-2.036,0-4.044.006-6.052,0-.23-.109-.2-.26-.2C769.072,359.028,767.578,359.124,766.059,359.283Zm.012-15.364c1.528.189,3.046.259,4.564.33.186.009.192-.073.191-.213,0-.725,0-1.449,0-2.174v-3.876a3.263,3.263,0,0,0-1.144.514,8.4,8.4,0,0,0-2.712,3.289A13.248,13.248,0,0,0,766.072,343.918Zm6.592,21.34a5.28,5.28,0,0,0,2.567-1.831,13.215,13.215,0,0,0,2.1-3.838c.1-.267.01-.3-.209-.316-1.392-.13-2.785-.229-4.183-.271-.235-.007-.283.049-.282.277.01,1.908.006,3.816.006,5.724Zm-5.959-.707a.214.214,0,0,0-.069-.207,13.208,13.208,0,0,1-1.388-2.225,18.766,18.766,0,0,1-.981-2.365c-.034-.1-.023-.243-.225-.208-1.051.181-2.1.387-3.166.681A13.829,13.829,0,0,0,766.7,364.552Zm10.032-.013a13.476,13.476,0,0,0,5.816-4.237c-1.006-.293-1.99-.492-2.976-.685-.246-.048-.322.017-.4.24A15.648,15.648,0,0,1,776.737,364.539Z" transform="translate(-756.082 -336.001)" fill="#212189"/>
</svg>
