<svg xmlns="http://www.w3.org/2000/svg" width="629" height="53" viewBox="0 0 629 53">
  <g id="Group_66500" data-name="Group 66500" transform="translate(-454 -862)">
    <path id="Rectangle_28522" data-name="Rectangle 28522" d="M4,0H625a4,4,0,0,1,4,4V53a0,0,0,0,1,0,0H0a0,0,0,0,1,0,0V4A4,4,0,0,1,4,0Z" transform="translate(454 862)" fill="#f6f6f6"/>
    <path id="ic_radio_button_checked_24px" d="M9.5,2A7.5,7.5,0,1,0,17,9.5,7.5,7.5,0,0,0,9.5,2Zm0,13.5a6,6,0,1,1,6-6A6,6,0,0,1,9.5,15.5Z" transform="translate(476 879)"/>
    <g id="Group_4433" data-name="Group 4433" transform="translate(501 877.482)">
      <g id="Group_3565" data-name="Group 3565" transform="translate(22.866 2.604)">
        <path id="Path_11951" data-name="Path 11951" d="M43.27,6.749H38.337a.685.685,0,0,0-.677.578L35.665,19.976a.411.411,0,0,0,.407.475h2.355a.685.685,0,0,0,.677-.579l.538-3.411a.685.685,0,0,1,.677-.579H41.88c3.249,0,5.124-1.572,5.614-4.688a3.8,3.8,0,0,0-.629-3.184A4.576,4.576,0,0,0,43.27,6.749Zm.569,4.62c-.27,1.77-1.622,1.77-2.93,1.77h-.744l.522-3.305a.411.411,0,0,1,.406-.347h.341c.891,0,1.731,0,2.165.508A1.644,1.644,0,0,1,43.839,11.369Z" transform="translate(-35.66 -6.748)" fill="#253b80"/>
        <path id="Path_11952" data-name="Path 11952" d="M62.336,12.989H59.974a.411.411,0,0,0-.406.347l-.1.661-.165-.239a3.362,3.362,0,0,0-2.79-.99,5.432,5.432,0,0,0-5.274,4.75,4.458,4.458,0,0,0,.88,3.629,3.7,3.7,0,0,0,2.975,1.2,4.519,4.519,0,0,0,3.269-1.352l-.105.656a.411.411,0,0,0,.405.476h2.128a.685.685,0,0,0,.677-.579l1.277-8.084A.409.409,0,0,0,62.336,12.989Zm-3.292,4.6a2.632,2.632,0,0,1-2.665,2.255,1.83,1.83,0,0,1-1.957-2.3,2.644,2.644,0,0,1,2.647-2.273,1.993,1.993,0,0,1,1.575.643A2.044,2.044,0,0,1,59.044,17.586Z" transform="translate(-39.982 -8.426)" fill="#253b80"/>
        <path id="Path_11953" data-name="Path 11953" d="M79.842,13.075H77.469a.688.688,0,0,0-.568.3L73.628,18.2,72.24,13.564a.687.687,0,0,0-.658-.489H69.25a.411.411,0,0,0-.39.544l2.614,7.673-2.458,3.47a.411.411,0,0,0,.335.649h2.371a.684.684,0,0,0,.563-.294l7.895-11.4A.411.411,0,0,0,79.842,13.075Z" transform="translate(-44.908 -8.512)" fill="#253b80"/>
        <path id="Path_11954" data-name="Path 11954" d="M92.051,6.749H87.117a.685.685,0,0,0-.677.578L84.446,19.976a.41.41,0,0,0,.405.475h2.532a.48.48,0,0,0,.473-.405l.566-3.585a.685.685,0,0,1,.677-.579h1.561c3.25,0,5.124-1.572,5.615-4.688a3.8,3.8,0,0,0-.63-3.184A4.572,4.572,0,0,0,92.051,6.749Zm.569,4.62c-.269,1.77-1.621,1.77-2.93,1.77h-.744l.523-3.305a.41.41,0,0,1,.405-.347h.341c.89,0,1.731,0,2.165.508A1.644,1.644,0,0,1,92.62,11.369Z" transform="translate(-49.258 -6.748)" fill="#179bd7"/>
        <path id="Path_11955" data-name="Path 11955" d="M111.117,12.989h-2.361a.409.409,0,0,0-.405.347l-.1.661-.166-.239a3.361,3.361,0,0,0-2.789-.99,5.431,5.431,0,0,0-5.273,4.75,4.461,4.461,0,0,0,.879,3.629,3.7,3.7,0,0,0,2.975,1.2,4.519,4.519,0,0,0,3.269-1.352l-.105.656a.411.411,0,0,0,.407.476h2.127a.685.685,0,0,0,.677-.579l1.277-8.084A.412.412,0,0,0,111.117,12.989Zm-3.292,4.6a2.631,2.631,0,0,1-2.665,2.255,1.83,1.83,0,0,1-1.957-2.3,2.645,2.645,0,0,1,2.647-2.273,1.993,1.993,0,0,1,1.575.643A2.034,2.034,0,0,1,107.825,17.586Z" transform="translate(-53.581 -8.426)" fill="#179bd7"/>
        <path id="Path_11956" data-name="Path 11956" d="M118.511,7.1l-2.025,12.88a.41.41,0,0,0,.405.475h2.035a.684.684,0,0,0,.677-.579l2-12.648a.411.411,0,0,0-.405-.475h-2.279A.412.412,0,0,0,118.511,7.1Z" transform="translate(-58.19 -6.748)" fill="#179bd7"/>
      </g>
      <g id="Group_3566" data-name="Group 3566" transform="translate(0 0)">
        <path id="Path_11957" data-name="Path 11957" d="M5.592,21.564l.382-2.426-.851-.02H1.061L3.884,1.22a.237.237,0,0,1,.079-.14.231.231,0,0,1,.15-.055h6.849c2.274,0,3.843.473,4.662,1.407a3.208,3.208,0,0,1,.747,1.4,5.054,5.054,0,0,1,.005,1.931l-.009.056v.494l.384.218a2.694,2.694,0,0,1,.778.593,2.761,2.761,0,0,1,.631,1.415,5.986,5.986,0,0,1-.09,2.053,7.231,7.231,0,0,1-.841,2.324,4.78,4.78,0,0,1-1.333,1.46,5.406,5.406,0,0,1-1.795.81,8.95,8.95,0,0,1-2.243.259h-.533A1.6,1.6,0,0,0,9.741,16.8l-.04.218L9.026,21.29,9,21.447a.135.135,0,0,1-.042.091.113.113,0,0,1-.07.026Z" transform="translate(-0.286 -0.276)" fill="#253b80"/>
        <path id="Path_11958" data-name="Path 11958" d="M18.5,7.667h0q-.031.2-.07.4c-.9,4.637-3.993,6.239-7.94,6.239H8.479a.976.976,0,0,0-.965.827h0L6.486,21.66l-.291,1.85A.514.514,0,0,0,6.7,24.1h3.564a.858.858,0,0,0,.847-.723l.035-.181.671-4.258.043-.234a.857.857,0,0,1,.847-.724h.533c3.453,0,6.156-1.4,6.946-5.459a4.648,4.648,0,0,0-.714-4.105A3.408,3.408,0,0,0,18.5,7.667Z" transform="translate(-1.67 -2.069)" fill="#179bd7"/>
        <path id="Path_11959" data-name="Path 11959" d="M18.044,7.031q-.207-.06-.426-.11t-.452-.085a11.16,11.16,0,0,0-1.771-.129H10.026a.856.856,0,0,0-.846.724L8.038,14.665l-.033.211a.976.976,0,0,1,.965-.827h2.009c3.947,0,7.037-1.6,7.94-6.239.027-.137.05-.271.07-.4a4.815,4.815,0,0,0-.743-.313C18.181,7.073,18.113,7.052,18.044,7.031Z" transform="translate(-2.16 -1.81)" fill="#222d65"/>
        <path id="Path_11960" data-name="Path 11960" d="M7.02,5.622A.856.856,0,0,1,7.866,4.9h5.368a11.16,11.16,0,0,1,1.771.129q.232.037.452.085t.426.11l.2.063a4.887,4.887,0,0,1,.743.313A4.38,4.38,0,0,0,15.9,1.661C14.88.5,13.036,0,10.677,0H3.828A.979.979,0,0,0,2.86.827L.007,18.911a.588.588,0,0,0,.581.681H4.816l1.062-6.736Z" transform="translate(0 0)" fill="#253b80"/>
      </g>
    </g>
    <path id="ic_expand_more_24px" d="M12.6,0,7.137,5.448,1.677,0,0,1.677,7.137,8.815l7.137-7.137Z" transform="translate(1051.186 895.637) rotate(-90)" fill="#212189"/>
  </g>
</svg>
