<svg id="Group_65563" data-name="Group 65563" xmlns="http://www.w3.org/2000/svg" width="30.693" height="41.034" viewBox="0 0 30.693 41.034">
  <path id="Path_106628" data-name="Path 106628" d="M1197.841,241.536h-21.557c-.02-.058-.068-.069-.122-.083a5.315,5.315,0,0,1-4.4-5.615q0-14.823,0-29.645a6.662,6.662,0,0,1,.072-1.238,5.323,5.323,0,0,1,5.37-4.451q4.065-.006,8.132,0,2.724,0,5.447.012c0,.2.011.4.011.6,0,3.641.006,7.282-.008,10.923,0,.389.118.495.5.493,3.681-.013,7.361-.008,11.042-.008.188.141.109.345.11.52q.006,11.437,0,22.873c0,.2,0,.4-.016.6a5.258,5.258,0,0,1-3.344,4.641C1198.681,241.335,1198.242,241.37,1197.841,241.536Zm-13.565-14.167c0,1.148,0,2.3,0,3.443,0,.2.019.316.272.311.894-.016,1.789.018,2.682-.017a3.523,3.523,0,0,0,3.623-3.589,3.447,3.447,0,0,0-2.939-3.785,21.715,21.715,0,0,0-3.273-.117c-.319-.015-.371.109-.367.391C1184.284,225.127,1184.275,226.248,1184.275,227.369Zm-6.573.006c0,1.134.01,2.268-.007,3.4,0,.286.085.362.358.347a8.908,8.908,0,0,1,1.2,0c.322.025.374-.105.366-.387-.018-.653.006-1.307-.011-1.961-.007-.273.068-.379.356-.367a12.564,12.564,0,0,0,1.28-.015,2.377,2.377,0,0,0,.362-4.7,4.47,4.47,0,0,0-.875-.075c-.893-.01-1.787.007-2.681-.01-.283-.005-.358.081-.355.359C1177.711,225.107,1177.7,226.241,1177.7,227.375Zm14.117-.023c0,1.148.009,2.3-.006,3.443,0,.266.077.341.335.329.426-.02.854-.02,1.281,0,.249.011.317-.071.313-.316-.015-.814,0-1.628-.01-2.442,0-.219.049-.309.285-.3.386.018.774.018,1.161,0,.42-.018,1,.193,1.218-.089.21-.266.048-.817.073-1.241.014-.244-.093-.288-.306-.284-.52.011-1.041,0-1.561,0-.883,0-.871,0-.872-.876,0-.271.088-.331.34-.327.907.014,1.815-.006,2.723.012.288.006.368-.089.349-.362a6.561,6.561,0,0,1,0-.96c.022-.281-.1-.331-.345-.329-1.548.008-3.1.012-4.644,0-.3,0-.342.118-.339.375C1191.826,225.11,1191.82,226.231,1191.82,227.352Z" transform="translate(-1171.762 -200.502)" fill="#c42a2e"/>
  <path id="Path_106629" data-name="Path 106629" d="M1261.368,200.569a2.684,2.684,0,0,1,.63.6q5.386,5.61,10.764,11.228c.054.057.1.122.152.183-3.681,0-7.362,0-11.042.009-.381,0-.5-.1-.5-.493.014-3.641.008-7.282.008-10.923C1261.379,200.969,1261.372,200.769,1261.368,200.569Z" transform="translate(-1242.347 -200.555)" fill="#d0676a"/>
  <path id="Path_106630" data-name="Path 106630" d="M1230.685,313.127c0-1.121.008-2.242-.006-3.363,0-.282.048-.406.367-.391a21.723,21.723,0,0,1,3.274.117,3.447,3.447,0,0,1,2.938,3.785,3.522,3.522,0,0,1-3.623,3.589c-.893.035-1.788,0-2.682.018-.253,0-.273-.109-.272-.311C1230.689,315.422,1230.685,314.274,1230.685,313.127Zm1.866-.015v1.239c0,1,0,1,1.031.859a1.873,1.873,0,0,0,1.764-2.04,1.894,1.894,0,0,0-1.722-2.121c-.275-.042-.559-.013-.838-.033-.2-.015-.241.08-.239.259C1232.557,311.886,1232.552,312.5,1232.552,313.112Z" transform="translate(-1218.173 -286.259)" fill="#fdfcfc"/>
  <path id="Path_106631" data-name="Path 106631" d="M1199.72,313.143c0-1.134.009-2.268-.007-3.4,0-.278.072-.364.355-.359.894.018,1.788,0,2.681.011a4.462,4.462,0,0,1,.875.075,2.377,2.377,0,0,1-.362,4.7,12.551,12.551,0,0,1-1.28.015c-.288-.012-.363.094-.356.367.017.653-.007,1.308.011,1.961.008.281-.044.412-.366.387a8.9,8.9,0,0,0-1.2,0c-.273.015-.363-.061-.359-.347C1199.729,315.411,1199.72,314.277,1199.72,313.143Zm1.912-1.373c0,.2,0,.4,0,.6,0,.135.055.19.19.187.36-.007.723.016,1.081-.017a.718.718,0,0,0,.686-.786.727.727,0,0,0-.717-.718c-.159-.014-.32-.008-.481-.008C1201.63,311.028,1201.63,311.028,1201.632,311.77Z" transform="translate(-1193.78 -286.269)" fill="#fdfbfb"/>
  <path id="Path_106632" data-name="Path 106632" d="M1266.226,313.119c0-1.121.007-2.242,0-3.363,0-.257.034-.378.338-.375,1.548.015,3.1.011,4.644,0,.248,0,.367.049.345.329a6.561,6.561,0,0,0,0,.96c.019.273-.062.368-.35.362-.907-.018-1.814,0-2.722-.012-.252,0-.341.056-.341.327,0,.876-.011.876.873.876.52,0,1.041.008,1.561,0,.212,0,.319.039.305.284-.024.424.137.975-.072,1.241-.223.282-.8.07-1.218.089-.386.017-.774.017-1.161,0-.236-.011-.288.079-.285.3.011.814,0,1.628.01,2.442,0,.245-.063.327-.313.316-.426-.02-.854-.02-1.281,0-.258.012-.339-.063-.335-.329C1266.234,315.414,1266.226,314.266,1266.226,313.119Z" transform="translate(-1246.168 -286.268)" fill="#fdfbfb"/>
  <path id="Path_106633" data-name="Path 106633" d="M1239.491,319.216c0-.613,0-1.226,0-1.839,0-.179.035-.273.239-.259.278.02.563-.009.837.033a1.894,1.894,0,0,1,1.721,2.122,1.873,1.873,0,0,1-1.764,2.04c-1.031.146-1.031.146-1.031-.858Z" transform="translate(-1225.111 -292.363)" fill="#c52c30"/>
  <path id="Path_106634" data-name="Path 106634" d="M1208.75,317.877c0-.742,0-.742.757-.741.16,0,.321-.006.48.008a.727.727,0,0,1,.717.718.718.718,0,0,1-.685.786c-.358.033-.72.01-1.081.017-.135,0-.193-.052-.19-.187C1208.753,318.277,1208.75,318.077,1208.75,317.877Z" transform="translate(-1200.897 -292.376)" fill="#c52c30"/>
</svg>
