<svg xmlns="http://www.w3.org/2000/svg" width="21.2" height="21.241" viewBox="0 0 21.2 21.241">
  <g id="Group_65644" data-name="Group 65644" transform="translate(-630.972 111.028)">
    <path id="Path_106680" data-name="Path 106680" d="M631.072,52.2a2.109,2.109,0,0,0,.113-.65,10.5,10.5,0,0,1,20.67-.593,9.9,9.9,0,0,1,.217,2.079.706.706,0,0,1-.75.763q-2.051,0-4.1,0a.7.7,0,0,1-.75-.7,3.719,3.719,0,0,0-.076-.746c-.351.2-.691.4-1.033.6q-1.039.594-2.08,1.184a.476.476,0,0,0-.2.171,1.662,1.662,0,0,1-1.249.865c-.008,0-.013.02-.02.031h-.574c-.049-.069-.131-.06-.2-.081a1.759,1.759,0,0,1-1.174-2.077,1.735,1.735,0,0,1,2.02-1.312.4.4,0,0,0,.237-.026q1.667-.648,3.357-1.233c.153-.053.167-.092.071-.229a4.882,4.882,0,0,0-6.576-1.3,4.793,4.793,0,0,0-2.3,4.03c-.024.577-.275.832-.832.832q-1.979,0-3.957,0a1.09,1.09,0,0,1-.364-.047.968.968,0,0,1-.454-.444Zm2.789.9c.635,0,1.27,0,1.905,0,.148,0,.211-.023.216-.194a5.445,5.445,0,0,1,1.3-3.4c.09-.108.066-.158-.02-.244q-1.373-1.368-2.737-2.745c-.1-.1-.142-.092-.231.008a9.8,9.8,0,0,0-2.522,6.4c0,.132.026.174.164.173C632.577,53.091,633.219,53.1,633.861,53.1Zm7.359-7.706c0-.65,0-1.3,0-1.951,0-.127-.03-.161-.16-.153a9.8,9.8,0,0,0-6.042,2.512c-.106.094-.1.141,0,.234q1.367,1.36,2.724,2.731c.1.106.159.109.276.011a5.415,5.415,0,0,1,3.052-1.258c.132-.012.154-.059.153-.175C641.218,46.69,641.22,46.039,641.22,45.389Zm.7-.018c0,.65,0,1.3,0,1.95,0,.1-.005.178.139.19a5.42,5.42,0,0,1,3.1,1.288c.111.093.155.044.227-.029q1.36-1.366,2.726-2.727c.116-.115.1-.165-.013-.263a9.791,9.791,0,0,0-6.006-2.494c-.151-.01-.18.035-.178.176C641.928,44.1,641.924,44.734,641.924,45.371Zm7.343,7.724c.642,0,1.284,0,1.927,0,.14,0,.187-.029.181-.178a11.019,11.019,0,0,0-.166-1.611,9.821,9.821,0,0,0-2.376-4.8c-.068-.076-.109-.088-.188-.008q-1.387,1.4-2.782,2.788c-.071.071-.084.116-.014.2a3.541,3.541,0,0,1,.367.492.233.233,0,0,0,.341.117c.723-.264,1.451-.513,2.177-.766a.7.7,0,0,1,.761.137.7.7,0,0,1-.156,1.131c-.712.43-1.428.854-2.144,1.277-.09.053-.15.1-.121.222a3.518,3.518,0,0,1,.089.835c0,.132.043.171.177.17C647.982,53.091,648.624,53.1,649.267,53.1Zm-5.958.217c1.84-1.032,3.641-2.1,5.427-3.207-1.989.65-3.961,1.342-5.934,2.088A1.819,1.819,0,0,1,643.308,53.312Zm-1.731-.917a1.05,1.05,0,1,0,1.045,1.043A1.051,1.051,0,0,0,641.577,52.4Z" transform="translate(0 -145.084)" fill="#fe4a55" stroke="#fe4a55" stroke-width="0.2"/>
    <path id="Path_106681" data-name="Path 106681" d="M774.514-110.928a1.041,1.041,0,0,1,.618.628c.093.219.215.426.315.643a.207.207,0,0,0,.181.133c.29.043.578.1.866.153a.777.777,0,0,1,.449,1.3c-.2.233-.417.453-.632.673a.263.263,0,0,0-.085.252,9.632,9.632,0,0,1,.133,1.016.749.749,0,0,1-1.11.719,6.955,6.955,0,0,1-.669-.351.386.386,0,0,0-.462,0c-.215.131-.444.239-.67.35a.75.75,0,0,1-1.109-.722,9.914,9.914,0,0,1,.133-1.016.262.262,0,0,0-.086-.252c-.206-.21-.405-.426-.606-.641a.765.765,0,0,1-.182-.815.74.74,0,0,1,.629-.517c.283-.046.563-.105.847-.147a.207.207,0,0,0,.18-.136c.088-.192.195-.376.279-.569a1.24,1.24,0,0,1,.613-.7Zm-1.477,4.761c-.021.165.054.154.165.095.3-.159.608-.309.906-.474a.461.461,0,0,1,.483,0c.287.157.578.308.869.456.056.029.12.1.185.043.048-.042.019-.118.01-.177-.048-.332-.1-.663-.15-.994a.528.528,0,0,1,.148-.5c.244-.24.472-.5.706-.745.041-.043.1-.082.08-.154s-.1-.065-.155-.075c-.329-.06-.658-.121-.989-.169a.456.456,0,0,1-.376-.275c-.156-.326-.321-.648-.483-.972-.021-.041-.031-.1-.086-.1s-.066.06-.087.1c-.162.323-.327.645-.483.971a.457.457,0,0,1-.375.276c-.337.05-.673.111-1.009.173-.174.032-.19.079-.07.209.227.247.45.5.692.73a.583.583,0,0,1,.17.576C773.129-106.845,773.086-106.505,773.036-106.167Z" transform="translate(-132.777 0)" fill="#fe4a55" stroke="#fe4a55" stroke-width="0.2"/>
    <path id="Path_106682" data-name="Path 106682" d="M657.338-54.943c.043-.3.081-.633.141-.963a.323.323,0,0,0-.1-.324c-.2-.2-.387-.406-.578-.611a.765.765,0,0,1-.187-.832.759.759,0,0,1,.657-.513c.2-.028.4-.092.6-.1a.5.5,0,0,0,.493-.366,6.536,6.536,0,0,1,.315-.642.733.733,0,0,1,.688-.435.728.728,0,0,1,.672.428c.134.261.271.521.39.788a.313.313,0,0,0,.271.2c.263.039.525.088.787.133a.751.751,0,0,1,.628.521.762.762,0,0,1-.172.8c-.2.218-.4.435-.606.64a.315.315,0,0,0-.1.309c.048.3.09.595.13.893a.748.748,0,0,1-.316.752.715.715,0,0,1-.792.051c-.261-.133-.522-.266-.779-.408a.217.217,0,0,0-.241,0c-.268.149-.539.293-.817.423A.767.767,0,0,1,657.338-54.943Zm2.029-.485a.43.43,0,0,1,.212.067c.3.157.6.315.906.471.051.027.1.086.166.038s.019-.1.012-.154c-.049-.352-.09-.705-.151-1.055a.471.471,0,0,1,.134-.447c.233-.24.462-.485.69-.73.049-.053.134-.1.111-.182-.027-.1-.136-.077-.208-.092-.314-.062-.63-.12-.947-.163a.453.453,0,0,1-.369-.282c-.154-.319-.313-.636-.471-.953-.021-.042-.033-.1-.084-.108s-.078.066-.1.112c-.162.323-.326.645-.483.97a.424.424,0,0,1-.341.257c-.337.053-.672.115-1.007.179-.061.012-.15-.007-.17.082-.016.07.05.107.091.151q.364.389.731.776a.43.43,0,0,1,.123.392c-.059.364-.106.73-.157,1.1-.007.052-.039.11.013.153s.113-.011.162-.036c.3-.154.605-.312.907-.469A.426.426,0,0,1,659.367-55.427Z" transform="translate(-24.087 -48.391)" fill="#fe4a55" stroke="#fe4a55" stroke-width="0.2"/>
    <path id="Path_106683" data-name="Path 106683" d="M887.23-54.961c.042-.289.083-.608.137-.925a.344.344,0,0,0-.1-.346c-.2-.189-.376-.4-.565-.595a.778.778,0,0,1-.205-.829.755.755,0,0,1,.664-.531c.2-.027.389-.091.585-.1a.521.521,0,0,0,.52-.39,5.446,5.446,0,0,1,.316-.642.728.728,0,0,1,.68-.416.72.72,0,0,1,.661.411c.146.278.284.56.419.843a.234.234,0,0,0,.195.149c.283.043.565.1.847.147a.756.756,0,0,1,.627.523.758.758,0,0,1-.176.8c-.207.228-.417.452-.634.671a.244.244,0,0,0-.073.237c.051.31.1.621.139.933a.757.757,0,0,1-.319.753.717.717,0,0,1-.792.052c-.255-.13-.51-.26-.76-.4a.25.25,0,0,0-.278,0c-.261.147-.526.288-.8.415A.767.767,0,0,1,887.23-54.961Zm.712-.033c0,.053-.034.113.028.148s.1-.017.148-.041c.29-.15.585-.293.868-.455a.5.5,0,0,1,.538,0c.286.159.578.306.868.456.045.023.088.075.145.035s.028-.1.02-.151c-.052-.365-.1-.732-.158-1.1a.441.441,0,0,1,.131-.408q.355-.37.7-.747c.048-.052.137-.094.1-.182s-.128-.068-.2-.081c-.322-.061-.644-.12-.968-.167a.436.436,0,0,1-.355-.27c-.156-.326-.319-.648-.481-.971-.021-.042-.037-.1-.089-.1s-.066.061-.087.1c-.161.324-.323.647-.481.971a.444.444,0,0,1-.356.269c-.337.051-.672.115-1.007.179-.2.038-.211.081-.077.224.238.255.475.51.718.76a.473.473,0,0,1,.14.446C888.037-55.712,887.994-55.352,887.942-54.994Z" transform="translate(-241.378 -48.39)" fill="#fe4a55" stroke="#fe4a55" stroke-width="0.2"/>
  </g>
</svg>
