<svg id="Component_173_1" data-name="Component 173 – 1" xmlns="http://www.w3.org/2000/svg" width="53" height="53" viewBox="0 0 53 53">
  <g id="Rectangle_29015" data-name="Rectangle 29015" fill="#f5f7f9" stroke="#212189" stroke-width="0.5">
    <rect width="53" height="53" rx="26.5" stroke="none"/>
    <rect x="0.25" y="0.25" width="52.5" height="52.5" rx="26.25" fill="none"/>
  </g>
  <path id="Path_106730" data-name="Path 106730" d="M27.862,22.416l-.094.707A29.451,29.451,0,0,1,20.822,21.1l.3-.556a1.819,1.819,0,0,1,2.009-.9l3.313.749a1.823,1.823,0,0,1,1.413,2.028Zm-3.685,5.449a3.044,3.044,0,0,0,3.312-2.637l.2-1.5a30.055,30.055,0,0,1-7.162-2.094l-.39.708a1.216,1.216,0,0,1-1.548.534,20.283,20.283,0,0,1-6.274-4.2l0,0A20.279,20.279,0,0,1,8.11,12.4a1.216,1.216,0,0,1,.534-1.548l.708-.39A30.062,30.062,0,0,1,7.257,3.3l-1.5.2A3.044,3.044,0,0,0,3.12,6.808C3.7,13,5.8,17.987,9.367,21.619,13,25.182,17.981,27.283,24.177,27.865ZM8.569,3.123A1.823,1.823,0,0,1,10.6,4.535l.748,3.314a1.818,1.818,0,0,1-.9,2.008l-.555.306A29.456,29.456,0,0,1,7.862,3.217ZM26.584,19.793l-3.314-.749a2.423,2.423,0,0,0-2.677,1.2l-.989,1.8a.609.609,0,0,1-.776.267,19.683,19.683,0,0,1-6.086-4.072A19.688,19.688,0,0,1,8.67,12.158a.61.61,0,0,1,.267-.776l1.8-.989a2.423,2.423,0,0,0,1.2-2.677L11.192,4.4a2.43,2.43,0,0,0-2.7-1.883l-2.811.373A3.651,3.651,0,0,0,2.514,6.865c.6,6.34,2.756,11.448,6.42,15.183l0,0c3.734,3.664,8.842,5.824,15.182,6.42.118.011.235.016.351.016a3.65,3.65,0,0,0,3.623-3.18l.374-2.811A2.429,2.429,0,0,0,26.584,19.793Z" transform="translate(10.719 10.719)" fill="#212189" fill-rule="evenodd"/>
</svg>
