<svg id="play-button" xmlns="http://www.w3.org/2000/svg" width="17.207" height="17.207" viewBox="0 0 17.207 17.207">
  <g id="Group_106703" data-name="Group 106703">
    <g id="Group_106702" data-name="Group 106702">
      <path id="Path_125177" data-name="Path 125177" d="M8.6,0a8.6,8.6,0,1,0,8.6,8.6A8.6,8.6,0,0,0,8.6,0Zm0,15.486A6.883,6.883,0,1,1,15.486,8.6,6.891,6.891,0,0,1,8.6,15.486Z" fill="#292929"/>
      <path id="Path_125178" data-name="Path 125178" d="M199.14,164.746l-4.172-2.409c-.574-.331-1.043-.06-1.043.6v4.818c0,.662.469.934,1.043.6l4.172-2.409A.637.637,0,0,0,199.14,164.746Z" transform="translate(-187.408 -156.745)" fill="#292929"/>
    </g>
  </g>
</svg>
