<svg xmlns="http://www.w3.org/2000/svg" width="30.383" height="17.787" viewBox="0 0 30.383 17.787">
  <g id="Group_65025" data-name="Group 65025" transform="translate(-1951.908 -281.74)">
    <path id="Path_106223" data-name="Path 106223" d="M1951.908,282.929c.016-.009.043-.014.048-.027a1.692,1.692,0,0,1,1.844-1.162q13.379.015,26.759.006a1.575,1.575,0,0,1,1.7,1.256,2.376,2.376,0,0,1,.035.472q0,7.165,0,14.33a1.573,1.573,0,0,1-1.708,1.721q-13.484,0-26.967,0a1.568,1.568,0,0,1-1.652-1.163c-.009-.024-.036-.042-.055-.062Zm15.185,15.336h13.379c.53,0,.568-.038.568-.578V283.565c0-.508-.057-.567-.555-.567h-26.759c-.516,0-.568.053-.568.583v14.093c0,.558.033.591.584.591Z" fill="#212189"/>
    <path id="Path_106225" data-name="Path 106225" d="M2101.416,338.979c0-1.335,0-2.671,0-4.006,0-.3.034-.578.338-.731a.719.719,0,0,1,.795.139q2.81,2.006,5.625,4c.555.4.552.829-.006,1.227q-2.812,2-5.624,4.005a.658.658,0,0,1-1.127-.573C2101.419,341.689,2101.416,340.334,2101.416,338.979Zm1.268,3,4.185-2.979-4.185-2.974Z" transform="translate(-137.895 -48.361)" fill="#212189"/>
  </g>
</svg>
