<svg xmlns="http://www.w3.org/2000/svg" width="40.853" height="31.48" viewBox="0 0 40.853 31.48">
  <g id="Layer_1" transform="translate(-1 -4.441)">
    <g id="Group_109256" data-name="Group 109256" transform="translate(1 4.441)">
      <g id="Group_109255" data-name="Group 109255">
        <path id="Path_125733" data-name="Path 125733" d="M3.5,26.959,1.017,10.806a1.348,1.348,0,0,1,2.14-1.283L10.9,15.33a1.85,1.85,0,0,0,2.649-.454l6.446-9.669a1.721,1.721,0,0,1,2.864,0L29.3,14.876a1.85,1.85,0,0,0,2.649.454L39.7,9.523a1.348,1.348,0,0,1,2.141,1.283L39.351,26.959Z" transform="translate(-1 -4.441)" fill="#fc9c00"/>
        <path id="Path_125734" data-name="Path 125734" d="M36.817,29.146H4.706a1.869,1.869,0,0,1-1.869-1.869V23.171H38.686v4.106A1.869,1.869,0,0,1,36.817,29.146Z" transform="translate(-0.335 2.335)" fill="#fc9c00"/>
      </g>
    </g>
  </g>
</svg>
