<svg xmlns="http://www.w3.org/2000/svg" width="16.153" height="12.447" viewBox="0 0 16.153 12.447">
  <g id="Layer_1" transform="translate(-1 -4.441)">
    <g id="Group_109256" data-name="Group 109256" transform="translate(1 4.441)">
      <g id="Group_109255" data-name="Group 109255">
        <path id="Path_125733" data-name="Path 125733" d="M1.989,13.345,1.007,6.958a.533.533,0,0,1,.846-.507l3.061,2.3a.732.732,0,0,0,1.048-.179L8.511,4.744a.68.68,0,0,1,1.132,0l2.549,3.823a.732.732,0,0,0,1.048.179l3.061-2.3a.533.533,0,0,1,.846.507l-.983,6.387Z" transform="translate(-1 -4.441)" fill="#fc9c00"/>
        <path id="Path_125734" data-name="Path 125734" d="M16.273,25.534H3.576a.739.739,0,0,1-.739-.739V23.171H17.012v1.623A.739.739,0,0,1,16.273,25.534Z" transform="translate(-1.848 -13.086)" fill="#fc9c00"/>
      </g>
    </g>
  </g>
</svg>
