<svg xmlns="http://www.w3.org/2000/svg" width="15.874" height="15.997" viewBox="0 0 15.874 15.997">
  <g id="Group_66172" data-name="Group 66172" transform="translate(-1281.476 -2785.8)">
    <path id="Path_106937" data-name="Path 106937" d="M1289.322,2801.7a1.152,1.152,0,0,1-.235-.211c-.4-.45-.8-.9-1.2-1.348a.3.3,0,0,0-.248-.109q-2.4,0-4.8,0a1.179,1.179,0,0,1-1.208-.84,1.252,1.252,0,0,1-.049-.362q0-2.907,0-5.814a1.163,1.163,0,0,1,1.205-1.2q1.744,0,3.489,0h.171a3.625,3.625,0,0,1-.571-3.022,3.53,3.53,0,0,1,1.353-2.031,3.656,3.656,0,0,1,5.165,5.053H1296a1.16,1.16,0,0,1,1.219.92c0,.011.019.019.029.029v6.337c-.008.005-.021.009-.023.016a1.192,1.192,0,0,1-1.331.92q-2.354,0-4.708,0a.294.294,0,0,0-.247.111c-.359.41-.724.815-1.089,1.221a1.6,1.6,0,0,1-.346.336Zm7.316-5.78q0-1.439,0-2.877a.558.558,0,0,0-.612-.618q-2.035,0-4.071,0a.339.339,0,0,0-.232.084,3.636,3.636,0,0,1-4.622,0,.336.336,0,0,0-.233-.081q-2.028,0-4.055,0a.56.56,0,0,0-.623.623q0,2.877,0,5.754a.821.821,0,0,0,.018.2.565.565,0,0,0,.626.422q2.487,0,4.974,0a.513.513,0,0,1,.424.19c.357.412.729.813,1.087,1.224.081.093.118.081.192,0,.356-.406.724-.8,1.077-1.213a.539.539,0,0,1,.452-.2q2.479.008,4.958,0a.567.567,0,0,0,.64-.639Q1296.638,2797.348,1296.638,2795.917Zm-10.263-6.238a3.038,3.038,0,1,0,3.04-3.043A3.046,3.046,0,0,0,1286.375,2789.679Z" transform="translate(0 0)" fill="#212189" stroke="#1c1c76" stroke-width="0.2"/>
    <path id="Path_106938" data-name="Path 106938" d="M1324.788,2988.823a1.814,1.814,0,0,1-1.887-1.695,1.78,1.78,0,0,1,1.513-1.841,1.778,1.778,0,0,1,1.8,2.657c-.05.089-.051.139.026.2a1.079,1.079,0,0,1,.169.176.3.3,0,0,1-.028.4.273.273,0,0,1-.4.013c-.184-.24-.354-.219-.587-.072A1.182,1.182,0,0,1,1324.788,2988.823Zm-.112-.612a1.274,1.274,0,0,0,.5-.107c.089-.04.089-.074.021-.135a2.03,2.03,0,0,1-.2-.207.3.3,0,0,1,.428-.427,1.789,1.789,0,0,1,.207.2c.066.076.09.046.122-.027a1.152,1.152,0,0,0,.1-.474,1.17,1.17,0,1,0-1.177,1.174Z" transform="translate(-39.63 -191.093)" fill="#212189" stroke="#1c1c76" stroke-width="0.2"/>
    <path id="Path_106939" data-name="Path 106939" d="M1561.859,2985.73h-1.233c-.223,0-.365-.116-.369-.3s.144-.313.372-.313c.582,0,1.163,0,1.745,0a.317.317,0,0,1,.28.523q-.74,1.131-1.477,2.265a.321.321,0,0,0-.078.146c.048.033.1.017.147.017.393,0,.786,0,1.178,0,.221,0,.36.131.354.316s-.14.294-.357.3c-.622,0-1.245,0-1.867,0a.323.323,0,0,1-.321-.163.328.328,0,0,1,.043-.357q.74-1.132,1.476-2.266Z" transform="translate(-267.223 -190.95)" fill="#212189" stroke="#1c1c76" stroke-width="0.2"/>
    <path id="Path_106940" data-name="Path 106940" d="M1429.545,2986.514c0,.286-.014.572,0,.856a1.305,1.305,0,0,1-1.387,1.319,1.285,1.285,0,0,1-1.278-1.333c0-.622,0-1.244,0-1.867,0-.29.242-.451.466-.317a.326.326,0,0,1,.146.315c0,.622.01,1.245,0,1.866a.657.657,0,0,0,.5.693.81.81,0,0,0,.856-.3.567.567,0,0,0,.083-.335q0-.933,0-1.867a.989.989,0,0,1,.005-.152.31.31,0,0,1,.319-.27.3.3,0,0,1,.286.3c0,.362,0,.724,0,1.086Z" transform="translate(-139.361 -190.958)" fill="#212189" stroke="#1c1c76" stroke-width="0.2"/>
    <path id="Path_106941" data-name="Path 106941" d="M1519.352,2986.954c0,.485,0,.969,0,1.454a.306.306,0,0,1-.6.11.49.49,0,0,1-.013-.136q0-1.431,0-2.862a.308.308,0,1,1,.611,0C1519.354,2985.995,1519.352,2986.475,1519.352,2986.954Z" transform="translate(-227.461 -191.002)" fill="#212189" stroke="#1c1c76" stroke-width="0.2"/>
    <path id="Path_106942" data-name="Path 106942" d="M1444,2820.614c0-.158,0-.316,0-.475a.3.3,0,0,1,.279-.307,1.429,1.429,0,0,0,.225-.04.62.62,0,0,0-.235-1.207.608.608,0,0,0-.578.566.341.341,0,0,1-.224.346.3.3,0,0,1-.39-.318,1.23,1.23,0,0,1,2.025-.912,1.225,1.225,0,0,1-.377,2.1c-.083.03-.118.064-.114.158.009.183,0,.367,0,.551a.307.307,0,1,1-.611,0C1443.993,2820.92,1444,2820.767,1444,2820.614Z" transform="translate(-154.888 -30.635)" fill="#212189" stroke="#1c1c76" stroke-width="0.2"/>
    <path id="Path_106943" data-name="Path 106943" d="M1465.965,2917.693a.3.3,0,0,1,.308.307.305.305,0,1,1-.611-.01A.3.3,0,0,1,1465.965,2917.693Z" transform="translate(-176.555 -126.285)" fill="#212189" stroke="#1c1c76" stroke-width="0.2"/>
  </g>
</svg>
