<svg xmlns="http://www.w3.org/2000/svg" width="75.009" height="70.312" viewBox="0 0 75.009 70.312">
  <g id="rocket" transform="translate(0 -16.033)">
    <path id="Path_123527" data-name="Path 123527" d="M73.911,188.918H69.137v-40a4.627,4.627,0,0,0-4.622-4.622H50.424a1.1,1.1,0,1,0,0,2.2H64.516a2.427,2.427,0,0,1,2.424,2.424v40H63.179a9.233,9.233,0,0,0,.086-1.25,9.33,9.33,0,0,0-9.319-9.32,9.19,9.19,0,0,0-2.061.235,6.949,6.949,0,0,0-6.16-3.759,6.784,6.784,0,0,0-2.46.457,5.8,5.8,0,0,0-11.522,0,6.784,6.784,0,0,0-2.46-.457,6.949,6.949,0,0,0-6.16,3.759,9.183,9.183,0,0,0-2.061-.235,9.33,9.33,0,0,0-9.319,9.32,9.231,9.231,0,0,0,.086,1.25H8.07v-40a2.427,2.427,0,0,1,2.424-2.424H24.586a1.1,1.1,0,1,0,0-2.2H10.494a4.627,4.627,0,0,0-4.622,4.622v40H1.1a1.1,1.1,0,0,0-1.1,1.1v2.349a3.451,3.451,0,0,0,3.448,3.448H71.562a3.451,3.451,0,0,0,3.448-3.448v-2.349A1.1,1.1,0,0,0,73.911,188.918Zm-1.1,3.448a1.251,1.251,0,0,1-1.25,1.25H3.448a1.251,1.251,0,0,1-1.25-1.25v-1.25H16.365a1.1,1.1,0,1,0,0-2.2H14.054a7.053,7.053,0,0,1-.113-1.25,7.105,7.105,0,0,1,9.45-6.724,1.1,1.1,0,0,0,1.4-.683,4.762,4.762,0,0,1,4.494-3.238,4.7,4.7,0,0,1,3.051,1.137,1.1,1.1,0,0,0,1.756-1.169,3.53,3.53,0,0,1-.184-1.067,3.6,3.6,0,1,1,7.2,0,3.53,3.53,0,0,1-.184,1.067,1.1,1.1,0,0,0,1.756,1.169,4.7,4.7,0,0,1,3.051-1.137,4.762,4.762,0,0,1,4.494,3.238,1.1,1.1,0,0,0,1.4.683,7.11,7.11,0,0,1,9.337,7.974H21.064a1.1,1.1,0,1,0,0,2.2H72.812Z" transform="translate(0 -109.468)" fill="#212189"/>
    <path id="Path_123528" data-name="Path 123528" d="M153.378,48.331a4.631,4.631,0,0,0-1.071,2.959v3.422a1.1,1.1,0,0,0,1.639.957l7.825-4.415q.447.817.948,1.606l-.984,3.935a1.1,1.1,0,0,0,1.066,1.365h9.4a1.1,1.1,0,0,0,1.066-1.365l-.984-3.935q.5-.789.948-1.606l7.825,4.415a1.1,1.1,0,0,0,1.639-.957V51.29a4.631,4.631,0,0,0-1.071-2.959L176.4,42.073a29.986,29.986,0,0,0,.415-4.978,29.488,29.488,0,0,0-2.306-11.512,28.3,28.3,0,0,0-6.243-9.236,1.1,1.1,0,0,0-1.542,0,28.3,28.3,0,0,0-6.243,9.236A29.489,29.489,0,0,0,158.179,37.1a29.99,29.99,0,0,0,.414,4.97Zm1.126,4.5V51.29a2.429,2.429,0,0,1,.562-1.552l4.118-4.942a29.139,29.139,0,0,0,1.6,4.49Zm9.7,3.132.625-2.5h5.331l.625,2.5Zm15.722-6.224a2.429,2.429,0,0,1,.562,1.552v1.54l-6.283-3.545a29.139,29.139,0,0,0,1.6-4.49ZM167.5,18.707a26.239,26.239,0,0,1,4.524,6.72h-9.047A26.24,26.24,0,0,1,167.5,18.707Zm-5.439,8.918h10.879A27.535,27.535,0,0,1,174.62,37.1a27.168,27.168,0,0,1-3.937,14.168h-6.37A27.167,27.167,0,0,1,160.376,37.1,27.54,27.54,0,0,1,162.059,27.625Z" transform="translate(-129.994 0)" fill="#fe4a55"/>
    <path id="Path_123529" data-name="Path 123529" d="M233.7,124.864a4.622,4.622,0,1,0-4.622,4.622A4.627,4.627,0,0,0,233.7,124.864Zm-7.046,0a2.424,2.424,0,1,1,2.424,2.424A2.427,2.427,0,0,1,226.65,124.864Z" transform="translate(-191.569 -88.942)" fill="#fe4a55"/>
  </g>
</svg>
