<svg xmlns="http://www.w3.org/2000/svg" width="23.997" height="24" viewBox="0 0 23.997 24">
  <g id="Group_109912" data-name="Group 109912" transform="translate(-679.738 -771.5)">
    <path id="Path_125794" data-name="Path 125794" d="M11,13a1,1,0,0,1-1,1H7a1,1,0,0,1,0-2h3A1,1,0,0,1,11,13Zm2-5a1,1,0,0,1,0,2H7A1,1,0,0,1,7,8ZM11,21.05a1,1,0,0,1-1.094.9,10.985,10.985,0,0,1-4.324-1.376L2.39,21.921a1,1,0,0,1-1.339-1.235l1.064-3.208A11,11,0,1,1,21.97,10.184a1,1,0,1,1-1.994.147A9,9,0,1,0,4.008,16.662a1,1,0,0,1,.171.943l-.535,1.613,1.625-.688a1,1,0,0,1,.927.077A8.962,8.962,0,0,0,10.1,19.956,1,1,0,0,1,11,21.05Z" transform="translate(679.734 771.5)" fill="#212189"/>
    <path id="Path_125795" data-name="Path 125795" d="M23.707,22.293l-1.679-1.679a5.511,5.511,0,1,0-1.414,1.414l1.679,1.679a1,1,0,1,0,1.414-1.414ZM17.5,21A3.5,3.5,0,1,1,21,17.5,3.5,3.5,0,0,1,17.5,21Z" transform="translate(679.734 771.5)" fill="#212189"/>
  </g>
</svg>
