<svg xmlns="http://www.w3.org/2000/svg" width="27.328" height="26.201" viewBox="0 0 27.328 26.201">
  <g id="Group_65268" data-name="Group 65268" transform="translate(-768.071 -348.303)">
    <path id="Path_106479" data-name="Path 106479" d="M795.4,348.944v.587c-.1.1-.082.243-.1.367-.243,1.617-.478,3.235-.719,4.852q-.547,3.678-1.1,7.356-.6,4.034-1.195,8.069a.891.891,0,0,1-1.33.8l-10.416-3.564c-.438-.15-.875-.3-1.331-.46.055-.069.087-.111.12-.151q4.164-5.02,8.329-10.041,1.4-1.683,2.783-3.373a.777.777,0,0,0,.25-.326.693.693,0,0,0-.323.25c-.063.048-.129.093-.189.145q-7.09,6.064-14.175,12.134a.458.458,0,0,1-.517.1q-3.276-1.133-6.56-2.244a1.288,1.288,0,0,1-.857-.678v-.48a1.539,1.539,0,0,1,.66-.617q12.046-6.282,24.085-12.579a15.335,15.335,0,0,0,1.462-.793h.427A1.08,1.08,0,0,1,795.4,348.944Z" transform="translate(0 0)" fill="#fff"/>
    <path id="Path_106480" data-name="Path 106480" d="M912.588,631.518c-1.051,1.428-2.073,2.825-3.1,4.215a.843.843,0,0,1-1.519-.5c-.006-1.734,0-3.467,0-5.2a.454.454,0,0,1,.023-.092Z" transform="translate(-129.92 -261.571)" fill="#fff"/>
  </g>
</svg>
