<svg xmlns="http://www.w3.org/2000/svg" width="744" height="147" viewBox="0 0 744 147">
  <g id="Group_66293" data-name="Group 66293" transform="translate(-623 -369)">
    <line id="Line_1170" data-name="Line 1170" x2="209.787" transform="translate(1007.487 441.961)" fill="none" stroke="#212189" stroke-width="1.5" stroke-dasharray="5"/>
    <path id="ic_arrow_drop_down_24px" d="M0,0,8.484,8.484,16.968,0Z" transform="translate(1212.345 450.443) rotate(-90)" fill="#212189"/>
    <line id="Line_1170-2" data-name="Line 1170" x2="182.891" transform="translate(743.383 441.961)" fill="none" stroke="#212189" stroke-width="1.5" stroke-dasharray="5"/>
    <path id="ic_arrow_drop_down_24px-2" data-name="ic_arrow_drop_down_24px" d="M0,0,8.484,8.484,16.968,0Z" transform="translate(921.345 450.443) rotate(-90)" fill="#212189"/>
    <g id="Group_66112" data-name="Group 66112" transform="translate(14)">
      <text id="Create_Course" data-name="Create Course" transform="translate(683 509)" fill="#212189" font-size="20" font-family="Poppins-SemiBold, Poppins" font-weight="600"><tspan x="-73.43" y="0">Create Course</tspan></text>
      <text id="_01" data-name="01" transform="translate(683 395)" fill="#212189" font-size="25" font-family="Poppins-Bold, Poppins" font-weight="700"><tspan x="-12.85" y="0">01</tspan></text>
      <g id="Group_66099" data-name="Group 66099" transform="translate(651 415.143)">
        <path id="Path_106853" data-name="Path 106853" d="M385.087,796.2c.208-.064.174-.27.224-.413a4.768,4.768,0,0,1,4.439-3.327c.146-.008.294-.006.441-.006h50.713a4.794,4.794,0,0,1,4.923,3.523,5.971,5.971,0,0,1,.184,1.622q0,8.643-.01,17.284a1.015,1.015,0,0,0,.52,1,6.928,6.928,0,0,1,3.11,4.693,3.417,3.417,0,0,1-1,3.052c-2.585,2.793-5.182,5.575-7.858,8.281-2.482,2.51-5.025,4.955-7.6,7.362.083.218.256.134.381.135,2.5.005,5,.014,7.506,0a2.737,2.737,0,0,0,2.912-2.929c.012-1.6,0-3.2,0-4.794,0-.872.34-1.31,1-1.314s1.034.445,1.037,1.292c0,1.619.01,3.239,0,4.857a4.786,4.786,0,0,1-4.933,4.941c-3.237.023-6.475.006-9.714,0a.971.971,0,0,0-.861.266A10.266,10.266,0,0,1,424.356,845c-1.29.276-2.556.667-3.836,1-1.513.389-2.424-.54-2.029-2.074.548-2.132,1.113-4.26,1.66-6.391a4.792,4.792,0,0,1,1.188-2.114q9.386-10.053,19.4-19.484a3.355,3.355,0,0,1,2.775-1.078c.443.053.464-.132.463-.482-.011-3.175-.006-6.35-.006-9.525q0-3.628,0-7.255a2.772,2.772,0,0,0-3.064-3.091q-25.357,0-50.714,0a2.766,2.766,0,0,0-3.074,3.077q0,19.366,0,38.731a2.785,2.785,0,0,0,3.121,3.1q12.3,0,24.6,0a5.122,5.122,0,0,1,.754.034.912.912,0,0,1,.829.889.955.955,0,0,1-.7,1.06,2.372,2.372,0,0,1-.812.069H390.373a4.828,4.828,0,0,1-5.139-3.589c-.029-.081-.048-.158-.147-.174Zm58.253,20.676a1.373,1.373,0,0,0-1.086.448c-.442.419-.866.861-1.334,1.249-.362.3-.43.487-.038.849.956.884,1.862,1.822,2.786,2.741.643.64.722,1.217.235,1.692-.471.461-1.056.372-1.7-.264-.91-.9-1.84-1.787-2.719-2.72-.358-.379-.544-.426-.957-.03-5.31,5.1-10.43,10.378-15.484,15.725a5.257,5.257,0,0,0-1.179,2.383c-.063.231.021.29.191.366a6.291,6.291,0,0,1,3.118,3.068c.073.147.1.248.305.186a5.132,5.132,0,0,0,2.25-1.043c2.118-2.012,4.281-3.976,6.408-5.979,4.486-4.225,8.74-8.678,12.909-13.213a1.821,1.821,0,0,0,.589-1.281A4.956,4.956,0,0,0,443.34,816.872Z" transform="translate(-385.087 -792.451)" fill="#fe4a55"/>
        <path id="Path_106854" data-name="Path 106854" d="M404.781,815.943c0-3.11.01-6.22,0-9.33a2.833,2.833,0,0,1,1.372-2.714,2.8,2.8,0,0,1,3.03.178q7.892,4.688,15.8,9.351c2.259,1.338,2.25,3.741-.021,5.083q-7.9,4.673-15.806,9.344a2.763,2.763,0,0,1-4.376-2.518C404.79,822.2,404.781,819.074,404.781,815.943Zm2.044.005q0,4.7,0,9.391c0,1.012.431,1.256,1.306.74q7.9-4.668,15.805-9.343c.909-.539.913-1.02.019-1.549q-7.876-4.654-15.754-9.305c-.317-.187-.623-.466-1.037-.213-.4.243-.34.641-.34,1.014Q406.823,811.314,406.825,815.948Z" transform="translate(-383.316 -791.454)" fill="#212189"/>
      </g>
    </g>
    <g id="Group_66113" data-name="Group 66113" transform="translate(-126)">
      <text id="Fill_out_Course_information" data-name="Fill out Course information" transform="translate(1092 509)" fill="#212189" font-size="20" font-family="Poppins-SemiBold, Poppins" font-weight="600"><tspan x="-134.15" y="0">Fill out Course information</tspan></text>
      <text id="_02" data-name="02" transform="translate(1092 395)" fill="#212189" font-size="25" font-family="Poppins-Bold, Poppins" font-weight="700"><tspan x="-15.288" y="0">02</tspan></text>
      <g id="Group_66100" data-name="Group 66100" transform="translate(1060 415.143)">
        <path id="Path_106889" data-name="Path 106889" d="M711.8,626.779H689.341a5.229,5.229,0,0,1-5.6-5.61q0-15.2,0-30.394a5.2,5.2,0,0,1,3.945-5.489.514.514,0,0,0,.39-.425,5.141,5.141,0,0,1,3.718-3.725.606.606,0,0,0,.471-.507,5.177,5.177,0,0,1,5.18-3.837q22.749-.005,45.5,0a5.191,5.191,0,0,1,5.371,5.378q.01,15.458,0,30.915a5.173,5.173,0,0,1-3.848,5.172.614.614,0,0,0-.5.48,5.114,5.114,0,0,1-3.672,3.688.616.616,0,0,0-.5.484,5.186,5.186,0,0,1-5.285,3.87Q723.156,626.781,711.8,626.779Zm.1-33.326q-12.725,0-25.45-.012c-.5,0-.634.118-.633.629q.025,13.571.013,27.141a3.161,3.161,0,0,0,3.515,3.484h45.043c2.285,0,3.518-1.244,3.518-3.548q0-13.5.014-27.011c0-.57-.129-.7-.7-.7Q724.557,593.47,711.9,593.453Zm-.065-2.083h25.32c.152,0,.3-.011.455,0,.226.02.277-.073.3-.294a3.271,3.271,0,0,0-3.459-3.873q-22.586,0-45.173,0a3.186,3.186,0,0,0-3.467,3.482c-.01.574.135.7.7.7Q699.171,591.352,711.832,591.37Zm32.32,24.764a3.078,3.078,0,0,0,2.082-3.191q0-15.261,0-30.523c0-2.331-1.229-3.547-3.582-3.548H697.808c-.238,0-.479-.01-.715.011a3.133,3.133,0,0,0-2.6,1.7c-.156.279-.1.4.227.37.151-.011.3,0,.455,0h43.347c3.465,0,5.625,2.169,5.625,5.647q0,14.382,0,28.765Zm-53.886-31.012h44.048c3.519,0,5.671,2.151,5.672,5.666q0,14.383,0,28.766v.668a.312.312,0,0,0,.35-.031,3.221,3.221,0,0,0,1.738-3.1q-.014-15.229-.005-30.457c0-2.388-1.208-3.594-3.6-3.594H693.623c-.239,0-.478,0-.716.01A2.914,2.914,0,0,0,690.265,585.121Z" transform="translate(-683.742 -576.788)" fill="#fe4a55"/>
        <path id="Path_106890" data-name="Path 106890" d="M726.534,633.988H715.539c-1.114,0-1.437-.32-1.438-1.42q0-7.969,0-15.938c0-1.059.333-1.387,1.4-1.387h22.185c1.07,0,1.406.33,1.407,1.386q0,8,0,16c0,1.012-.349,1.355-1.373,1.356Q732.129,633.989,726.534,633.988Zm.065-16.663c-3.276,0-6.552.012-9.828-.012-.487,0-.6.113-.6.6q.032,6.7,0,13.407c0,.487.115.6.6.6q9.828-.027,19.657,0c.486,0,.6-.113.6-.6q-.031-6.7,0-13.407c0-.487-.114-.6-.6-.6C733.152,617.336,729.875,617.324,726.6,617.324Z" transform="translate(-698.478 -595.453)" fill="#212189"/>
        <path id="Path_106891" data-name="Path 106891" d="M726.678,653.687H737.6a3.346,3.346,0,0,1,.584.014,1.036,1.036,0,0,1,.015,2.052,2.982,2.982,0,0,1-.584.016H715.573a4.285,4.285,0,0,1-.52-.009,1.021,1.021,0,0,1-.939-1.057,1,1,0,0,1,.924-1,3.553,3.553,0,0,1,.584-.012Z" transform="translate(-698.484 -614.111)" fill="#fe4a55"/>
        <path id="Path_106892" data-name="Path 106892" d="M722.509,659.762h6.7c.152,0,.3-.005.455,0a1.046,1.046,0,0,1,1.105,1.031,1.033,1.033,0,0,1-1.088,1.045c-.736.02-1.473.006-2.21.006h-11.7c-.13,0-.26,0-.39,0-.807-.01-1.282-.411-1.267-1.066.015-.631.475-1.014,1.25-1.015Q718.934,659.757,722.509,659.762Z" transform="translate(-698.482 -617.062)" fill="#fe4a55"/>
        <path id="Path_106893" data-name="Path 106893" d="M750.063,659.761c1.068,0,1.551.312,1.569,1.015.019.724-.492,1.069-1.582,1.069-.151,0-.3.006-.453,0a1.041,1.041,0,1,1,.013-2.081C749.76,659.755,749.912,659.762,750.063,659.761Z" transform="translate(-715.182 -617.061)" fill="#fe4a55"/>
        <path id="Path_106894" data-name="Path 106894" d="M693.921,600.1a1.039,1.039,0,1,1-1.018-1.043A1.049,1.049,0,0,1,693.921,600.1Z" transform="translate(-687.675 -587.597)" fill="#fe4a55"/>
        <path id="Path_106895" data-name="Path 106895" d="M702.016,600.109a1.039,1.039,0,1,1-1.008-1.053A1.05,1.05,0,0,1,702.016,600.109Z" transform="translate(-691.604 -587.597)" fill="#fe4a55"/>
        <path id="Path_106896" data-name="Path 106896" d="M710.111,600.123a1.039,1.039,0,1,1-.994-1.067A1.05,1.05,0,0,1,710.111,600.123Z" transform="translate(-695.533 -587.596)" fill="#fe4a55"/>
        <path id="Path_106897" data-name="Path 106897" d="M728.247,638.551c1.647,0,3.294-.005,4.941,0,.283,0,.458-.026.548-.362a1.013,1.013,0,0,1,1.916.013c.093.353.288.353.558.347.52-.01,1.04-.016,1.56,0a1.04,1.04,0,1,1-.023,2.077c-.346.013-.694.011-1.04,0-.5-.014-.923-.073-1.206.585a.951.951,0,0,1-1.714-.136c-.168-.41-.381-.456-.755-.454-3.164.013-6.328,0-9.492.011a1.251,1.251,0,0,1-1.111-.4.967.967,0,0,1-.149-1.035,1.028,1.028,0,0,1,1.026-.652Z" transform="translate(-702.405 -606.265)" fill="#212189"/>
        <path id="Path_106898" data-name="Path 106898" d="M732.312,625.433c0-.976-.012-1.951,0-2.927a1.042,1.042,0,0,1,1.686-.964q2.448,1.47,4.865,2.992a1.045,1.045,0,0,1-.029,1.922q-2.392,1.5-4.812,2.955c-.915.55-1.7.089-1.711-.987C732.3,627.428,732.311,626.43,732.312,625.433Zm4.128.049c-.64-.394-1.169-.724-1.7-1.045-.118-.071-.323-.287-.333.068-.02.715-.006,1.43-.006,2.238Z" transform="translate(-707.315 -598.406)" fill="#212189"/>
      </g>
    </g>
    <g id="Group_66114" data-name="Group 66114" transform="translate(-126)">
      <text id="Publish_the_course" data-name="Publish the course" transform="translate(1399 509)" fill="#212189" font-size="20" font-family="Poppins-SemiBold, Poppins" font-weight="600"><tspan x="-93.18" y="0">Publish the course</tspan></text>
      <text id="_03" data-name="03" transform="translate(1399 395)" fill="#212189" font-size="25" font-family="Poppins-Bold, Poppins" font-weight="700"><tspan x="-15.713" y="0">03</tspan></text>
      <g id="Group_66102" data-name="Group 66102" transform="translate(1363.999 415.143)">
        <path id="Path_106899" data-name="Path 106899" d="M-429.723,535.168c.177-.043.145-.213.191-.33a3.888,3.888,0,0,1,3.776-2.642c.138,0,.274,0,.411,0q23.925,0,47.85,0a4.591,4.591,0,0,1,.818.043,1.121,1.121,0,0,1,.948,1.162,1.158,1.158,0,0,1-1.067,1.068c-.226.022-.456.008-.685.008h-47.849c-1.637,0-2.113.48-2.114,2.127,0,1.623.033,3.245-.017,4.867-.021.686.129.9.871.9q13.95-.043,27.9-.018a5.4,5.4,0,0,1,.887.046,1.057,1.057,0,0,1,.927,1.1,1.112,1.112,0,0,1-1.005,1.114,6.58,6.58,0,0,1-.753.013q-14.054,0-28.107-.012c-.55,0-.72.1-.719.693q.031,15.218.015,30.437c0,1.49.538,2.03,2.016,2.03q30.677,0,61.354,0c1.5,0,2.067-.563,2.067-2.063q0-12.579,0-25.158a6.606,6.606,0,0,1,.014-.754,1.08,1.08,0,0,1,1.125-.976,1.044,1.044,0,0,1,1.087.938,4.031,4.031,0,0,1,.028.683c0,8.432-.042,16.864.026,25.295a4.111,4.111,0,0,1-4.3,4.31q-30.676-.075-61.354-.017a3.979,3.979,0,0,1-4.21-2.792c-.019-.052-.091-.084-.139-.126Z" transform="translate(429.724 -530.064)" fill="#fe4a55"/>
        <path id="Path_106900" data-name="Path 106900" d="M-362.449,531.938a3.407,3.407,0,0,0-.439,1.257c-2.4,7.983-5.064,15.879-7.749,23.77a1.481,1.481,0,0,1-2.173,1.085c-3.576-1.151-7.153-2.3-10.719-3.485-.517-.172-.7-.1-.819.442-.27,1.214-.613,2.413-.934,3.642.234.094.336-.121.461-.258.572-.623,1.13-1.259,1.707-1.875a1.15,1.15,0,0,1,1.692-.193,1.137,1.137,0,0,1,0,1.7q-2.588,2.882-5.2,5.738a2.525,2.525,0,0,1-.527.433,1.5,1.5,0,0,1-2.417-.973c-.789-3.3-1.583-6.6-2.346-9.914a.885.885,0,0,0-.8-.809c-2.307-.437-4.605-.92-6.907-1.39a1.614,1.614,0,0,1-1.487-1.377,1.544,1.544,0,0,1,1.063-1.649q17.832-8.8,35.666-17.589a1.326,1.326,0,0,1,1.935.484Zm-7.253,3.848c-.282-.14-.46.1-.66.2q-13.06,6.419-26.111,12.858c-.207.1-.468.149-.633.441,1.846.386,3.643.758,5.438,1.141.272.058.428-.106.605-.242l3.091-2.383c1.427-1.1,2.852-2.21,4.283-3.306a1.108,1.108,0,0,1,1.453-.035,1.046,1.046,0,0,1,.381,1.22,1.622,1.622,0,0,1-.65.771c-2.314,1.786-4.621,3.579-6.945,5.35a.677.677,0,0,0-.306.839c.6,2.381,1.149,4.773,1.722,7.185a.846.846,0,0,0,.235-.51c.539-2.073,1.1-4.139,1.615-6.219a4.344,4.344,0,0,1,1.217-2.159q5.314-5.2,10.579-10.457c1.566-1.56,3.194-3.058,4.671-4.706l.1-.093c-.019-.007-.042-.024-.057-.019C-369.739,535.686-369.751,535.73-369.7,535.786Zm3.391-.033c-.139.115-.286.219-.413.345q-8.041,7.95-16.076,15.9c-.094.092-.225.164-.217.357,3.258,1.054,6.533,2.1,9.793,3.182.545.182.667.034.821-.458.858-2.737,1.765-5.459,2.642-8.19q1.776-5.526,3.534-11.059c.056-.063.09-.127.015-.2Z" transform="translate(432.649 -530.261)" fill="#212189"/>
        <path id="Path_106901" data-name="Path 106901" d="M-401.283,572.192a11.285,11.285,0,0,1-9.316-5.347,40.847,40.847,0,0,1-2.625-5.323,13.733,13.733,0,0,0-3.31-4.806,1.124,1.124,0,0,1-.118-1.645,1.11,1.11,0,0,1,1.65-.02,13.277,13.277,0,0,1,3.3,4.408c.75,1.532,1.44,3.094,2.165,4.639a9.511,9.511,0,0,0,6.245,5.509,8.253,8.253,0,0,0,6.511-.991,17,17,0,0,0,5.213-4.872,3.2,3.2,0,0,1,.472-.582,1.026,1.026,0,0,1,1.38-.05,1.051,1.051,0,0,1,.381,1.332.834.834,0,0,1-.092.183c-2.378,3.381-5.252,6.122-9.379,7.234a7.631,7.631,0,0,1-1.005.2C-400.267,572.122-400.724,572.145-401.283,572.192Z" transform="translate(431.029 -527.762)" fill="#fe4a55"/>
        <path id="Path_106902" data-name="Path 106902" d="M-423.068,551.922a20.034,20.034,0,0,1,4.724,1.045c.826.3,1.178.893.941,1.549s-.874.88-1.714.584a21.934,21.934,0,0,0-4.329-.951c-.827-.114-1.263-.607-1.174-1.293C-424.533,552.2-424.014,551.851-423.068,551.922Z" transform="translate(430.244 -528.047)" fill="#fe4a55"/>
        <path id="Path_106903" data-name="Path 106903" d="M-417.724,539.392a1.4,1.4,0,0,1-1.432-1.35,1.408,1.408,0,0,1,1.384-1.474,1.428,1.428,0,0,1,1.444,1.426A1.415,1.415,0,0,1-417.724,539.392Z" transform="translate(430.804 -529.616)" fill="#fe4a55"/>
        <path id="Path_106904" data-name="Path 106904" d="M-422.83,539.392a1.428,1.428,0,0,1-1.41-1.442,1.439,1.439,0,0,1,1.405-1.384,1.437,1.437,0,0,1,1.445,1.414A1.428,1.428,0,0,1-422.83,539.392Z" transform="translate(430.284 -529.616)" fill="#fe4a55"/>
        <path id="Path_106905" data-name="Path 106905" d="M-411.273,538a1.38,1.38,0,0,1-1.451,1.394,1.383,1.383,0,0,1-1.357-1.419,1.4,1.4,0,0,1,1.451-1.4A1.4,1.4,0,0,1-411.273,538Z" transform="translate(431.323 -529.616)" fill="#fe4a55"/>
      </g>
    </g>
  </g>
</svg>
