<svg xmlns="http://www.w3.org/2000/svg" width="17.248" height="19.577" viewBox="0 0 17.248 19.577">
  <g id="save-money" transform="translate(-0.36)">
    <path id="Path_125179" data-name="Path 125179" d="M187.436,151.784a.306.306,0,0,0-.11,0,.73.73,0,0,1-.646-.724.321.321,0,1,0-.642,0,1.374,1.374,0,0,0,1.01,1.323v.321a.321.321,0,0,0,.642,0v-.3a1.371,1.371,0,0,0-.281-2.713.729.729,0,1,1,.729-.729.321.321,0,1,0,.642,0,1.374,1.374,0,0,0-1.09-1.342v-.292a.321.321,0,1,0-.642,0v.312a1.371,1.371,0,0,0,.361,2.694.729.729,0,0,1,.027,1.457Zm0,0" transform="translate(-178.225 -141.1)" fill="#212189"/>
    <path id="Path_125180" data-name="Path 125180" d="M104.195,111.148a4.657,4.657,0,1,0,4.657-4.657A4.656,4.656,0,0,0,104.195,111.148Zm4.657-4.014a4.014,4.014,0,1,1-4.014,4.014A4.014,4.014,0,0,1,108.852,107.134Zm0,0" transform="translate(-99.667 -102.217)" fill="#212189"/>
    <path id="Path_125181" data-name="Path 125181" d="M15.424,327.635l-2.515,1.188a2.049,2.049,0,0,0-1.747-1.078l-2.322-.064a2.452,2.452,0,0,1-1.055-.273l-.236-.122a4.168,4.168,0,0,0-3.86,0l.015-.535a.321.321,0,0,0-.312-.33l-2.546-.07a.321.321,0,0,0-.33.312L.36,332.256a.321.321,0,0,0,.312.33l2.546.07h.009a.321.321,0,0,0,.321-.312l.007-.267.662-.354a1.135,1.135,0,0,1,.847-.093l3.95,1.109.021.005a4.228,4.228,0,0,0,.868.09,4.284,4.284,0,0,0,1.79-.391.3.3,0,0,0,.04-.022l5.728-3.7a.321.321,0,0,0,.105-.428,1.622,1.622,0,0,0-2.142-.653ZM1.011,331.953l.136-4.946,1.9.052-.136,4.946Zm10.393-.084a3.641,3.641,0,0,1-2.226.249l-3.94-1.106a1.776,1.776,0,0,0-1.324.145l-.338.181.09-3.288a3.53,3.53,0,0,1,3.586-.191l.236.122a3.1,3.1,0,0,0,1.333.344l2.322.064a1.408,1.408,0,0,1,1.339,1.122l-3.459-.1a.321.321,0,1,0-.018.642l3.817.105h.009a.321.321,0,0,0,.321-.312,2.038,2.038,0,0,0-.031-.417l2.58-1.219.008,0a.981.981,0,0,1,1.109.155Zm0,0" transform="translate(0 -313.256)" fill="#212189"/>
    <path id="Path_125182" data-name="Path 125182" d="M212.845,3.372V.321a.321.321,0,1,0-.642,0V3.372a.321.321,0,1,0,.642,0Zm0,0" transform="translate(-203.34)" fill="#212189"/>
    <path id="Path_125183" data-name="Path 125183" d="M272.845,41.766V40.321a.321.321,0,1,0-.642,0v1.445a.321.321,0,1,0,.642,0Zm0,0" transform="translate(-260.932 -38.394)" fill="#212189"/>
    <path id="Path_125184" data-name="Path 125184" d="M152.845,41.766V40.321a.321.321,0,1,0-.642,0v1.445a.321.321,0,1,0,.642,0Zm0,0" transform="translate(-145.748 -38.394)" fill="#212189"/>
  </g>
</svg>
