<svg xmlns="http://www.w3.org/2000/svg" width="113.354" height="47.168" viewBox="0 0 113.354 47.168">
  <g id="Stripe_Logo__revised_2016" data-name="Stripe_Logo,_revised_2016" transform="translate(-54 -36)">
    <path id="Path_125185" data-name="Path 125185" d="M363.095,82.021c0-8.061-3.9-14.421-11.367-14.421-7.494,0-12.028,6.36-12.028,14.358,0,9.478,5.353,14.264,13.036,14.264a17.556,17.556,0,0,0,8.722-2.047v-6.3a16.72,16.72,0,0,1-7.714,1.732c-3.054,0-5.762-1.071-6.108-4.786h15.4C363.032,84.414,363.095,82.777,363.095,82.021ZM347.54,79.03c0-3.558,2.173-5.038,4.156-5.038,1.921,0,3.967,1.48,3.967,5.038Z" transform="translate(-195.741 -21.65)" fill="#635bff" fill-rule="evenodd"/>
    <path id="Path_125186" data-name="Path 125186" d="M271.708,67.6a8.9,8.9,0,0,0-6.171,2.456l-.409-1.952H258.2v36.714l7.872-1.669.031-8.911a8.867,8.867,0,0,0,5.573,1.984c5.636,0,10.769-4.534,10.769-14.516C282.414,72.575,277.218,67.6,271.708,67.6Zm-1.889,21.695a4.707,4.707,0,0,1-3.715-1.48l-.031-11.682a4.686,4.686,0,0,1,3.747-1.543c2.865,0,4.849,3.212,4.849,7.336C274.668,86.146,272.716,89.295,269.819,89.295Z" transform="translate(-139.903 -21.65)" fill="#635bff" fill-rule="evenodd"/>
    <path id="Path_125187" data-name="Path 125187" d="M223.8,44.092l7.9-1.7V36l-7.9,1.669Z" transform="translate(-116.335)" fill="#635bff" fill-rule="evenodd"/>
    <rect id="Rectangle_29488" data-name="Rectangle 29488" width="7.903" height="27.551" transform="translate(107.465 46.485)" fill="#635bff"/>
    <path id="Path_125188" data-name="Path 125188" d="M181,70.922l-.5-2.33h-6.8V96.143h7.872V77.471c1.858-2.425,5.006-1.984,5.983-1.637V68.592C186.547,68.214,182.863,67.521,181,70.922Z" transform="translate(-82.01 -22.107)" fill="#635bff" fill-rule="evenodd"/>
    <path id="Path_125189" data-name="Path 125189" d="M130.114,47.6l-7.683,1.637L122.4,74.458a7.912,7.912,0,0,0,8.155,8.092,12.161,12.161,0,0,0,5.51-1.039V75.12c-1.008.409-5.983,1.858-5.983-2.8V61.139h5.983V54.433h-5.983Z" transform="translate(-46.863 -7.947)" fill="#635bff" fill-rule="evenodd"/>
    <path id="Path_125190" data-name="Path 125190" d="M61.966,76.133c0-1.228,1.008-1.7,2.676-1.7a17.563,17.563,0,0,1,7.809,2.015v-7.4A20.765,20.765,0,0,0,64.643,67.6C58.251,67.6,54,70.938,54,76.511c0,8.69,11.965,7.305,11.965,11.052,0,1.448-1.259,1.921-3.023,1.921a19.6,19.6,0,0,1-8.6-2.519v7.494a21.827,21.827,0,0,0,8.6,1.795c6.549,0,11.052-3.243,11.052-8.879C73.963,77.991,61.966,79.66,61.966,76.133Z" transform="translate(0 -21.65)" fill="#635bff" fill-rule="evenodd"/>
  </g>
</svg>
