<svg xmlns="http://www.w3.org/2000/svg" width="43.33" height="41.611" viewBox="0 0 43.33 41.611">
  <path id="Path_106959" data-name="Path 106959" d="M-685.293,597.138a13.118,13.118,0,0,1-6.53-8.467,13.086,13.086,0,0,1,1.86-10.551l-8.2-2.734v2.928q0,6.079,0,12.16a1.308,1.308,0,0,1-.751,1.293,1.185,1.185,0,0,1-1.3-.153,1.4,1.4,0,0,1-.507-1.219c.009-2.761,0-5.522,0-8.283v-8.124c0-1.1.2-1.357,1.252-1.7q6.054-2.007,12.1-4.031c2.578-.859,5.157-1.715,7.731-2.586a1.912,1.912,0,0,1,1.288.046q8.923,2.987,17.854,5.958c.686.229,1.374.449,2.058.682a1.312,1.312,0,0,1,1.041,1.248,1.309,1.309,0,0,1-1.054,1.292q-4.613,1.543-9.228,3.079c-.145.049-.288.1-.458.16a13.071,13.071,0,0,1,1.855,10.521,13.085,13.085,0,0,1-6.533,8.481,20.13,20.13,0,0,1,7.565,4.546,19.7,19.7,0,0,1,2.824,3.368,1.3,1.3,0,0,1-.252,1.914,1.287,1.287,0,0,1-1.863-.494,16.738,16.738,0,0,0-11.638-7.512c-7.211-1.073-13,1.482-17.3,7.378-.394.54-.806.96-1.52.816a1.271,1.271,0,0,1-.729-2.047,19.689,19.689,0,0,1,5.052-5.243A20.131,20.131,0,0,1-685.293,597.138Zm6.211-1a10.724,10.724,0,0,0,2.053-.2,10.644,10.644,0,0,0,6.616-16.6.542.542,0,0,0-.744-.21c-2.4.817-4.812,1.607-7.215,2.418a1.989,1.989,0,0,1-1.34,0c-2.421-.82-4.854-1.61-7.273-2.436a.5.5,0,0,0-.693.219,10.586,10.586,0,0,0-1.965,5.46A10.628,10.628,0,0,0-679.082,596.134Zm16.241-22.462-.008-.108q-7.952-2.651-15.9-5.307a1.054,1.054,0,0,0-.715.05q-7.7,2.565-15.392,5.133c-.125.041-.334,0-.37.233l.2.07q7.82,2.605,15.638,5.22a1.192,1.192,0,0,0,.816-.041q5.016-1.677,10.031-3.351Q-665.693,574.62-662.841,573.672Z" transform="translate(700.718 -565.574)" fill="#fe4a55"/>
</svg>
