<svg xmlns="http://www.w3.org/2000/svg" xmlns:xlink="http://www.w3.org/1999/xlink" width="63" height="63" viewBox="0 0 63 63"><defs><linearGradient id="a" x1="0.5" x2="0.5" y2="1" gradientUnits="objectBoundingBox"><stop offset="0" stop-color="#edf6ff"/><stop offset="1" stop-color="#dae8f8"/></linearGradient></defs><g transform="translate(-1795 -276)"><rect width="63" height="63" rx="4" transform="translate(1795 276)" fill="url(#a)"/><g transform="translate(1809 289)"><path d="M32.782,26.919V9.307a2.657,2.657,0,0,0-2.654-2.654H26.413V5.592A1.594,1.594,0,0,0,24.821,4H22.19a.531.531,0,0,0,0,1.061h2.631a.531.531,0,0,1,.531.531V24.7H10.491V9.42a.508.508,0,0,0,.023-.113h3.692a.531.531,0,0,0,.531-.531V5.061h3.184a.531.531,0,1,0,0-1.061H14.207a.534.534,0,0,0-.376.156L9.586,8.4a.533.533,0,0,0-.156.376H5.715a.531.531,0,0,0-.531.531V25.229a.531.531,0,0,0,.531.531H30.128a.531.531,0,0,0,.531-.531V9.307a.531.531,0,0,0-.531-.531H26.413V7.715h3.715A1.594,1.594,0,0,1,31.72,9.307V26.821H21.637a.531.531,0,0,0-.531.531v1.061H14.737V27.352a.531.531,0,0,0-.531-.531H4.123V9.307A1.594,1.594,0,0,1,5.715,7.715H9.43a.531.531,0,1,0,0-1.061H5.715A2.657,2.657,0,0,0,3.061,9.307V26.919A1.59,1.59,0,0,0,2,28.413v1.061a3.72,3.72,0,0,0,3.715,3.715H30.128a3.72,3.72,0,0,0,3.715-3.715V28.413a1.589,1.589,0,0,0-1.061-1.494ZM11.242,8.246l2.434-2.434V8.246Zm-5,1.592H9.43V24.7H6.246Zm23.352,0V24.7H26.413V9.838Zm3.184,19.637a2.657,2.657,0,0,1-2.654,2.654H5.715a2.657,2.657,0,0,1-2.654-2.654V28.413a.531.531,0,0,1,.531-.531H13.676v1.061a.531.531,0,0,0,.531.531h7.43a.531.531,0,0,0,.531-.531V27.882H32.251a.531.531,0,0,1,.531.531Z" fill="#fe4a55"/><path d="M26.838,19a5.838,5.838,0,1,0,5.838,5.838A5.838,5.838,0,0,0,26.838,19Zm0,10.614a4.776,4.776,0,1,1,4.776-4.776A4.776,4.776,0,0,1,26.838,29.614Z" transform="translate(-8.916 -7.039)" fill="#fe4a55"/><path d="M31.463,25.656,28.123,29l-1.217-1.217a.531.531,0,1,0-.75.75l1.592,1.592a.53.53,0,0,0,.75,0l3.715-3.715a.531.531,0,1,0-.75-.75Z" transform="translate(-11.263 -10.09)" fill="#fe4a55"/><path d="M35.233,5.061h.689a.531.531,0,0,0,0-1.061h-.689a.531.531,0,0,0,0,1.061Z" transform="translate(-15.347)" fill="#fe4a55"/><path d="M32.145,15H21.531a.531.531,0,0,0,0,1.061H32.145a.531.531,0,0,0,0-1.061Z" transform="translate(-8.916 -5.162)" fill="#fe4a55"/><path d="M35.9,11H29.531a.531.531,0,1,0,0,1.061H35.9A.531.531,0,0,0,35.9,11Z" transform="translate(-12.671 -3.285)" fill="#fe4a55"/></g></g></svg>