<svg xmlns="http://www.w3.org/2000/svg" width="17.617" height="22.259" viewBox="0 0 17.617 22.259">
  <path id="Path_125737" data-name="Path 125737" d="M68.621,14.542l-1.306-.384L64.472,12.3v-.425A3.783,3.783,0,0,0,65.965,9.22a.869.869,0,0,0,.729-.856V7.194s0-.009,0-.013V5.7a.643.643,0,0,0,.269-.525V3.818l1.961-.334a.7.7,0,0,0,.094-1.348L62.406.033a.692.692,0,0,0-.422,0l-6.612,2.1a.7.7,0,0,0-.217,1.214V5.123h-.016a.676.676,0,0,0-.675.675v.88l-.436,2.559a.726.726,0,0,0,.715.848h1.476a.726.726,0,0,0,.715-.848L56.5,6.678V5.8a.676.676,0,0,0-.675-.675h-.016V3.542l1.621.276V5.174A.643.643,0,0,0,57.7,5.7V8.363a.869.869,0,0,0,.729.856,3.783,3.783,0,0,0,1.492,2.656V12.3l-2.842,1.856-1.305.383a3.316,3.316,0,0,0-2.383,3.183V18.7a.326.326,0,0,0,.652,0v-.972a2.68,2.68,0,0,1,1.915-2.557l1.216-.357L62.029,17.7a.33.33,0,0,0,.333,0l4.859-2.887,1.216.357a2.68,2.68,0,0,1,1.914,2.557v3.149a.733.733,0,0,1-.733.733H68.182V20.2a.326.326,0,1,0-.652,0v1.405H56.859V20.2a.326.326,0,1,0-.652,0v1.405H54.772a.733.733,0,0,1-.733-.733v-.653a.326.326,0,1,0-.652,0v.653a1.386,1.386,0,0,0,1.385,1.385H69.619A1.386,1.386,0,0,0,71,20.874V17.725a3.316,3.316,0,0,0-2.383-3.183Zm-12.4-5.109H54.743a.073.073,0,0,1-.073-.086l.394-2.314H55.9l.394,2.314A.073.073,0,0,1,56.219,9.432ZM55.846,5.8V6.38h-.731V5.8a.023.023,0,0,1,.023-.023h.684A.023.023,0,0,1,55.846,5.8Zm5.183,10.425.13.2L57.83,14.445l2.113-1.38A6.849,6.849,0,0,0,61.029,16.223Zm0-1.407a8.384,8.384,0,0,0,2.337,0,6.227,6.227,0,0,1-.549,1.052l-.62.952-.62-.952a6.228,6.228,0,0,1-.549-1.052Zm2.334,1.407a6.848,6.848,0,0,0,1.086-3.159l2.113,1.38-3.329,1.978Zm1.907-10.4h.773V6.868h-.384a.39.39,0,0,1-.389-.389V5.82Zm-9.7-3.063,6.612-2.1a.043.043,0,0,1,.026,0l6.612,2.1a.036.036,0,0,1,.03.044c0,.034-.022.037-.036.04l-2.186.372-.821-.1a.326.326,0,1,0-.08.647l.583.072V5.168h-8.23V3.831l3.374-.417a6.04,6.04,0,0,1,1.481,0l1.277.158a.326.326,0,1,0,.08-.647l-1.277-.158a6.689,6.689,0,0,0-1.641,0l-3.612.447-2.187-.372c-.014,0-.034-.006-.036-.04A.036.036,0,0,1,55.569,2.757Zm2.779,4.11V5.82h.774v.658a.39.39,0,0,1-.389.389h-.384Zm.718,2.184a.505.505,0,0,0-.5-.473.215.215,0,0,1-.215-.215V7.52h.384a1.043,1.043,0,0,0,1.041-1.041V5.82h4.843v.658A1.043,1.043,0,0,0,65.658,7.52h.384v.844a.215.215,0,0,1-.215.215.505.505,0,0,0-.5.474,3.136,3.136,0,0,1-6.259,0ZM62.2,12.64a3.763,3.763,0,0,0,1.625-.368v.207a6.214,6.214,0,0,1-.22,1.638,7.7,7.7,0,0,1-2.81,0,6.214,6.214,0,0,1-.22-1.638c0-.007,0-.014,0-.02s0,0,0,0v-.183A3.764,3.764,0,0,0,62.2,12.64Z" transform="translate(-53.387 0)" fill="#212189"/>
</svg>
