<svg xmlns="http://www.w3.org/2000/svg" xmlns:xlink="http://www.w3.org/1999/xlink" width="17.701" height="21.508" viewBox="0 0 17.701 21.508">
  <defs>
    <linearGradient id="linear-gradient" x1="0.5" x2="0.5" y2="1" gradientUnits="objectBoundingBox">
      <stop offset="0" stop-color="#262261"/>
      <stop offset="1" stop-color="#212189"/>
    </linearGradient>
  </defs>
  <g id="Group_65826" data-name="Group 65826" transform="translate(0.135 0.113)">
    <path id="Path_106723" data-name="Path 106723" d="M145.711,74.078,139,70.721l-6.713,3.361,6.706,3.354Z" transform="translate(-130.291 -69.992)" fill="none" stroke="#25226e" stroke-width="0.2"/>
    <path id="Path_106724" data-name="Path 106724" d="M112.247,202.173c-.591-1.62-3.065-2.557-4.034-2.867a6.7,6.7,0,0,0,.279-.84,8.9,8.9,0,0,0,.271-2.246,11.538,11.538,0,0,0-.27-2.7l-.633.154a10.907,10.907,0,0,1,.251,2.55,8.257,8.257,0,0,1-.25,2.081,5.247,5.247,0,0,1-.734,1.664,3.428,3.428,0,0,1-1.189,1.09,3.7,3.7,0,0,1-3.338,0,3.429,3.429,0,0,1-1.189-1.09,5.249,5.249,0,0,1-.734-1.664,8.258,8.258,0,0,1-.25-2.081,10.912,10.912,0,0,1,.251-2.551l-.633-.154a11.539,11.539,0,0,0-.27,2.7,8.9,8.9,0,0,0,.271,2.246,6.715,6.715,0,0,0,.274.829c-.916.285-3.5,1.22-4.1,2.879a10.8,10.8,0,0,0-.608,5.223l.641-.113a10.319,10.319,0,0,1,.579-4.876c.52-1.425,3.039-2.292,3.774-2.51a5.037,5.037,0,0,0,.27.439,4.074,4.074,0,0,0,1.416,1.293,4.351,4.351,0,0,0,3.957,0,4.072,4.072,0,0,0,1.416-1.293,5.047,5.047,0,0,0,.267-.434c.812.255,3.2,1.112,3.7,2.5a10.341,10.341,0,0,1,.579,4.881l.641.118A10.8,10.8,0,0,0,112.247,202.173Z" transform="translate(-95.517 -186.117)" stroke="#25226e" stroke-width="0.2" fill="url(#linear-gradient)"/>
    <path id="Path_106725" data-name="Path 106725" d="M113.652,61.922l7.1,3.552,8.175-4.086L120.76,57.3,113,61.187v5.169h.652Zm7.108-3.891,6.71,3.357-6.717,3.358-6.706-3.354Z" transform="translate(-112.05 -57.302)" stroke="#25226e" stroke-width="0.2" fill="url(#linear-gradient)"/>
  </g>
</svg>
