<svg id="Group_65504" data-name="Group 65504" xmlns="http://www.w3.org/2000/svg" width="19.578" height="17.579" viewBox="0 0 19.578 17.579">
  <path id="Path_106543" data-name="Path 106543" d="M-1145.969-208.92c-.05.012-.041.059-.054.092a1.046,1.046,0,0,1-1.039.72c-.937,0-1.873.006-2.81,0-.166,0-.206.048-.193.2a1.887,1.887,0,0,1-.01.438,1.057,1.057,0,0,1-1.078.914c-.561.005-1.121,0-1.682,0h-7.417a1.083,1.083,0,0,1-1.2-1.207c0-.344,0-.344-.349-.344-.867,0-1.733,0-2.6,0a1.058,1.058,0,0,1-1.144-1.141q0-4.377,0-8.754a.938.938,0,0,1,0-.134.272.272,0,0,1,.28-.26.271.271,0,0,1,.287.251,1.141,1.141,0,0,1,0,.191q0,4.329,0,8.659c0,.448.164.615.605.615.911,0,1.823,0,2.734,0,.154,0,.188-.044.183-.189-.01-.344-.007-.688,0-1.032,0-.107-.027-.139-.136-.138-.5.006-.994,0-1.491,0a.618.618,0,0,1-.692-.7c0-.121,0-.242,0-.363a.606.606,0,0,1,.672-.674c.5,0,.994,0,1.491,0,.126,0,.163-.033.157-.157-.01-.223-.011-.446,0-.669.007-.132-.042-.154-.161-.153-.771,0-1.542,0-2.313,0-.045,0-.089,0-.134,0-.2-.006-.334-.12-.331-.291s.135-.279.341-.282c.146,0,.293,0,.44,0,.669,0,1.338,0,2.007,0,.112,0,.157-.018.151-.143a5.853,5.853,0,0,1,0-.65c.008-.139-.027-.181-.174-.179-.771.009-1.542,0-2.313,0-.051,0-.1,0-.153,0a.3.3,0,0,1-.3-.289.287.287,0,0,1,.317-.282c.816,0,1.631-.005,2.447,0,.149,0,.183-.042.175-.181a6.068,6.068,0,0,1,0-.65c.007-.13-.039-.157-.161-.156-.784.005-1.568,0-2.351,0a1.69,1.69,0,0,1-.172,0,.262.262,0,0,1-.249-.248.268.268,0,0,1,.186-.3.581.581,0,0,1,.226-.024c.784,0,1.568,0,2.351,0,.13,0,.172-.027.169-.164-.006-.419,0-.419-.426-.419-.491,0-.981,0-1.472,0a.6.6,0,0,1-.655-.635c0-.166-.007-.332,0-.5a.587.587,0,0,1,.613-.6q.889-.008,1.778,0c.121,0,.162-.026.161-.156q-.009-1.491,0-2.982c0-.127-.035-.156-.158-.156-.93.005-1.861,0-2.791,0-.394,0-.573.18-.573.57,0,.637,0,1.274,0,1.911,0,.226-.1.354-.282.357s-.288-.126-.292-.347v-.019c0-.65,0-1.3,0-1.95a1.048,1.048,0,0,1,1.092-1.1c.93-.005,1.861-.007,2.791,0,.183,0,.226-.055.212-.222a1.8,1.8,0,0,1,.01-.419,1.054,1.054,0,0,1,1.04-.912c.382-.01.765,0,1.147,0,.21,0,.333.112.334.286s-.117.284-.329.286c-.344,0-.688,0-1.032,0-.414,0-.6.182-.6.59q0,7.627,0,15.253a.511.511,0,0,0,.588.582h9.061c.41,0,.595-.185.595-.594q0-7.617,0-15.234c0-.419-.182-.6-.611-.6h-6.461c-.31,0-.447-.091-.441-.292s.144-.282.438-.282h6.442a1.083,1.083,0,0,1,1.207,1.2c0,.351,0,.351.342.351.8,0,1.607.023,2.408-.007a1.189,1.189,0,0,1,1.342.858v9.482a.319.319,0,0,1-.339.192.261.261,0,0,1-.217-.192.832.832,0,0,1-.017-.227q0-4.482,0-8.965a.494.494,0,0,0-.557-.567c-.937,0-1.873,0-2.81,0-.129,0-.155.039-.154.159,0,.988.007,1.975,0,2.963,0,.153.051.174.184.172.58-.007,1.16-.006,1.74,0a.593.593,0,0,1,.63.619c.005.153,0,.306,0,.459a.606.606,0,0,1-.659.651c-.5,0-.994,0-1.491,0-.4,0-.392,0-.4.4-.005.162.056.18.193.179.777-.006,1.555,0,2.332,0a.8.8,0,0,1,.207.021.259.259,0,0,1,.2.286.263.263,0,0,1-.254.263c-.057.006-.115,0-.172,0-.777,0-1.555,0-2.332,0-.147,0-.184.039-.176.18.013.222.009.446,0,.669,0,.11.033.138.14.137.51-.005,1.02,0,1.529,0,.325,0,.65,0,.975,0a.28.28,0,0,1,.293.267.3.3,0,0,1-.264.3,1.142,1.142,0,0,1-.172.005c-.784,0-1.568,0-2.351,0-.113,0-.157.02-.15.144.011.222.01.446,0,.669-.005.122.026.16.155.159.694-.007,1.389,0,2.084,0,.14,0,.281-.006.42,0a.289.289,0,0,1,.28.285.289.289,0,0,1-.278.284c-.057,0-.115,0-.172,0-.777,0-1.555,0-2.332,0-.128,0-.161.036-.156.159a5.386,5.386,0,0,1,0,.649c-.012.155.049.174.182.172.5-.007.994-.005,1.491,0a.6.6,0,0,1,.647.64c0,.14,0,.28,0,.42a.612.612,0,0,1-.678.671c-.5,0-.994,0-1.491,0-.111,0-.155.018-.151.143q.014.535,0,1.07c0,.123.037.145.15.144.937,0,1.873,0,2.81,0a.5.5,0,0,0,.562-.563c0-.548,0-1.1,0-1.644,0-.162.015-.307.193-.374s.282.045.382.163Zm-16.468-8.641h.554c.442,0,.438,0,.432-.45,0-.11-.033-.137-.139-.135-.471.006-.942,0-1.413,0-.455,0-.451,0-.43.46,0,.1.043.126.137.124C-1163.01-217.564-1162.723-217.561-1162.437-217.561Zm13.332,0h.611c.415,0,.408,0,.412-.421,0-.142-.05-.166-.176-.164-.452.007-.9,0-1.356,0-.473,0-.47,0-.452.47,0,.094.031.116.12.115C-1149.665-217.564-1149.385-217.561-1149.1-217.561Zm-13.214,6.954h.419c.461,0,.456,0,.45-.454,0-.113-.038-.136-.142-.135-.394.005-.788,0-1.182,0-.441,0-.435,0-.427.444,0,.123.046.148.157.144C-1162.8-210.612-1162.56-210.607-1162.319-210.607Zm13.112,0h.458c.443,0,.436,0,.436-.436,0-.137-.054-.154-.169-.152-.381.005-.763,0-1.144,0-.447,0-.441,0-.439.446,0,.125.042.146.153.143C-1149.678-210.612-1149.442-210.607-1149.207-210.607Z" transform="translate(1165.547 224.133)" fill="#212189"/>
  <path id="Path_106544" data-name="Path 106544" d="M-1058.319-118.143h3.8c.5,0,.723.218.723.718,0,.14.006.281,0,.42a.6.6,0,0,1-.621.59q-3.918,0-7.835,0a.591.591,0,0,1-.615-.577,4.673,4.673,0,0,1,0-.573.594.594,0,0,1,.649-.579Q-1060.269-118.146-1058.319-118.143Zm-.016,1.157h3.593c.376,0,.366,0,.38-.378.006-.17-.042-.209-.21-.209q-3.66.009-7.319,0c-.408,0-.4,0-.408.407,0,.144.037.179.181.179C-1060.858-116.989-1059.6-116.987-1058.335-116.987Z" transform="translate(1068.121 123.559)" fill="#212189"/>
  <path id="Path_106545" data-name="Path 106545" d="M-1015.157-190.533c-.618,0-1.235,0-1.853,0-.172,0-.307-.052-.345-.231a.245.245,0,0,1,.179-.315c.146-.033.138-.106.119-.214-.1-.564-.187-1.129-.286-1.692a.349.349,0,0,1,.084-.368.34.34,0,0,1,.393-.007c.262.113.531.213.785.341.143.072.207.035.285-.086.12-.187.255-.364.388-.543a.294.294,0,0,1,.529,0c.14.189.281.378.412.573.064.1.118.12.228.067.275-.13.558-.245.837-.366a.328.328,0,0,1,.36.007.337.337,0,0,1,.1.363c-.1.582-.194,1.166-.293,1.749-.014.085-.016.137.091.16a.255.255,0,0,1,.212.312.279.279,0,0,1-.314.244Zm-1.55-2.132c.085.507.167.987.244,1.468.014.088.067.09.135.09q1.184,0,2.368,0c.072,0,.119-.008.132-.094.077-.48.159-.959.243-1.463-.261.112-.494.209-.725.312a.311.311,0,0,1-.43-.118c-.1-.152-.221-.3-.322-.45-.068-.1-.108-.09-.17,0-.094.143-.2.28-.3.418-.151.206-.24.231-.47.134S-1016.454-192.556-1016.707-192.664Z" transform="translate(1024.935 195.359)" fill="#212189"/>
  <path id="Path_106546" data-name="Path 106546" d="M-999.664,25.458h2.178a1.11,1.11,0,0,1,.19.009.255.255,0,0,1,.227.245.256.256,0,0,1-.185.3.767.767,0,0,1-.226.024h-4.376c-.038,0-.077,0-.115,0a.3.3,0,0,1-.3-.285.289.289,0,0,1,.314-.287c.764,0,1.529,0,2.293,0Z" transform="translate(1010.613 -12.705)" fill="#212189"/>
  <path id="Path_106547" data-name="Path 106547" d="M-999.6-64.756h-2.178a1.266,1.266,0,0,1-.191-.007.264.264,0,0,1-.242-.275.26.26,0,0,1,.216-.276.937.937,0,0,1,.208-.017h4.357a.872.872,0,0,1,.208.017.259.259,0,0,1,.21.3.256.256,0,0,1-.239.254,1.361,1.361,0,0,1-.191.007Z" transform="translate(1010.553 73.445)" fill="#212189"/>
  <path id="Path_106548" data-name="Path 106548" d="M-999.671-4.306c-.758,0-1.516,0-2.274,0a.29.29,0,0,1-.322-.278.3.3,0,0,1,.311-.294c.044,0,.089,0,.134,0h4.319c.045,0,.089,0,.134,0a.289.289,0,0,1,.307.293.278.278,0,0,1-.316.279c-.459,0-.917,0-1.376,0Z" transform="translate(1010.61 16.083)" fill="#212189"/>
  <path id="Path_106549" data-name="Path 106549" d="M-999.589-35h2.159a1.2,1.2,0,0,1,.172,0,.259.259,0,0,1,.24.233.27.27,0,0,1-.168.309.466.466,0,0,1-.206.028h-4.433a.664.664,0,0,1-.188-.02.261.261,0,0,1-.2-.288.266.266,0,0,1,.256-.262,1.659,1.659,0,0,1,.172,0Z" transform="translate(1010.561 44.665)" fill="#212189"/>
  <path id="Path_106550" data-name="Path 106550" d="M-1046.645,26c-.178,0-.355,0-.533,0-.212,0-.331-.109-.333-.284s.112-.286.325-.289q.542-.006,1.085,0a.29.29,0,0,1,.319.28.293.293,0,0,1-.31.292C-1046.277,26.007-1046.461,26-1046.645,26Z" transform="translate(1053.543 -12.674)" fill="#212189"/>
  <path id="Path_106551" data-name="Path 106551" d="M-1046.671-64.806c-.178,0-.355,0-.533,0a.274.274,0,0,1-.3-.272.277.277,0,0,1,.3-.3q.561-.012,1.123,0a.288.288,0,0,1,.306.295.292.292,0,0,1-.322.276C-1046.291-64.8-1046.481-64.806-1046.671-64.806Z" transform="translate(1053.538 73.495)" fill="#212189"/>
  <path id="Path_106552" data-name="Path 106552" d="M-1046.651-35c.19,0,.381,0,.571,0a.287.287,0,0,1,.3.273.29.29,0,0,1-.3.3q-.561.009-1.123,0a.281.281,0,0,1-.3-.3.274.274,0,0,1,.3-.274C-1047.019-35.008-1046.835-35-1046.651-35Z" transform="translate(1053.534 44.67)" fill="#212189"/>
  <path id="Path_106553" data-name="Path 106553" d="M-1046.651-4.34c-.184,0-.368,0-.552,0a.274.274,0,0,1-.3-.274.276.276,0,0,1,.281-.3q.58-.012,1.161,0a.284.284,0,0,1,.285.3.287.287,0,0,1-.3.274C-1046.27-4.336-1046.46-4.34-1046.651-4.34Z" transform="translate(1053.534 16.117)" fill="#212189"/>
  <path id="Path_106554" data-name="Path 106554" d="M-979.207-159.995a.275.275,0,0,1,.278.278.289.289,0,0,1-.288.292.29.29,0,0,1-.278-.3A.275.275,0,0,1-979.207-159.995Z" transform="translate(989.002 163.272)" fill="#212189"/>
</svg>
