<svg xmlns="http://www.w3.org/2000/svg" width="56.605" height="56.349" viewBox="0 0 56.605 56.349">
  <g id="Group_63902" data-name="Group 63902" transform="translate(-202 -948.756)">
    <path id="Path_105200" data-name="Path 105200" d="M202,957.688c.73-.188,1.463-.365,2.189-.568a.581.581,0,0,0,.357-.906c-.357-.642-.73-1.275-1.12-1.951,1.294-1.294,2.577-2.587,3.881-3.859a.573.573,0,0,1,.512,0c.54.277,1.055.6,1.585.9a.6.6,0,0,0,.957-.393c.166-.584.334-1.169.467-1.761a.419.419,0,0,1,.488-.387c1.659.01,3.318.016,4.977,0,.341,0,.444.148.513.429.141.572.3,1.14.453,1.707a.6.6,0,0,0,.949.41c.546-.306,1.078-.64,1.635-.922a.55.55,0,0,1,.5.057q1.821,1.776,3.6,3.6a.6.6,0,0,1,.053.548c-.251.511-.56.994-.844,1.489-.331.576-.194.912.437,1.086l2.034.559c0,1.843.007,3.648-.016,5.453,0,.13-.205.324-.353.373-.541.177-1.1.306-1.65.453-.648.173-.794.505-.468,1.075.293.511.6,1.013.874,1.536a.518.518,0,0,1-.011.467c-1.273,1.3-2.565,2.591-3.868,3.9-.652-.377-1.268-.739-1.89-1.091-.487-.276-.839-.126-.99.416-.192.689-.376,1.38-.572,2.1-1.844,0-3.667.006-5.489-.014-.116,0-.292-.191-.334-.326-.181-.579-.317-1.172-.48-1.757a.608.608,0,0,0-.994-.421c-.624.352-1.243.715-1.825,1.051l-4.094-4.085c.326-.567.684-1.184,1.036-1.8q.447-.789-.424-1.03c-.691-.192-1.383-.38-2.075-.57Zm21.8,4.332v-1.675c0-1.246.007-1.279-1.2-1.547a1.263,1.263,0,0,1-1.131-.99c-.09-.37-.321-.7-.431-1.072a.97.97,0,0,1,.022-.646c.256-.523.572-1.016.8-1.416l-2.14-2.141c-.373.216-.815.445-1.227.719a1.068,1.068,0,0,1-1.006.066,2.48,2.48,0,0,1-2.118-2.393.438.438,0,0,0-.29-.31c-.917-.024-1.835-.014-2.737-.014a1.926,1.926,0,0,0-.113.372,2.269,2.269,0,0,1-2,2.281c-.088.018-.167.1-.252.105a1.633,1.633,0,0,1-.7-.043c-.509-.244-.986-.554-1.52-.863-.572.588-1.1,1.177-1.683,1.714-.316.293-.4.544-.108.873a2.2,2.2,0,0,1,.2,2.78,1.548,1.548,0,0,1-1.1.962c-1.267.3-1.268.325-1.258,1.619,0,.548-.15,1.236.12,1.6.249.339.967.335,1.478.482a.625.625,0,0,1,.209.066,1.033,1.033,0,0,1,.331.317,4.634,4.634,0,0,1,.714,1.823c-.027.592-.563,1.16-.873,1.739a.3.3,0,0,0-.031.1l2.108,2.108a2.029,2.029,0,0,0,.38-.213,2.219,2.219,0,0,1,2.785-.214,1.615,1.615,0,0,1,.983,1.149c.275,1.222.312,1.221,1.545,1.211.566,0,1.276.154,1.656-.123.352-.257.326-1.007.521-1.518a1.057,1.057,0,0,1,.466-.513,11.516,11.516,0,0,1,1.47-.626.854.854,0,0,1,.592.019c.431.205.823.49,1.253.7a.564.564,0,0,0,.505-.034c.65-.6,1.269-1.226,1.9-1.851-.3-.524-.608-.987-.839-1.484a1.085,1.085,0,0,1-.041-.742,4.078,4.078,0,0,1,.782-1.727,4.834,4.834,0,0,1,1.816-.567A1.017,1.017,0,0,0,223.8,962.02Z" fill="#fe4a55"/>
    <path id="Path_105201" data-name="Path 105201" d="M202,1191.252c.237.018.474.052.71.052q11.06,0,22.119,0h.751v1.826H202Z" transform="translate(0 -208.012)" fill="#262261"/>
    <path id="Path_105202" data-name="Path 105202" d="M202,1140.594c1.713-.005,3.426-.014,5.14-.015q8.871,0,17.743,0h.7v1.758c-.143.014-.283.041-.423.041q-11.47,0-22.939,0c-.073,0-.147-.009-.22-.014Z" transform="translate(0 -164.545)" fill="#262261"/>
    <path id="Path_105203" data-name="Path 105203" d="M202,1166.152c1.031-.011,2.061-.03,3.092-.032q3.565-.007,7.13,0h.643v1.8H202Z" transform="translate(0 -186.452)" fill="#262261"/>
    <path id="Path_105204" data-name="Path 105204" d="M353.576,1098.392a1.829,1.829,0,0,1,.034-.3c.684-2.273,1.331-4.558,2.067-6.814a6.3,6.3,0,0,1,5.3-4.421c1.831-.324,3.659-.66,5.673-1.024-.172-.267-.252-.527-.427-.643a9.232,9.232,0,0,1-3.984-5.575.734.734,0,0,0-.4-.431,3.619,3.619,0,0,1-2.569-3.608c-.017-2.562-.033-5.126.064-7.685a11.173,11.173,0,0,1,19.17-6.943,2.182,2.182,0,0,0,.672.455,5.667,5.667,0,0,1,3.708,5.387c.032,2.949.023,5.9,0,8.849a3.639,3.639,0,0,1-2.524,3.531.859.859,0,0,0-.454.512,9.241,9.241,0,0,1-3.935,5.483,3.229,3.229,0,0,0-.525.655c1.63.3,3.059.549,4.485.818a11.186,11.186,0,0,1,3.6,1,6.209,6.209,0,0,1,2.965,3.635c.715,2.283,1.38,4.581,2.066,6.873.02.065.032.133.059.244Zm27.44-25.92a.519.519,0,0,0,.049-.152c-.007-1.971.041-3.945-.043-5.913a3.525,3.525,0,0,0-2.42-3.261,3.9,3.9,0,0,1-1.4-.919,9.139,9.139,0,0,0-6.782-2.859,9.328,9.328,0,0,0-9.31,9.22c-.028,1.3,0,2.6,0,3.885.945-.011.945-.652.9-1.322a7.392,7.392,0,0,0,4.634-.964c1.3-.875,2.456-1.975,3.715-3.009.129.171.328.431.523.693a7.494,7.494,0,0,0,4.376,2.994,20.2,20.2,0,0,0,3.176.288c.562.036,1.128.006,1.68.006C380.23,1072.28,380.23,1072.28,381.016,1072.472Zm-5.9,22.147-4.061-4.073-4.026,4.031-2.2-6.576c-1.439.275-2.853.509-4.249.821a4.167,4.167,0,0,0-2.91,2.343,8.963,8.963,0,0,0-.49,1.345c-.409,1.333-.8,2.671-1.217,4.054h30.264c-.574-1.807-1.058-3.605-1.723-5.333a3.948,3.948,0,0,0-2.912-2.409c-.786-.19-1.588-.317-2.384-.465-.625-.116-1.253-.221-1.887-.333Zm-11.263-21.683c0,1.766-.075,3.481.016,5.186a7.229,7.229,0,0,0,14.369.4c.181-1.788.076-3.6.1-5.409,0-.028-.043-.056-.1-.13a10.021,10.021,0,0,1-8.131-3.188A9.836,9.836,0,0,1,363.857,1072.937Zm10.5,18.237,1.2-3.6c-1.392.181-2.043,1.3-3,1.776Zm-7.738-3.577,1.2,3.592,1.807-1.81c-.73-.547-1.482-1.131-2.26-1.677C367.215,1087.6,366.96,1087.639,366.617,1087.6Zm6.87-1.2a12.821,12.821,0,0,1-4.824-.009l2.42,1.811Zm6.694-9.149a1.76,1.76,0,0,0,.847-1.819,1.493,1.493,0,0,0-.847-1.206Zm-18.205-3.045a1.752,1.752,0,0,0,0,3.022Z" transform="translate(-130.022 -93.324)" fill="#262261"/>
    <path id="Path_105205" data-name="Path 105205" d="M491.585,961.084l.9-1.045,1.184,1.227-3.171,3.169-3.2-3.2,1.263-1.182.855,1.094.145-.122c.175-3.111.275-6.2-2.4-8.523a7.012,7.012,0,0,0-4.569-1.819c-1.676-.033-3.352-.012-5.028-.014h-.64v-1.79a1.92,1.92,0,0,1,.28-.04c1.97.016,3.944-.03,5.91.067a9,9,0,0,1,8.261,8.347c.055,1.248.008,2.5.008,3.751Z" transform="translate(-235.832 -0.072)" fill="#262261"/>
    <path id="Path_105206" data-name="Path 105206" d="M207.99,1234.615l3.234,3.214-1.268,1.255-.869-1.09-.158.1a2.908,2.908,0,0,0-.039.4,27.362,27.362,0,0,0,.2,4.235,7.1,7.1,0,0,0,6.745,5.736c.089.005.176.023.295.039v1.756a7.669,7.669,0,0,1-3.679-.771,8.94,8.94,0,0,1-5.37-8.441c-.017-.971,0-1.943-.112-2.979l-.913,1.166-1.321-1.376Z" transform="translate(-2.348 -245.209)" fill="#262261"/>
    <path id="Path_105207" data-name="Path 105207" d="M302.522,1166.414v1.729H291.676v-1.729Z" transform="translate(-76.924 -186.706)" fill="#262261"/>
    <path id="Path_105208" data-name="Path 105208" d="M427.345,948.8v1.8h-1.8c0-.505-.017-1.014.014-1.52a.419.419,0,0,1,.3-.266C426.338,948.784,426.814,948.8,427.345,948.8Z" transform="translate(-191.754 -0.034)" fill="#262261"/>
    <path id="Path_105209" data-name="Path 105209" d="M451.354,949.053h1.756V950.8h-1.756Z" transform="translate(-213.895 -0.254)" fill="#262261"/>
    <path id="Path_105210" data-name="Path 105210" d="M297.9,1334.2v-1.788h1.811c0,.521.014,1.031-.013,1.539,0,.088-.177.233-.277.238C298.934,1334.217,298.441,1334.2,297.9,1334.2Z" transform="translate(-82.266 -329.102)" fill="#262261"/>
    <path id="Path_105211" data-name="Path 105211" d="M325.333,1334.086h-1.744v-1.773h1.744Z" transform="translate(-104.299 -329.014)" fill="#262261"/>
    <path id="Path_105212" data-name="Path 105212" d="M251.79,997.369l-1.4-1.036a4.585,4.585,0,0,0,.593-4.255,4.308,4.308,0,0,0-1.827-2.282,4.525,4.525,0,0,0-5.945,6.663,4.6,4.6,0,0,0,6.3.776l1.063,1.379a6.265,6.265,0,0,1-8.476-.658,6.349,6.349,0,0,1,8.977-8.972A6.266,6.266,0,0,1,251.79,997.369Z" transform="translate(-32.925 -33.032)" fill="#fe4a55"/>
  </g>
</svg>
