<svg xmlns="http://www.w3.org/2000/svg" width="22.257" height="10.346" viewBox="0 0 22.257 10.346">
  <path id="vote" d="M5.173,137a5.158,5.158,0,0,1,3.652,1.517l.78-.78a.652.652,0,1,1,.922.922l-.9.9A5.161,5.161,0,1,1,5.173,137Zm11.911,0a5.173,5.173,0,1,1-5.173,5.173A5.187,5.187,0,0,1,17.085,137Zm0,1.3a3.869,3.869,0,1,0,3.869,3.869,3.882,3.882,0,0,0-3.869-3.869Zm1.147,1.8-1.147,1.147L15.938,140.1a.652.652,0,0,0-.922.922l1.147,1.147-1.147,1.147a.652.652,0,0,0,.922.922l1.147-1.147,1.147,1.147a.652.652,0,0,0,.922-.922l-1.147-1.147,1.147-1.147a.652.652,0,0,0-.922-.922ZM3.239,142.261a.652.652,0,1,1,.922-.922l.919.919L7.9,139.435a3.854,3.854,0,1,0,.765,1.079l-3.127,3.127a.652.652,0,0,1-.922,0Z" transform="translate(-0.001 -136.996)" fill="#707070" fill-rule="evenodd"/>
</svg>
