<svg width="129" height="130" viewBox="0 0 129 130" fill="none" xmlns="http://www.w3.org/2000/svg">
<path d="M41.2177 64.014C41.2177 59.4007 42.0443 55.7873 43.6977 53.174C45.3777 50.5607 48.151 49.254 52.0177 49.254C55.8843 49.254 58.6443 50.5607 60.2977 53.174C61.9777 55.7873 62.8177 59.4007 62.8177 64.014C62.8177 68.654 61.9777 72.294 60.2977 74.934C58.6443 77.574 55.8843 78.894 52.0177 78.894C48.151 78.894 45.3777 77.574 43.6977 74.934C42.0443 72.294 41.2177 68.654 41.2177 64.014ZM57.2977 64.014C57.2977 62.0407 57.1643 60.3873 56.8977 59.054C56.6577 57.694 56.151 56.5873 55.3777 55.734C54.631 54.8807 53.511 54.454 52.0177 54.454C50.5243 54.454 49.391 54.8807 48.6177 55.734C47.871 56.5873 47.3643 57.694 47.0977 59.054C46.8577 60.3873 46.7377 62.0407 46.7377 64.014C46.7377 66.0407 46.8577 67.7473 47.0977 69.134C47.3377 70.494 47.8443 71.6007 48.6177 72.454C49.391 73.2807 50.5243 73.694 52.0177 73.694C53.511 73.694 54.6443 73.2807 55.4177 72.454C56.191 71.6007 56.6977 70.494 56.9377 69.134C57.1777 67.7473 57.2977 66.0407 57.2977 64.014ZM67.157 57.494C67.2904 54.8273 68.2237 52.774 69.957 51.334C71.717 49.8673 74.0237 49.134 76.877 49.134C78.8237 49.134 80.4904 49.4807 81.877 50.174C83.2637 50.8407 84.3037 51.7607 84.997 52.934C85.717 54.0807 86.077 55.3873 86.077 56.854C86.077 58.534 85.637 59.9607 84.757 61.134C83.9037 62.2807 82.877 63.054 81.677 63.454V63.614C83.2237 64.094 84.4237 64.9473 85.277 66.174C86.157 67.4007 86.597 68.974 86.597 70.894C86.597 72.494 86.2237 73.9207 85.477 75.174C84.757 76.4273 83.677 77.414 82.237 78.134C80.8237 78.8273 79.117 79.174 77.117 79.174C74.1037 79.174 71.6504 78.414 69.757 76.894C67.8637 75.374 66.8637 73.134 66.757 70.174H72.197C72.2504 71.4807 72.6904 72.534 73.517 73.334C74.3704 74.1073 75.5304 74.494 76.997 74.494C78.357 74.494 79.397 74.1207 80.117 73.374C80.8637 72.6007 81.237 71.614 81.237 70.414C81.237 68.814 80.7304 67.6673 79.717 66.974C78.7037 66.2807 77.1304 65.934 74.997 65.934H73.837V61.334H74.997C78.7837 61.334 80.677 60.0673 80.677 57.534C80.677 56.3873 80.3304 55.494 79.637 54.854C78.9704 54.214 77.997 53.894 76.717 53.894C75.4637 53.894 74.4904 54.2407 73.797 54.934C73.1304 55.6007 72.7437 56.454 72.637 57.494H67.157Z" fill="#FE4A55"/>
<circle cx="64.5" cy="65.474" r="63.5" stroke="#FE4A55" stroke-width="2"/>
</svg>
