<svg xmlns="http://www.w3.org/2000/svg" xmlns:xlink="http://www.w3.org/1999/xlink" width="63" height="63" viewBox="0 0 63 63"><defs><linearGradient id="a" x1="0.5" x2="0.5" y2="1" gradientUnits="objectBoundingBox"><stop offset="0" stop-color="#edf6ff"/><stop offset="1" stop-color="#dae8f8"/></linearGradient></defs><g transform="translate(-1401 -276)"><rect width="63" height="63" rx="4" transform="translate(1401 276)" fill="url(#a)"/><g transform="translate(1410.695 254.441)"><g transform="translate(4.26 38.37)"><path d="M7.975,67.657A3.73,3.73,0,0,1,4.26,63.935V42.092A3.727,3.727,0,0,1,7.982,38.37H35.067a3.727,3.727,0,0,1,3.722,3.722c0,1.3,0,3.446.005,5.909.009,6.949.019,15.6-.012,16.149a3.721,3.721,0,0,1-3.014,3.44.383.383,0,0,1-.073.007l-27.712.059v0H7.975Zm.007-28.506a2.944,2.944,0,0,0-2.941,2.941V63.935a2.949,2.949,0,0,0,2.934,2.941h.006l27.674-.06A2.94,2.94,0,0,0,38,64.105c.03-.527.019-9.529.011-16.1,0-2.463-.005-4.614-.005-5.91a2.944,2.944,0,0,0-2.941-2.941Z" transform="translate(-4.26 -38.37)" fill="#fe4a55"/></g><g transform="translate(17.597 45.051)"><path d="M175.375,130.795a.39.39,0,0,1-.388-.431,18.621,18.621,0,0,0-.06-2.923,1.952,1.952,0,0,1,.531-1.64,2.613,2.613,0,0,1,1.919-.567h1.777c.6-.185.751-1.037.753-1.046a.392.392,0,0,1,.449-.32c2.077.346,2.464,1.31,2.431,2.857l-.074,3.461a.391.391,0,0,1-.76.122c-.081-.23-.487-.183-.491-.183a.431.431,0,0,1-.055,0h-2.747c-.624.077-1.147-.449-1.491-.938a5.065,5.065,0,0,1-1.594,1.548A.387.387,0,0,1,175.375,130.795Zm1.752-4.789a1.68,1.68,0,0,0-1.13.361,1.2,1.2,0,0,0-.292,1.014c.077.986.095,1.721.091,2.225a2.642,2.642,0,0,0,.921-1.372.391.391,0,0,1,.739-.1c.25.529.791,1.267,1.115,1.215a.4.4,0,0,1,.062,0h2.749a1.575,1.575,0,0,1,.565.044l.058-2.683c.027-1.221-.186-1.729-1.434-2A1.912,1.912,0,0,1,179.3,126a.386.386,0,0,1-.095.012h-1.85l-.045,0A1.747,1.747,0,0,0,177.127,126.006Z" transform="translate(-174.917 -123.862)" fill="#fe4a55"/></g><g transform="translate(11.015 56.685)"><path d="M91.086,283.683a.391.391,0,0,1-.391-.391v-3.477c0-.118,0-.232,0-.343-.01-1.515-.017-2.61,2.034-3.479l5.791-3.225a.391.391,0,0,1,.381.683l-5.81,3.236a.36.36,0,0,1-.039.019c-1.59.667-1.585,1.323-1.576,2.761,0,.113,0,.228,0,.348v3.477A.391.391,0,0,1,91.086,283.683Zm20.247-.044a.391.391,0,0,1-.391-.391v-3.433c0-.12,0-.235,0-.348.009-1.438.014-2.095-1.576-2.761a.359.359,0,0,1-.039-.019l-5.81-3.236a.391.391,0,0,1,.38-.683l5.791,3.225c2.052.868,2.045,1.964,2.034,3.479,0,.111,0,.225,0,.343v3.433A.389.389,0,0,1,111.333,283.639Z" transform="translate(-90.692 -272.718)" fill="#fe4a55"/></g><g transform="translate(18.64 54.515)"><path d="M191.254,250.636a.39.39,0,0,1-.283-.121l-2.6-2.735a.392.392,0,0,1-.108-.27v-2.17a.391.391,0,1,1,.782,0v2.014l2.2,2.312,2.019-2.3v-1.985a.391.391,0,1,1,.782,0v2.132a.393.393,0,0,1-.1.258l-2.4,2.735a.39.39,0,0,1-.286.133Z" transform="translate(-188.26 -244.95)" fill="#fe4a55"/></g><g transform="translate(21.244 59.42)"><path d="M221.961,315.918a.391.391,0,0,1-.391-.391V308.1a.391.391,0,0,1,.782,0v7.426A.39.39,0,0,1,221.961,315.918Z" transform="translate(-221.57 -307.71)" fill="#fe4a55"/></g><g transform="translate(17.664 50.977)"><path d="M179.66,205.3a3.525,3.525,0,0,1-2.7-1.293,5.626,5.626,0,0,1-1.189-3.713.391.391,0,1,1,.782,0c0,2.9,1.612,4.224,3.108,4.224a2.716,2.716,0,0,0,2.079-1,4.82,4.82,0,0,0,.985-3.17c0-.076-.006-.234-.007-.262l.39-.016v-.391c.173,0,.381.084.395.483,0,.063,0,.137,0,.187C183.506,203.752,181.512,205.3,179.66,205.3Zm3.455-4.84h0Z" transform="translate(-175.77 -199.68)" fill="#fe4a55"/></g><g transform="translate(19.709 61.245)"><path d="M202.409,331.06a.469.469,0,1,1-.469.469A.469.469,0,0,1,202.409,331.06Z" transform="translate(-201.94 -331.06)" fill="#fe4a55" fill-rule="evenodd"/><path d="M202.409,354.24a.469.469,0,1,1-.469.469A.469.469,0,0,1,202.409,354.24Z" transform="translate(-201.94 -352.428)" fill="#fe4a55" fill-rule="evenodd"/><path d="M202.409,377.41a.469.469,0,1,1-.469.469A.469.469,0,0,1,202.409,377.41Z" transform="translate(-201.94 -373.788)" fill="#fe4a55" fill-rule="evenodd"/></g><g transform="translate(14.481 64.809)"><path d="M135.431,379.494a.391.391,0,0,1-.391-.391v-2.052a.391.391,0,1,1,.782,0V379.1a.391.391,0,0,1-.391.39Z" transform="translate(-135.04 -376.66)" fill="#fe4a55"/></g><g transform="translate(27.801 64.808)"><path d="M305.871,379.456a.391.391,0,0,1-.391-.391v-2.024a.391.391,0,0,1,.782,0v2.024A.39.39,0,0,1,305.871,379.456Z" transform="translate(-305.48 -376.65)" fill="#fe4a55"/></g><g transform="translate(4.26 43.469)"><path d="M38.4,104.392H4.651a.391.391,0,0,1,0-.782H38.4a.391.391,0,0,1,0,.782Z" transform="translate(-4.26 -103.61)" fill="#fe4a55"/></g><g transform="translate(8.383 40.06)"><path d="M58.27,62.491a1.25,1.25,0,1,1,1.25-1.25A1.252,1.252,0,0,1,58.27,62.491Zm0-1.719a.469.469,0,1,0,.469.469A.469.469,0,0,0,58.27,60.772Z" transform="translate(-57.02 -59.99)" fill="#fe4a55"/></g><g transform="translate(12.347 40.06)"><path d="M108.98,62.491a1.25,1.25,0,1,1,1.25-1.25A1.252,1.252,0,0,1,108.98,62.491Zm0-1.719a.469.469,0,1,0,.469.469A.469.469,0,0,0,108.98,60.772Z" transform="translate(-107.73 -59.99)" fill="#fe4a55"/></g><g transform="translate(16.309 40.06)"><path d="M159.68,62.491a1.25,1.25,0,1,1,1.25-1.25A1.252,1.252,0,0,1,159.68,62.491Zm0-1.719a.469.469,0,1,0,.469.469A.469.469,0,0,0,159.68,60.772Z" transform="translate(-158.43 -59.99)" fill="#fe4a55"/></g><g transform="translate(20.3 40.919)"><path d="M219.538,71.772h-9.657a.391.391,0,0,1,0-.782h9.657a.391.391,0,0,1,0,.782Z" transform="translate(-209.49 -70.99)" fill="#fe4a55"/></g><g transform="translate(31.788 40.919)"><path d="M359.156,71.772h-2.275a.391.391,0,0,1,0-.782h2.275a.391.391,0,1,1,0,.782Z" transform="translate(-356.49 -70.99)" fill="#fe4a55"/></g><g transform="translate(6.761 46.481)"><g transform="translate(0 0)"><path d="M44.505,142.932H36.651a.391.391,0,1,1,0-.782h7.854a.391.391,0,1,1,0,.782Z" transform="translate(-36.26 -142.15)" fill="#fe4a55"/></g><g transform="translate(0 1.993)"><path d="M44.505,168.432H36.651a.391.391,0,1,1,0-.782h7.854a.391.391,0,1,1,0,.782Z" transform="translate(-36.26 -167.65)" fill="#fe4a55"/></g><g transform="translate(0 3.986)"><path d="M42.122,193.932H36.651a.391.391,0,1,1,0-.782h5.471a.391.391,0,0,1,0,.782Z" transform="translate(-36.26 -193.15)" fill="#fe4a55"/></g></g><g transform="translate(27.667 46.481)"><g transform="translate(0 0)"><path d="M312.005,142.932h-7.854a.391.391,0,1,1,0-.782h7.854a.391.391,0,1,1,0,.782Z" transform="translate(-303.76 -142.15)" fill="#fe4a55"/></g><g transform="translate(0 1.993)"><path d="M312.005,168.432h-7.854a.391.391,0,1,1,0-.782h7.854a.391.391,0,1,1,0,.782Z" transform="translate(-303.76 -167.65)" fill="#fe4a55"/></g><g transform="translate(2.384 3.986)"><path d="M340.122,193.932h-5.471a.391.391,0,0,1,0-.782h5.471a.391.391,0,1,1,0,.782Z" transform="translate(-334.26 -193.15)" fill="#fe4a55"/></g></g></g></g></svg>