<svg xmlns="http://www.w3.org/2000/svg" xmlns:xlink="http://www.w3.org/1999/xlink" width="63" height="63" viewBox="0 0 63 63"><defs><linearGradient id="a" x1="0.5" x2="0.5" y2="1" gradientUnits="objectBoundingBox"><stop offset="0" stop-color="#edf6ff"/><stop offset="1" stop-color="#dae8f8"/></linearGradient></defs><g transform="translate(-1006 -276)"><rect width="63" height="63" rx="4" transform="translate(1006 276)" fill="url(#a)"/><g transform="translate(1018.6 288.229)"><path d="M34.241,28.2l.029-.04a3.464,3.464,0,0,0,.223-3.173c-1.189-2.161-3.007-5.453-3.1-5.665-.823-1.863-2.9-2.555-4.3-2.972a9.272,9.272,0,0,1-1.029-.366,1.143,1.143,0,0,1-.337-.234,7.8,7.8,0,0,0,2.424-5.476l.572-.1a.572.572,0,0,0,.446-.743l-.646-1.944,3.338-1.115A.572.572,0,0,0,31.9,5.3L23.608,1.816a.572.572,0,0,0-.446,0L14.874,5.3a.572.572,0,0,0,.04,1.069l.48.16V7.4a1.44,1.44,0,0,0-.835,1.332V9.75a.572.572,0,0,0,.572.572h1.743a.572.572,0,0,0,.572-.572V8.733A1.44,1.44,0,0,0,16.572,7.4V6.9l1.715.572-.646,1.944a.572.572,0,0,0,.446.743l.474.08a7.866,7.866,0,0,0,2.286,5.379,1.109,1.109,0,0,1-.452.366,9.329,9.329,0,0,1-1.017.36,16.577,16.577,0,0,0-1.629.572,6.723,6.723,0,0,0-1.246.692.572.572,0,0,0-.2.286H2.556a.572.572,0,0,0-.572.726L4.676,28.2H4.27a1.715,1.715,0,1,0,0,3.43H5.414V36.2a.572.572,0,0,0,.572.572H32.28a.572.572,0,0,0,.572-.572V31.626h1.143a1.719,1.719,0,1,0,.246-3.43ZM16.3,9.179h-.6V8.733a.269.269,0,0,1,.3-.3c.1,0,.292,0,.3.3Zm2.635,0,.612-1.835a6.278,6.278,0,0,1,3.87-1.069,6.261,6.261,0,0,1,3.87,1.069L27.9,9.179,23.42,9.9ZM23.42,2.954,30.085,5.76l-2.052.686h0A7.258,7.258,0,0,0,23.42,5.1a7.032,7.032,0,0,0-4.613,1.372h0l-2.052-.686ZM19.7,10.436l3.624.612h.189L27,10.476c-.137,2.378-1.761,5.11-3.641,5.11S19.847,12.82,19.7,10.436Zm3.641,6.288a3.258,3.258,0,0,0,1.4-.326,2.212,2.212,0,0,0,.829.635l.217.086a2.546,2.546,0,0,1-2.378,1.143A2.477,2.477,0,0,1,20.968,17a2.212,2.212,0,0,0,.806-.675,3.31,3.31,0,0,0,1.583.389Zm-3.624.72.166-.057a3.561,3.561,0,0,0,3.527,1.995A3.592,3.592,0,0,0,26.89,17.49c1.3.417,2.858.955,3.43,2.286.074.177,2.012,3.693,3.15,5.751a2.355,2.355,0,0,1-.183,2.035,1.143,1.143,0,0,1-1.006.634H25.421a1.075,1.075,0,0,1-1.143-1.143c0-1.143,3.653-1.715,6.288-1.715a.572.572,0,0,0,0-1.143c-.263,0-.749,0-1.343.04L28.187,22.68a.572.572,0,1,0-.949.635l.692,1.035c-1.921.229-4.184.783-4.682,2.132H20.819l-2.258-8.157a.572.572,0,0,0-.3-.354q.727-.305,1.481-.537ZM21.293,28.2l-.16-.572h2.058a2.121,2.121,0,0,0,.217.572ZM3.31,19.05H17.555L20.11,28.2H5.86Zm28.4,16.577H6.557v-4H31.708Zm2.286-5.145H4.27a.572.572,0,0,1,0-1.143H33.995a.572.572,0,0,1,0,1.143Z" transform="translate(0)" fill="#fe4a55"/><path d="M15.572,24.2a.572.572,0,0,0,.572-.572V22.482a.572.572,0,1,0-1.143,0v1.143A.572.572,0,0,0,15.572,24.2Z" transform="translate(-5.585 -8.627)" fill="#fe4a55"/><path d="M19.163,25.935a.572.572,0,0,0,.406-.166l.806-.806a.572.572,0,0,0-.806-.806l-.806.806a.572.572,0,0,0,.406.977Z" transform="translate(-7.125 -9.531)" fill="#fe4a55"/><path d="M11.1,25.769a.572.572,0,0,0,.806-.806l-.806-.806a.572.572,0,0,0-.806.806Z" transform="translate(-3.511 -9.531)" fill="#fe4a55"/></g></g></svg>