<svg xmlns="http://www.w3.org/2000/svg" xmlns:xlink="http://www.w3.org/1999/xlink" width="63" height="63" viewBox="0 0 63 63"><defs><linearGradient id="a" x1="0.5" x2="0.5" y2="1" gradientUnits="objectBoundingBox"><stop offset="0" stop-color="#edf6ff"/><stop offset="1" stop-color="#dae8f8"/></linearGradient></defs><g transform="translate(-609 -276)"><rect width="63" height="63" rx="4" transform="translate(609 276)" fill="url(#a)"/><g transform="translate(622.445 293.816)"><path d="M226.256,240.414a1.13,1.13,0,0,1,1.128,1.128.564.564,0,0,0,1.128,0,2.26,2.26,0,0,0-1.692-2.185v-.636a.564.564,0,0,0-1.128,0v.636a2.257,2.257,0,0,0,.564,4.441,1.128,1.128,0,1,1-1.128,1.128.564.564,0,0,0-1.128,0,2.26,2.26,0,0,0,1.692,2.185v.635a.564.564,0,1,0,1.128,0v-.635a2.256,2.256,0,0,0-.564-4.441,1.128,1.128,0,0,1,0-2.256Z" transform="translate(-208.205 -226.008)" fill="#fe4a55"/><path d="M159.333,206.158a7.333,7.333,0,1,0,7.333,7.333A7.341,7.341,0,0,0,159.333,206.158Zm0,13.538a6.205,6.205,0,1,1,6.205-6.205A6.212,6.212,0,0,1,159.333,219.7Z" transform="translate(-141.282 -196.265)" fill="#fe4a55"/><path d="M34.344,73.479l-.361-2.885a1.691,1.691,0,0,0-1.913-1.466l-.817.117-.53-2.121A1.691,1.691,0,0,0,28.635,65.9L1.607,73.481A1.694,1.694,0,0,0,0,75.172V90.966a1.694,1.694,0,0,0,1.692,1.692H34.41A1.694,1.694,0,0,0,36.1,90.966V75.172a1.7,1.7,0,0,0-1.758-1.692Zm-2.117-3.234a.564.564,0,0,1,.637.489l.343,2.745H9.619Zm-3.292-3.256a.564.564,0,0,1,.694.408l.5,2.008L10.1,72.27Zm6.039,23.977a.565.565,0,0,1-.564.564H1.692a.565.565,0,0,1-.564-.564V75.172a.565.565,0,0,1,.563-.564H34.41a.565.565,0,0,1,.564.564Z" transform="translate(0 -65.842)" fill="#fe4a55"/><path d="M345.59,207.85a1.13,1.13,0,0,1-1.128-1.128.564.564,0,0,0-.564-.564h-7.333a.564.564,0,1,0,0,1.128H343.4a2.264,2.264,0,0,0,1.621,1.621v9.168A2.264,2.264,0,0,0,343.4,219.7h-6.841a.564.564,0,1,0,0,1.128H343.9a.564.564,0,0,0,.564-.564,1.13,1.13,0,0,1,1.128-1.128.564.564,0,0,0,.564-.564V208.414a.564.564,0,0,0-.564-.564Z" transform="translate(-312.308 -196.265)" fill="#fe4a55"/><path d="M41.59,219.7H34.749a2.265,2.265,0,0,0-1.621-1.621v-9.168a2.265,2.265,0,0,0,1.621-1.621H41.59a.564.564,0,0,0,0-1.128H34.256a.564.564,0,0,0-.564.564,1.13,1.13,0,0,1-1.128,1.128.564.564,0,0,0-.564.564v10.154a.564.564,0,0,0,.564.564,1.13,1.13,0,0,1,1.128,1.128.564.564,0,0,0,.564.564H41.59a.564.564,0,0,0,0-1.128Z" transform="translate(-29.743 -196.265)" fill="#fe4a55"/><path d="M72,287.85a1.692,1.692,0,1,0,1.692-1.692A1.694,1.694,0,0,0,72,287.85Zm2.256,0a.564.564,0,1,1-.564-.564A.565.565,0,0,1,74.256,287.85Z" transform="translate(-66.923 -270.624)" fill="#fe4a55"/><path d="M395.385,287.85a1.692,1.692,0,1,0-1.692,1.692A1.694,1.694,0,0,0,395.385,287.85Zm-2.256,0a.564.564,0,1,1,.564.564A.565.565,0,0,1,393.128,287.85Z" transform="translate(-364.359 -270.624)" fill="#fe4a55"/></g></g></svg>