<svg xmlns="http://www.w3.org/2000/svg" width="32" height="31" viewBox="0 0 32 31">
  <g id="Group_66307" data-name="Group 66307" transform="translate(-153 -1316)">
    <ellipse id="Ellipse_1157" data-name="Ellipse 1157" cx="16" cy="15.5" rx="16" ry="15.5" transform="translate(153 1316)" fill="#212189"/>
    <path id="Path" d="M17.458,2.5a8.247,8.247,0,0,1-2.373,1.156A3.385,3.385,0,0,0,9.145,5.922v.755a8.056,8.056,0,0,1-6.8-3.423s-3.022,6.8,3.779,9.824a8.794,8.794,0,0,1-5.29,1.511c6.8,3.778,15.113,0,15.113-8.689a3.39,3.39,0,0,0-.061-.627A5.828,5.828,0,0,0,17.458,2.5Z" transform="translate(159.854 1322.509)" fill="#fff"/>
  </g>
</svg>
