<svg xmlns="http://www.w3.org/2000/svg" width="41.021" height="41.021" viewBox="0 0 41.021 41.021">
  <g id="Group_66314" data-name="Group 66314" transform="translate(-393.795 -353.618)">
    <rect id="Rectangle_28959" data-name="Rectangle 28959" width="41.021" height="41.021" rx="4" transform="translate(393.795 353.618)" fill="#212189"/>
    <path id="Path" d="M17.039,2.5a8.039,8.039,0,0,1-2.313,1.127,3.3,3.3,0,0,0-5.79,2.21v.736a7.853,7.853,0,0,1-6.63-3.337S-.64,9.865,5.99,12.812A8.573,8.573,0,0,1,.833,14.285c6.63,3.683,14.733,0,14.733-8.471a3.305,3.305,0,0,0-.059-.612A5.681,5.681,0,0,0,17.039,2.5Z" transform="translate(405.496 364.8)" fill="#fff"/>
  </g>
</svg>
