<svg xmlns="http://www.w3.org/2000/svg" width="44" height="44" viewBox="0 0 44 44">
  <g id="Group_65267" data-name="Group 65267" transform="translate(-120 -6065)">
    <rect id="Rectangle_28549" data-name="Rectangle 28549" width="44" height="44" rx="22" transform="translate(120 6065)" fill="#fff"/>
    <path id="Path" d="M18.433,2.5a8.73,8.73,0,0,1-2.512,1.224,3.584,3.584,0,0,0-6.288,2.4v.8A8.528,8.528,0,0,1,2.433,3.3s-3.2,7.2,4,10.4a9.31,9.31,0,0,1-5.6,1.6c7.2,4,16,0,16-9.2a3.589,3.589,0,0,0-.064-.664A6.17,6.17,0,0,0,18.433,2.5Z" transform="translate(132.168 6077.508)" fill="#212189"/>
  </g>
</svg>
