<svg width="129" height="130" viewBox="0 0 129 130" fill="none" xmlns="http://www.w3.org/2000/svg">
<path d="M42.2059 64.014C42.2059 59.4007 43.0326 55.7873 44.6859 53.174C46.3659 50.5607 49.1393 49.254 53.0059 49.254C56.8726 49.254 59.6326 50.5607 61.2859 53.174C62.9659 55.7873 63.8059 59.4007 63.8059 64.014C63.8059 68.654 62.9659 72.294 61.2859 74.934C59.6326 77.574 56.8726 78.894 53.0059 78.894C49.1393 78.894 46.3659 77.574 44.6859 74.934C43.0326 72.294 42.2059 68.654 42.2059 64.014ZM58.2859 64.014C58.2859 62.0407 58.1526 60.3873 57.8859 59.054C57.6459 57.694 57.1393 56.5873 56.3659 55.734C55.6193 54.8807 54.4993 54.454 53.0059 54.454C51.5126 54.454 50.3793 54.8807 49.6059 55.734C48.8593 56.5873 48.3526 57.694 48.0859 59.054C47.8459 60.3873 47.7259 62.0407 47.7259 64.014C47.7259 66.0407 47.8459 67.7473 48.0859 69.134C48.3259 70.494 48.8326 71.6007 49.6059 72.454C50.3793 73.2807 51.5126 73.694 53.0059 73.694C54.4993 73.694 55.6326 73.2807 56.4059 72.454C57.1793 71.6007 57.6859 70.494 57.9259 69.134C58.1659 67.7473 58.2859 66.0407 58.2859 64.014ZM69.8253 72.654C72.3853 70.5207 74.4253 68.7473 75.9453 67.334C77.4653 65.894 78.732 64.4007 79.7453 62.854C80.7586 61.3073 81.2653 59.7873 81.2653 58.294C81.2653 56.934 80.9453 55.8673 80.3053 55.094C79.6653 54.3207 78.6786 53.934 77.3453 53.934C76.012 53.934 74.9853 54.3873 74.2653 55.294C73.5453 56.174 73.172 57.3873 73.1453 58.934H67.7053C67.812 55.734 68.7586 53.3073 70.5453 51.654C72.3586 50.0007 74.652 49.174 77.4253 49.174C80.4653 49.174 82.7986 49.9873 84.4253 51.614C86.052 53.214 86.8653 55.334 86.8653 57.974C86.8653 60.054 86.3053 62.0407 85.1853 63.934C84.0653 65.8273 82.7853 67.4807 81.3453 68.894C79.9053 70.2807 78.0253 71.9607 75.7053 73.934H87.5053V78.574H67.7453V74.414L69.8253 72.654Z" fill="#FE4A55"/>
<circle cx="64.5" cy="65.474" r="63.5" stroke="#FE4A55" stroke-width="2"/>
</svg>
