<svg xmlns="http://www.w3.org/2000/svg" width="20" height="17" viewBox="0 0 20 17">
  <g id="crown" transform="translate(-2 -3.5)">
    <path id="Path_126970" data-name="Path 126970" d="M13.437,4.273a1.724,1.724,0,0,0-2.875,0l-3.4,5.2L4.565,8A1.7,1.7,0,0,0,2.05,9.857l1.765,7.2a.731.731,0,0,0,.712.553H19.472a.731.731,0,0,0,.712-.553l1.765-7.2A1.7,1.7,0,0,0,19.435,8l-2.6,1.472Zm-1.232.782a.246.246,0,0,0-.411,0L8.018,10.832a.739.739,0,0,1-.981.235l-3.2-1.814a.243.243,0,0,0-.359.265L5.1,16.167H18.9l1.63-6.648a.243.243,0,0,0-.359-.265l-3.2,1.814a.739.739,0,0,1-.981-.235Z" fill="#fff" fill-rule="evenodd"/>
    <path id="Path_126971" data-name="Path 126971" d="M5.16,19.056a.722.722,0,1,0,0,1.444H18.84a.722.722,0,1,0,0-1.444Z" fill="#fff"/>
  </g>
</svg>
