<svg xmlns="http://www.w3.org/2000/svg" xmlns:xlink="http://www.w3.org/1999/xlink" width="362" height="251.041" viewBox="0 0 362 251.041">
  <defs>
    <linearGradient id="linear-gradient" x1="0.976" y1="0.036" x2="0" y2="1" gradientUnits="objectBoundingBox">
      <stop offset="0" stop-color="#edf6ff"/>
      <stop offset="1" stop-color="#dae8f8"/>
    </linearGradient>
  </defs>
  <g id="Group_105926" data-name="Group 105926" transform="translate(-780 -2375.479)">
    <path id="Rectangle_22256" data-name="Rectangle 22256" d="M8,0H354a8,8,0,0,1,8,8V251.041a0,0,0,0,1,0,0H0a0,0,0,0,1,0,0V8A8,8,0,0,1,8,0Z" transform="translate(780 2375.479)" fill="url(#linear-gradient)"/>
    <g id="Group_66640" data-name="Group 66640" transform="translate(-3.771 -267.791)">
      <g id="file-upload" transform="translate(929.132 2733.132)">
        <path id="Path_123487" data-name="Path 123487" d="M65.61,10.068H54.275V2.134A1.134,1.134,0,0,0,53.141,1H19.136A1.134,1.134,0,0,0,18,2.134v7.935H6.668A5.674,5.674,0,0,0,1,15.736V56.542a5.674,5.674,0,0,0,5.668,5.668h21.31L21.688,69.4a1.133,1.133,0,0,0,.849,1.879h27.2a1.133,1.133,0,0,0,.854-1.879L44.3,62.209H65.61a5.674,5.674,0,0,0,5.668-5.668V15.736a5.674,5.674,0,0,0-5.668-5.668ZM54.275,24.8a1.134,1.134,0,0,1,1.134,1.134v13.6a1.134,1.134,0,0,1-1.134,1.134H18a1.134,1.134,0,0,1-1.134-1.134v-13.6A1.134,1.134,0,0,1,18,24.8ZM20.27,42.94H52.008v3.4H20.27ZM18,22.537a3.4,3.4,0,0,0-3.4,3.4v13.6a3.4,3.4,0,0,0,3.4,3.4v4.534a1.134,1.134,0,0,0,1.134,1.134H53.141a1.134,1.134,0,0,0,1.134-1.134V42.94a3.4,3.4,0,0,0,3.4-3.4v-13.6a3.4,3.4,0,0,0-3.4-3.4V16.869h9.068A1.134,1.134,0,0,1,64.476,18V49.741a1.134,1.134,0,0,1-1.134,1.134H8.935A1.134,1.134,0,0,1,7.8,49.741V18a1.134,1.134,0,0,1,1.134-1.134H18ZM52.008,3.267v19.27H20.27V3.267ZM47.247,69.01H25.03l5.951-6.8H41.287ZM69.01,56.542a3.4,3.4,0,0,1-3.4,3.4H6.668a3.4,3.4,0,0,1-3.4-3.4V15.736a3.4,3.4,0,0,1,3.4-3.4H18V14.6H8.935a3.4,3.4,0,0,0-3.4,3.4V49.741a3.4,3.4,0,0,0,3.4,3.4H63.343a3.4,3.4,0,0,0,3.4-3.4V18a3.4,3.4,0,0,0-3.4-3.4H54.275V12.335H65.61a3.4,3.4,0,0,1,3.4,3.4Z" transform="translate(-1 -1)" fill="#212189"/>
        <path id="Path_123488" data-name="Path 123488" d="M31,49h2.267v2.267H31Z" transform="translate(3.005 5.408)" fill="#212189"/>
        <path id="Path_123493" data-name="Path 123493" d="M31.495,8.87V15.2h2.267V8.87l2.6,2.6,1.6-1.6L33.43,5.332a1.134,1.134,0,0,0-1.6,0L27.293,9.866l1.6,1.6Z" transform="translate(2.51 -0.466)" fill="#212189"/>
        <path id="Path_123494" data-name="Path 123494" d="M25.134,18.534H41A1.134,1.134,0,0,0,42.136,17.4V14H39.869v2.267h-13.6V14H24v3.4A1.134,1.134,0,0,0,25.134,18.534Z" transform="translate(2.071 0.736)" fill="#212189"/>
      </g>
      <path id="Path_123495" data-name="Path 123495" d="M1130.081,1934.784a28.47,28.47,0,0,1,.061-2.889,2.2,2.2,0,0,1,3.146-1.7c1.152.562,2.171,1.353,3.259,2.025.432.267.863.539,1.281.827a2.248,2.248,0,0,1,0,3.895c-1.156.778-2.341,1.511-3.516,2.26a9.215,9.215,0,0,1-.969.575,2.208,2.208,0,0,1-3.208-1.728,2.528,2.528,0,0,1-.05-.335C1130.079,1936.814,1130.081,1935.908,1130.081,1934.784Zm2.288,2.979,4.307-2.762-4.307-2.759Z" transform="translate(-168.168 829.427)" fill="#fe4a55"/>
    </g>
  </g>
</svg>
