<svg xmlns="http://www.w3.org/2000/svg" width="61.009" height="61.012" viewBox="0 0 61.009 61.012">
    <g id="Component_173_1" data-name="Component 173 – 1" transform="translate(0.5 0.5)">
      <path id="Path_106781" data-name="Path 106781" d="M921.936,1390.652v-45.361a3.5,3.5,0,0,1,2.461-2.344h55.086a3.365,3.365,0,0,1,2.461,2.461v45.244c-.031.021-.077.034-.089.063a3.09,3.09,0,0,1-3.409,2.253h-5.8q-5.272,0-10.545-.005c-.375,0-.554.015-.32.458.556,1.049,1.085,2.113,1.6,3.184a.573.573,0,0,0,.627.369c1.015-.019,2.031-.021,3.046,0a2.981,2.981,0,0,1,1.5,5.5,9.343,9.343,0,0,1-1.025.483H936.235c-.039-.149-.184-.122-.283-.163a3,3,0,0,1,1.11-5.828c.957-.007,1.914-.009,2.871,0a.5.5,0,0,0,.543-.312c.533-1.1,1.075-2.205,1.645-3.291.205-.392.045-.426-.28-.4-.116.009-.234,0-.351,0q-8.144,0-16.287,0a3.031,3.031,0,0,1-3.138-2.141C922.035,1390.752,922.026,1390.676,921.936,1390.652Zm30.008-5.7q13.681,0,27.363.014c.549,0,.653-.157.652-.672q-.022-18.926-.011-37.853c0-1.213-.274-1.492-1.468-1.492H925.394c-1.174,0-1.461.283-1.461,1.439q0,18.956-.013,37.912c0,.529.125.665.66.664Q938.262,1384.933,951.944,1384.947Zm.026,2H924.721a3.324,3.324,0,0,1-.41,0c-.321-.041-.391.11-.385.4.017.84,0,1.68.01,2.52a1.013,1.013,0,0,0,1.048,1.09c.155.012.312,0,.469,0h52.975c.137,0,.274.005.41,0a1.035,1.035,0,0,0,1.11-1.151c.01-.723-.036-1.448.015-2.167.039-.55-.1-.712-.684-.711Q965.624,1386.968,951.97,1386.95Zm-9.4,9.994h18.74c-.644-1.3-1.267-2.546-1.886-3.8-.1-.2-.276-.182-.452-.181H944.909c-.175,0-.351-.022-.452.181C943.838,1394.4,943.216,1395.648,942.571,1396.944Zm9.369,2.021H937.411c-.176,0-.352-.008-.527.006a.973.973,0,0,0-.935.943.986.986,0,0,0,.847,1.03,3.73,3.73,0,0,0,.585.017H966.5a3.729,3.729,0,0,0,.585-.017.985.985,0,0,0,.848-1.029.972.972,0,0,0-.934-.944c-.175-.015-.351-.006-.527-.006Z" transform="translate(-921.936 -1342.947)" fill="#212189" stroke="#212189" stroke-width="1"/>
      <path id="Path_106782" data-name="Path 106782" d="M982.61,1500.527c.36-.761.666-1.5,1.046-2.194a9.471,9.471,0,0,1,5.16-4.766,13.088,13.088,0,0,0,1.687-.429c.473-.25.485-.96.829-1.411a4.022,4.022,0,0,1,4.662-1.323,3.978,3.978,0,0,1,2.5,4.2,4.024,4.024,0,0,1-3.275,3.446,3.943,3.943,0,0,1-4.305-2.31c-.212-.512-.44-.548-.9-.426a6.908,6.908,0,0,0-4.039,3.09,16.485,16.485,0,0,0-2.358,6.3c-.18,1.012-.463,1.422-1.08,1.426s-.909-.411-1.053-1.42a16.778,16.778,0,0,0-1.849-5.934,6.632,6.632,0,0,0-3.906-3.407,5.91,5.91,0,0,0-6.5,2.194,14.125,14.125,0,0,0-2.487,6.173c-.088.459-.137.926-.208,1.388a1.033,1.033,0,0,1-1.011,1.007,1.063,1.063,0,0,1-1.007-1.087,18.013,18.013,0,0,0-1.22-4.918,10.09,10.09,0,0,0-1.584-2.716,5.918,5.918,0,0,0-9.493.163,14.029,14.029,0,0,0-2.47,6.118c-.1.516-.147,1.043-.233,1.562a1.011,1.011,0,0,1-1.066.875.98.98,0,0,1-.912-1.036c.36-3.646,1.324-7.078,4.019-9.736a7.863,7.863,0,0,1,12.015,1.185,11.155,11.155,0,0,1,1.1,1.789c.293.608.562,1.227.863,1.888.258-.578.482-1.134.747-1.67a9.484,9.484,0,0,1,4.606-4.789,7.9,7.9,0,0,1,9.341,2.35A14.333,14.333,0,0,1,982.61,1500.527Zm11.95-4.407a1.973,1.973,0,0,0,1.963-2.035,2,2,0,0,0-1.986-1.965,2.027,2.027,0,0,0-2.007,2.017A2,2,0,0,0,994.56,1496.12Z" transform="translate(-943.528 -1467.121)" fill="#fe4a55"/>
      <path id="Path_106783" data-name="Path 106783" d="M1081.8,1401.115c0-1.367,0-2.734,0-4.1a2.657,2.657,0,0,1,1.465-2.6,2.562,2.562,0,0,1,2.885.418c1.776,1.338,3.573,2.648,5.359,3.972a2.723,2.723,0,0,1,.007,4.658c-1.816,1.35-3.644,2.683-5.455,4.039a2.5,2.5,0,0,1-2.788.363,2.6,2.6,0,0,1-1.469-2.476C1081.787,1403.966,1081.8,1402.54,1081.8,1401.115Zm2-.035q0,2.109,0,4.218c0,.323.038.626.379.79.317.153.516-.069.73-.226q2.708-2,5.41-4c.675-.5.677-.936.007-1.435q-2.676-1.991-5.362-3.969c-.242-.179-.478-.444-.833-.238-.321.186-.331.5-.331.82Q1083.8,1399.059,1083.8,1401.08Z" transform="translate(-1056.803 -1386.136)" fill="#fe4a55"/>
    </g>
  </svg>
  