<svg xmlns="http://www.w3.org/2000/svg" xmlns:xlink="http://www.w3.org/1999/xlink" width="311" height="125" viewBox="0 0 311 125">
  <defs>
    <filter id="Rectangle_13" x="0" y="0" width="311" height="125" filterUnits="userSpaceOnUse">
      <feOffset dx="5" dy="10" input="SourceAlpha"/>
      <feGaussianBlur stdDeviation="10" result="blur"/>
      <feFlood flood-color="#374ab8" flood-opacity="0.102"/>
      <feComposite operator="in" in2="blur"/>
      <feComposite in="SourceGraphic"/>
    </filter>
  </defs>
  <g id="Group_65198" data-name="Group 65198" transform="translate(23218 13435)">
    <g id="Group_66557" data-name="Group 66557">
      <g transform="matrix(1, 0, 0, 1, -23218, -13435)" filter="url(#Rectangle_13)">
        <rect id="Rectangle_13-2" data-name="Rectangle 13" width="251" height="65" rx="12" transform="translate(25 20)" fill="#fff"/>
      </g>
      <text id="Video_Summary_" data-name="Video Summary " transform="translate(-23122 -13377)" fill="#221f20" font-size="17" font-family="Poppins-Regular, Poppins"><tspan x="0" y="0">Video Summary </tspan></text>
      <g id="Ellipse_46" data-name="Ellipse 46" transform="translate(-23179 -13402.5)" fill="rgba(254,74,85,0.15)" stroke="#fe4a55" stroke-width="1">
        <circle cx="20" cy="20" r="20" stroke="none"/>
        <circle cx="20" cy="20" r="19.5" fill="none"/>
      </g>
      <g id="Group_66556" data-name="Group 66556" transform="translate(-1666.07 9755.656)">
        <path id="Path_106781" data-name="Path 106781" d="M921.936,1360.552v-16.74a1.291,1.291,0,0,1,.908-.865h20.329a1.242,1.242,0,0,1,.908.908v16.7c-.011.007-.028.013-.033.023a1.14,1.14,0,0,1-1.258.831h-2.14q-1.946,0-3.891,0c-.138,0-.2.006-.118.169.205.387.4.78.589,1.175a.212.212,0,0,0,.231.136c.375-.007.749-.008,1.124,0a1.1,1.1,0,0,1,.555,2.031,3.433,3.433,0,0,1-.378.178H927.213c-.014-.055-.068-.045-.1-.06a1.107,1.107,0,0,1,.41-2.151c.353,0,.706,0,1.059,0a.185.185,0,0,0,.2-.115c.2-.408.4-.814.607-1.215.076-.145.016-.157-.1-.148-.043,0-.086,0-.13,0q-3.005,0-6.011,0a1.118,1.118,0,0,1-1.158-.79C921.972,1360.589,921.969,1360.561,921.936,1360.552Zm11.074-2.105q5.049,0,10.1.005c.2,0,.241-.058.241-.248q-.008-6.985,0-13.969c0-.448-.1-.55-.542-.55h-19.59c-.433,0-.539.1-.539.531q0,7,0,13.991c0,.2.046.245.244.245Q927.961,1358.441,933.01,1358.447Zm.01.739H922.964a1.225,1.225,0,0,1-.151,0c-.119-.015-.144.04-.142.149.006.31,0,.62,0,.93a.374.374,0,0,0,.387.4c.057,0,.115,0,.173,0h19.55c.05,0,.1,0,.151,0a.382.382,0,0,0,.41-.425c0-.267-.013-.534.005-.8.014-.2-.036-.263-.252-.262Q938.058,1359.192,933.02,1359.186Zm-3.469,3.688h6.916c-.238-.478-.467-.939-.7-1.4-.037-.074-.1-.067-.167-.067h-5.19c-.065,0-.13-.008-.167.067C930.019,1361.935,929.789,1362.4,929.551,1362.874Zm3.458.746h-5.362c-.065,0-.13,0-.194,0a.359.359,0,0,0-.345.348.364.364,0,0,0,.313.38,1.38,1.38,0,0,0,.216.006h10.745a1.381,1.381,0,0,0,.216-.006.364.364,0,0,0,.313-.38.359.359,0,0,0-.345-.348c-.064-.005-.13,0-.194,0Z" transform="translate(-22425.939 -24492.176)" fill="#fe4a55"/>
        <path id="Path_106782" data-name="Path 106782" d="M960.475,1493.966c.133-.281.246-.553.386-.81a3.5,3.5,0,0,1,1.9-1.759,4.842,4.842,0,0,0,.623-.158c.175-.092.179-.354.306-.521a1.484,1.484,0,0,1,1.72-.488,1.468,1.468,0,0,1,.924,1.55,1.485,1.485,0,0,1-1.208,1.272,1.455,1.455,0,0,1-1.589-.852c-.078-.189-.162-.2-.333-.157a2.55,2.55,0,0,0-1.491,1.14,6.084,6.084,0,0,0-.87,2.326c-.066.374-.171.525-.4.526s-.335-.151-.389-.524a6.194,6.194,0,0,0-.682-2.19,2.448,2.448,0,0,0-1.441-1.257,2.181,2.181,0,0,0-2.4.81,5.214,5.214,0,0,0-.918,2.278c-.032.17-.051.342-.077.513a.381.381,0,0,1-.373.372.392.392,0,0,1-.372-.4,6.648,6.648,0,0,0-.45-1.815,3.722,3.722,0,0,0-.584-1,2.184,2.184,0,0,0-3.5.06,5.176,5.176,0,0,0-.912,2.258c-.037.191-.054.385-.086.577a.373.373,0,0,1-.394.323.362.362,0,0,1-.336-.383,5.559,5.559,0,0,1,1.483-3.593,2.9,2.9,0,0,1,4.434.437,4.116,4.116,0,0,1,.407.66c.108.224.207.453.318.7.1-.214.178-.419.276-.616a3.5,3.5,0,0,1,1.7-1.767,2.914,2.914,0,0,1,3.447.867A5.289,5.289,0,0,1,960.475,1493.966Zm4.41-1.626a.728.728,0,0,0,.724-.751.738.738,0,0,0-.733-.725.748.748,0,0,0-.74.745A.74.74,0,0,0,964.885,1492.34Z" transform="translate(-22450.055 -24630.865)" fill="#fe4a55"/>
        <path id="Path_106783" data-name="Path 106783" d="M1081.795,1396.713c0-.5,0-1.009,0-1.513a.981.981,0,0,1,.541-.958.946.946,0,0,1,1.065.154c.655.494,1.318.977,1.978,1.466a1,1,0,0,1,0,1.719c-.67.5-1.345.99-2.013,1.49a.921.921,0,0,1-1.029.134.958.958,0,0,1-.542-.914C1081.792,1397.765,1081.795,1397.239,1081.795,1396.713Zm.739-.013q0,.778,0,1.557c0,.119.014.231.14.291s.19-.025.269-.083q1-.737,2-1.477c.249-.185.25-.346,0-.53q-.988-.735-1.979-1.464c-.089-.066-.176-.164-.307-.088s-.122.185-.122.3Q1082.534,1395.954,1082.534,1396.7Z" transform="translate(-22576.574 -24540.414)" fill="#fe4a55"/>
      </g>
    </g>
  </g>
</svg>
