<svg xmlns="http://www.w3.org/2000/svg" width="17.674" height="13.464" viewBox="0 0 17.674 13.464">
  <g id="Group_65182" data-name="Group 65182" transform="translate(-370.573 -1400.992)">
    <path id="Path_106410" data-name="Path 106410" d="M370.573,1403.2a.756.756,0,0,0,.092-.3,2.581,2.581,0,0,1,2.481-1.9q6.264-.006,12.528,0a2.575,2.575,0,0,1,2.569,2.569q.009,4.159,0,8.317a2.576,2.576,0,0,1-2.569,2.57q-6.264.008-12.528,0a2.582,2.582,0,0,1-2.514-2.038c-.013-.056,0-.129-.059-.169Zm8.829,10.216h6.142a1.56,1.56,0,0,0,1.665-1.673q0-4.029,0-8.057a1.557,1.557,0,0,0-1.661-1.66H373.265a1.558,1.558,0,0,0-1.656,1.664q0,4.028,0,8.057a1.558,1.558,0,0,0,1.669,1.669Z" fill="#212189"/>
    <path id="Path_106411" data-name="Path 106411" d="M517.2,1482.7c0-.84,0-1.679,0-2.519a.529.529,0,0,1,.856-.469q2.006,1.257,4.014,2.51a.526.526,0,0,1,0,.964q-2,1.252-4,2.5a.544.544,0,0,1-.6.054.553.553,0,0,1-.268-.539C517.2,1484.368,517.2,1483.534,517.2,1482.7Zm1.044,1.652,2.639-1.65-2.639-1.65Z" transform="translate(-139.861 -74.979)" fill="#212189"/>
  </g>
</svg>
