<svg id="visa-color_large" xmlns="http://www.w3.org/2000/svg" width="36" height="24" viewBox="0 0 36 24">
  <rect id="card_bg" width="36" height="24" rx="4" transform="translate(0 0)" fill="#2a2a6c"/>
  <path id="visa-logo" d="M12.76,7.14a5.345,5.345,0,0,1-1.953-.368l.323-1.5a3.764,3.764,0,0,0,1.782.451h.048c.534-.008,1.073-.222,1.073-.682.007-.294-.245-.528-.93-.863S11.535,3.3,11.535,2.295c0-1.351,1.234-2.295,3-2.295a4.81,4.81,0,0,1,1.68.308l-.315,1.5a3.384,3.384,0,0,0-1.44-.324c-.11,0-.221.005-.331.016-.518.069-.75.34-.75.578,0,.291.372.485.842.732.746.391,1.675.877,1.67,2.021l.038-.06c-.007,1.44-1.236,2.37-3.127,2.37Zm4.97-.06H15.84L18.533.653a.815.815,0,0,1,.75-.51h1.5l1.454,6.937H20.573l-.217-1.035H18.1L17.73,7.08Zm1.785-5.063-.945,2.6h1.492Zm-9.99,5.04h-1.8L9.225.12h1.8l-1.5,6.937ZM5.588,7.035H3.63L2.2,1.492A.754.754,0,0,0,1.77.885,7.438,7.438,0,0,0,0,.3L.045.1H3.1A.838.838,0,0,1,3.93.8l.75,4.012L6.547.1H8.5L5.588,7.034Z" transform="translate(6.87 8.423)" fill="#fff"/>
</svg>
