<svg xmlns="http://www.w3.org/2000/svg" width="79" height="53" viewBox="0 0 79 53">
  <g id="visa-color_large" transform="translate(0.5 0.583)">
    <rect id="card_bg" width="78" height="52" rx="4" transform="translate(0 -0.083)" fill="none" stroke="#2a2a6c" stroke-width="1"/>
    <path id="visa-logo" d="M28.027,15.683a11.741,11.741,0,0,1-4.289-.808l.709-3.294a8.268,8.268,0,0,0,3.915.99h.1c1.173-.017,2.356-.487,2.356-1.5.016-.645-.538-1.159-2.043-1.895-1.478-.723-3.443-1.938-3.443-4.135C25.336,2.073,28.045,0,31.925,0a10.566,10.566,0,0,1,3.69.676L34.924,3.97a7.433,7.433,0,0,0-3.163-.712c-.241,0-.486.012-.726.036-1.138.151-1.647.746-1.647,1.269,0,.638.816,1.066,1.849,1.607,1.64.859,3.68,1.927,3.669,4.439l.083-.132c-.016,3.163-2.714,5.205-6.869,5.205Zm10.916-.131H34.792L40.706,1.434A1.79,1.79,0,0,1,42.353.313h3.294l3.195,15.236-3.656,0-.477-2.273H39.75l-.807,2.273Zm3.92-11.121-2.076,5.715h3.278ZM20.921,15.5H16.967L20.263.264h3.953L20.921,15.5Zm-8.648-.05h-4.3L4.827,3.278a1.656,1.656,0,0,0-.94-1.334A16.336,16.336,0,0,0,0,.658L.1.213H6.8A1.842,1.842,0,0,1,8.632,1.763l1.647,8.813L14.381.213h4.283L12.273,15.451Z" transform="translate(14.427 17.939)" fill="#212189"/>
  </g>
</svg>
