<svg xmlns="http://www.w3.org/2000/svg" width="86.087" height="78.697" viewBox="0 0 86.087 78.697">
  <g id="warning" transform="translate(0 -20.882)">
    <g id="Group_106718" data-name="Group 106718" transform="translate(0 20.882)">
      <path id="Path_125191" data-name="Path 125191" d="M222.649,333.382a4.424,4.424,0,1,0,0,8.848,4.425,4.425,0,0,0,0-8.848Z" transform="translate(-179.607 -278.08)" fill="#fe4a55"/>
      <path id="Path_125192" data-name="Path 125192" d="M83.992,91.863a15.107,15.107,0,0,0,.035-15.29L56.315,28.58a15.269,15.269,0,0,0-26.509-.018L2.057,76.609a15.327,15.327,0,0,0,13.272,22.97H70.684A15.24,15.24,0,0,0,83.992,91.863Zm-6.017-3.469a8.363,8.363,0,0,1-7.309,4.229H15.312a8.248,8.248,0,0,1-7.22-4.141,8.374,8.374,0,0,1-.018-8.441L35.822,32.013a8.334,8.334,0,0,1,14.476.018L78.028,80.059A8.263,8.263,0,0,1,77.975,88.394Z" transform="translate(0 -20.882)" fill="#fe4a55"/>
      <path id="Path_125193" data-name="Path 125193" d="M221.14,157.3a4.811,4.811,0,0,0-3.415,4.831c.106,1.4.195,2.814.3,4.212.3,5.327.6,10.547.9,15.874a3.242,3.242,0,0,0,3.309,3.115,3.309,3.309,0,0,0,3.309-3.221c0-1.1,0-2.106.106-3.221.195-3.415.407-6.831.6-10.246.106-2.212.3-4.424.407-6.636a5.465,5.465,0,0,0-.407-2.212A4.435,4.435,0,0,0,221.14,157.3Z" transform="translate(-179.195 -133.057)" fill="#fe4a55"/>
    </g>
  </g>
</svg>
