<svg xmlns="http://www.w3.org/2000/svg" width="32" height="31" viewBox="0 0 32 31">
  <g id="Group_66311" data-name="Group 66311" transform="translate(-153 -1252)">
    <ellipse id="Ellipse_1266" data-name="Ellipse 1266" cx="16" cy="15.5" rx="16" ry="15.5" transform="translate(153 1252)" fill="#212189"/>
    <path id="Path_106199" data-name="Path 106199" d="M765.72,353.954h-1.4a1.424,1.424,0,0,0-.469-.079,8.615,8.615,0,0,1-4.651-2.1,8.77,8.77,0,0,1-2.957-8.485,8.442,8.442,0,0,1,2.707-4.887,8.777,8.777,0,0,1,7.329-2.316,8.556,8.556,0,0,1,4.69,2.138,8.829,8.829,0,0,1,3,5.687.792.792,0,0,0,.064.365v1.438c-.048.013-.033.054-.037.086a10.68,10.68,0,0,1-.172,1.107,8.985,8.985,0,0,1-7.723,6.989A.839.839,0,0,0,765.72,353.954Zm-3.629-16.326a7.6,7.6,0,0,0-2.423,1.534,6.522,6.522,0,0,0-.763.82c.579.172,1.157.283,1.734.4.1.02.114-.043.137-.112a10.519,10.519,0,0,1,.538-1.306,11.115,11.115,0,0,1,.8-1.309c.016-.005.032-.013.018-.031S762.106,337.625,762.091,337.628Zm5.925,0c-.014,0-.037-.013-.041-.008s0,.026.019.032c.127.188.259.373.379.565a9.342,9.342,0,0,1,.964,2.07c.025.077.04.15.162.123.3-.065.6-.108.894-.171.28-.06.558-.134.867-.209-.2-.218-.363-.414-.543-.6A7.656,7.656,0,0,0,768.016,337.628Zm-5.194,6.82c.526,0,1.051,0,1.577,0,.093,0,.131-.015.13-.121q-.007-1.217,0-2.435c0-.091-.023-.117-.115-.12a27.929,27.929,0,0,1-2.794-.2c-.106-.014-.134.021-.157.122a14.784,14.784,0,0,0-.343,2.58c-.006.131.015.178.161.175C761.795,344.442,762.309,344.448,762.823,344.448Zm4.459,0c.52,0,1.04,0,1.561,0,.125,0,.151-.032.146-.155a15.084,15.084,0,0,0-.334-2.566c-.023-.1-.055-.141-.17-.128-.93.1-1.863.161-2.8.175-.127,0-.106.072-.106.145,0,.795,0,1.589,0,2.384,0,.113.027.146.143.145C766.241,344.445,766.761,344.448,767.281,344.448Zm-8.693,0c.45,0,.9,0,1.35,0,.079,0,.129,0,.132-.107a14.668,14.668,0,0,1,.354-2.809c.021-.091,0-.128-.1-.146a15.554,15.554,0,0,1-1.955-.464.117.117,0,0,0-.167.062,7.865,7.865,0,0,0-1.046,3.341c-.009.1.021.125.118.124C757.712,344.446,758.15,344.449,758.588,344.449ZM771.5,345.5h-1.331c-.073,0-.133-.008-.136.1a14.613,14.613,0,0,1-.356,2.772c-.024.105.027.119.1.132a15.539,15.539,0,0,1,2.005.474c.081.025.11.005.148-.061a7.876,7.876,0,0,0,1.02-3.277c.01-.117-.018-.146-.134-.144C772.38,345.506,771.942,345.5,771.5,345.5Zm0-1.053c.438,0,.877,0,1.315,0,.116,0,.144-.027.134-.144a7.866,7.866,0,0,0-1.013-3.264.118.118,0,0,0-.165-.065,16.111,16.111,0,0,1-1.979.444c-.122.02-.121.07-.1.161a14.3,14.3,0,0,1,.343,2.724c0,.113.035.147.151.145C770.625,344.444,771.064,344.448,771.5,344.448Zm-4.2,1.053c-.532,0-1.064,0-1.6,0-.079,0-.126,0-.126.107q.007,1.2,0,2.4c0,.1.034.117.121.118a27.254,27.254,0,0,1,2.779.187c.1.011.138,0,.164-.111a15.008,15.008,0,0,0,.343-2.529c.007-.131-.015-.178-.161-.175C768.316,345.508,767.808,345.5,767.3,345.5Zm-4.472,0c-.52,0-1.041,0-1.561,0-.1,0-.153.007-.146.137a14.82,14.82,0,0,0,.345,2.565c.021.093.054.109.139.1a25.873,25.873,0,0,1,2.78-.177c.112,0,.147-.031.146-.148q-.009-1.166,0-2.332c0-.111-.024-.147-.142-.145C763.868,345.506,763.348,345.5,762.828,345.5Zm-4.218,0c-.432,0-.865.007-1.3,0-.146,0-.167.044-.155.174a7.961,7.961,0,0,0,.963,3.155.162.162,0,0,0,.231.093,15.2,15.2,0,0,1,1.927-.433c.128-.02.165-.057.135-.189a14.046,14.046,0,0,1-.34-2.653c0-.111-.031-.148-.148-.146C759.487,345.506,759.048,345.5,758.61,345.5Zm9.71-4.935a7.69,7.69,0,0,0-1.277-2.4,3.112,3.112,0,0,0-1.345-1c-.083-.029-.121-.032-.121.079q.005,1.683,0,3.366c0,.105.035.123.13.119.4-.02.795-.025,1.191-.05C767.365,340.649,767.83,340.605,768.32,340.566Zm-6.523,8.772a8.284,8.284,0,0,0,.533,1.261,5.235,5.235,0,0,0,1.253,1.645,2.473,2.473,0,0,0,.944.514c0-1.167,0-2.317,0-3.467,0-.132-.062-.117-.149-.116C763.523,349.192,762.667,349.247,761.8,349.338Zm.007-8.8c.876.108,1.745.148,2.615.189.106,0,.11-.042.109-.122,0-.415,0-.83,0-1.245v-2.22a1.869,1.869,0,0,0-.655.294,4.811,4.811,0,0,0-1.554,1.884A7.586,7.586,0,0,0,761.8,340.536Zm3.776,12.225a3.024,3.024,0,0,0,1.471-1.049,7.569,7.569,0,0,0,1.2-2.2c.058-.153.006-.169-.12-.181-.8-.074-1.6-.131-2.4-.155-.134,0-.162.028-.161.159.006,1.093,0,2.186,0,3.279Zm-3.414-.4a.123.123,0,0,0-.039-.119,7.562,7.562,0,0,1-.8-1.274,10.756,10.756,0,0,1-.562-1.354c-.019-.057-.013-.139-.129-.119-.6.1-1.2.222-1.814.39A7.922,7.922,0,0,0,762.167,352.356Zm5.747-.007a7.719,7.719,0,0,0,3.331-2.427c-.576-.168-1.14-.282-1.7-.392-.141-.028-.184.01-.227.137A8.964,8.964,0,0,1,767.914,352.349Z" transform="translate(-596.059 922.522)" fill="#fff"/>
  </g>
</svg>
