<svg xmlns="http://www.w3.org/2000/svg" width="41.021" height="41.021" viewBox="0 0 41.021 41.021">
  <g id="Group_66317" data-name="Group 66317" transform="translate(-549.902 -353.618)">
    <rect id="Rectangle_28960" data-name="Rectangle 28960" width="41.021" height="41.021" rx="4" transform="translate(549.902 353.618)" fill="#212189"/>
    <path id="Subtraction_3" data-name="Subtraction 3" d="M9.4,13.218a56.329,56.329,0,0,1-7.352-.394A2.391,2.391,0,0,1,.394,11.182,24.852,24.852,0,0,1,0,6.626,24.822,24.822,0,0,1,.394,2.1,2.382,2.382,0,0,1,2.052.394,56.329,56.329,0,0,1,9.4,0a61.781,61.781,0,0,1,7.352.359,2.38,2.38,0,0,1,1.658,1.71,24.878,24.878,0,0,1,.394,4.557,24.879,24.879,0,0,1-.394,4.488,2.38,2.38,0,0,1-1.658,1.709A56.329,56.329,0,0,1,9.4,13.218ZM7.481,3.831v5.59L12.4,6.626Z" transform="translate(561.297 367.291)" fill="#fff"/>
  </g>
</svg>
