<svg xmlns="http://www.w3.org/2000/svg" width="44" height="44" viewBox="0 0 44 44">
  <g id="Group_65264" data-name="Group 65264" transform="translate(-349 -6065)">
    <rect id="Rectangle_28550" data-name="Rectangle 28550" width="44" height="44" rx="22" transform="translate(349 6065)" fill="#fff"/>
    <path id="Subtraction_2" data-name="Subtraction 2" d="M10.213,14.355c-.064,0-6.405,0-7.984-.428a2.6,2.6,0,0,1-1.8-1.783A26.99,26.99,0,0,1,0,7.2,26.957,26.957,0,0,1,.428,2.284,2.587,2.587,0,0,1,2.228.428C3.807,0,10.149,0,10.213,0A67.094,67.094,0,0,1,18.2.39,2.585,2.585,0,0,1,20,2.247,27.018,27.018,0,0,1,20.426,7.2,27.019,27.019,0,0,1,20,12.07a2.585,2.585,0,0,1-1.8,1.856C16.618,14.35,10.277,14.355,10.213,14.355ZM8.124,4.16v6.071L13.463,7.2Z" transform="translate(361 6080)" fill="#212189"/>
  </g>
</svg>
