<svg xmlns="http://www.w3.org/2000/svg" width="35.706" height="25" viewBox="0 0 35.706 25"><g transform="translate(0 0)"><path d="M34.971,3.912A4.473,4.473,0,0,0,31.824.765C29.029,0,17.853,0,17.853,0S6.676,0,3.882.736A4.565,4.565,0,0,0,.735,3.912,47.138,47.138,0,0,0,0,12.5s0,5.823.735,8.588a4.474,4.474,0,0,0,3.147,3.147C6.706,25,17.853,25,17.853,25s11.176,0,13.971-.736a4.473,4.473,0,0,0,3.147-3.147,47.14,47.14,0,0,0,.735-8.588s.029-5.824-.736-8.618Zm0,0" fill="red"/><path d="M204.969,113.19l9.294-5.353-9.294-5.353Zm0,0" transform="translate(-190.675 -95.337)" fill="#fff"/></g></svg>