<svg xmlns="http://www.w3.org/2000/svg" width="32" height="31" viewBox="0 0 32 31">
  <g id="Group_66310" data-name="Group 66310" transform="translate(-153 -1509)">
    <ellipse id="Ellipse_1160" data-name="Ellipse 1160" cx="16" cy="15.5" rx="16" ry="15.5" transform="translate(153 1509)" fill="#212189"/>
    <path id="Subtraction_2" data-name="Subtraction 2" d="M8.074,11.59a47.361,47.361,0,0,1-6.312-.346A2.075,2.075,0,0,1,.338,9.8,22.244,22.244,0,0,1,0,5.81,22.217,22.217,0,0,1,.338,1.844,2.069,2.069,0,0,1,1.762.346,47.361,47.361,0,0,1,8.074,0a51.942,51.942,0,0,1,6.312.315,2.068,2.068,0,0,1,1.424,1.5,22.267,22.267,0,0,1,.338,4,22.268,22.268,0,0,1-.338,3.935,2.067,2.067,0,0,1-1.424,1.5A47.361,47.361,0,0,1,8.074,11.59ZM6.423,3.359v4.9l4.22-2.451Z" transform="translate(160.926 1519)" fill="#fff"/>
  </g>
</svg>
