<svg width="30" height="30" viewBox="0 0 30 30" fill="none" xmlns="http://www.w3.org/2000/svg">
<rect width="30" height="30" rx="5" fill="url(#paint0_linear_12_11)"/>
<path d="M18.0189 21.4281L18.0191 19.0177C18.0192 17.6863 16.9399 16.607 15.6085 16.607H10.2106C8.87942 16.607 7.80023 17.686 7.80008 19.0172L7.7998 21.4281M22.1996 21.4282L22.1998 19.0179C22.1999 17.6865 21.1207 16.6071 19.7893 16.6071M17.5546 9.04539C18.1465 9.48462 18.5302 10.1888 18.5302 10.9825C18.5302 11.7763 18.1465 12.4804 17.5546 12.9196M15.3702 10.9824C15.3702 12.3137 14.2909 13.3929 12.9596 13.3929C11.6283 13.3929 10.5491 12.3137 10.5491 10.9824C10.5491 9.65107 11.6283 8.57184 12.9596 8.57184C14.2909 8.57184 15.3702 9.65107 15.3702 10.9824Z" stroke="#F44852" stroke-width="1.5" stroke-linecap="round" stroke-linejoin="round"/>
<defs>
<linearGradient id="paint0_linear_12_11" x1="15" y1="0" x2="15" y2="30" gradientUnits="userSpaceOnUse">
<stop stop-color="#EDF6FF"/>
<stop offset="1" stop-color="#DAE8F8"/>
</linearGradient>
</defs>
</svg>
