<svg width="30" height="30" viewBox="0 0 30 30" fill="none" xmlns="http://www.w3.org/2000/svg">
<rect width="30" height="30" rx="5" fill="url(#paint0_linear_35_241)"/>
<path d="M21.1824 8H13.1271C12.675 8 12.3086 8.36644 12.3086 8.81846V12.5662C12.3086 13.0182 12.675 13.3846 13.1271 13.3846H21.1824C21.6345 13.3846 22.0009 13.0182 22.0009 12.5662V8.81846C22.0009 8.36644 21.6345 8 21.1824 8Z" stroke="#F44852" stroke-linecap="round" stroke-linejoin="round"/>
<path d="M17.1531 11.7693C17.7479 11.7693 18.23 11.2872 18.23 10.6924C18.23 10.0976 17.7479 9.61548 17.1531 9.61548C16.5583 9.61548 16.0762 10.0976 16.0762 10.6924C16.0762 11.2872 16.5583 11.7693 17.1531 11.7693Z" stroke="#F44852" stroke-linecap="round" stroke-linejoin="round"/>
<path d="M8 16.0769H10.1538V22H8V16.0769Z" stroke="#F44852" stroke-linecap="round" stroke-linejoin="round"/>
<path d="M10.1543 21.4614L13.8105 21.8491C14.7531 21.95 15.7064 21.864 16.6158 21.5961L18.2312 21.1222L20.3851 20.4868L21.2951 20.223C21.441 20.1854 21.5756 20.1132 21.6877 20.0124C21.7997 19.9117 21.8858 19.7854 21.9386 19.6443C21.9915 19.5032 22.0095 19.3515 21.9912 19.202C21.9729 19.0524 21.9188 18.9095 21.8335 18.7853C21.7143 18.6192 21.5478 18.4928 21.3557 18.4227C21.1636 18.3526 20.9548 18.342 20.7566 18.3922L17.3428 19.2053C17.0644 19.2673 16.7758 19.2673 16.4974 19.2053L14.8497 18.893C14.6432 18.8568 14.4556 18.7501 14.3191 18.591C14.1826 18.4319 14.1056 18.2303 14.1012 18.0207C14.1124 17.7821 14.2169 17.5576 14.3922 17.3954C14.5675 17.2332 14.7995 17.1464 15.0381 17.1538H15.5389C15.6476 17.1566 15.7557 17.138 15.8571 17.0988C15.9585 17.0597 16.0511 17.0009 16.1297 16.9259C16.2083 16.8508 16.2712 16.7609 16.3149 16.6614C16.3586 16.5619 16.3822 16.4547 16.3843 16.3461C16.3822 16.2374 16.3586 16.1302 16.3149 16.0307C16.2712 15.9312 16.2083 15.8413 16.1297 15.7663C16.0511 15.6912 15.9585 15.6324 15.8571 15.5933C15.7557 15.5542 15.6476 15.5355 15.5389 15.5384H13.9828C13.692 15.5367 13.4028 15.5822 13.1266 15.673L10.1543 16.6153" stroke="#F44852" stroke-linecap="round" stroke-linejoin="round"/>
<defs>
<linearGradient id="paint0_linear_35_241" x1="15" y1="0" x2="15" y2="30" gradientUnits="userSpaceOnUse">
<stop stop-color="#EDF6FF"/>
<stop offset="1" stop-color="#DAE8F8"/>
</linearGradient>
</defs>
</svg>
